<?xml version="1.0" encoding="UTF-8" standalone="no"?>
<svg
   id="estados"
   viewBox="0 0 306.04 276.52"
   version="1.1"
   sodipodi:docname="oax-icono (copia).svg"
   inkscape:version="1.2.2 (1:1.2.2+202212051552+b0a8486541)"
   xmlns:inkscape="http://www.inkscape.org/namespaces/inkscape"
   xmlns:sodipodi="http://sodipodi.sourceforge.net/DTD/sodipodi-0.dtd"
   xmlns="http://www.w3.org/2000/svg"
   xmlns:svg="http://www.w3.org/2000/svg">
  <sodipodi:namedview
     id="namedview42"
     pagecolor="#505050"
     bordercolor="#eeeeee"
     borderopacity="1"
     inkscape:showpageshadow="0"
     inkscape:pageopacity="0"
     inkscape:pagecheckerboard="0"
     inkscape:deskcolor="#505050"
     showgrid="false"
     inkscape:zoom="2.8284271"
     inkscape:cx="206.47518"
     inkscape:cy="145.664"
     inkscape:window-width="1920"
     inkscape:window-height="955"
     inkscape:window-x="0"
     inkscape:window-y="27"
     inkscape:window-maximized="1"
     inkscape:current-layer="oax-icono" />
  <defs
     id="defs4">
    <rect
       x="71.542523"
       y="169.09517"
       width="85.95688"
       height="52.474776"
       id="rect28015" />
    <rect
       x="69.543708"
       y="175.88487"
       width="34.251542"
       height="48.188265"
       id="rect28009" />
    <style
       id="style2">.cls-1,.cls-2{fill:#3bb1e6;}.cls-3{fill:#fff;}.cls-2{stroke-linecap:round;stroke-linejoin:round;stroke-width:1.32px;}.cls-2,.cls-4,.cls-5{stroke:#fff;}.cls-4{stroke-width:1.53px;}.cls-4,.cls-5{fill:none;opacity:.67;stroke-miterlimit:10;}.cls-6{fill:#0a2f3a;opacity:.5;}.cls-5{stroke-width:1.67px;}</style>
  </defs>
  <g
     id="oax-icono">
    <circle
       class="cls-6"
       cx="136.96"
       cy="151.48"
       r="97.03"
       id="circle6"
       style="fill:#e2e2e2;fill-opacity:0.18431373" />
    <circle
       class="cls-5"
       cx="136.96"
       cy="151.48"
       r="104.09"
       id="circle8" />
    <polyline
       class="cls-4"
       points="229.53 104.17 271.63 73.79 306.09 73.79"
       id="polyline10" />
    <polyline
       class="cls-4"
       points="229.02 199.66 271.63 220.23 306.09 220.23"
       id="polyline12" />
    <polyline
       class="cls-4"
       points="240.77 150.49 271.63 150.49 306.09 150.49"
       id="polyline14" />
    <path
       id="MEX2723"
       class="cls-2"
       d="M214.57,133.31c.41,1.34,.02,3.1,.1,4.47l-.78-.19-.39,.58c-.06,1.19,.13,2.62-.1,3.79-1.12,.92-3.09,1.5-3.98,2.62-.27,.95,.06,2.07,.19,3.01,.42,2.49-1.97,4.21-2.82,6.31,1.01,3.77,4.55,7.78,1.26,11.46-.78-.49-1.3-1.41-1.36-2.33,0,0-3.95,.57-5.44-.49-1.04-.62-2-2.5-3.4-1.75-.03,.47,.16,1.09,0,1.55l7.18,3.88c.44,.1,2.34,.51,2.72,.68l-.68,1.36c-2.24-.67-7.79-3.7-9.9-4.17-1.6-.09-4.18,.27-5.63-.48l-.88-.62c-.71-.02-.76-.46-1.43-.75,0,0-.93-.53-.12-1.59l1.59-1.98c-.48-.71-2.36-.18-2.7-.2-.15,.3-1.25,1.54-1.03,1.16-.12-.29-1.33-2.56-2.04-3.11-2.13-.68,.19,4.47,.19,4.47l.19,.49c-.85,.54-2.21,.83-3.2,.87,1.18,.6,3.6-.13,4.76,.49l.29,.97c-3.77-1.46-7.86,.94-11.75,.29,0,0-.03,.56,0,.68-.19,.16-1.46,.29-1.46,.29l-1.46,.29-.1,.49c-.27,.06-.98,.87-1.07,.97l-.68,.29c-.93,0-1.78,.7-2.23,1.46l.19,.68c-.48,.26-1.06,.81-1.65,.87v.49l-2.04,.29-2.43,.58-.29,.39-.97,.49c-1.5,.93-3.67,.32-5.05,1.46,0,0-3.75,1.5-5.53,1.75l-.29,.39c-1.29,.28-2.53,1.06-3.69,1.55-.09,.13-.33,.27-.49,.29l-.68,.19,.1,.49c-.75,.32-2.82,1.19-3.4,1.75-1.84-.16-4.22,.04-6.02-.49l-.39,.49c-1.03,.52-2.01,1-3.2,.58l-.19,.19c-2.54-1.18-5.98-2.4-8.83-2.43-1.63-1.45-4.62-1.78-6.21-3.01l.1-.1-.49-.87-.49,.1c-2.38-1.69-5.34-2.62-8.25-2.82-1.46,.7-4.22-.22-5.63-.78-1.1,.43-2.83-.39-3.98-.29-.16,.12-.51,.38-.68,.49-3.04-.24-5.65-2.13-7.96-3.98-1.91-1.44-5.29-2.34-6.99-3.88,.61,.18,1.46,0,1.46,0-.28-.2-.92-.38-1.26-.39-.04-.21-.39-.39-.39-.39-.21,.06-.38,.32-.58,.39-3.34-1.12-7.79-1.62-10.97-3.11,2.12-2.68,6.67-.25,7.38-4.76-.19-.48-.67-1.43-.97-1.84v-.68c.64-1.57,2.25-.49,3.4-.97,.85-1.22,.27-2.74-.19-3.98,1.06-.52,2.27,.34,3.3-.49,.73-.43,1.37-1.24,1.84-1.94,.14-1.23,.62-2.68,.39-3.88,.72-1.17,1.64-2.27,1.84-3.69-.91-2.34-3.01-4.45-4.56-6.41-.73-.31-1.69,.02-2.43-.29-.52-.59-.84-1.64-1.36-2.23-.32-.13-1.33-.51-1.55-.78-.42-.78,.12-1.73,.19-2.52-.08-.18-.3-.78-.49-.87,.79-1.32-.21-2.52-1.26-3.3-.06-.4-.28-.96-.1-1.36,.11-.11,.37-.37,.49-.49,.02-.11-.03-.3-.1-.39-.17,0-.58-.56-.68-.68-.15-2.85,1.4-5.61,1.75-8.25l-.58-.58c.32-.2,.93-.68,1.16-.97,.6,.28,1.47,.46,2.14,.29,1.26-.79,1.37-2.74,2.43-3.59,2.36-.14,4.96,.33,7.28-.39,1.2,.86,.27,2.95,1.55,3.88,1.78-.03,3.25-1.49,4.27-2.82,.34-2.06-2.08-2.65-2.62-4.27,.89-1.95,1.99-4.05,3.3-5.73l.39,.1c.94-.22,1.89-1.29,2.82-1.55,.23,2.05-1.31,4.06-1.07,6.12,.85,1.05,2.45,1.31,3.2,2.43,.07,1.31,.7,2.67,1.75,3.49,2.25,1.04,2.48-2.99,3.79-4.08,1.23-1.21,3.39-2.28,5.14-2.04,1.86,.66,3.87,1.89,5.92,1.65,1.46-.96,1.91-3.01,3.49-3.88,3.16-.75,3.62-2.42,4.66-5.34,1.04-1.08,2.55-2.56,2.91-4.08-.03-1.39-.8-2.9-.97-4.27,1.18,1.15,2.65,2.43,4.27,2.91,1.38,.36,3.58,.3,3.79,2.14,.39,1.78,.87,4.1,2.43,5.24,1.88,.83,2.54,2.85,2.82,4.76l.29,.29h.1l.39,.29c.31-.11,.77-.15,1.07,0l.1,.19c-.07,.14-.12,.43-.1,.58,.4,.51,1.23,.78,1.84,.58,.26-.2,.52-.77,.78-.97,.9,.03,1.82,.32,2.72,.39,1.3-.65,2.52,.9,3.88,.78,.22,.15,.71,.41,.97,.49,.78,1.18,1.18,2.84,1.84,4.08-.49,2.71-3.43,4.24-4.08,6.8-.15,1.37,1.01,2.74,1.46,3.98,.8,1.5,1.92,4.91,3.98,5.05,1.24-.15,2.43-1.37,3.69-.39,.24,0,.63-.43,.78-.58,.23,0,.56,.01,.78-.1-.01-1.06,1.66-1.5,2.52-1.75,.68-1.35,2.04-1.85,3.49-1.65v-.39l.19-.19c1.28,.13,1.9-.91,2.43-1.84,.35,.05,.79,.27,1.07,.49l.19-.19-.29-.49,.19-.19c.24,.03,.73-.12,.97-.1l.29,.29c.22,.74-.25,1.66-.19,2.43-1.07,.21-1.51,1.02-1.55,2.04,1.61,2.21,3.85,4.11,5.53,6.21,1.29,.29,3.01,.92,2.91,2.52-.04,.07-.22,.16-.29,.19l-.1,.19,.58,2.04c10.47,2.29,22.86,1.57,33.69,2.72h0Z"
       style="fill:#fea142;fill-opacity:1" />
    <text
       xml:space="preserve"
       style="font-style:normal;font-weight:normal;font-size:40px;line-height:1.25;font-family:sans-serif;fill:#000000;fill-opacity:1;stroke:none"
       x="91.6968"
       y="209.69975"
       id="text27914"><tspan
         sodipodi:role="line"
         id="tspan27912"></tspan></text>
    <text
       xml:space="preserve"
       id="text28007"
       style="fill:black;fill-opacity:1;line-height:1.25;stroke:none;font-family:sans-serif;font-style:normal;font-weight:normal;font-size:40px;white-space:pre;shape-inside:url(#rect28009)" />
    <text
       xml:space="preserve"
       id="text28013"
       style="font-style:normal;font-weight:normal;font-size:42.66666667px;line-height:1.25;font-family:sans-serif;white-space:pre;shape-inside:url(#rect28015);fill:#000000;fill-opacity:1;stroke:none" />
    <text
       xml:space="preserve"
       style="font-style:normal;font-weight:normal;font-size:33.2962px;line-height:1.25;font-family:sans-serif;fill:#fea142;fill-opacity:1;stroke:none;stroke-width:0.832405"
       x="71.424828"
       y="199.11131"
       id="text28021"
       transform="matrix(0.91228958,0.00955282,-0.00795115,1.0960599,0,0)"><tspan
         sodipodi:role="line"
         id="tspan28019"
         x="71.424828"
         y="199.11131"
         style="font-style:normal;font-variant:normal;font-weight:bold;font-stretch:normal;font-family:sans-serif;-inkscape-font-specification:'sans-serif Bold';fill:#fea142;fill-opacity:1;stroke-width:0.832405">OAXACA</tspan></text>
  </g>
</svg>
