<?xml version="1.0" encoding="utf-8"?>
<!-- Generator: Adobe Illustrator 25.0.0, SVG Export Plug-In . SVG Version: 6.00 Build 0)  -->
<svg version="1.1" id="textos" xmlns="http://www.w3.org/2000/svg" xmlns:xlink="http://www.w3.org/1999/xlink" x="0px" y="0px"
	 viewBox="0 0 220 218" style="enable-background:new 0 0 220 218;" xml:space="preserve">
<style type="text/css">
	.st0{fill:none;stroke:#A9D68F;stroke-width:0.87;stroke-miterlimit:10;}
	.st1{fill:#A9D68F;}
	.st2{fill:none;}
	.st3{font-family:'MyriadPro-Regular';}
	.st4{font-size:13px;}
</style>
<rect x="10.3" y="7.5" class="st0" width="198.8" height="196.3"/>
<g id="ico_s4">
	<g>
		<path class="st1" d="M92.4,130.6c-15.9-6.5-26.1-21.8-26.1-39c0-5,0.9-9.8,2.6-14.5l4.1,1.5c-1.5,4.1-2.3,8.5-2.3,13
			c0,15.4,9.2,29.1,23.4,34.9C94.1,126.5,92.4,130.6,92.4,130.6z"/>
		<path class="st1" d="M134.8,64.5c-7.1-6.9-16.4-10.7-26.3-10.7c-4,0-7.9,0.6-11.7,1.8l-1.4-4.2c4.2-1.4,8.6-2,13-2
			c11.1,0,21.5,4.2,29.4,12L134.8,64.5L134.8,64.5z"/>
	</g>
	<g>
		<g>
			<g>
				<path class="st1" d="M117.9,60.8c-11.3,0-20.5,10.3-20.5,23c0,4.7,1.2,8.9,3.3,12.6l-14,15.8c-1.9,2.2-1.9,5.7,0,7.8
					c0.9,1.1,2.2,1.6,3.5,1.6s2.6-0.6,3.5-1.6l11.8-13.8c0.5-0.6,0.5-1.5,0-2.1s-1.3-0.6-1.8,0l-11.8,13.8c-0.9,1-2.3,1-3.2,0
					c-0.9-1-0.9-2.6,0-3.7l13.8-15.5c3.7,4.9,9.3,8.1,15.5,8.1c11.3,0,20.5-10.3,20.5-23C138.4,71.1,129.2,60.8,117.9,60.8
					L117.9,60.8z M117.9,104.1c-10,0-18.1-9.1-18.1-20.4s8.1-20.4,18.1-20.4s18.1,9.1,18.1,20.4C136,95,127.9,104.1,117.9,104.1z"/>
				<path class="st1" d="M120.8,79.3l-5.1,5.7l-1.6-1.7c-0.4-0.5-1.2-0.5-1.7,0c-0.4,0.5-0.4,1.3,0,1.9l2.4,2.7
					c0.2,0.3,0.6,0.4,0.8,0.4s0.6-0.1,0.8-0.4l5.9-6.7c0.4-0.5,0.4-1.3,0-1.9C122,78.8,121.2,78.8,120.8,79.3z"/>
			</g>
			<path class="st1" d="M117.9,100c-8,0-14.5-7.3-14.5-16.3s6.5-16.3,14.5-16.3s14.5,7.3,14.5,16.3S125.9,100,117.9,100z
				 M117.9,71.3c-6.1,0-11,5.6-11,12.4s4.9,12.4,11,12.4s11-5.6,11-12.4S124,71.3,117.9,71.3z"/>
		</g>
		<g>
			<path class="st1" d="M55.2,67.7l3.4-4.1c1.8,1.5,4.1,2.5,6.1,2.5c2.2,0,3.3-0.8,3.3-2.2c0-1.4-1.4-1.9-3.5-2.8l-3.2-1.3
				c-2.6-1-5.1-3.2-5.1-6.8c0-4.2,3.8-7.5,9.1-7.5c2.9,0,5.9,1.1,8.1,3.3l-3,3.8c-1.7-1.2-3.2-1.9-5.1-1.9c-1.8,0-3,0.7-3,2.1
				s1.6,1.9,3.8,2.8l3.1,1.2c3.1,1.2,4.9,3.3,4.9,6.8c0,4.2-3.5,7.8-9.5,7.8C61.2,71.3,57.8,70.1,55.2,67.7L55.2,67.7z"/>
			<path class="st1" d="M94.9,64.5h-2.8v6.2h-5.6v-6.2H76.1v-4.1l8.7-14.6h7.3V60h2.8L94.9,64.5L94.9,64.5z M86.5,60v-3.7
				c0-1.6,0.2-4,0.2-5.5h-0.1c-0.6,1.4-1.3,2.8-2,4.3L81.8,60L86.5,60L86.5,60z"/>
		</g>
		<path class="st1" d="M148.9,94.2l-1.4-0.1c0.1-0.9,0.1-1.9,0.1-2.8c0-10.8-4.3-20.9-12.1-28.4l1-1C144.5,69.5,149,80,149,91.2
			C149,92.2,148.9,93.2,148.9,94.2z"/>
		<path class="st1" d="M92.4,130.6c-15.9-6.5-26.1-21.8-26.1-39c0-5,0.9-9.8,2.6-14.5l4.1,1.5c-1.5,4.1-2.3,8.5-2.3,13
			c0,15.4,9.2,29.1,23.4,34.9C94.1,126.5,92.4,130.6,92.4,130.6z"/>
		<path class="st1" d="M134.8,64.5c-7.1-6.9-16.4-10.7-26.3-10.7c-4,0-7.9,0.6-11.7,1.8l-1.4-4.2c4.2-1.4,8.6-2,13-2
			c11.1,0,21.5,4.2,29.4,12L134.8,64.5L134.8,64.5z"/>
	</g>
</g>
<rect x="21.5" y="142.3" class="st2" width="168.8" height="21.1"/>
<text transform="matrix(1 0 0 1 40.4752 151.564)" class="st1 st3 st4">Sistema de Sancionados</text>
</svg>
