<?xml version="1.0" encoding="utf-8"?>
<!-- Generator: Adobe Illustrator 25.0.0, SVG Export Plug-In . SVG Version: 6.00 Build 0)  -->
<svg version="1.1" id="Capa_1" xmlns="http://www.w3.org/2000/svg" xmlns:xlink="http://www.w3.org/1999/xlink" x="0px" y="0px"
	 viewBox="0 0 221 218" style="enable-background:new 0 0 221 218;" xml:space="preserve">
<style type="text/css">
	.st0{fill:none;stroke:#FEB142;stroke-miterlimit:10;}
	.st1{fill:none;}
	.st2{fill:#FEB142;}
	.st3{font-family:'Myriad-Web';}
	.st4{font-size:12px;}
	.st5{fill:none;stroke:#FEB142;stroke-width:3;stroke-miterlimit:10;}
	.st6{fill:none;stroke:#FEB142;stroke-width:2;stroke-miterlimit:10;}
	.st7{fill:#FEB142;stroke:#FEB142;stroke-miterlimit:10;}
	.st8{enable-background:new    ;}
</style>
<g id="a">
</g>
<g id="b">
</g>
<g id="c">
</g>
<g id="d">
</g>
<g id="e">
</g>
<g id="f">
	<rect x="10.8" y="7.2" class="st0" width="198.8" height="196.3"/>
</g>
<g id="j">
</g>
<g id="k">
</g>
<g id="l">
</g>
<g id="m">
</g>
<g id="n">
</g>
<g id="o">
</g>
<g id="p">
</g>
<g id="q">
</g>
<g id="r">
</g>
<g id="s">
</g>
<g id="t">
</g>
<g id="u">
</g>
<g id="v">
</g>
<rect x="40.4" y="150.3" class="st1" width="139.5" height="13.3"/>
<rect x="41" y="151.5" class="st1" width="139" height="17.7"/>
<text transform="matrix(1 0 0 1 40.9781 160.0059)" class="st2 st3 st4">Sistema de Seguimiento</text>
<path class="st2" d="M60.4,66.8l3.3-3.9c1.6,1.5,3.6,2.3,5.7,2.4c2.1,0,3.1-0.8,3.1-2s-1.3-1.8-3.3-2.7L66,59.3
	c-2.5-1-4.8-3.1-4.8-6.5c0.1-4.1,3.6-7.2,8.6-7.2c2.8,0,5.6,1.1,7.7,3.1l-2.8,3.6c-1.4-1.2-3.1-1.8-4.9-1.8c-1.7,0-2.8,0.7-2.8,2
	c0,1.2,1.5,1.8,3.6,2.6l3,1.2c2.9,1.2,4.6,3.1,4.6,6.5c0,3.9-3.3,7.4-9,7.4C66,70.2,62.8,69,60.4,66.8z"/>
<path class="st2" d="M108.1,127.7c-2.5-0.4-5-1.2-7.4-2.1l0.4-1c-17.8-7.3-26.6-27.4-20-45.4l-3.9-1.5c-7.3,20.1,2.5,42.5,22.3,50.6
	l0.7-1.6c4.6,1.9,9.5,2.8,14.5,2.8v-1.3C112.4,128.3,110.2,128.1,108.1,127.7z"/>
<path class="st2" d="M142.8,59.6l0.9-0.9c-10.6-10.4-26.1-14-40.2-9.4l1.3,4c12.6-4.1,26.5-0.9,36,8.4l1.1-1.2
	c4.5,4.4,7.8,10,9.6,16.1l1.3-0.4C151,70,147.6,64.2,142.8,59.6z"/>
<path class="st5" d="M109.5,70.7h31.6c1.7,0,3,1.3,3,3v45.5c0,1.7-1.3,3-3,3h-31.6c-1.7,0-3-1.3-3-3V73.6
	C106.5,72,107.8,70.7,109.5,70.7z"/>
<line class="st5" x1="118.4" y1="80.3" x2="138.3" y2="80.3"/>
<rect x="110.9" y="76.1" class="st0" width="4.9" height="4.9"/>
<rect x="110.9" y="84" class="st0" width="4.9" height="4.9"/>
<rect x="110.9" y="92.6" class="st0" width="4.9" height="4.9"/>
<line class="st5" x1="118.4" y1="88.2" x2="138.3" y2="88.2"/>
<line class="st5" x1="118.4" y1="96.7" x2="138.3" y2="96.7"/>
<rect x="110.9" y="100.8" class="st0" width="4.9" height="4.9"/>
<line class="st5" x1="118.4" y1="104.9" x2="138.3" y2="104.9"/>
<rect x="110.9" y="109.1" class="st0" width="4.9" height="4.9"/>
<line class="st5" x1="118.4" y1="113.1" x2="138.3" y2="113.1"/>
<polyline class="st6" points="110.9,77.6 112.9,80.3 117.5,74.4 "/>
<polyline class="st6" points="110.9,85.5 112.9,88.2 117.5,82.4 "/>
<polyline class="st6" points="110.9,94.2 112.9,97 117.5,91.1 "/>
<rect x="117.5" y="69.3" class="st7" width="17.4" height="2.8"/>
<g>
	<g class="st8">
		<path class="st2" d="M81.4,63.8c0-1.4,0.4-2.6,1.1-3.8c0.7-1.1,1.8-2,3.3-2.5c-1.1-0.7-2-1.5-2.6-2.4c-0.6-0.9-0.9-2-0.9-3.2
			c0-1.9,0.7-3.4,2.2-4.6c1.5-1.2,3.3-1.9,5.6-1.9c2.3,0,4.1,0.6,5.7,1.8c1.5,1.2,2.2,2.8,2.2,4.6c0,1.2-0.4,2.3-1,3.2
			c-0.7,0.9-1.5,1.7-2.7,2.4c1.5,0.6,2.5,1.5,3.3,2.5c0.7,1.2,1.1,2.4,1.1,3.8c0,2.1-0.8,3.9-2.4,5.2c-1.6,1.3-3.6,2-6.2,2
			c-2.5,0-4.6-0.7-6.2-2C82.2,67.5,81.4,65.9,81.4,63.8z M86.4,63.3c0,1.2,0.4,2,1,2.7c0.7,0.7,1.6,1,2.8,1c1.1,0,2-0.4,2.7-1
			c0.7-0.7,1.1-1.6,1.1-2.7c0-1-0.4-1.9-1-2.6c-0.7-0.7-1.6-1.1-2.7-1.1s-2,0.4-2.7,1.1C86.7,61.4,86.4,62.2,86.4,63.3z M87.1,52.3
			c0,0.9,0.3,1.7,0.9,2.4s1.3,0.9,2.2,0.9c0.8,0,1.5-0.3,2.2-0.9c0.7-0.6,0.9-1.4,0.9-2.4c0-0.9-0.3-1.7-0.9-2.3
			c-0.6-0.6-1.3-0.9-2.2-0.9S88.6,49.4,88,50C87.4,50.5,87.1,51.3,87.1,52.3z"/>
	</g>
</g>
</svg>
