<?xml version="1.0" encoding="UTF-8" standalone="no"?>
<svg
   id="SvgjsSvg1274"
   x="0"
   y="0"
   version="1.1"
   viewBox="0 0 288 288"
   xml:space="preserve"
   style="enable-background:new 0 0 288 288"
   sodipodi:docname="7_icono.svg"
   inkscape:version="1.2.2 (1:1.2.2+202212051552+b0a8486541)"
   xmlns:inkscape="http://www.inkscape.org/namespaces/inkscape"
   xmlns:sodipodi="http://sodipodi.sourceforge.net/DTD/sodipodi-0.dtd"
   xmlns="http://www.w3.org/2000/svg"
   xmlns:svg="http://www.w3.org/2000/svg"><defs
     id="defs92" /><sodipodi:namedview
     id="namedview90"
     pagecolor="#ffffff"
     bordercolor="#666666"
     borderopacity="1.0"
     inkscape:showpageshadow="2"
     inkscape:pageopacity="0.0"
     inkscape:pagecheckerboard="0"
     inkscape:deskcolor="#d1d1d1"
     showgrid="false"
     inkscape:zoom="2.7395833"
     inkscape:cx="144"
     inkscape:cy="143.81749"
     inkscape:window-width="1920"
     inkscape:window-height="955"
     inkscape:window-x="0"
     inkscape:window-y="27"
     inkscape:window-maximized="1"
     inkscape:current-layer="SvgjsSvg1274" /><style
     type="text/css"
     id="style2">.st0{fill:#f5f5f5}.st1{fill:#4bb5b1}.st2{fill:#40514e}.st3{fill:none}.st4{font-family:'Arial-BoldMT'}.st5{font-size:72px}</style><g
     id="SvgjsG1276"><rect
       width="44.599998"
       height="2.2"
       x="134.44119"
       y="136.67131"
       class="st1"
       id="rect6" /><rect
       width="44.599998"
       height="2.2"
       x="134.44119"
       y="130.17131"
       class="st1"
       id="rect8" /><rect
       width="29.700001"
       height="2.2"
       x="134.44119"
       y="143.27132"
       class="st1"
       id="rect10" /><rect
       width="29.700001"
       height="2.2"
       x="134.44119"
       y="123.47131"
       class="st1"
       id="rect12" /><rect
       width="11.1"
       height="2.2"
       x="167.94119"
       y="143.27132"
       class="st1"
       id="rect14" /><rect
       width="11.1"
       height="2.2"
       x="167.94119"
       y="110.07131"
       class="st1"
       id="rect16" /><rect
       width="44.599998"
       height="2.2"
       x="134.44119"
       y="149.67131"
       class="st1"
       id="rect18" /><rect
       width="44.599998"
       height="2.2"
       x="134.44119"
       y="162.77132"
       class="st1"
       id="rect20" /><rect
       width="27.9"
       height="2.2"
       x="151.14119"
       y="156.17131"
       class="st1"
       id="rect22" /><rect
       width="13"
       height="2.2"
       x="134.44119"
       y="156.17131"
       class="st1"
       id="rect24" /><rect
       width="7.5"
       height="2.2"
       x="134.44119"
       y="169.27132"
       class="st1"
       id="rect26" /><rect
       width="33.5"
       height="2.2"
       x="145.64119"
       y="169.27132"
       class="st1"
       id="rect28" /><path
       d="m 194.51147,86.336452 h -54.9 c -5.1,0 -9.3,4.2 -9.3,9.299998 v 1.8 c -5.1,2.4 -8.8,7.6 -8.8,13.6 v 58.3 c 0,8.2 6.8,15.1 15.1,15.1 h 43.2 c 6.4,0 11.9,-4.1 14,-9.7 h 0.5 c 5.1,0 9.3,-4.2 9.3,-9.3 v -69.8 c 0.2,-5.199998 -4,-9.299998 -9.1,-9.299998 z m -14.5,94.099998 h -43.2 c -6.2,0 -11.1,-5 -11.1,-11.1 v -58.3 c 0,-6.2 5,-11.1 11.1,-11.1 h 43.2 c 6.2,0 11.1,5 11.1,11.1 v 58.3 c 0,6.1 -5.1,11.1 -11.1,11.1 z m 19.9,-15.1 c 0,2.7 -2.1,5.1 -4.8,5.4 v -1.3 -58.4 -5.8 c 0,-5.1 -4.2,-9.3 -9.3,-9.3 h -5.8 -43.2 -2.4 v -0.5 c 0,-2.999998 2.4,-5.399998 5.4,-5.399998 h 54.9 c 2.9,0 5.4,2.4 5.4,5.399998 v 69.9 z"
       class="st2"
       id="path30" /><g
       id="g34"
       transform="translate(-15.358803,-5.2286901)"><path
         d="m 181,232.8 c -1,0 -2,-0.8 -2,-1.8 0,-1 0.8,-2 1.8,-2.1 4.3,-0.3 8.5,-0.8 12.7,-1.7 1,-0.3 2.1,0.5 2.4,1.6 0.3,1 -0.5,2.1 -1.6,2.4 -4.2,0.8 -8.7,1.3 -13.3,1.6 z m -10.4,0 h -0.1 c -4.5,-0.3 -8.9,-0.9 -13.2,-2 -1,-0.3 -1.7,-1.3 -1.4,-2.4 0.3,-1 1.3,-1.7 2.4,-1.4 4.2,0.9 8.4,1.6 12.7,1.8 1,0.1 2,1 1.8,2.1 -0.4,0.9 -1.3,1.9 -2.2,1.9 z m 33.5,-4.5 c -0.8,0 -1.6,-0.5 -1.8,-1.3 -0.4,-1 0.3,-2.1 1.2,-2.5 4.1,-1.3 8,-3 11.8,-5 0.9,-0.5 2.1,-0.1 2.6,0.8 0.5,0.9 0.1,2.1 -0.8,2.6 -3.9,2.1 -8.1,3.8 -12.3,5.2 -0.3,0.2 -0.5,0.2 -0.7,0.2 z m -56.6,-0.4 c -0.3,0 -0.4,0 -0.7,-0.1 -4.2,-1.4 -8.4,-3.3 -12.3,-5.4 -0.9,-0.5 -1.3,-1.7 -0.8,-2.6 0.5,-0.9 1.7,-1.3 2.6,-0.8 3.8,2 7.7,3.8 11.7,5.2 1,0.4 1.6,1.4 1.2,2.5 -0.1,0.7 -0.9,1.2 -1.7,1.2 z m 77.7,-10.1 c -0.7,0 -1.2,-0.3 -1.6,-0.9 -0.7,-0.9 -0.4,-2.1 0.5,-2.7 3.5,-2.4 6.8,-5.1 9.9,-8 0.8,-0.8 2.1,-0.7 2.7,0.1 0.6,0.8 0.7,2.1 -0.1,2.7 -3.3,3 -6.8,5.9 -10.5,8.4 -0.2,0.3 -0.5,0.4 -0.9,0.4 z m -98.6,-0.6 c -0.4,0 -0.8,-0.1 -1.2,-0.4 -3.7,-2.6 -7.1,-5.5 -10.3,-8.5 -0.8,-0.8 -0.8,-2 0,-2.7 0.8,-0.7 2,-0.8 2.7,0 3,3 6.4,5.8 9.8,8.1 0.9,0.7 1,1.8 0.5,2.7 -0.3,0.4 -0.9,0.8 -1.5,0.8 z m 116,-15.2 c -0.4,0 -0.9,-0.1 -1.3,-0.5 -0.8,-0.7 -0.9,-2 -0.3,-2.7 2.7,-3.3 5.2,-6.8 7.5,-10.3 0.5,-0.9 1.8,-1.2 2.7,-0.7 0.9,0.5 1.2,1.8 0.7,2.7 -2.4,3.8 -5,7.5 -7.9,10.9 -0.4,0.3 -0.9,0.6 -1.4,0.6 z m -133.2,-0.9 c -0.5,0 -1.2,-0.3 -1.6,-0.8 -2.9,-3.4 -5.4,-7.2 -7.7,-11 -0.5,-0.9 -0.3,-2.1 0.7,-2.7 0.9,-0.5 2.1,-0.3 2.7,0.7 2.2,3.7 4.6,7.2 7.3,10.5 0.7,0.8 0.5,2.1 -0.3,2.7 -0.3,0.4 -0.7,0.6 -1.1,0.6 z m 145.7,-19 c -0.3,0 -0.5,0 -0.8,-0.1 -1,-0.4 -1.4,-1.6 -0.9,-2.6 1.7,-3.9 3.3,-8 4.3,-12 0.3,-1 1.3,-1.7 2.4,-1.3 1,0.3 1.7,1.3 1.3,2.4 -1.2,4.3 -2.7,8.5 -4.6,12.6 -0.2,0.6 -1,1 -1.7,1 z M 97.1,181 c -0.8,0 -1.4,-0.4 -1.8,-1.2 -1.8,-4.1 -3.3,-8.4 -4.5,-12.7 -0.3,-1 0.4,-2.1 1.4,-2.4 1,-0.3 2.1,0.4 2.4,1.4 1,4.1 2.5,8.1 4.2,12 0.4,1 0,2.1 -1,2.6 -0.1,0.2 -0.4,0.3 -0.7,0.3 z m 164.7,-21.4 c -0.1,0 -0.3,0 -0.3,0 -1,-0.1 -1.8,-1.2 -1.7,-2.2 0.7,-4.2 0.9,-8.5 0.9,-12.8 v -0.3 c 0,-1 0.9,-2 2,-2 1.1,0 2,0.9 2,2 v 0.3 c 0,4.5 -0.4,8.9 -1,13.4 -0.2,0.8 -1,1.6 -1.9,1.6 z M 90.7,158.4 c -0.9,0 -1.8,-0.7 -2,-1.7 -0.5,-4.1 -0.8,-8.1 -0.8,-12.2 0,-0.4 0,-0.8 0,-1.2 0,-1 0.9,-2 2,-2 v 0 c 1,0 2,0.9 2,2 0,0.4 0,0.8 0,1.2 0,3.9 0.3,7.7 0.8,11.7 0.1,1 -0.7,2.1 -1.7,2.2 0,0 -0.1,0 -0.3,0 z m 171.4,-22.6 c -0.9,0 -1.8,-0.8 -2,-1.7 -0.5,-4.2 -1.3,-8.5 -2.5,-12.6 -0.3,-1 0.3,-2.1 1.3,-2.5 1,-0.3 2.1,0.3 2.5,1.3 1.2,4.3 2.1,8.6 2.6,13.1 0.1,1 -0.7,2.1 -1.7,2.2 -0.1,0.2 -0.1,0.2 -0.2,0.2 z m -171.4,-1 c -0.1,0 -0.1,0 -0.3,0 -1,-0.1 -1.8,-1.2 -1.7,-2.2 0.7,-4.5 1.6,-8.8 2.7,-13.1 0.3,-1 1.4,-1.6 2.5,-1.3 1,0.3 1.6,1.4 1.3,2.5 -1.2,4.1 -2.1,8.2 -2.6,12.6 0,0.9 -0.8,1.5 -1.9,1.5 z m 165.4,-21.7 c -0.8,0 -1.4,-0.4 -1.8,-1.2 -1.7,-3.9 -3.7,-7.7 -5.9,-11.4 -0.5,-0.9 -0.3,-2.1 0.7,-2.7 0.9,-0.5 2.1,-0.3 2.7,0.7 2.4,3.8 4.3,7.9 6.2,11.9 0.4,1 0,2.1 -1,2.6 -0.4,0 -0.7,0.1 -0.9,0.1 z M 97,112.2 c -0.3,0 -0.5,0 -0.8,-0.1 -1,-0.4 -1.4,-1.6 -1,-2.6 1.8,-4.1 3.9,-8.1 6.3,-11.9 0.5,-0.9 1.8,-1.2 2.7,-0.7 0.9,0.5 1.2,1.8 0.7,2.7 -2.2,3.7 -4.3,7.5 -6,11.4 -0.3,0.7 -1.1,1.2 -1.9,1.2 z M 244.1,92.8 c -0.5,0 -1.2,-0.3 -1.6,-0.8 -2.6,-3.3 -5.6,-6.5 -8.6,-9.4 -0.8,-0.8 -0.8,-2 -0.1,-2.7 0.8,-0.8 2,-0.8 2.7,-0.1 3.3,3 6.3,6.3 9,9.8 0.7,0.8 0.5,2.1 -0.3,2.7 -0.3,0.4 -0.7,0.5 -1.1,0.5 z M 109.3,92 c -0.4,0 -0.9,-0.1 -1.2,-0.4 -0.8,-0.7 -0.9,-2 -0.3,-2.7 2.7,-3.4 5.9,-6.7 9.2,-9.7 0.8,-0.8 2.1,-0.7 2.7,0.1 0.8,0.8 0.7,2.1 -0.1,2.7 -3.1,2.9 -6.2,6 -8.8,9.3 -0.4,0.5 -1,0.7 -1.5,0.7 z M 227.1,76.6 c -0.4,0 -0.8,-0.1 -1.2,-0.4 -3.4,-2.5 -7.1,-4.7 -10.9,-6.7 -0.9,-0.5 -1.3,-1.7 -0.8,-2.6 0.5,-0.9 1.7,-1.3 2.6,-0.8 3.9,2.1 7.9,4.5 11.4,7.1 0.9,0.7 1,1.8 0.4,2.7 -0.3,0.4 -0.8,0.7 -1.5,0.7 z M 126.5,75.9 c -0.7,0 -1.2,-0.3 -1.6,-0.8 -0.7,-0.9 -0.4,-2.1 0.5,-2.7 3.7,-2.6 7.5,-4.8 11.5,-6.9 0.9,-0.5 2.1,-0.1 2.6,0.9 0.5,0.9 0.1,2.1 -0.9,2.6 -3.8,2 -7.5,4.2 -11,6.5 -0.4,0.3 -0.7,0.4 -1.1,0.4 z m 79.8,-10.4 c -0.3,0 -0.4,0 -0.7,-0.1 -3.9,-1.4 -8.1,-2.6 -12.3,-3.5 -1,-0.3 -1.7,-1.3 -1.6,-2.4 0.3,-1 1.3,-1.7 2.4,-1.6 4.3,0.9 8.8,2.1 12.8,3.7 1,0.4 1.6,1.6 1.2,2.5 -0.2,0.8 -0.9,1.4 -1.8,1.4 z m -59,-0.4 c -0.8,0 -1.6,-0.5 -1.8,-1.3 -0.4,-1 0.1,-2.1 1.2,-2.5 4.2,-1.4 8.5,-2.7 13,-3.5 1,-0.3 2.1,0.5 2.4,1.6 0.3,1.1 -0.5,2.1 -1.6,2.4 -4.2,0.8 -8.4,2 -12.3,3.4 -0.5,-0.1 -0.7,-0.1 -0.9,-0.1 z m 36.1,-4.8 h -0.1 C 181.1,60.2 178.7,60 176.5,60 v 0 c -2,0 -3.9,0.1 -5.9,0.3 -1,0.1 -2,-0.8 -2.1,-1.8 -0.1,-1 0.8,-2 1.8,-2.1 2.1,-0.1 4.2,-0.3 6.2,-0.3 2.4,0 4.8,0.1 7.2,0.3 1,0.1 1.8,1 1.8,2.1 -0.3,1.1 -1,1.8 -2.1,1.8 z"
         class="st1"
         id="path32" /></g><g
       id="g42"
       transform="translate(-13.943352,-2.0365227)"><path
         d="m 175.4,38.1 c -9.4,0 -17.1,7.7 -17.1,17.1 0,9.4 7.7,17.1 17.1,17.1 9.4,0 17.1,-7.7 17.1,-17.1 0,-9.4 -7.5,-17.1 -17.1,-17.1 z m 0,31.2 c -7.7,0 -14,-6.3 -14,-14 0,-7.7 6.3,-14 14,-14 7.7,0 14,6.3 14,14 0,7.7 -6.3,14 -14,14 z"
         class="st0"
         id="path36" /><path
         d="m 175.4,69.3 c -7.7,0 -14,-6.3 -14,-14 0,-7.7 6.3,-14 14,-14 7.7,0 14,6.3 14,14 0,7.7 -6.3,14 -14,14 z"
         class="st2"
         id="path38" /><path
         d="m 178.3,51.4 c -0.8,-0.8 -1.6,-1 -2.5,-1 -1,0 -1.6,0.4 -1.6,1.3 0,2 5.9,1.8 5.9,6.2 0,2.2 -1.2,3.9 -3.5,4.5 v 2.4 h -2.4 v -2.2 c -1.3,-0.1 -2.9,-0.8 -4.1,-1.7 l 1.6,-2.4 c 1.2,0.9 2.1,1.3 3.1,1.3 1.2,0 1.7,-0.5 1.7,-1.4 0,-2.1 -5.9,-2.2 -5.9,-6.3 0,-2.2 1.3,-3.8 3.4,-4.2 v -2.4 h 2.4 v 2.4 c 1.4,0.3 2.5,0.9 3.4,1.8 z"
         class="st0"
         id="path40" /></g><g
       id="g50"
       transform="translate(-15.358803,-5.2286901)"><path
         d="m 175.4,214.7 c -9.4,0 -17.1,7.7 -17.1,17.1 0,9.4 7.7,17.1 17.1,17.1 9.4,0 17.1,-7.7 17.1,-17.1 0.1,-9.4 -7.5,-17.1 -17.1,-17.1 z m 0,31.1 c -7.7,0 -14,-6.3 -14,-14 0,-7.7 6.3,-14 14,-14 7.7,0 14,6.3 14,14 0,7.8 -6.3,14 -14,14 z"
         class="st0"
         id="path44" /><path
         d="m 175.4,245.8 c -7.7,0 -14,-6.3 -14,-14 0,-7.7 6.3,-14 14,-14 7.7,0 14,6.3 14,14 0,7.8 -6.3,14 -14,14 z"
         class="st2"
         id="path46" /><path
         d="m 178.3,228 c -0.8,-0.8 -1.6,-1 -2.5,-1 -1,0 -1.6,0.4 -1.6,1.3 0,2 5.9,1.8 5.9,6.2 0,2.2 -1.2,3.9 -3.5,4.5 v 2.4 h -2.4 V 239 c -1.3,-0.1 -2.9,-0.8 -4.1,-1.7 l 1.6,-2.4 c 1.2,0.9 2.1,1.3 3.1,1.3 1.2,0 1.7,-0.5 1.7,-1.4 0,-2.1 -5.9,-2.2 -5.9,-6.3 0,-2.2 1.3,-3.8 3.4,-4.2 V 222 h 2.4 v 2.4 c 1.4,0.3 2.5,0.9 3.4,1.8 z"
         class="st0"
         id="path48" /></g><g
       id="g58"
       transform="translate(-15.358803,-5.2286901)"><path
         d="m 249.4,83.3 c -9.4,0 -17.1,7.7 -17.1,17.1 0,9.4 7.7,17.1 17.1,17.1 9.4,0 17.1,-7.7 17.1,-17.1 0,-9.4 -7.7,-17.1 -17.1,-17.1 z m 0,31.1 c -7.7,0 -14,-6.3 -14,-14 0,-7.7 6.3,-14 14,-14 7.7,0 14,6.3 14,14 0,7.7 -6.3,14 -14,14 z"
         class="st0"
         id="path52" /><path
         d="m 249.4,114.4 c -7.7,0 -14,-6.3 -14,-14 0,-7.7 6.3,-14 14,-14 7.7,0 14,6.3 14,14 0,7.7 -6.3,14 -14,14 z"
         class="st2"
         id="path54" /><path
         d="m 252.3,96.6 c -0.8,-0.8 -1.6,-1 -2.5,-1 -1,0 -1.6,0.4 -1.6,1.3 0,2 5.9,1.8 5.9,6.2 0,2.2 -1.2,3.9 -3.5,4.5 v 2.4 h -2.4 v -2.2 c -1.3,-0.1 -2.9,-0.8 -4.1,-1.7 l 1.6,-2.4 c 1.2,0.9 2.1,1.3 3.1,1.3 1.2,0 1.7,-0.5 1.7,-1.4 0,-2.1 -5.9,-2.2 -5.9,-6.3 0,-2.2 1.3,-3.8 3.4,-4.2 v -2.4 h 2.4 v 2.4 c 1.4,0.3 2.5,0.9 3.4,1.8 z"
         class="st0"
         id="path56" /></g><g
       id="g66"
       transform="translate(-15.358803,-5.2286901)"><path
         d="m 104.3,83.3 c -9.4,0 -17.1,7.7 -17.1,17.1 0,9.4 7.7,17.1 17.1,17.1 9.4,0 17.1,-7.7 17.1,-17.1 0,-9.4 -7.6,-17.1 -17.1,-17.1 z m 0,31.1 c -7.7,0 -14,-6.3 -14,-14 0,-7.7 6.3,-14 14,-14 7.7,0 14,6.3 14,14 0,7.7 -6.2,14 -14,14 z"
         class="st0"
         id="path60" /><path
         d="m 104.3,114.4 c -7.7,0 -14,-6.3 -14,-14 0,-7.7 6.3,-14 14,-14 7.7,0 14,6.3 14,14 0,7.7 -6.2,14 -14,14 z"
         class="st2"
         id="path62" /><path
         d="m 107.1,96.6 c -0.8,-0.7 -1.4,-1 -2.4,-1 -1,0 -1.6,0.4 -1.6,1.3 0,2 5.9,1.8 5.9,6.2 0,2.2 -1.2,3.9 -3.5,4.5 v 2.4 h -2.4 v -2.2 c -1.3,-0.1 -2.9,-0.8 -4.1,-1.7 l 1.7,-2.5 c 1.2,0.9 2.1,1.3 3.1,1.3 1.2,0 1.7,-0.5 1.7,-1.4 0,-2.1 -5.9,-2.2 -5.9,-6.3 0,-2.2 1.3,-3.8 3.4,-4.2 v -2.4 h 2.4 V 93 c 1.4,0.3 2.5,0.9 3.4,1.8 z"
         class="st0"
         id="path64" /></g><g
       id="g74"
       transform="translate(-15.358803,-5.2286901)"><path
         d="m 247.3,179 c -9.4,0 -17.1,7.7 -17.1,17.1 0,9.4 7.7,17.1 17.1,17.1 9.4,0 17.1,-7.7 17.1,-17.1 0,-9.6 -7.6,-17.1 -17.1,-17.1 z m 0,31.1 c -7.7,0 -14,-6.3 -14,-14 0,-7.7 6.3,-14 14,-14 7.7,0 14,6.3 14,14 0.1,7.7 -6.2,14 -14,14 z"
         class="st0"
         id="path68" /><path
         d="m 247.3,210.1 c -7.7,0 -14,-6.3 -14,-14 0,-7.7 6.3,-14 14,-14 7.7,0 14,6.3 14,14 0.1,7.7 -6.2,14 -14,14 z"
         class="st2"
         id="path70" /><path
         d="m 250.2,192.2 c -0.8,-0.8 -1.6,-1 -2.5,-1 -1,0 -1.6,0.4 -1.6,1.3 0,2 5.9,1.8 5.9,6.2 0,2.2 -1.2,3.9 -3.5,4.3 v 2.4 h -2.4 V 203 c -1.3,-0.1 -2.9,-0.8 -4.1,-1.7 l 1.6,-2.4 c 1.2,0.9 2.1,1.3 3.1,1.3 1.2,0 1.7,-0.5 1.7,-1.4 0,-2.1 -5.9,-2.2 -5.9,-6.3 0,-2.2 1.3,-3.8 3.4,-4.2 V 186 h 2.4 v 2.4 c 1.4,0.3 2.5,0.9 3.4,1.8 z"
         class="st0"
         id="path72" /></g><g
       id="g82"
       transform="translate(-15.358803,-5.2286901)"><path
         d="m 102.5,179 c -9.4,0 -17.1,7.7 -17.1,17.1 0,9.4 7.7,17.1 17.1,17.1 9.4,0 17.1,-7.7 17.1,-17.1 0.1,-9.6 -7.7,-17.1 -17.1,-17.1 z m 0,31.1 c -7.7,0 -14,-6.3 -14,-14 0,-7.7 6.3,-14 14,-14 7.7,0 14,6.3 14,14 0,7.7 -6.3,14 -14,14 z"
         class="st0"
         id="path76" /><path
         d="m 102.5,210.1 c -7.7,0 -14,-6.3 -14,-14 0,-7.7 6.3,-14 14,-14 7.7,0 14,6.3 14,14 0,7.7 -6.3,14 -14,14 z"
         class="st2"
         id="path78" /><path
         d="m 105.3,192.2 c -0.8,-0.8 -1.6,-1 -2.5,-1 -1,0 -1.6,0.4 -1.6,1.3 0,2 5.9,1.8 5.9,6.2 0,2.2 -1.2,3.9 -3.5,4.3 v 2.4 h -2.4 V 203 c -1.3,-0.1 -2.9,-0.8 -4.1,-1.7 l 1.6,-2.4 c 1.2,0.9 2.1,1.3 3.1,1.3 1.2,0 1.7,-0.5 1.7,-1.4 0,-2.1 -5.9,-2.2 -5.9,-6.3 0,-2.2 1.3,-3.8 3.4,-4.2 V 186 h 2.4 v 2.4 c 1.4,0.3 2.5,0.9 3.4,1.8 z"
         class="st0"
         id="path80" /></g><rect
       width="73"
       height="104"
       x="14.141197"
       y="117.27131"
       class="st3"
       id="rect84" /><text
       class="st2 st4 st5"
       id="text86"
       x="14.142997"
       y="168.82431">7</text></g></svg>
