<?xml version="1.0" encoding="utf-8"?>
<!-- Generator: Adobe Illustrator 25.0.0, SVG Export Plug-In . SVG Version: 6.00 Build 0)  -->
<svg version="1.1" id="textos" xmlns="http://www.w3.org/2000/svg" xmlns:xlink="http://www.w3.org/1999/xlink" x="0px" y="0px"
	 viewBox="0 0 220 218" style="enable-background:new 0 0 220 218;" xml:space="preserve">
<style type="text/css">
	.st0{fill:none;stroke:#65DCCA;stroke-width:0.87;stroke-miterlimit:10;}
	.st1{fill:#65DCCA;}
	.st2{fill:none;}
	.st3{font-family:'MyriadPro-Regular';}
	.st4{font-size:14px;}
</style>
<rect x="10.4" y="7.5" class="st0" width="198.8" height="196.3"/>
<g id="ico_s5">
	<g>
		<path class="st1" d="M56.4,69.3l3.4-4.1c1.8,1.5,4.1,2.6,6.1,2.6c2.2,0,3.3-0.8,3.3-2.2c0-1.4-1.4-1.9-3.5-2.8l-3.2-1.3
			c-2.6-1-5.1-3.2-5.1-6.8c0-4.2,3.8-7.5,9.1-7.5c2.9,0,5.9,1.1,8.1,3.3l-3,3.8c-1.7-1.2-3.2-1.9-5.1-1.9c-1.8,0-3,0.7-3,2.1
			s1.6,1.9,3.8,2.8l3.1,1.2c3.1,1.2,4.9,3.3,4.9,6.9c0,4.2-3.5,7.8-9.5,7.8C62.4,72.9,58.9,71.7,56.4,69.3L56.4,69.3z"/>
		<path class="st1" d="M77.4,69.4l2.7-3.8c1.4,1.3,3.2,2.4,5.1,2.4c2.4,0,3.9-1.3,3.9-3.9s-1.5-3.9-3.7-3.9c-1.4,0-2.1,0.3-3.5,1.2
			l-2.6-1.7L80,47.4h14v5h-8.9l-0.4,4.2c0.9-0.4,1.6-0.5,2.6-0.5c4.2,0,7.8,2.5,7.8,7.9s-4.2,8.9-9,8.9
			C82.1,72.9,79.3,71.4,77.4,69.4L77.4,69.4z"/>
	</g>
	<path class="st1" d="M138.3,64.5c-7.1-6.9-16.4-10.7-26.3-10.7c-4,0-7.9,0.6-11.7,1.8l-1.4-4.2c4.2-1.4,8.6-2,13-2
		c11.1,0,21.5,4.2,29.4,12L138.3,64.5L138.3,64.5z"/>
	<path class="st1" d="M95.9,130.6c-15.9-6.5-26.1-21.8-26.1-39c0-5,0.9-9.8,2.6-14.5l4.1,1.5c-1.5,4.1-2.3,8.5-2.3,13
		c0,15.4,9.2,29.1,23.4,34.9C97.6,126.5,95.9,130.6,95.9,130.6z"/>
	<path class="st1" d="M141.5,117.5l-1.1-0.9c8-9.1,11.4-21.1,9.2-33c-1.4-7.7-5.1-14.8-10.5-20.4l1-1c5.7,5.8,9.4,13.1,10.9,21.1
		C153.3,95.6,149.8,108.1,141.5,117.5L141.5,117.5z"/>
	<g>
		<path class="st1" d="M102.3,90.5h0.8v5.2c0,0.7,0.4,1.3,1,1.6c0.6,0.2,1.3,0.1,1.7-0.4l0-0.1l4.6-6.4h19.8c1.7,0,3.1-1.6,3.1-3.5
			V69.6c0-1.9-1.4-3.5-3.1-3.5h-27.9c-1.7,0-3.1,1.6-3.1,3.5V87C99.2,88.9,100.6,90.5,102.3,90.5z M100.8,69.6c0-1,0.7-1.7,1.5-1.7
			h27.9c0.9,0,1.5,0.8,1.5,1.7V87c0,1-0.7,1.7-1.5,1.7H110c-0.1,0-0.2,0.1-0.3,0.1c0,0.1-0.1,0.1-0.1,0.1c0,0.1-0.1,0.1-0.1,0.1
			l0,0.1l-4.8,6.6v-6.1c0-0.5-0.3-0.9-0.8-0.9h-1.5c-0.9,0-1.5-0.8-1.5-1.7L100.8,69.6L100.8,69.6L100.8,69.6z"/>
		<path class="st1" d="M122.9,114.7c2.5-1.8,4.2-5,4.2-8.7c0-5.7-4.1-10.3-9.2-10.3s-9.2,4.6-9.2,10.3c0,3.6,1.6,6.7,4.1,8.6
			c-6.1,0.7-10.9,6.6-10.9,13.7c0,0.3,0,0.6,0,0.9l0.1,1.4h31.1l0.1-1.4c0-0.3,0-0.6,0-0.9C133.2,121.4,128.7,115.7,122.9,114.7
			L122.9,114.7z M111.3,106c0-4.1,2.9-7.4,6.6-7.4s6.6,3.3,6.6,7.4s-2.9,7.4-6.6,7.4S111.3,110,111.3,106z M104.5,127.6
			c0.3-5.7,4.5-10.2,9.6-10.2h6.9c5.1,0,9.3,4.5,9.6,10.2H104.5L104.5,127.6z"/>
	</g>
</g>
<rect x="33.6" y="144.1" class="st2" width="145.5" height="20.3"/>
<text transform="matrix(1 0 0 1 37.549 153.9952)" class="st1 st3 st4">Sistema de Información</text>
</svg>
