<?xml version="1.0" encoding="utf-8"?>
<!-- Generator: Adobe Illustrator 25.0.0, SVG Export Plug-In . SVG Version: 6.00 Build 0)  -->
<svg version="1.1" id="Capa_1" xmlns="http://www.w3.org/2000/svg" xmlns:xlink="http://www.w3.org/1999/xlink" x="0px" y="0px"
	 viewBox="0 0 221 218" style="enable-background:new 0 0 221 218;" xml:space="preserve">
<style type="text/css">
	.st0{fill:none;stroke:#CFAAA6;stroke-miterlimit:10;}
	.st1{fill:none;}
	.st2{fill:#CFAAA6;}
	.st3{font-family:'Myriad-Web';}
	.st4{font-size:12px;}
	.st5{fill:none;stroke:#CFAAA6;stroke-width:3;stroke-miterlimit:10;}
	.st6{fill:#CFAAA6;stroke:#CFAAA6;stroke-miterlimit:10;}
</style>
<g id="a">
</g>
<g id="b">
</g>
<g id="c">
</g>
<g id="d">
</g>
<g id="e">
</g>
<g id="f">
	<rect x="10.8" y="7.2" class="st0" width="198.8" height="196.3"/>
</g>
<g id="j">
</g>
<g id="k">
</g>
<g id="l">
</g>
<g id="m">
</g>
<g id="n">
</g>
<g id="o">
</g>
<g id="p">
</g>
<g id="q">
</g>
<g id="r">
</g>
<g id="s">
</g>
<g id="t">
</g>
<g id="u">
</g>
<g id="v">
</g>
<rect x="40.4" y="150.3" class="st1" width="139.5" height="13.3"/>
<rect x="41" y="151.5" class="st1" width="139" height="17.7"/>
<text transform="matrix(1 0 0 1 40.9781 160.0059)" class="st2 st3 st4">Indicadores de Evaluación</text>
<g>
	<path class="st2" d="M60.6,67.5l3.3-3.9c1.6,1.5,3.7,2.3,5.8,2.4c2.1,0,3.1-0.8,3.1-2s-1.3-1.8-3.4-2.7L66.3,60
		c-2.5-1-4.8-3.1-4.8-6.5c0.1-4.1,3.7-7.2,8.7-7.2c2.8,0,5.6,1.1,7.7,3.1L75.1,53c-1.4-1.2-3.1-1.8-4.9-1.8c-1.8,0-2.8,0.7-2.8,2
		c0,1.2,1.5,1.8,3.7,2.6l3,1.2c2.9,1.2,4.7,3.1,4.7,6.5c0,3.9-3.4,7.4-9.1,7.4C66.2,70.9,63.1,69.7,60.6,67.5z"/>
	<path class="st2" d="M108.6,128.7c-2.6-0.4-5-1.2-7.4-2.1l0.4-1C83.7,118.2,74.9,98,81.5,79.9l-3.9-1.5
		c-7.4,20.2,2.5,42.7,22.4,50.9l0.7-1.6c4.6,1.9,9.6,2.8,14.5,2.8v-1.3C112.9,129.2,110.7,129,108.6,128.7z"/>
	<path class="st2" d="M143.5,60.3l0.9-0.9c-10.7-10.4-26.2-14.1-40.4-9.5l1.3,4c12.7-4.2,26.6-0.9,36.2,8.4l1.1-1.2
		c4.5,4.5,7.9,10.1,9.6,16.2l1.3-0.4C151.7,70.7,148.2,64.9,143.5,60.3z"/>
	<g>
		<g>
			<path class="st2" d="M82.1,68.4l2.9-3.3c0.8,0.9,2.3,1.7,3.7,1.7c2.8,0,5-2.1,5-8.4c0-5.9-1.8-7.7-3.9-7.7c-1.6,0-3,1.2-3,3.8
				c0,2.5,1.3,3.4,3.1,3.4c1.2,0,2.6-0.7,3.7-2.6l0.2,3.6c-1.2,1.8-3.4,2.8-5,2.8c-4.1,0-7.1-2.3-7.1-7.4c0-5,3.6-8,7.9-8
				c4.6,0,9,3.4,9,11.8c0,8.9-4.6,12.8-9.6,12.8C85.9,71.2,83.6,69.9,82.1,68.4z"/>
		</g>
	</g>
	<path class="st5" d="M104.5,101.9h6.2c0.4,0,0.8,0.4,0.8,0.8v12.8c0,0.4-0.4,0.8-0.8,0.8h-6.2c-0.4,0-0.8-0.4-0.8-0.8v-12.8
		C103.6,102.2,104,101.9,104.5,101.9z"/>
	<path class="st5" d="M114.9,94.8h6.3c0.4,0,0.8,0.4,0.8,0.8v20c0,0.4-0.4,0.8-0.8,0.8h-6.3c-0.4,0-0.8-0.4-0.8-0.8V95.5
		C114.1,95.1,114.5,94.8,114.9,94.8z"/>
	<path class="st5" d="M126,99.5h6.3c0.4,0,0.8,0.4,0.8,0.8v15.2c0,0.4-0.4,0.8-0.8,0.8H126c-0.4,0-0.8-0.4-0.8-0.8v-15.1
		C125.1,99.9,125.5,99.5,126,99.5z"/>
	<path class="st5" d="M138.2,84.2h6.3c0.4,0,0.8,0.4,0.8,0.8v30.6c0,0.4-0.4,0.8-0.8,0.8h-6.3c-0.4,0-0.8-0.4-0.8-0.8V85
		C137.4,84.6,137.7,84.2,138.2,84.2z"/>
	<polyline class="st5" points="107.6,97.4 118.1,86 129,95.9 141.3,75.1 	"/>
	<polygon class="st6" points="140.3,74.8 141.8,74.2 142.2,75.9 	"/>
	<polyline class="st5" points="98.1,84.2 98.1,116.3 148.9,116.3 	"/>
</g>
</svg>
