<?xml version="1.0" encoding="utf-8"?>
<!-- Generator: Adobe Illustrator 25.0.0, SVG Export Plug-In . SVG Version: 6.00 Build 0)  -->
<svg version="1.1" id="Capa_1" xmlns="http://www.w3.org/2000/svg" xmlns:xlink="http://www.w3.org/1999/xlink" x="0px" y="0px"
	 viewBox="0 0 221 218" style="enable-background:new 0 0 221 218;" xml:space="preserve">
<style type="text/css">
	.st0{fill:none;stroke:#B8AEF9;stroke-width:0.87;stroke-miterlimit:10;}
	.st1{fill:#B8AEF9;}
	.st2{fill:none;}
	.st3{font-family:'Myriad-Web';}
	.st4{font-size:14px;}
	.st5{font-family:'ArialMT';}
</style>
<g id="a">
</g>
<g id="b">
</g>
<g id="c">
</g>
<g id="d">
</g>
<g id="e">
</g>
<g id="f">
	<rect x="11.2" y="7.5" class="st0" width="198.8" height="196.3"/>
	<g id="i">
		<g>
			<path class="st1" d="M131.6,111.2V87.8c0-8.6-6.2-15.7-14-15.7h-3.1c-7.7,0-14,7-14,15.7v23.7c-2.7,1.8-4.4,5.3-4.4,9.2
				c0,0.9,0.1,1.7,0.2,2.6l0.2,0.8H136l0.2-0.8c0.2-0.8,0.2-1.7,0.2-2.6C136.5,116.6,134.5,113,131.6,111.2L131.6,111.2z M104.6,110
				c-0.7,0-1.3,0.1-2,0.2V87.7c0-7.4,5.3-13.5,12-13.5h3.1c6.6,0,12,6,12,13.5v22.4c-0.5-0.1-1-0.2-1.6-0.2L104.6,110L104.6,110z
				 M134.4,121.9H98.2c-0.1-0.4-0.1-0.8-0.1-1.2c0-4.7,3.2-8.5,7.1-8.5h22.2c3.9,0,7.1,3.8,7.1,8.5
				C134.5,121.1,134.5,121.5,134.4,121.9L134.4,121.9z"/>
			<path class="st1" d="M115.8,102.3c-1.2,0-2.1-1-2.1-2.4s0.8-2.4,2.1-2.4s2.1,0.9,2.1,2.4C117.8,101.3,117,102.3,115.8,102.3
				L115.8,102.3z M114.5,96.3L114,84.6h3.6l-0.5,11.7L114.5,96.3L114.5,96.3z"/>
			<path class="st1" d="M96.8,90.9h-5c-0.7,0-1.2-0.6-1.2-1.4s0.6-1.4,1.2-1.4h5c0.7,0,1.2,0.6,1.2,1.4S97.5,90.9,96.8,90.9z"/>
			<path class="st1" d="M140.8,90.9h-5c-0.7,0-1.2-0.6-1.2-1.4s0.6-1.4,1.2-1.4h5c0.7,0,1.2,0.6,1.2,1.4S141.5,90.9,140.8,90.9z"/>
			<path class="st1" d="M116.2,68.4c-0.7,0-1.2-0.6-1.2-1.4v-5.6c0-0.8,0.6-1.4,1.2-1.4s1.2,0.6,1.2,1.4V67
				C117.4,67.8,116.9,68.4,116.2,68.4z"/>
			<path class="st1" d="M131,74c-0.3,0-0.6-0.1-0.9-0.4c-0.5-0.6-0.5-1.5,0-2l3.5-3.9c0.5-0.6,1.3-0.6,1.8,0s0.5,1.5,0,2l-3.5,3.9
				C131.6,73.9,131.3,74,131,74z"/>
			<path class="st1" d="M100.9,74c-0.3,0-0.7-0.1-0.9-0.4l-3.5-3.9c-0.5-0.6-0.5-1.5,0-2s1.3-0.6,1.8,0l3.5,3.9c0.5,0.6,0.5,1.5,0,2
				C101.6,73.9,101.2,74,100.9,74z"/>
		</g>
		<g>
			<path class="st1" d="M49.2,60l3.4-4.1c1.8,1.5,4.1,2.5,6.1,2.5c2.2,0,3.3-0.8,3.3-2.2s-1.4-1.9-3.5-2.8l-3.2-1.3
				c-2.6-1-5.1-3.2-5.1-6.8c0-4.2,3.8-7.5,9.1-7.5c2.9,0,5.9,1.1,8.1,3.3l-3,3.8c-1.7-1.2-3.2-1.9-5.1-1.9c-1.8,0-3,0.7-3,2.1
				s1.6,1.9,3.8,2.8l3.1,1.2c3.1,1.2,4.9,3.3,4.9,6.8c0,4.2-3.5,7.8-9.5,7.8C55.2,63.6,51.7,62.4,49.2,60L49.2,60z"/>
			<path class="st1" d="M70.1,60.1l2.8-3.8c1.5,1.4,3.3,2.4,5.2,2.4c2.3,0,3.8-1,3.8-2.8c0-2.2-1.1-3.4-6.4-3.4v-4.2
				c4.3,0,5.6-1.3,5.6-3.3c0-1.7-1-2.7-2.8-2.7c-1.7,0-2.9,0.8-4.5,2.1l-3-3.7c2.3-2,4.8-3.1,7.8-3.1c5.2,0,8.6,2.4,8.6,6.9
				c0,2.5-1.3,4.4-4,5.5v0.2C86,51,88,53,88,56.3c0,4.7-4.3,7.3-9.2,7.3C74.7,63.6,71.9,62.3,70.1,60.1L70.1,60.1z"/>
		</g>
		<path class="st1" d="M132.7,52.7c-7.1-6.9-16.4-10.7-26.3-10.7c-4,0-7.9,0.6-11.7,1.8l-1.4-4.2c4.2-1.4,8.6-2,13-2
			c11.1,0,21.5,4.2,29.4,12L132.7,52.7L132.7,52.7z"/>
		<path class="st1" d="M90.3,118.8c-15.9-6.5-26.1-21.8-26.1-39c0-5,0.9-9.8,2.6-14.5l4.1,1.5c-1.5,4.1-2.3,8.5-2.3,13
			c0,15.4,9.2,29.1,23.4,34.9L90.3,118.8L90.3,118.8z"/>
		<path class="st1" d="M147.5,80h-1.4c0-1.1-0.1-2.3-0.1-3.4c-1-11.8-7.3-22.5-17.2-29.2l0.8-1.2c10.3,6.9,16.7,18,17.8,30.2
			C147.5,77.6,147.5,78.8,147.5,80L147.5,80z"/>
	</g>
</g>
<g id="j">
</g>
<g id="k">
</g>
<g id="l">
</g>
<g id="m">
</g>
<g id="n">
</g>
<g id="o">
</g>
<g id="p">
</g>
<g id="q">
</g>
<g id="r">
</g>
<g id="s">
</g>
<g id="t">
</g>
<g id="u">
</g>
<g id="v">
</g>
<rect x="22.7" y="153.3" class="st2" width="175.7" height="30.5"/>
<text transform="matrix(1 0 0 1 199.855 157.2484)" class="st1 st3 st4"> </text>
<rect x="36.1" y="146" class="st2" width="156.7" height="37.8"/>
<text transform="matrix(1 0 0 1 36.1414 156.0624)" class="st1 st5 st4">Empresas Prestadoras </text>
<text transform="matrix(1 0 0 1 76.3414 172.8624)" class="st1 st5 st4">de Servicios</text>
</svg>
