<?xml version="1.0" encoding="utf-8"?>
<!-- Generator: Adobe Illustrator 25.0.0, SVG Export Plug-In . SVG Version: 6.00 Build 0)  -->
<svg version="1.1" id="Capa_1" xmlns="http://www.w3.org/2000/svg" xmlns:xlink="http://www.w3.org/1999/xlink" x="0px" y="0px"
	 viewBox="0 0 221 218" style="enable-background:new 0 0 221 218;" xml:space="preserve">
<style type="text/css">
	.st0{fill:none;stroke:#8DD9F6;stroke-width:0.87;stroke-miterlimit:10;}
	.st1{fill:#8DD9F6;}
	.st2{enable-background:new    ;}
	.st3{fill:none;}
	.st4{font-family:'MyriadPro-Regular';}
	.st5{font-size:12px;}
</style>
<g id="a">
</g>
<g id="b">
</g>
<g id="c">
</g>
<g id="d">
</g>
<g id="e">
</g>
<g id="f">
	<rect x="10.8" y="7.2" class="st0" width="198.8" height="196.3"/>
	<g id="i">
		<g>
			<path class="st1" d="M61.3,69.4l3.4-4.1c1.8,1.5,4.1,2.6,6.1,2.6c2.2,0,3.3-0.8,3.3-2.2c0-1.4-1.4-1.9-3.5-2.8l-3.2-1.3
				c-2.6-1-5.1-3.2-5.1-6.8c0-4.2,3.8-7.5,9.1-7.5c2.9,0,5.9,1.1,8.1,3.3l-3,3.8c-1.7-1.2-3.2-1.9-5.1-1.9c-1.8,0-3,0.7-3,2.1
				s1.6,1.9,3.8,2.8l3.1,1.2c3.1,1.2,4.9,3.3,4.9,6.9c0,4.2-3.5,7.8-9.5,7.8C67.3,73,63.9,71.8,61.3,69.4L61.3,69.4z"/>
		</g>
		<path class="st1" d="M146.1,65.5c-7.1-6.9-16.4-10.7-26.3-10.7c-4,0-7.9,0.6-11.7,1.8l-1.4-4.2c4.2-1.4,8.6-2.1,13-2.1
			c11,0,21.5,4.2,29.4,12L146.1,65.5z"/>
		<path class="st1" d="M103.7,131.6c-15.9-6.5-26.1-21.8-26.1-39c0-5,0.9-9.8,2.6-14.5l4.1,1.5c-1.5,4.1-2.3,8.5-2.3,13
			c0,15.4,9.2,29.1,23.4,34.9L103.7,131.6L103.7,131.6z"/>
		<path class="st1" d="M119.7,132.9c-2.4,0-4.8-0.2-7.2-0.6c-4.7-0.8-9.2-2.5-13.3-4.9l0.7-1.2c4,2.3,8.3,3.9,12.8,4.7
			c2.3,0.4,4.6,0.6,6.9,0.6L119.7,132.9L119.7,132.9z"/>
		<path class="st1" d="M157.4,81.3c-2.3-8-7-14.9-13.6-20.1l0.9-1.1c6.8,5.3,11.7,12.5,14.1,20.8L157.4,81.3L157.4,81.3z"/>
		<g>
			<g>
				<g>
					<rect x="122.1" y="99.7" class="st1" width="12.5" height="0.7"/>
					<rect x="122.1" y="97.7" class="st1" width="12.5" height="0.7"/>
					<rect x="122.1" y="101.8" class="st1" width="8.3" height="0.7"/>
					<rect x="122.1" y="95.6" class="st1" width="8.3" height="0.7"/>
					<rect x="131.4" y="101.8" class="st1" width="3.1" height="0.7"/>
					<rect x="131.4" y="91.3" class="st1" width="3.1" height="0.7"/>
					<rect x="122.1" y="103.8" class="st1" width="12.5" height="0.7"/>
					<rect x="122.1" y="107.9" class="st1" width="12.5" height="0.7"/>
					<rect x="126.8" y="105.8" class="st1" width="7.8" height="0.7"/>
					<rect x="122.1" y="105.8" class="st1" width="3.6" height="0.7"/>
					<rect x="122.1" y="109.9" class="st1" width="2.1" height="0.7"/>
					<rect x="125.2" y="109.9" class="st1" width="9.4" height="0.7"/>
				</g>
				<path class="st1" d="M138.5,84.7h-15.3c-1.4,0-2.6,1.3-2.6,2.9v0.6c-1.4,0.7-2.4,2.4-2.4,4.3v18.3c0,2.6,1.9,4.7,4.2,4.7h12.1
					c1.8,0,3.3-1.3,3.9-3h0.1c1.4,0,2.6-1.3,2.6-2.9V87.7C141.1,86.1,140,84.7,138.5,84.7L138.5,84.7z M134.4,114.3h-12.1
					c-1.7,0-3.1-1.6-3.1-3.5V92.5c0-1.9,1.4-3.5,3.1-3.5h12.1c1.7,0,3.1,1.6,3.1,3.5v18.3C137.6,112.7,136.1,114.3,134.4,114.3z
					 M140,109.6c0,0.9-0.6,1.6-1.4,1.7V90.7c0-1.6-1.2-2.9-2.6-2.9h-14.3v-0.2c0-0.9,0.7-1.7,1.5-1.7h15.3c0.8,0,1.5,0.7,1.5,1.7
					V109.6L140,109.6L140,109.6z"/>
			</g>
			<g>
				<path class="st1" d="M106.7,107.3c-0.1-0.3-0.4-0.5-0.7-0.4s-0.5,0.4-0.4,0.7c0.3,1.4,0.7,2.7,1.2,4c0.1,0.2,0.3,0.4,0.5,0.4
					c0.1,0,0.2,0,0.2,0c0.3-0.2,0.4-0.5,0.3-0.8C107.3,109.9,106.9,108.6,106.7,107.3L106.7,107.3z"/>
				<path class="st1" d="M134.3,126.5c-0.4,0.1-0.9,0.2-1.3,0.3c0.1,0.4,0.2,0.8,0.2,1.2c0.5-0.1,0.9-0.2,1.4-0.3
					c0.3-0.1,0.5-0.4,0.4-0.7C134.9,126.6,134.6,126.4,134.3,126.5L134.3,126.5z"/>
				<path class="st1" d="M123.8,126.9c-0.1,0.3,0.1,0.7,0.4,0.7c0.4,0.1,0.8,0.2,1.2,0.3c0-0.4,0.1-0.8,0.2-1.2
					c-0.4-0.1-0.7-0.2-1.1-0.2C124.1,126.4,123.8,126.6,123.8,126.9z"/>
				<path class="st1" d="M140.4,124.1c-1.1,0.6-2.2,1.2-3.3,1.6c-0.3,0.1-0.4,0.4-0.3,0.8c0.1,0.2,0.3,0.4,0.5,0.4
					c0.1,0,0.1,0,0.2,0c1.2-0.4,2.3-1,3.4-1.7c0.3-0.2,0.4-0.5,0.2-0.8S140.6,123.9,140.4,124.1L140.4,124.1z"/>
				<path class="st1" d="M121.6,125.6c-1.1-0.4-2.2-1-3.3-1.7c-0.3-0.2-0.6,0-0.7,0.2c-0.2,0.3,0,0.7,0.2,0.8
					c1.1,0.7,2.3,1.2,3.4,1.7c0.1,0,0.1,0,0.2,0c0.2,0,0.4-0.2,0.5-0.4C122,126,121.9,125.7,121.6,125.6z"/>
				<path class="st1" d="M145.6,119.9c-0.9,0.9-1.8,1.8-2.8,2.5c-0.3,0.2-0.3,0.6-0.1,0.9c0.1,0.2,0.3,0.3,0.4,0.3
					c0.1,0,0.2,0,0.3-0.1c1-0.8,2-1.7,2.9-2.6c0.2-0.2,0.2-0.6,0-0.9C146.2,119.7,145.9,119.7,145.6,119.9L145.6,119.9z"/>
				<path class="st1" d="M152.9,107.3c-0.3-0.1-0.6,0.1-0.7,0.4c-0.3,1.3-0.7,2.6-1.2,3.8c-0.1,0.3,0,0.7,0.3,0.8c0.1,0,0.1,0,0.2,0
					c0.2,0,0.4-0.1,0.5-0.4c0.5-1.3,0.9-2.6,1.3-3.9C153.4,107.7,153.2,107.3,152.9,107.3L152.9,107.3z"/>
				<path class="st1" d="M153.7,99.8c-0.3,0-0.6,0.3-0.6,0.6v0.1c0,1.4-0.1,2.7-0.3,4c0,0.3,0.2,0.7,0.5,0.7h0.1
					c0.3,0,0.5-0.2,0.5-0.5c0.2-1.4,0.3-2.8,0.3-4.2v-0.1C154.2,100.1,153.9,99.8,153.7,99.8L153.7,99.8z"/>
				<path class="st1" d="M115.6,79c0.1,0,0.2,0,0.3-0.1c1-0.7,2-1.4,3.1-2.1c0.3-0.2,0.4-0.5,0.3-0.8c-0.2-0.3-0.5-0.4-0.7-0.3
					c-1.1,0.7-2.2,1.4-3.2,2.2c-0.3,0.2-0.3,0.6-0.2,0.9C115.2,78.9,115.4,79,115.6,79z"/>
				<path class="st1" d="M113.2,119.7c-0.2-0.2-0.6-0.2-0.8,0s-0.2,0.6,0,0.9c0.9,0.9,1.9,1.8,2.9,2.7c0.1,0.1,0.2,0.1,0.3,0.1
					c0.2,0,0.3-0.1,0.4-0.2c0.2-0.3,0.1-0.7-0.2-0.9C114.9,121.5,114,120.6,113.2,119.7L113.2,119.7z"/>
				<path class="st1" d="M121.4,75.6h0.2c1.1-0.4,2.3-0.8,3.4-1.1c0.3-0.1,0.5-0.4,0.4-0.7c-0.1-0.3-0.4-0.6-0.7-0.5
					c-1.2,0.2-2.4,0.7-3.6,1.1c-0.3,0.1-0.4,0.4-0.3,0.8C120.9,75.4,121.2,75.6,121.4,75.6z"/>
				<path class="st1" d="M140.3,77c1.1,0.6,2.1,1.3,3,2.1c0.1,0.1,0.2,0.1,0.3,0.1c0.2,0,0.3-0.1,0.4-0.2c0.2-0.3,0.1-0.7-0.1-0.9
					c-1-0.8-2.1-1.6-3.2-2.2c-0.3-0.2-0.6,0-0.7,0.2C140,76.4,140.1,76.8,140.3,77L140.3,77z"/>
				<path class="st1" d="M152.9,97.2c0,0.3,0.3,0.5,0.6,0.5c0.2,0,0.2,0,0.1,0c0.3,0,0.5-0.4,0.5-0.7c-0.1-1.4-0.4-2.8-0.7-4.1
					c-0.1-0.3-0.4-0.5-0.7-0.4s-0.4,0.4-0.4,0.8C152.6,94.5,152.8,95.9,152.9,97.2L152.9,97.2z"/>
				<path class="st1" d="M134.3,74.5c1.2,0.3,2.3,0.7,3.4,1.1c0.1,0,0.1,0,0.2,0c0.3,0,0.4-0.2,0.5-0.4c0.1-0.3,0-0.7-0.3-0.8
					c-1.1-0.5-2.4-0.9-3.6-1.2c-0.3,0-0.6,0.2-0.7,0.5C133.8,74.1,134,74.5,134.3,74.5L134.3,74.5z"/>
				<path class="st1" d="M113.7,80.9c0.2-0.2,0.3-0.6,0-0.9c-0.2-0.2-0.6-0.3-0.8,0c-0.8,0.8-1.5,1.7-2.2,2.6c0.3,0.2,0.7,0.3,1,0.6
					C112.3,82.4,113,81.6,113.7,80.9L113.7,80.9z"/>
				<path class="st1" d="M105.5,97.5L105.5,97.5c0.4,0,0.6-0.2,0.6-0.5c0.2-1.4,0.4-2.7,0.7-3.9c0.1-0.3-0.1-0.7-0.4-0.8
					c-0.3-0.1-0.6,0.1-0.7,0.4c-0.3,1.4-0.6,2.7-0.8,4.1C105,97.1,105.2,97.4,105.5,97.5L105.5,97.5z"/>
				<path class="st1" d="M106.1,104.2c-0.2-1.2-0.2-2.4-0.2-3.7v-0.4c0-0.3-0.3-0.6-0.6-0.6s-0.6,0.3-0.6,0.6v0.4
					c0,1.3,0.1,2.6,0.2,3.8c0,0.3,0.3,0.5,0.6,0.5h0.1C105.9,104.8,106.2,104.5,106.1,104.2L106.1,104.2z"/>
				<path class="st1" d="M146.3,80.2c-0.2-0.2-0.6-0.2-0.8,0s-0.2,0.6,0,0.9c0.6,0.7,1.3,1.4,1.9,2.2c0.3-0.3,0.6-0.5,0.9-0.7
					C147.8,81.7,147.1,80.9,146.3,80.2L146.3,80.2z"/>
			</g>
			<g>
				<path class="st1" d="M129.2,67.1c-2.6,0-4.8,2.4-4.8,5.4s2.2,5.4,4.8,5.4s4.8-2.4,4.8-5.4S131.9,67.1,129.2,67.1L129.2,67.1z
					 M129.2,76.9c-2.2,0-3.9-2-3.9-4.4s1.8-4.4,3.9-4.4c2.2,0,3.9,2,3.9,4.4S131.4,76.9,129.2,76.9L129.2,76.9z"/>
				<path class="st1" d="M130.1,71.3c-0.2-0.2-0.4-0.3-0.7-0.3s-0.4,0.1-0.4,0.4c0,0.6,1.6,0.6,1.6,1.9c0,0.7-0.3,1.2-1,1.4v0.7
					h-0.7v-0.7c-0.4,0-0.8-0.2-1.1-0.5l0.4-0.7c0.3,0.3,0.6,0.4,0.9,0.4c0.3,0,0.5-0.2,0.5-0.4c0-0.7-1.7-0.7-1.7-2
					c0-0.7,0.4-1.2,1-1.3v-0.7h0.7v0.7c0.4,0.1,0.7,0.3,0.9,0.6L130.1,71.3L130.1,71.3z"/>
			</g>
			<g>
				<path class="st1" d="M129.2,122.6c-2.6,0-4.8,2.4-4.8,5.4s2.2,5.4,4.8,5.4s4.8-2.4,4.8-5.4S131.9,122.6,129.2,122.6L129.2,122.6
					z M129.2,132.4c-2.2,0-3.9-2-3.9-4.4s1.8-4.4,3.9-4.4c2.2,0,3.9,2,3.9,4.4S131.4,132.4,129.2,132.4L129.2,132.4z"/>
				<path class="st1" d="M130.1,126.8c-0.2-0.2-0.4-0.3-0.7-0.3s-0.4,0.1-0.4,0.4c0,0.6,1.6,0.6,1.6,1.9c0,0.7-0.3,1.2-1,1.4v0.7
					h-0.7v-0.7c-0.4,0-0.8-0.2-1.1-0.5l0.4-0.7c0.3,0.3,0.6,0.4,0.9,0.4c0.3,0,0.5-0.2,0.5-0.4c0-0.7-1.7-0.7-1.7-2
					c0-0.7,0.4-1.2,1-1.3V125h0.7v0.7c0.4,0.1,0.7,0.3,0.9,0.6L130.1,126.8L130.1,126.8z"/>
			</g>
			<g>
				<path class="st1" d="M149.9,81.3c-2.6,0-4.8,2.4-4.8,5.4s2.2,5.4,4.8,5.4s4.8-2.4,4.8-5.4S152.6,81.3,149.9,81.3L149.9,81.3z
					 M149.9,91.1c-2.2,0-3.9-2-3.9-4.4s1.8-4.4,3.9-4.4s3.9,2,3.9,4.4S152.1,91.1,149.9,91.1L149.9,91.1z"/>
				<path class="st1" d="M150.7,85.5c-0.2-0.2-0.4-0.3-0.7-0.3s-0.4,0.1-0.4,0.4c0,0.6,1.6,0.6,1.6,1.9c0,0.7-0.3,1.2-1,1.4v0.7
					h-0.7v-0.7c-0.4,0-0.8-0.2-1.1-0.5l0.4-0.7c0.3,0.3,0.6,0.4,0.9,0.4c0.3,0,0.5-0.2,0.5-0.4c0-0.7-1.6-0.7-1.6-2
					c0-0.7,0.4-1.2,0.9-1.3v-0.7h0.7v0.7c0.4,0.1,0.7,0.3,0.9,0.6L150.7,85.5L150.7,85.5z"/>
			</g>
			<g>
				<path class="st1" d="M109.2,81.3c-2.6,0-4.8,2.4-4.8,5.4s2.2,5.4,4.8,5.4s4.8-2.4,4.8-5.4S111.8,81.3,109.2,81.3L109.2,81.3z
					 M109.2,91.1c-2.2,0-3.9-2-3.9-4.4s1.8-4.4,3.9-4.4s3.9,2,3.9,4.4S111.4,91.1,109.2,91.1L109.2,91.1z"/>
				<path class="st1" d="M110,85.5c-0.2-0.2-0.4-0.3-0.7-0.3c-0.3,0-0.4,0.1-0.4,0.4c0,0.6,1.7,0.6,1.7,1.9c0,0.7-0.3,1.2-1,1.4v0.7
					h-0.7V89c-0.4,0-0.8-0.2-1.1-0.5l0.5-0.8c0.3,0.3,0.6,0.4,0.9,0.4s0.5-0.2,0.5-0.4c0-0.7-1.7-0.7-1.7-2c0-0.7,0.4-1.2,0.9-1.3
					v-0.7h0.7v0.7c0.4,0.1,0.7,0.3,0.9,0.6L110,85.5L110,85.5z"/>
			</g>
			<g>
				<path class="st1" d="M149.3,111.3c-2.6,0-4.8,2.4-4.8,5.4s2.2,5.4,4.8,5.4s4.8-2.4,4.8-5.4S152,111.3,149.3,111.3L149.3,111.3z
					 M149.3,121.1c-2.2,0-3.9-2-3.9-4.4s1.8-4.4,3.9-4.4s3.9,2,3.9,4.4C153.3,119.2,151.5,121.1,149.3,121.1L149.3,121.1z"/>
				<path class="st1" d="M150.1,115.5c-0.2-0.2-0.4-0.3-0.7-0.3s-0.4,0.1-0.4,0.4c0,0.6,1.6,0.6,1.6,1.9c0,0.7-0.3,1.2-1,1.4v0.7
					H149v-0.7c-0.4,0-0.8-0.2-1.1-0.5l0.4-0.7c0.3,0.3,0.6,0.4,0.9,0.4c0.3,0,0.5-0.2,0.5-0.4c0-0.7-1.6-0.7-1.6-2
					c0-0.7,0.4-1.2,0.9-1.3v-0.7h0.7v0.7c0.4,0.1,0.7,0.3,0.9,0.6L150.1,115.5L150.1,115.5z"/>
			</g>
			<g>
				<path class="st1" d="M108.9,111.3c-2.6,0-4.8,2.4-4.8,5.4s2.2,5.4,4.8,5.4s4.8-2.4,4.8-5.4S111.5,111.3,108.9,111.3L108.9,111.3
					z M108.9,121.1c-2.2,0-3.9-2-3.9-4.4s1.8-4.4,3.9-4.4s3.9,2,3.9,4.4S111,121.1,108.9,121.1L108.9,121.1z"/>
				<path class="st1" d="M109.6,115.5c-0.2-0.2-0.4-0.3-0.7-0.3c-0.3,0-0.4,0.1-0.4,0.4c0,0.6,1.7,0.6,1.7,1.9c0,0.7-0.3,1.2-1,1.4
					v0.7h-0.7v-0.7c-0.4,0-0.8-0.2-1.1-0.5l0.4-0.7c0.3,0.3,0.6,0.4,0.9,0.4s0.5-0.2,0.5-0.4c0-0.7-1.7-0.7-1.7-2
					c0-0.7,0.4-1.2,0.9-1.3v-0.7h0.7v0.7c0.4,0.1,0.7,0.3,0.9,0.6L109.6,115.5L109.6,115.5z"/>
			</g>
		</g>
	</g>
	<g>
		<g class="st2">
			<path class="st1" d="M101.2,51.5c-2.3,3.8-4.1,7.2-5.4,10.4s-2.4,6.6-2.9,10.6h-5.7c0.6-3.7,1.7-7.2,3.2-10.5
				c1.5-3.3,3.2-6.3,5.1-9.2H83.7v-4.1h17.5C101.2,48.6,101.2,51.5,101.2,51.5z"/>
		</g>
	</g>
</g>
<g id="j">
</g>
<g id="k">
</g>
<g id="l">
</g>
<g id="m">
</g>
<g id="n">
</g>
<g id="o">
</g>
<g id="p">
</g>
<g id="q">
</g>
<g id="r">
</g>
<g id="s">
</g>
<g id="t">
</g>
<g id="u">
</g>
<g id="v">
</g>
<rect x="40.4" y="150.3" class="st3" width="139.5" height="13.3"/>
<rect x="41" y="151.5" class="st3" width="139" height="17.7"/>
<text transform="matrix(1 0 0 1 40.9781 160.0059)" class="st1 st4 st5">Sistema de Contrataciones</text>
</svg>
