<?xml version="1.0" encoding="utf-8"?>
<!-- Generator: Adobe Illustrator 27.1.0, SVG Export Plug-In . SVG Version: 6.00 Build 0)  -->
<svg version="1.1" id="Capa_1" xmlns="http://www.w3.org/2000/svg" xmlns:xlink="http://www.w3.org/1999/xlink" x="0px" y="0px"
	 viewBox="0 0 128 128" style="enable-background:new 0 0 128 128;" xml:space="preserve">
<style type="text/css">
	.st0{fill:#C4DDB6;}
</style>
<path class="st0" d="M0.7,33.9l4.6-5.6c2.3,2,5.2,3.3,8.2,3.5c3,0,4.4-1.1,4.4-3S16,26.2,13.1,25l-4.3-1.8c-3.6-1.4-6.9-4.4-6.9-9.3
	C1.9,8.2,7,3.7,14.2,3.7c4.1,0,8.1,1.6,11,4.5l-4,5.1c-2-1.7-4.4-2.6-7-2.6c-2.5,0-4.1,1-4.1,2.8s2.1,2.6,5.1,3.8l4.2,1.7
	c4.2,1.7,6.7,4.5,6.7,9.3c0,5.6-4.7,10.6-12.9,10.6C8.6,38.8,4.1,37,0.7,33.9z"/>
<path class="st0" d="M49,122.3C20.7,110.6,6.6,78.6,17.1,49.8l5.6,2c-9.4,25.8,3.2,54.4,28.6,64.9L49,122.3z"/>
<path class="st0" d="M89.8,30.3c-15.3,0-27.8,14-27.8,31.1c0,6,1.6,11.8,4.5,17l-19,21.3c-2.6,3.1-2.6,7.6,0,10.6
	c2.2,2.6,6.1,3,8.7,0.8c0.3-0.2,0.5-0.5,0.8-0.8l16-18.7c0.7-0.8,0.7-2,0-2.8c-0.6-0.7-1.7-0.8-2.3-0.2c-0.1,0-0.1,0.1-0.2,0.2
	l-16,18.7c-1,1.2-2.8,1.4-4,0.4c-0.1-0.1-0.2-0.2-0.4-0.4c-1.2-1.4-1.2-3.5,0-4.9l18.7-21c5.1,6.7,12.7,10.9,21,10.9
	c15.3,0,27.7-14,27.7-31.2S105,30.3,89.8,30.3z M89.8,88.9c-13.5,0-24.5-12.4-24.5-27.6s11-27.6,24.5-27.6s24.5,12.4,24.5,27.6
	S103.3,88.9,89.8,88.9z"/>
<path class="st0" d="M93.6,55.4l-6.9,7.8l-2.1-2.4c-0.6-0.6-1.6-0.7-2.2-0.1c0,0-0.1,0.1-0.1,0.1c-0.6,0.7-0.6,1.8,0,2.6l3.2,3.7
	c0.5,0.6,1.5,0.7,2.1,0.2c0.1-0.1,0.1-0.1,0.2-0.2l8-9c0.6-0.7,0.6-1.8,0-2.6C95.3,54.8,94.3,54.8,93.6,55.4
	C93.7,55.4,93.6,55.4,93.6,55.4z"/>
<path class="st0" d="M89.8,39.2c-10.9,0-19.7,9.9-19.7,22.1S79,83.4,89.8,83.4s19.7-9.9,19.7-22.1S100.7,39.2,89.8,39.2z M89.8,78.1
	c-8.2,0-14.9-7.5-14.9-16.8s6.7-16.8,14.9-16.8s14.9,7.5,14.9,16.8S98,78.1,89.8,78.1z"/>
<path class="st0" d="M111.4,23.7l1.3-1.3C97.4,7.6,75.3,2.5,55.1,9l1.9,5.7c18.1-5.8,37.9-1.2,51.5,12l1.5-1.6
	c10.1,9.9,15.8,23.6,15.8,37.8c0,1.3,0,2.6-0.1,3.8l1.9,0.1c0.1-1.3,0.1-2.7,0.1-4C127.8,48.1,121.9,34,111.4,23.7z"/>
<path class="st0" d="M28.8,33.9l3.6-5c1.8,1.9,4.2,3,6.8,3.2c3.2,0,5.2-1.7,5.2-5.2s-2-5.1-4.9-5.1c-1.8,0-2.7,0.4-4.7,1.6l-3.5-2.3
	l0.8-16.5H51v6.6H39.2l-0.5,5.6c1.1-0.5,2.3-0.7,3.4-0.7c5.6,0,10.4,3.3,10.4,10.5c0,7.5-5.6,11.8-12,11.8
	C36.1,38.6,31.9,37,28.8,33.9z"/>
</svg>
