<?xml version="1.0" encoding="utf-8"?>
<!-- Generator: Adobe Illustrator 27.1.0, SVG Export Plug-In . SVG Version: 6.00 Build 0)  -->
<svg version="1.1" id="Capa_1" xmlns="http://www.w3.org/2000/svg" xmlns:xlink="http://www.w3.org/1999/xlink" x="0px" y="0px"
	 viewBox="0 0 128 128" style="enable-background:new 0 0 128 128;" xml:space="preserve">
<style type="text/css">
	.st0{fill:#FEB142;}
	.st1{fill:none;stroke:#FEB142;stroke-width:3;stroke-miterlimit:10;}
	.st2{fill:none;stroke:#FEB142;stroke-miterlimit:10;}
	.st3{fill:none;stroke:#FEB142;stroke-width:2;stroke-miterlimit:10;}
	.st4{fill:#FEB142;stroke:#FEB142;stroke-miterlimit:10;}
	.st5{enable-background:new    ;}
</style>
<path class="st0" d="M0.5,32.1L5,26.7c2.2,2,5,3.1,7.9,3.3c2.9,0,4.2-1.1,4.2-2.8s-1.8-2.5-4.6-3.7l-4.2-1.7
	c-3.4-1.4-6.6-4.2-6.6-8.9C1.8,7.3,6.7,3,13.6,3c3.9,0,7.7,1.5,10.6,4.3l-3.9,4.9c-1.9-1.6-4.2-2.5-6.7-2.5c-2.4,0-3.9,1-3.9,2.7
	s2.1,2.5,5,3.6l4.1,1.6c4,1.6,6.4,4.3,6.4,8.9c0,5.4-4.6,10.2-12.4,10.2C8.2,36.8,3.9,35.1,0.5,32.1z"/>
<path class="st0" d="M66.2,115.9c-3.5-0.6-6.9-1.6-10.2-2.9l0.6-1.4C32.1,101.5,20,73.9,29.1,49.1l-5.4-2
	c-10.1,27.7,3.4,58.5,30.7,69.7l0.9-2.2c6.3,2.6,13.1,3.9,19.9,3.9v-1.8C72.1,116.7,69.1,116.4,66.2,115.9z"/>
<path class="st0" d="M114,22.2l1.2-1.2C100.6,6.7,79.3,1.7,59.8,8l1.8,5.5C79,7.8,98.1,12.3,111.2,25l1.5-1.6
	c6.2,6.1,10.8,13.8,13.2,22.2l1.8-0.5C125.2,36.5,120.5,28.5,114,22.2z"/>
<path class="st1" d="M68.1,37.4h43.5c2.3,0,4.1,1.8,4.1,4.1v62.7c0,2.3-1.8,4.1-4.1,4.1H68.1c-2.3,0-4.1-1.8-4.1-4.1V41.5
	C64,39.2,65.8,37.4,68.1,37.4z"/>
<line class="st1" x1="80.3" y1="50.7" x2="107.8" y2="50.7"/>
<rect x="70" y="44.9" class="st2" width="6.7" height="6.7"/>
<rect x="70" y="55.8" class="st2" width="6.7" height="6.7"/>
<rect x="70" y="67.6" class="st2" width="6.7" height="6.7"/>
<line class="st1" x1="80.3" y1="61.6" x2="107.8" y2="61.6"/>
<line class="st1" x1="80.3" y1="73.2" x2="107.8" y2="73.2"/>
<rect x="70" y="78.9" class="st2" width="6.7" height="6.7"/>
<line class="st1" x1="80.3" y1="84.5" x2="107.8" y2="84.5"/>
<rect x="70" y="90.3" class="st2" width="6.7" height="6.7"/>
<line class="st1" x1="80.3" y1="95.8" x2="107.8" y2="95.8"/>
<polyline class="st3" points="70,46.9 72.8,50.7 79.1,42.5 "/>
<polyline class="st3" points="70,57.8 72.8,61.6 79.1,53.5 "/>
<polyline class="st3" points="70,69.8 72.8,73.6 79.1,65.5 "/>
<rect x="79.1" y="35.5" class="st4" width="23.9" height="3.8"/>
<g>
	<g class="st5">
		<path class="st0" d="M29.5,27.9c0-1.9,0.5-3.6,1.5-5.2c1-1.5,2.5-2.7,4.5-3.5c-1.5-0.9-2.7-2-3.6-3.3c-0.8-1.3-1.3-2.8-1.3-4.4
			c0-2.6,1-4.7,3-6.4s4.6-2.6,7.7-2.6c3.2,0,5.7,0.8,7.8,2.5c2,1.7,3,3.8,3,6.4c0,1.6-0.5,3.1-1.4,4.4s-2.1,2.4-3.7,3.3
			c2,0.8,3.5,2,4.6,3.5c1,1.6,1.5,3.3,1.5,5.2c0,2.9-1.1,5.3-3.3,7.1s-5,2.7-8.6,2.7c-3.5,0-6.4-0.9-8.6-2.7
			C30.6,33.1,29.5,30.8,29.5,27.9z M36.3,27.3c0,1.6,0.5,2.8,1.4,3.7c1,0.9,2.2,1.4,3.8,1.4c1.5,0,2.7-0.5,3.7-1.4s1.5-2.2,1.5-3.7
			c0-1.4-0.5-2.6-1.4-3.6s-2.2-1.5-3.7-1.5s-2.7,0.5-3.7,1.5C36.8,24.6,36.3,25.8,36.3,27.3z M37.3,12.1c0,1.3,0.4,2.4,1.3,3.3
			s1.8,1.2,3,1.2c1.1,0,2.1-0.4,3-1.2s1.3-1.9,1.3-3.3c0-1.3-0.4-2.4-1.3-3.2c-0.8-0.8-1.8-1.2-3-1.2s-2.3,0.4-3.1,1.2
			C37.7,9.7,37.3,10.8,37.3,12.1z"/>
	</g>
</g>
</svg>
