<?xml version="1.0" encoding="utf-8"?>
<!-- Generator: Adobe Illustrator 27.1.0, SVG Export Plug-In . SVG Version: 6.00 Build 0)  -->
<svg version="1.1" id="Capa_1" xmlns="http://www.w3.org/2000/svg" xmlns:xlink="http://www.w3.org/1999/xlink" x="0px" y="0px"
	 viewBox="0 0 128 128" style="enable-background:new 0 0 128 128;" xml:space="preserve">
<style type="text/css">
	.st0{fill:#C6C1EB;}
</style>
<path class="st0" d="M110.6,105.4V73.1c0-11.9-8.6-21.7-19.3-21.7H87c-10.6,0-19.3,9.7-19.3,21.7v32.8c-4,3-6.3,7.7-6.1,12.7
	c0,1.2,0.1,2.4,0.3,3.6l0.3,1.2h54.5l0.3-1.2c0.2-1.2,0.4-2.4,0.3-3.6C117.4,113.3,114.9,108.4,110.6,105.4z M73.3,103.8
	c-0.9,0-1.9,0.1-2.8,0.3V73.1c0-10.2,7.4-18.6,16.5-18.6h4.3c9.1,0,16.5,8.3,16.5,18.6v31c-0.7-0.2-1.4-0.2-2.1-0.2L73.3,103.8
	L73.3,103.8z M114.5,120.2h-50c-0.1-0.5-0.1-1.1-0.1-1.6c0-6.4,4.4-11.7,9.8-11.7h30.7c5.4,0,9.8,5.3,9.8,11.7
	C114.6,119.2,114.5,119.7,114.5,120.2z"/>
<path class="st0" d="M88.7,93.2c-1.7-0.1-2.9-1.5-2.8-3.2c0,0,0,0,0,0c0-1.9,1.2-3.3,2.9-3.3s2.8,1.3,2.8,3.3S90.4,93.2,88.7,93.2
	L88.7,93.2z M86.9,84.9l-0.7-16.2h5l-0.7,16.2H86.9z"/>
<path class="st0" d="M62.5,77.5h-6.9c-1.1-0.1-1.8-1.1-1.7-2.2c0.1-0.9,0.8-1.6,1.7-1.7h6.9c1.1,0.1,1.8,1.1,1.7,2.2
	C64.1,76.7,63.4,77.4,62.5,77.5z"/>
<path class="st0" d="M123.3,77.5h-6.9c-1.1-0.1-1.8-1.1-1.7-2.2c0.1-0.9,0.8-1.6,1.7-1.7h6.9c1.1,0.1,1.8,1.1,1.7,2.2
	C124.9,76.7,124.2,77.4,123.3,77.5z"/>
<path class="st0" d="M89.3,46.3c-1,0-1.8-0.9-1.7-1.9c0,0,0,0,0,0v-7.8c-0.1-1,0.5-1.8,1.5-2c1-0.1,1.8,0.5,2,1.5c0,0.2,0,0.3,0,0.5
	v7.8C91.1,45.4,90.3,46.3,89.3,46.3C89.3,46.3,89.3,46.3,89.3,46.3z"/>
<path class="st0" d="M109.8,54.1c-0.5,0-0.9-0.2-1.2-0.5c-0.7-0.8-0.7-1.9,0-2.7l4.8-5.4c0.5-0.7,1.5-0.8,2.2-0.2
	c0.1,0.1,0.2,0.1,0.2,0.2c0.7,0.8,0.7,1.9,0,2.7l-4.8,5.4C110.7,53.9,110.3,54.1,109.8,54.1z"/>
<path class="st0" d="M68.2,54.1c-0.5,0-0.9-0.2-1.2-0.5l-4.8-5.4c-0.7-0.8-0.7-1.9,0-2.7c0.6-0.7,1.6-0.7,2.3-0.2
	c0.1,0,0.1,0.1,0.2,0.2l4.8,5.4c0.7,0.8,0.7,1.9,0,2.7C69.1,53.9,68.7,54.1,68.2,54.1z"/>
<path class="st0" d="M1.3,32.8l4.4-5.3c2.2,1.9,5,3.1,7.9,3.3c2.9,0,4.2-1.1,4.2-2.8s-1.8-2.5-4.6-3.6l-4.1-1.7
	c-3.4-1.3-6.6-4.2-6.6-8.9c0-5.4,4.9-9.8,11.7-9.8c3.9,0,7.7,1.5,10.5,4.3L20.9,13c-1.9-1.6-4.2-2.5-6.7-2.5c-2.4,0-3.9,1-3.9,2.7
	s2.1,2.5,4.9,3.6l4,1.6c4,1.6,6.4,4.3,6.4,8.9c0,5.4-4.5,10.1-12.4,10.1C8.9,37.4,4.6,35.7,1.3,32.8z"/>
<path class="st0" d="M53.6,111.8c-27.1-11.2-40.5-41.7-30.5-69.2l5.4,2c-9,24.6,3.1,52,27.3,62L53.6,111.8z"/>
<path class="st0" d="M127.4,53c-1.1-12.8-6.8-24.8-16.1-33.6l1.2-1.2C98,4.1,76.8-0.9,57.5,5.4l1.8,5.4c17.3-5.6,36.2-1.2,49.3,11.5
	l1.5-1.5c9,8.5,14.5,20.1,15.6,32.4c0.1,1.4,0.2,2.9,0.2,4.4h1.8C127.6,56.1,127.6,54.5,127.4,53z"/>
<path class="st0" d="M54.4,30.2h-3.8v8.5H43v-8.5H28.9v-5.6L40.6,4.8h10V24h3.8L54.4,30.2z M43,24v-5c0-2.1,0.2-5.4,0.3-7.5h-0.2
	c-0.9,1.9-1.8,3.9-2.7,5.8L36.6,24L43,24z"/>
</svg>
