<?xml version="1.0" encoding="utf-8"?>
<!-- Generator: Adobe Illustrator 27.1.0, SVG Export Plug-In . SVG Version: 6.00 Build 0)  -->
<svg version="1.1" id="Capa_1" xmlns="http://www.w3.org/2000/svg" xmlns:xlink="http://www.w3.org/1999/xlink" x="0px" y="0px"
	 viewBox="0 0 128 128" style="enable-background:new 0 0 128 128;" xml:space="preserve">
<style type="text/css">
	.st0{fill:#B2DBEB;}
	.st1{enable-background:new    ;}
</style>
<path class="st0" d="M0.5,32.1L5,26.7c2.2,2,5,3.1,7.9,3.3c2.9,0,4.2-1.1,4.2-2.8s-1.8-2.5-4.6-3.7l-4.2-1.7
	c-3.4-1.4-6.6-4.2-6.6-8.9C1.8,7.3,6.7,3,13.6,3c3.9,0,7.7,1.5,10.6,4.3l-3.9,4.9c-1.9-1.6-4.2-2.5-6.7-2.5c-2.4,0-3.9,1-3.9,2.7
	s2.1,2.5,5,3.6l4.1,1.6c4,1.6,6.4,4.3,6.4,8.9c0,5.4-4.6,10.2-12.4,10.2C8.2,36.8,3.9,35.1,0.5,32.1z"/>
<path class="st0" d="M66.2,115.9c-3.5-0.6-6.9-1.6-10.2-2.9l0.6-1.4C32.1,101.5,20,73.9,29.1,49.1l-5.4-2
	c-10.1,27.7,3.4,58.5,30.7,69.7l0.9-2.2c6.3,2.6,13.1,3.9,19.9,3.9v-1.8C72.1,116.7,69.1,116.4,66.2,115.9z"/>
<path class="st0" d="M114,22.2l1.2-1.2C100.6,6.7,79.3,1.7,59.8,8l1.8,5.5C79,7.8,98.1,12.3,111.2,25l1.5-1.6
	c6.2,6.1,10.8,13.8,13.2,22.2l1.8-0.5C125.2,36.5,120.5,28.5,114,22.2z"/>
<rect x="74.9" y="74.4" class="st0" width="18.8" height="0.9"/>
<rect x="74.9" y="71.7" class="st0" width="18.8" height="0.9"/>
<rect x="74.9" y="77.2" class="st0" width="12.5" height="0.9"/>
<rect x="74.9" y="68.8" class="st0" width="12.5" height="0.9"/>
<rect x="89" y="77.2" class="st0" width="4.7" height="0.9"/>
<rect x="89" y="63.2" class="st0" width="4.7" height="0.9"/>
<rect x="74.9" y="79.9" class="st0" width="18.8" height="0.9"/>
<rect x="74.9" y="85.5" class="st0" width="18.8" height="0.9"/>
<rect x="81.9" y="82.7" class="st0" width="11.8" height="0.9"/>
<rect x="74.9" y="82.7" class="st0" width="5.5" height="0.9"/>
<rect x="74.9" y="88.2" class="st0" width="3.1" height="0.9"/>
<rect x="79.6" y="88.2" class="st0" width="14.1" height="0.9"/>
<path class="st0" d="M99.7,54.2H76.5c-2.2,0-3.9,1.8-3.9,3.9V59c-2.2,1-3.7,3.3-3.7,5.8v24.6c0,3.5,2.8,6.4,6.3,6.4h18.2
	c2.6,0,5-1.6,5.9-4.1h0.2c2.2,0,3.9-1.8,3.9-3.9V58.2C103.6,56.1,101.9,54.3,99.7,54.2C99.7,54.3,99.7,54.2,99.7,54.2z M93.5,94.1
	H75.3c-2.6,0-4.7-2.1-4.7-4.7l0,0V64.7c0-2.6,2.1-4.7,4.7-4.7l0,0h18.2c2.6,0,4.7,2.1,4.7,4.7l0,0v24.7C98.2,92,96.1,94.1,93.5,94.1
	z M101.9,87.8c0,1.2-0.9,2.1-2,2.3V62.3c0-2.2-1.7-3.9-3.9-3.9H74.3v-0.2c0-1.2,1-2.3,2.2-2.3c0,0,0,0,0.1,0h23.1
	c1.3,0,2.3,1,2.3,2.3l0,0L101.9,87.8L101.9,87.8z"/>
<path class="st0" d="M51.7,84.8c-0.1-0.4-0.5-0.7-1-0.6l0,0c-0.4,0.1-0.7,0.6-0.6,1c0.5,1.8,1.1,3.6,1.9,5.4
	c0.1,0.3,0.4,0.5,0.8,0.5c0.1,0,0.2,0,0.3,0c0.4-0.2,0.6-0.7,0.4-1.1C52.7,88.2,52.1,86.5,51.7,84.8z"/>
<path class="st0" d="M93.4,110.5c-0.7,0.2-1.3,0.3-2,0.4c0.2,0.5,0.2,1.1,0.2,1.7c0.7-0.1,1.4-0.2,2.1-0.4c0.5-0.1,0.8-0.5,0.7-1
	S93.8,110.4,93.4,110.5L93.4,110.5z"/>
<path class="st0" d="M77.4,111.1c-0.1,0.4,0.2,0.9,0.6,1l0,0c0.6,0.2,1.2,0.3,1.8,0.4c0-0.6,0.1-1.1,0.3-1.7
	c-0.6-0.1-1.1-0.2-1.7-0.3C78,110.4,77.5,110.6,77.4,111.1L77.4,111.1z"/>
<path class="st0" d="M102.5,107.3c-1.6,0.8-3.3,1.6-5,2.1c-0.4,0.2-0.6,0.6-0.5,1.1c0.1,0.3,0.4,0.5,0.8,0.6c0.1,0,0.2,0,0.3-0.1
	c1.8-0.6,3.5-1.4,5.2-2.2c0.4-0.2,0.5-0.7,0.3-1.1C103.3,107.3,102.9,107.1,102.5,107.3z"/>
<path class="st0" d="M74.2,109.3c-1.7-0.6-3.3-1.4-4.9-2.2c-0.4-0.2-0.9,0-1.1,0.4s0,0.8,0.3,1c1.7,0.9,3.4,1.7,5.2,2.3
	c0.1,0,0.2,0.1,0.3,0.1c0.3,0,0.6-0.2,0.7-0.5C74.8,110,74.6,109.5,74.2,109.3L74.2,109.3z"/>
<path class="st0" d="M110.4,101.7c-1.3,1.2-2.7,2.4-4.2,3.4c-0.4,0.2-0.5,0.8-0.2,1.1l0,0c0.1,0.2,0.4,0.4,0.7,0.4
	c0.2,0,0.3-0.1,0.4-0.2c1.6-1.1,3-2.3,4.4-3.6c0.3-0.3,0.3-0.8,0.1-1.2C111.3,101.4,110.8,101.3,110.4,101.7
	C110.4,101.6,110.4,101.7,110.4,101.7z"/>
<path class="st0" d="M121.4,84.6c-0.4-0.1-0.8,0-1,0.4v0.1c-0.5,1.7-1.1,3.5-1.8,5.1c-0.2,0.4-0.1,0.8,0.3,1.1c0,0,0.1,0,0.1,0.1
	c0.1,0,0.2,0,0.3,0c0.3,0,0.6-0.1,0.7-0.4c0.8-1.7,1.4-3.5,1.9-5.3C122.1,85.3,121.9,84.9,121.4,84.6
	C121.5,84.7,121.4,84.7,121.4,84.6z"/>
<path class="st0" d="M122.5,74.6c-0.5,0-0.8,0.4-0.8,0.8v0.1c0,1.8-0.1,3.6-0.4,5.4c-0.1,0.5,0.3,0.9,0.7,0.9h0.1
	c0.4,0,0.7-0.3,0.8-0.7c0.3-1.9,0.4-3.8,0.4-5.7v-0.1C123.3,75,122.9,74.6,122.5,74.6z"/>
<path class="st0" d="M65.1,46.5c0.2,0,0.4-0.1,0.5-0.2c1.5-1,3-1.9,4.6-2.8c0.4-0.2,0.6-0.7,0.4-1.1s-0.7-0.6-1.1-0.4
	c-1.7,0.9-3.3,1.9-4.8,3c-0.4,0.2-0.5,0.8-0.2,1.1l0,0C64.6,46.4,64.8,46.5,65.1,46.5z"/>
<path class="st0" d="M61.4,101.4c-0.3-0.3-0.8-0.3-1.2,0c-0.3,0.3-0.3,0.8,0,1.2l0,0c1.4,1.3,2.8,2.5,4.4,3.6
	c0.1,0.1,0.3,0.2,0.5,0.2c0.3,0,0.5-0.1,0.7-0.3c0.2-0.4,0.1-0.9-0.2-1.2C64.1,103.8,62.7,102.7,61.4,101.4z"/>
<path class="st0" d="M73.8,41.9h0.3c1.7-0.6,3.4-1.1,5.2-1.4c0.5-0.1,0.7-0.5,0.7-1c-0.1-0.5-0.5-0.8-1-0.7
	c-1.9,0.4-3.7,0.9-5.5,1.5c-0.4,0.1-0.6,0.6-0.5,1l0,0C73.1,41.6,73.5,41.9,73.8,41.9z"/>
<path class="st0" d="M102.4,43.8c1.6,0.8,3.1,1.8,4.6,2.8c0.1,0.1,0.3,0.2,0.5,0.2s0.5-0.1,0.7-0.3c0.3-0.4,0.2-0.9-0.1-1.1l0,0
	c-1.5-1.1-3.1-2.1-4.8-3c-0.4-0.2-0.9,0-1.1,0.4C102,43.1,102.1,43.5,102.4,43.8L102.4,43.8z"/>
<path class="st0" d="M121.4,71.1c0.1,0.4,0.4,0.7,0.8,0.7c0,0,0,0,0.1-0.1c0.5-0.1,0.8-0.5,0.7-0.9c-0.2-1.9-0.6-3.7-1.1-5.6
	c-0.1-0.5-0.6-0.7-1-0.6c-0.5,0.1-0.7,0.6-0.6,1v0.1C120.8,67.5,121.2,69.3,121.4,71.1z"/>
<path class="st0" d="M93.2,40.5c1.8,0.4,3.5,0.9,5.2,1.5c0.1,0,0.2,0,0.3,0c0.4,0,0.7-0.2,0.8-0.6c0.1-0.4-0.1-0.8-0.5-1
	c-1.8-0.7-3.6-1.2-5.4-1.5c-0.5,0-0.9,0.3-0.9,0.8C92.6,40,92.9,40.4,93.2,40.5L93.2,40.5z"/>
<path class="st0" d="M62.2,49.1c0.3-0.3,0.4-0.8,0.1-1.1l0,0c-0.3-0.3-0.8-0.4-1.1-0.1l0,0c-1.2,1.1-2.3,2.3-3.4,3.5
	c0.5,0.2,1,0.5,1.5,0.8C60.1,51.1,61.1,50.1,62.2,49.1z"/>
<path class="st0" d="M49.9,71.4L49.9,71.4c0.5,0,0.9-0.3,0.9-0.7c0.2-1.8,0.6-3.6,1.1-5.3c0.1-0.4-0.1-0.9-0.5-1s-0.9,0.1-1,0.6
	c-0.5,1.8-0.9,3.7-1.2,5.6C49.1,71,49.5,71.4,49.9,71.4z"/>
<path class="st0" d="M50.8,80.5c-0.2-1.6-0.3-3.3-0.3-4.9V75c0.1-0.5-0.3-0.9-0.7-0.9c-0.5-0.1-0.9,0.3-0.9,0.7c0,0.1,0,0.1,0,0.2
	v0.5c0,1.7,0.1,3.4,0.3,5.2c0.1,0.4,0.4,0.7,0.8,0.7h0.1C50.5,81.3,50.9,80.9,50.8,80.5z"/>
<path class="st0" d="M111.5,48.1c-0.3-0.3-0.9-0.3-1.2,0.1c-0.3,0.3-0.3,0.8,0,1.2c1,1,1.9,2,2.8,3c0.4-0.4,0.9-0.7,1.4-0.9
	C113.6,50.3,112.6,49.1,111.5,48.1z"/>
<path class="st0" d="M85.7,30.5c-4,0-7.3,3.2-7.3,7.2s3.2,7.3,7.2,7.3s7.3-3.2,7.3-7.2l0,0C92.9,33.7,89.7,30.5,85.7,30.5z
	 M85.7,43.7c-3.3,0-6-2.6-6-5.9c0-3.3,2.6-6,5.9-6s6,2.6,6,5.9l0,0C91.6,41,89,43.6,85.7,43.7L85.7,43.7z"/>
<path class="st0" d="M86.9,36.1c-0.3-0.3-0.6-0.4-1-0.4s-0.7,0.2-0.7,0.5c0,0.8,2.5,0.8,2.5,2.6c0.1,0.9-0.6,1.7-1.5,1.9v1h-1v-0.9
	c-0.6-0.1-1.2-0.3-1.7-0.7l0.7-1c0.4,0.3,0.8,0.5,1.3,0.5s0.7-0.2,0.7-0.6c0-0.9-2.5-0.9-2.5-2.7c-0.1-0.9,0.6-1.6,1.4-1.8v-1h1v1
	c0.6,0.1,1.1,0.4,1.4,0.8L86.9,36.1z"/>
<path class="st0" d="M85.7,105.3c-4,0-7.3,3.2-7.3,7.2s3.2,7.3,7.2,7.3s7.3-3.2,7.3-7.2l0,0C92.9,108.5,89.7,105.3,85.7,105.3z
	 M85.7,118.5c-3.3,0-6-2.6-6-5.9s2.6-6,5.9-6s6,2.6,6,5.9l0,0C91.6,115.8,89,118.5,85.7,118.5L85.7,118.5z"/>
<path class="st0" d="M86.9,110.9c-0.3-0.3-0.6-0.4-1-0.4s-0.7,0.2-0.7,0.6c0,0.8,2.5,0.8,2.5,2.6c0.1,0.9-0.6,1.7-1.5,1.9v1h-1v-0.9
	c-0.6-0.1-1.2-0.3-1.7-0.7l0.7-1c0.4,0.3,0.8,0.5,1.3,0.6c0.5,0,0.7-0.2,0.7-0.6c0-0.9-2.5-0.9-2.5-2.7c-0.1-0.9,0.6-1.6,1.4-1.8v-1
	h1v1c0.6,0.1,1.1,0.4,1.4,0.8L86.9,110.9z"/>
<path class="st0" d="M116.9,49.6c-4,0-7.3,3.2-7.3,7.2s3.2,7.3,7.2,7.3s7.3-3.2,7.3-7.2l0,0C124.1,52.9,120.9,49.6,116.9,49.6z
	 M116.9,62.8c-3.3,0-6-2.6-6-5.9c0-3.3,2.6-6,5.9-6s6,2.6,6,5.9l0,0C122.8,60.1,120.1,62.8,116.9,62.8z"/>
<path class="st0" d="M118.1,55.2c-0.3-0.3-0.6-0.4-1-0.4s-0.7,0.2-0.7,0.6c0,0.8,2.5,0.8,2.5,2.6c0.1,0.9-0.6,1.7-1.5,1.9v1h-1v-1
	c-0.6-0.1-1.2-0.3-1.7-0.7l0.7-1c0.4,0.3,0.8,0.5,1.3,0.6c0.5,0,0.7-0.2,0.7-0.6c0-0.9-2.5-0.9-2.5-2.7c-0.1-0.9,0.6-1.6,1.4-1.8v-1
	h1v1c0.5,0.1,1,0.4,1.4,0.8L118.1,55.2z"/>
<path class="st0" d="M55.5,49.7c-4,0-7.3,3.2-7.3,7.2s3.2,7.3,7.2,7.3s7.3-3.2,7.3-7.2S59.5,49.8,55.5,49.7L55.5,49.7z M55.5,62.9
	c-3.3,0-6-2.6-6-5.9s2.6-6,5.9-6c3.3,0,6,2.6,6,5.9V57C61.4,60.3,58.8,62.9,55.5,62.9L55.5,62.9z"/>
<path class="st0" d="M56.7,55.3c-0.3-0.3-0.6-0.4-1-0.4c-0.5,0-0.7,0.2-0.7,0.5c0,0.8,2.5,0.8,2.5,2.6c0.1,0.9-0.6,1.7-1.5,1.9v1h-1
	V60c-0.6-0.1-1.2-0.3-1.7-0.7l0.7-1.1c0.4,0.3,0.8,0.5,1.3,0.6c0.5,0,0.7-0.2,0.7-0.6c0-0.9-2.5-1-2.5-2.7c-0.1-0.9,0.6-1.6,1.4-1.8
	v-1h1v1c0.5,0.1,1,0.4,1.4,0.8L56.7,55.3z"/>
<path class="st0" d="M116,90.1c-4,0-7.3,3.2-7.3,7.2s3.2,7.3,7.2,7.3s7.3-3.2,7.3-7.2l0,0C123.2,93.4,120,90.2,116,90.1z M116,103.3
	c-3.3,0-6-2.6-6-5.9s2.6-6,5.9-6s6,2.6,6,5.9l0,0C121.9,100.5,119.3,103.2,116,103.3C116.1,103.3,116,103.3,116,103.3z"/>
<path class="st0" d="M117.2,95.7c-0.3-0.3-0.6-0.4-1-0.4s-0.7,0.2-0.7,0.6c0,0.8,2.5,0.8,2.5,2.6c0.1,0.9-0.6,1.7-1.5,1.8v1h-1v-0.9
	c-0.6-0.1-1.2-0.3-1.7-0.7l0.7-1c0.4,0.3,0.8,0.5,1.3,0.6c0.5,0,0.7-0.2,0.7-0.6c0-0.9-2.5-0.9-2.5-2.7c0-0.9,0.6-1.6,1.4-1.8v-1h1
	v1c0.5,0.1,1.1,0.4,1.4,0.8L117.2,95.7z"/>
<path class="st0" d="M55,90.1c-4,0-7.3,3.2-7.3,7.2s3.2,7.3,7.2,7.3s7.3-3.2,7.3-7.2l0,0C62.2,93.4,59,90.2,55,90.1z M55,103.3
	c-3.3,0-6-2.6-6-5.9s2.6-6,5.9-6c3.3,0,6,2.6,6,5.9l0,0C60.9,100.7,58.3,103.3,55,103.3L55,103.3z"/>
<path class="st0" d="M56.1,95.7c-0.3-0.3-0.6-0.4-1-0.4s-0.7,0.2-0.7,0.6c0,0.8,2.5,0.8,2.5,2.6c0.1,0.9-0.6,1.7-1.5,1.8v1h-1v-0.9
	c-0.6-0.1-1.2-0.3-1.7-0.7l0.7-1c0.4,0.3,0.8,0.5,1.3,0.6c0.5,0,0.7-0.2,0.7-0.6c0-0.9-2.5-0.9-2.5-2.7c0-0.9,0.6-1.6,1.4-1.8v-1h1
	v1c0.5,0.1,1,0.4,1.4,0.8L56.1,95.7z"/>
<g>
	<g class="st1">
		<path class="st0" d="M52.3,8.8c-2.9,5.1-5.2,9.7-6.9,13.9c-1.7,4.2-3,8.9-3.7,14.2h-7.2c0.8-5,2.2-9.7,4.1-14.1
			c1.9-4.4,4.1-8.5,6.5-12.4h-15V4.9h22.2V8.8z"/>
	</g>
</g>
</svg>
