<?xml version="1.0" encoding="utf-8"?>
<!-- Generator: Adobe Illustrator 27.1.0, SVG Export Plug-In . SVG Version: 6.00 Build 0)  -->
<svg version="1.1" id="Capa_1" xmlns="http://www.w3.org/2000/svg" xmlns:xlink="http://www.w3.org/1999/xlink" x="0px" y="0px"
	 viewBox="0 0 128 128" style="enable-background:new 0 0 128 128;" xml:space="preserve">
<style type="text/css">
	.st0{fill:#F8CAC4;}
	.st1{fill:#FEA142;}
	.st2{fill:none;stroke:#FEA142;stroke-width:3;stroke-miterlimit:10;}
	.st3{fill:none;stroke:#FEA142;stroke-width:4;stroke-miterlimit:10;}
	.st4{enable-background:new    ;}
</style>
<path class="st0" d="M18.4,64.7h-6.1c0-6.9,1.2-13.7,3.5-20.1l5.7,2.1C19.4,52.5,18.4,58.6,18.4,64.7z"/>
<path class="st1" d="M1.4,33.2l4.7-5.7c2.3,2.1,5.3,3.3,8.4,3.5c3.1,0,4.5-1.2,4.5-3s-1.9-2.6-4.9-3.9l-4.4-1.9
	c-3.6-1.5-7-4.5-7-9.5c0-5.8,5.2-10.5,12.6-10.5c4.2,0,8.3,1.6,11.3,4.6L22.4,12c-2-1.7-4.5-2.6-7.1-2.6s-4.2,1-4.2,2.9
	s2.2,2.7,5.3,3.9l4.3,1.7c4.3,1.7,6.9,4.6,6.9,9.5c0,5.8-4.8,10.9-13.2,10.9C9.6,38.2,5,36.4,1.4,33.2z"/>
<path class="st1" d="M110.2,24.2c-5.7-5.6-12.6-9.9-20.2-12.6l0.7-1.9C78.5,5.2,65.1,5,52.7,9l1,2.9l0.3,0.9l0,0l0.6,2
	c11.1-3.6,23.1-3.4,34.1,0.6l0.7-1.9c7.3,2.6,13.9,6.8,19.4,12.2L110.2,24.2z"/>
<path class="st1" d="M29.5,100.3l1.6-1.4C18.7,84.5,15,64.6,21.5,46.7l-2.8-1l-1-0.3l0,0l-1.9-0.7C8.5,64.6,12.6,86.9,26.5,103
	l1.5-1.3c5.8,6.7,13.1,12,21.3,15.3l0.8-1.8C42.1,111.8,35.1,106.8,29.5,100.3z"/>
<path class="st2" d="M47.8,49.7h63.9c4.8,0,8.7,3.9,8.7,8.7v34.9c0,4.8-3.9,8.7-8.7,8.7H47.8c-4.8,0-8.7-3.9-8.7-8.7V58.4
	C39.2,53.6,43,49.7,47.8,49.7z"/>
<path class="st2" d="M67,97.8v4.1h-7v-4c-0.9,0-5.7,0.3-5.7-0.6V94c0-0.9,0.8-1.7,1.7-1.7h14.5c0.9,0,1.7,0.8,1.7,1.7v3.3
	C72.1,98.1,68,97.8,67,97.8z"/>
<line class="st3" x1="79.1" y1="63.1" x2="112.9" y2="63.1"/>
<line class="st3" x1="79.1" y1="71.5" x2="112.9" y2="71.5"/>
<line class="st3" x1="79.1" y1="80.3" x2="112.9" y2="80.3"/>
<path class="st1" d="M63.9,71.7c2.4-1.5,3.8-4.2,3.8-7c0-4.6-3.7-8.4-8.4-8.4c-4.6,0-8.4,3.7-8.4,8.4c0,2.8,1.4,5.4,3.8,7
	c-5.6,0.6-9.9,5.4-9.9,11.1c0,0.3,0,0.5,0,0.8l0.1,1.1h28.4l0.1-1.1c0-0.2,0-0.5,0-0.8C73.4,77.3,69.4,72.6,63.9,71.7z M53.4,64.7
	c0-3.3,2.7-6,6-6s6,2.7,6,6c0,3.3-2.7,6-6,6C56.1,70.7,53.4,68,53.4,64.7L53.4,64.7L53.4,64.7z M47.2,82.2c0.3-4.6,4.1-8.2,8.8-8.3
	h6.3c4.6,0,8.5,3.6,8.8,8.3H47.2z"/>
<path class="st2" d="M99.4,97.6v4.1h-7.1v-4c-0.9,0-5.7,0.3-5.7-0.6v-3.3c0-0.9,0.8-1.7,1.7-1.7h14.5c0.9,0,1.7,0.8,1.7,1.7v3.3
	C104.6,97.9,100.5,97.6,99.4,97.6z"/>
<g>
	<g class="st4">
		<path class="st1" d="M28.4,33.5l3.7-5c2.1,2,4.6,3.5,7.5,3.5c3.4,0,5.6-1.5,5.6-4.1c0-3-1.8-4.9-9.2-4.9v-5.6
			c6.2,0,8.1-1.9,8.1-4.6c0-2.4-1.5-3.8-4.2-3.8c-2.4,0-4.3,1.1-6.4,3l-4-4.8c3.2-2.7,6.6-4.4,10.8-4.4c7.1,0,11.9,3.4,11.9,9.4
			c0,3.5-2,6.1-5.7,7.6V20c4,1.1,6.9,3.9,6.9,8.4c0,6.4-5.9,10-12.8,10C34.8,38.4,30.9,36.4,28.4,33.5z"/>
	</g>
</g>
</svg>
