<?xml version="1.0" encoding="utf-8"?>
<!-- Generator: Adobe Illustrator 27.1.0, SVG Export Plug-In . SVG Version: 6.00 Build 0)  -->
<svg version="1.1" id="Capa_1" xmlns="http://www.w3.org/2000/svg" xmlns:xlink="http://www.w3.org/1999/xlink" x="0px" y="0px"
	 viewBox="0 0 128 128" style="enable-background:new 0 0 128 128;" xml:space="preserve">
<style type="text/css">
	.st0{fill:#34C9B2;}
</style>
<path class="st0" d="M0.5,32.2L5,26.7c2.2,2,5.1,3.2,8.1,3.4c3,0,4.4-1.1,4.4-2.9s-1.8-2.6-4.7-3.8l-4.3-1.8
	c-3.5-1.4-6.8-4.3-6.8-9.1c0-5.6,5-10.1,12.1-10.1c4,0,7.9,1.6,10.8,4.4l-4,5c-1.9-1.6-4.3-2.5-6.8-2.5c-2.5,0-4,1-4,2.8
	s2.1,2.6,5.1,3.7l4.2,1.7c4.1,1.7,6.6,4.4,6.6,9.1C25.6,32.1,21,37,12.9,37C8.3,37,3.9,35.3,0.5,32.2z"/>
<path class="st0" d="M53.2,111.9C25.3,100.4,11.5,69,21.8,40.6l5.5,2c-9.2,25.4,3.2,53.5,28.1,63.8L53.2,111.9z"/>
<path class="st0" d="M126.7,48.8c-1.9-10.5-6.8-20.2-14.2-27.8l1.3-1.4C98.9,5.1,77.1,0,57.2,6.5l1.8,5.6
	c17.8-5.8,37.3-1.2,50.7,11.8l1.4-1.5c18.8,19.7,19.4,50.4,1.4,70.8l1.4,1.3C125,82,129.7,65.2,126.7,48.8z"/>
<path class="st0" d="M103.1,25.5H62.3c-2.9,0.2-5.2,2.7-5.1,5.6v25.5c-0.1,1.5,0.5,3,1.6,4.2c0.9,0.9,2.1,1.5,3.4,1.5h0.6v7.1
	c0,1.2,0.7,2.3,1.7,2.8c0.3,0.1,0.7,0.2,1,0.2c0.8,0,1.5-0.3,2.1-0.9l6.7-9.2h28.7c2.9-0.2,5.2-2.7,5.1-5.6V31.1
	C108.3,28.2,106,25.7,103.1,25.5z M64.4,58.6h-2.2c-1-0.1-1.8-1-1.7-2c0,0,0,0,0,0v-25h0.1v-0.5c-0.1-1,0.7-1.9,1.7-2c0,0,0,0,0,0
	H103c1,0.1,1.8,1,1.7,2c0,0,0,0,0,0v25.5c0.1,1-0.7,1.9-1.7,2c0,0,0,0,0,0H73.5c-0.2,0-0.5,0.1-0.7,0.2l-0.1,0.1
	c-0.1,0-0.1,0.1-0.2,0.2c-0.1,0-0.2,0.1-0.2,0.2l-6.2,8.5v-7.3C66.1,59.5,65.4,58.7,64.4,58.6z"/>
<path class="st0" d="M92.2,97c4-3,6.2-7.7,6.1-12.7c0-8.3-6-15.1-13.4-15.1S71.5,76,71.5,84.4c-0.1,4.9,2.1,9.6,6,12.6
	c-9,1.1-15.9,9.6-15.9,20c0,0.5,0,0.9,0.1,1.4l0.1,2h45.5l0.1-2c0-0.4,0.1-0.9,0.1-1.4C107.4,106.9,100.8,98.5,92.2,97z M75.3,84.4
	c0-6,4.3-10.8,9.6-10.8s9.6,4.8,9.6,10.8s-4.3,10.8-9.6,10.8S75.3,90.3,75.3,84.4z M65.4,115.9c0.4-8.3,6.6-14.9,14.1-14.9h10
	c7.5,0,13.6,6.6,14.1,14.9L65.4,115.9z"/>
<path class="st0" d="M46.5,11.7c-1.3-1.3-3-2.1-4.9-2.3c-3.4,0-6,2.4-6.3,9.5c1.5-1.9,3.8-3,6.2-3.2c5.4,0,9.5,3.2,9.5,10.3
	c0,6.9-4.9,11-10.7,11c-6.1,0-12.2-4.8-12.2-16.6s6.2-17.1,13-17.1c3.6-0.1,7,1.4,9.5,3.9L46.5,11.7z M43.9,26
	c0-3.6-1.8-4.8-3.9-4.8c-2,0.1-3.7,1.2-4.6,2.9c0.7,5.4,2.7,7.1,4.7,7.1S43.9,29.7,43.9,26z"/>
</svg>
