<?xml version="1.0" encoding="utf-8"?>
<!-- Generator: Adobe Illustrator 25.4.1, SVG Export Plug-In . SVG Version: 6.00 Build 0)  -->
<svg version="1.1" id="Capa_1" xmlns="http://www.w3.org/2000/svg" xmlns:xlink="http://www.w3.org/1999/xlink" x="0px" y="0px"
	 viewBox="0 0 128 128" style="enable-background:new 0 0 128 128;" xml:space="preserve">
<style type="text/css">
	.st0{fill:#CFAAA6;}
	.st1{fill:none;stroke:#CFAAA6;stroke-width:3;stroke-miterlimit:10;}
	.st2{fill:#CFAAA6;stroke:#CFAAA6;stroke-miterlimit:10;}
</style>
<path class="st0" d="M0.5,32.1L5,26.7c2.2,2,5,3.1,7.9,3.3c2.9,0,4.2-1.1,4.2-2.8s-1.8-2.5-4.6-3.7l-4.2-1.7
	c-3.4-1.4-6.6-4.2-6.6-8.9C1.8,7.3,6.7,3,13.6,3c3.9,0,7.7,1.5,10.6,4.3l-3.9,4.9c-1.9-1.6-4.2-2.5-6.7-2.5c-2.4,0-3.9,1-3.9,2.7
	s2.1,2.5,5,3.6l4.1,1.6c4,1.6,6.4,4.3,6.4,8.9c0,5.4-4.6,10.2-12.4,10.2C8.2,36.8,3.9,35.1,0.5,32.1z"/>
<path class="st0" d="M66.2,115.9c-3.5-0.6-6.9-1.6-10.2-2.9l0.6-1.4C32.1,101.5,20,73.9,29.1,49.1l-5.4-2
	c-10.1,27.7,3.4,58.5,30.7,69.7l0.9-2.2c6.3,2.6,13.1,3.9,19.9,3.9v-1.8C72.1,116.7,69.1,116.4,66.2,115.9z"/>
<path class="st0" d="M114,22.2l1.2-1.2C100.6,6.7,79.3,1.7,59.8,8l1.8,5.5C79,7.8,98.1,12.3,111.2,25l1.5-1.6
	c6.2,6.1,10.8,13.8,13.2,22.2l1.8-0.5C125.2,36.5,120.5,28.5,114,22.2z"/>
<g>
	<g>
		<path class="st0" d="M29.9,33.3l4-4.5c1.1,1.3,3.1,2.3,5,2.3c3.8,0,6.8-2.9,6.8-11.5c0-8.1-2.5-10.5-5.3-10.5
			c-2.2,0-4.1,1.6-4.1,5.2c0,3.4,1.8,4.7,4.3,4.7c1.7,0,3.6-0.9,5.1-3.5l0.3,4.9c-1.7,2.5-4.7,3.9-6.8,3.9c-5.6,0-9.7-3.2-9.7-10.1
			c0-6.8,4.9-10.9,10.8-10.9c6.3,0,12.3,4.7,12.3,16.1c0,12.2-6.3,17.6-13.1,17.6C35.1,37.2,32,35.4,29.9,33.3z"/>
	</g>
</g>
<path class="st1" d="M60.6,79.2h8.5c0.6,0,1.1,0.5,1.1,1.1v17.6c0,0.6-0.5,1.1-1.1,1.1h-8.5c-0.6,0-1.1-0.5-1.1-1.1V80.3
	C59.4,79.7,59.9,79.2,60.6,79.2z"/>
<path class="st1" d="M74.9,69.5h8.6c0.6,0,1.1,0.5,1.1,1.1V98c0,0.6-0.5,1.1-1.1,1.1h-8.6c-0.6,0-1.1-0.5-1.1-1.1V70.5
	C73.8,69.9,74.3,69.5,74.9,69.5z"/>
<path class="st1" d="M90,76h8.6c0.6,0,1.1,0.5,1.1,1.1v20.8c0,0.6-0.5,1.1-1.1,1.1H90c-0.6,0-1.1-0.5-1.1-1.1V77.2
	C88.8,76.5,89.3,76,90,76z"/>
<path class="st1" d="M106.7,55h8.6c0.6,0,1.1,0.5,1.1,1.1V98c0,0.6-0.5,1.1-1.1,1.1h-8.6c-0.6,0-1.1-0.5-1.1-1.1V56.1
	C105.6,55.5,106.1,55,106.7,55z"/>
<polyline class="st1" points="64.8,73.1 79.2,57.5 94.2,71 111,42.5 "/>
<polygon class="st2" points="109.7,42.1 111.7,41.3 112.3,43.6 "/>
<polyline class="st1" points="51.8,55 51.8,99 121.4,99 "/>
</svg>
