<?xml version="1.0" ?>
<svg class="svg-icon" style="width: 16px; height: 16px;vertical-align: middle;fill: currentColor;overflow: hidden;" version="1.1" viewBox="0 0 1024 1024" xmlns="http://www.w3.org/2000/svg">
<path d="M944.156 36.988H79.74c-22.65 0-41.042 18.444-41.042 41.094v684.666c0 22.598 18.39 41.042 41.042 41.042h864.416c22.65 0 41.042-18.442 41.042-41.042V78.082c0-22.65-18.392-41.094-41.042-41.094z m20.002 669.548h-95.226l17.092 17.092c4.208 4.26 4.208 11.116 0 15.324l-17.404 17.404-17.404 17.352a10.724 10.724 0 0 1-15.274 0l-48.056-48.054c-5.35-5.352-14.39-3.688-17.508 3.222l-11.742 25.976c-4 8.882-16.78 8.364-20.054-0.78l-17.04-47.536H59.738V66.964h904.42v639.572z" fill="#DFDFDF"/><path d="M620.874 825.19H412.67l-56.72 136.068h321.644l-56.72-136.068z m-197.814 15.586h187.422l43.728 104.896H379.332l43.728-104.896z" fill="#4A555F"/><path d="M596.22 862.174h-158.9l-25.886 62.104h210.676z" fill="#DFDFDF"/><path d="M226.328 945.672V1024h580.888v-78.328H226.328z m565.302 62.742H241.914v-47.156h549.716v47.156z" fill="#4A555F"/><path d="M517.526 756.142m-37.862 0a37.862 37.862 0 1 0 75.724 0 37.862 37.862 0 1 0-75.724 0Z" fill="#FFFFFF"/><path d="M517.526 710.486c-25.174 0-45.656 20.482-45.656 45.658 0 25.174 20.48 45.652 45.656 45.652s45.656-20.478 45.656-45.652c0-25.176-20.482-45.658-45.656-45.658z m0 75.726c-16.58 0-30.07-13.488-30.07-30.068 0-16.582 13.49-30.072 30.07-30.072s30.07 13.49 30.07 30.072c0 16.58-13.49 30.068-30.07 30.068zM204.992 360.346V604.86h140.676V360.346h-140.676z m125.092 228.928h-109.506V375.932h109.506v213.342z" fill="#4A555F"/><path d="M238.762 394.114h73.14v176.976h-73.14z" fill="#F58E6F"/><path d="M435.764 432.568v172.292h140.676v-172.292h-140.676z m125.092 156.706h-109.506v-141.12h109.506v141.12z" fill="#4A555F"/><path d="M469.534 466.336h73.14v104.754h-73.14z" fill="#71CCE0"/><path d="M666.528 264.836v307.976h15.586c0-1.9 2.174-3.46 4.074-2.792l97.28 34.846h23.746V264.836h-140.686z m125.1 324.446h-5.452l-94.754-33.94a18.952 18.952 0 0 0-9.308-0.844V280.422h109.514v308.86z" fill="#4A555F"/><path d="M700.298 298.604v240.6l73.148 26.202V298.604z" fill="#FFD452"/><path d="M944.208 0H79.792C36.764 0 1.76 35.026 1.76 78.082v684.666c0 4.156 0.314 8.18 0.918 11.854a75.72 75.72 0 0 0 2.6 11.342 76.168 76.168 0 0 0 2.61 7.178 73.448 73.448 0 0 0 3.27 6.776 80.144 80.144 0 0 0 3.914 6.454 75.084 75.084 0 0 0 4.526 6.04c14.914 18.04 36.852 28.388 60.192 28.388h864.418c43.028 0 78.03-35.004 78.03-78.03V78.082C1022.24 35.026 987.236 0 944.208 0z m62.446 762.748c0 34.434-28.012 62.446-62.446 62.446H79.792c-18.678 0-36.236-8.284-48.168-22.72a58.786 58.786 0 0 1-3.586-4.776 63.36 63.36 0 0 1-3.194-5.26 58.956 58.956 0 0 1-4.68-11.124 59.762 59.762 0 0 1-2.086-9.122 58.62 58.62 0 0 1-0.73-9.442V78.082c0-34.46 28.012-62.496 62.446-62.496h864.418c34.432 0 62.446 28.036 62.446 62.496v684.666z" fill="#4A555F"/><path d="M891.532 718.12l-48.028-47.976a3.04 3.04 0 0 1-0.858-2.752 2.98 2.98 0 0 1 1.75-2.224l25.966-11.738a18.514 18.514 0 0 0 10.95-17.714 18.528 18.528 0 0 0-12.354-16.78l-177.54-63.594a18.68 18.68 0 0 0-6.276-1.09c-10.266 0-18.616 8.328-18.616 18.564 0 2.22 0.394 4.398 1.128 6.362l63.592 177.522c2.678 7.488 9.562 12.326 17.534 12.326 7.414 0 13.914-4.206 16.956-10.964l11.746-25.98c0.754-1.668 2.326-1.802 2.79-1.802 0.556 0 1.37 0.156 2.104 0.886l48.02 48.022c3.51 3.554 8.194 5.512 13.184 5.512s9.672-1.958 13.14-5.472l34.814-34.762c7.218-7.222 7.232-19.026-0.002-26.346z m-11.02 15.324l-34.842 34.788a2.926 2.926 0 0 1-4.22-0.034l-48.054-48.054a18.436 18.436 0 0 0-13.122-5.452 18.676 18.676 0 0 0-16.994 10.974l-11.748 25.986c-0.664 1.476-1.862 1.786-2.75 1.786-0.646 0-2.218-0.196-2.862-1.996l-63.628-177.616a2.832 2.832 0 0 1-0.18-1.012c0-1.9 2.174-3.46 4.074-2.792l177.532 63.592c1.688 0.602 1.992 1.97 2.022 2.734 0.03 0.758-0.158 2.144-1.786 2.876l-25.97 11.74a18.648 18.648 0 0 0-10.664 13.586 18.72 18.72 0 0 0 5.142 16.59l48.016 47.966c1.2 1.212 1.214 3.158 0.034 4.338z" fill="#4A555F"/><path d="M819.514 693.906a36.896 36.896 0 0 1-10.074-32.662 36.832 36.832 0 0 1 14.074-22.718l-113.286-40.58 40.592 113.284a36.912 36.912 0 0 1 29.454-14.72c9.804 0 19.032 3.828 25.98 10.776l37.34 37.342 13.356-13.336-37.436-37.386z" fill="#F58E6F"/><path d="M81.194 88.368v596.764h640.978l-39.848-111.224c-0.352-0.982-0.24-1.898 0.338-2.722 0.604-0.86 1.994-1.718 3.526-1.166l177.532 63.592c1.688 0.602 1.992 1.97 2.022 2.734 0.03 0.758-0.158 2.144-1.786 2.876l-25.97 11.74a18.648 18.648 0 0 0-10.664 13.586 18.718 18.718 0 0 0 5.136 16.584l3.998 3.998h106.35V88.368H81.194zM927.22 669.546h-84.188a3.056 3.056 0 0 1-0.388-2.156c0.11-0.584 0.48-1.648 1.752-2.224l25.966-11.738a18.514 18.514 0 0 0 10.95-17.714 18.528 18.528 0 0 0-12.354-16.78l-177.52-63.586c-7.838-2.812-16.778 0.108-21.534 6.882-3.514 5.004-4.33 11.19-2.248 16.952l32.374 90.364H96.78V103.954h830.44v565.592z" fill="#4A555F"/><path d="M498.31 248.416h15.586v138.334h-15.586z" fill="#4A555F"/><path d="M534.39 344.562l-28.286 30.692-28.302-30.692-11.456 10.562 39.758 43.122 39.746-43.122zM708.156 166.266l-10.564-11.454-43.12 39.756 43.12 39.748 10.564-11.462-30.692-28.286zM774.41 154.808l-10.562 11.462 30.694 28.298-30.694 28.286 10.562 11.462 43.124-39.748zM270.078 183.73h15.586v138.332h-15.586z" fill="#4A555F"/><path d="M667.702 186.768h138.336v15.586h-138.336zM277.87 172.232l-39.746 43.122 11.46 10.562 28.286-30.69 28.302 30.69 11.456-10.562zM169.558 589.274h469.694v15.586H169.558z" fill="#4A555F"/></svg>