<!DOCTYPE svg PUBLIC "-//W3C//DTD SVG 1.1//EN" "http://www.w3.org/Graphics/SVG/1.1/DTD/svg11.dtd">
<!-- Uploaded to: SVG Repo, www.svgrepo.com, Transformed by: SVG Repo Mixer Tools -->
<svg fill="#FEA142" height="800px" width="800px" version="1.2" baseProfile="tiny" id="Layer_1" xmlns="http://www.w3.org/2000/svg" xmlns:xlink="http://www.w3.org/1999/xlink" viewBox="0 0 256 256" xml:space="preserve">
<g id="SVGRepo_bgCarrier" stroke-width="0"/>
<g id="SVGRepo_tracerCarrier" stroke-linecap="round" stroke-linejoin="round"/>
<g id="SVGRepo_iconCarrier"> <path id="XMLID_2_" d="M65,77.3c0-10.3,8.4-18.7,18.7-18.7c10.3,0,18.6,8.4,18.6,18.7c0,10.3-8.3,18.6-18.6,18.6 C73.3,96,65,87.6,65,77.3z M194.8,96c10.3,0,18.6-8.4,18.6-18.6c0-10.3-8.3-18.7-18.6-18.7c-10.3,0-18.7,8.4-18.7,18.7 C176.1,87.6,184.5,96,194.8,96z M238.3,146.4l-5.5,7.6h-8.8l7.3-10.1l-0.1,0l0,0l-36-19.6L177.9,154h46l-30.5,42.7 c-0.4-0.2-0.8-0.4-1.2-0.6c-3.9-1.8-8.2-2.9-12.8-2.9c-4.6,0-8.9,1-12.8,2.9c-3.8,1.7-8,2.7-12.4,2.7c-4.4,0-8.6-1-12.4-2.7 c-3.9-1.8-8.2-2.9-12.7-2.9c0,0,0,0,0,0s0,0,0,0c-4.5,0-8.9,1-12.7,2.9c-2.2,1-4.6,1.7-7,2.2c-1.8,0.3-3.6,0.5-5.4,0.5 c-0.5,0-1.1,0-1.6,0c-3-0.2-5.7-0.8-8.7-1.8c-0.7-0.3-1.4-0.5-2-0.8c-0.2-0.1-0.4-0.2-0.6-0.2l30.7-43l10.2,0l27.7-46.8 c0,0,8.4-18.3,28.1-7.3l53.7,29.7C252.1,134.4,247.4,146.6,238.3,146.4z M204.6,198.8c4.4,0,8.6-1,12.4-2.7c3.8-1.8,8-2.8,12.4-2.8 l23.4-39.3h-20l-31.9,44.6C202.1,198.7,203.3,198.8,204.6,198.8z M242.5,206.7c-3.9-1.8-8.2-2.9-12.8-2.9c-4.5,0-8.9,1-12.7,2.9 c-3.8,1.7-8,2.7-12.4,2.7c-4.4,0-8.6-1-12.4-2.7c-3.9-1.8-8.2-2.9-12.8-2.9c-4.6,0-8.9,1-12.8,2.9c-3.8,1.7-8,2.7-12.4,2.7 c-4.4,0-8.6-1-12.4-2.7c-3.9-1.8-8.2-2.9-12.7-2.9c0,0,0,0,0,0s0,0,0,0c-4.5,0-8.9,1-12.7,2.9c-2.2,1-4.6,1.7-7,2.2 c-1.8,0.3-3.6,0.5-5.4,0.5c-0.5,0-1.1,0-1.6,0c-3-0.2-5.7-0.8-8.7-1.8c-0.7-0.3-1.4-0.5-2-0.8c-3.9-1.8-8.2-2.9-12.8-2.9 c-4.6,0-8.9,1-12.8,2.9c-3.8,1.7-8,2.7-12.4,2.7c-4.4,0-8.6-1-12.4-2.7c-3.9-1.8-8.2-2.9-12.7-2.9s-8.9,1-12.8,2.9 c-3.7,1.7-8.1,2.7-12.5,2.7c-1.1,0-1.4-0.1-3.5-0.2v18.5c2,0.1,2.4,0.2,3.5,0.2c4.4,0,8.7-1,12.4-2.7c3.9-1.8,8.3-2.9,12.8-2.9 c4.6,0,8.9,1,12.7,2.9c3.8,1.7,8,2.7,12.4,2.7c4.4,0,8.6-1,12.4-2.7c3.9-1.8,8.2-2.9,12.8-2.9c4.6,0,8.9,1,12.8,2.9 c0.1,0,0.2,0.1,0.2,0.1v0.1c0,0.2,1.2,0.4,1.8,0.6c2.7,1,5.6,1.7,8.7,1.9c0.5,0,1,0.1,1.6,0.1c0,0,0,0,0,0c0,0,0,0,0,0 c4.4,0,8.6-1.1,12.4-2.7c2.2-1,4.6-1.9,7.1-2.3c1.8-0.3,3.7-0.6,5.6-0.6c4.5,0,9.2,1,13.1,2.8c3.8,1.7,7.7,2.5,12.7,2.5v0.3 c0,0-0.6,0-0.6,0c4.4,0,8.6-1.1,12.4-2.7c3.9-1.8,8.2-2.9,12.8-2.9c4.6,0,8.9,1,12.8,2.8c3.8,1.7,8,2.6,12.4,2.6 c4.4,0,8.6-1,12.4-2.7c3.9-1.8,8.2-2.9,12.7-2.9c4.6,0,9,1,12.8,2.8c3.8,1.7,7.5,2.7,12.5,2.7v-18.6 C250,209.3,246.3,208.4,242.5,206.7z M16,196.1c3.9-1.8,8.2-2.9,12.8-2.9c4.6,0,8.9,1,12.7,2.9c3.8,1.7,8,2.7,12.4,2.7 c4.4,0,8.6-1,12.4-2.7c3.9-1.8,8.2-2.9,12.8-2.9c1.7,0,3.3,0.1,5,0.4l29.2-40.8l-45.6,0l16.5-28.5l35.7,19.4l-6.5,9.1l8.8,0l4.6-6.4 c9.5,0.9,14.7-11.9,4-17.9L76.8,98.8c-19.8-11-28.1,7.3-28.1,7.3L21,152.9L0,153v45.6c2,0.1,2.4,0.2,3.5,0.2 C7.9,198.8,12.2,197.8,16,196.1z"/> </g>
</svg>