<?xml version="1.0" encoding="utf-8"?>
<!-- Generator: Adobe Illustrator 24.2.3, SVG Export Plug-In . SVG Version: 6.00 Build 0)  -->
<svg version="1.1" id="Capa_1" xmlns="http://www.w3.org/2000/svg" xmlns:xlink="http://www.w3.org/1999/xlink" x="0px" y="0px"
	 viewBox="0 0 1528.4 526.7" style="enable-background:new 0 0 1528.4 526.7;" xml:space="preserve">
<style type="text/css">
	.st0{fill:#828282;}
	.st1{font-family:'UniviaPro-Regular';}
	.st2{font-size:40px;}
	.st3{letter-spacing:-1;}
</style>
<g>
	<path class="st0" d="M634,193.7c1.4,0.5,2.1,1.3,2.1,2.2v10.2c0.1,1-0.6,2-1.6,2.1c-0.2,0-0.3,0-0.5,0h-25.6
		c-5.2,0-7.8,1.9-7.8,5.6v1.3c0,3.1,1.8,5.3,5.4,6.6l18.2,6.7c5.6,2.1,9.7,4.7,12.1,7.9s3.7,8,3.7,14.7v2.7
		c0,14.9-11,21.2-31.6,21.2c-8.8-0.1-17.6-1-26.2-2.6c-1.3-0.2-2.2-1.4-2-2.6v-9.5c-0.1-1.1,0.7-2.1,1.8-2.2c0.2,0,0.3,0,0.5,0h30.5
		c5,0,7.5-1.7,7.5-5.2v-1c0-3.8-2-5.4-7.4-7.4l-18.2-6.6c-9.4-3.4-13.8-9.3-13.8-23.1v-2.3c0-15.1,9.5-21.1,30.5-21.1
		C619,191.4,626.6,192.2,634,193.7z"/>
	<path class="st0" d="M706.2,191.9c1.2,0,1.7,0.5,1.7,1.6v13.8c0,1-0.5,1.6-1.7,1.6h-36.6v16.4h33.6c1.1,0,1.7,0.5,1.7,1.6V240
		c0,1-0.5,1.6-1.7,1.6h-33.6v15.9h36.6c1.2,0,1.7,0.5,1.7,1.6v13.8c0,1.1-0.5,1.6-1.7,1.6h-54.6c-1.1,0-1.6-0.5-1.6-1.7v-79.1
		c0-1.2,0.5-1.7,1.6-1.7H706.2z"/>
	<path class="st0" d="M770.3,193.7c1.4,0.5,2.1,1.3,2.1,2.2v10.2c0.1,1-0.7,2-1.7,2.1c-0.1,0-0.3,0-0.4,0h-25.6
		c-5.2,0-7.8,1.9-7.8,5.6v1.3c0,3.1,1.8,5.3,5.4,6.6l18.2,6.7c5.6,2.1,9.7,4.7,12.1,7.9s3.7,8,3.7,14.7v2.7
		c0,14.9-11,21.2-31.6,21.2c-8.8-0.1-17.6-1-26.2-2.6c-1.3-0.2-2.2-1.4-2-2.6v-9.4c-0.1-1.1,0.7-2.1,1.8-2.2c0.2,0,0.3,0,0.5,0h30.5
		c5,0,7.5-1.7,7.5-5.2v-1c0-3.8-2-5.4-7.4-7.4l-18.2-6.6c-9.4-3.4-13.8-9.3-13.8-23.1v-2.3c0-15.1,9.5-21.1,30.5-21.1
		C755.2,191.4,762.8,192.2,770.3,193.7z"/>
	<path class="st0" d="M842.5,191.9c1.2,0,1.7,0.5,1.7,1.6v13.8c0,1-0.5,1.6-1.7,1.6h-36.7v16.4h33.6c1.2,0,1.7,0.5,1.7,1.6V240
		c0,1-0.5,1.6-1.7,1.6h-33.6v15.9h36.7c1.2,0,1.7,0.5,1.7,1.6v13.8c0,1.1-0.5,1.6-1.7,1.6h-54.6c-1.1,0-1.6-0.5-1.6-1.7v-79.1
		c0-1.2,0.5-1.7,1.6-1.7H842.5z"/>
	<path class="st0" d="M909.3,193.2c2,0.5,2.7,1.3,2.7,3.3v10.2c0.1,0.8-0.4,1.5-1.2,1.6c-0.1,0-0.3,0-0.4,0H888
		c-6.2,0-10.2,1.7-12.2,5.1s-2.8,9.9-2.8,19.7s1,16.3,2.8,19.8c1.9,3.5,6,5.2,12.2,5.2h22.4c0.8-0.1,1.5,0.4,1.6,1.2
		c0,0.1,0,0.3,0,0.4v10.2c0.1,1.6-1.1,3.1-2.7,3.3c-5.2,1.3-12.3,1.9-21.3,1.9c-14,0-22.2-2.2-27.7-8.8c-5.5-6.6-7.1-16.4-7.1-33.1
		c0-16.3,2.3-27.3,7.1-33.1s14-8.6,27.7-8.6C895.1,191.2,902.2,191.8,909.3,193.2z"/>
	<path class="st0" d="M975.9,193.2c2,0.5,2.7,1.3,2.7,3.3v10.2c0.1,0.8-0.4,1.5-1.2,1.6c-0.1,0-0.3,0-0.4,0h-22.4
		c-6.2,0-10.2,1.7-12.2,5.1s-2.9,9.9-2.9,19.7s1,16.3,2.9,19.8c1.9,3.5,6,5.2,12.2,5.2H977c0.8-0.1,1.5,0.4,1.6,1.2
		c0,0.1,0,0.3,0,0.4v10.2c0.1,1.6-1.1,3.1-2.7,3.3c-5.2,1.3-12.3,1.9-21.3,1.9c-14,0-22.2-2.2-27.7-8.8c-5.5-6.6-7.1-16.3-7.1-33.1
		c0-16.3,2.3-27.3,7.1-33.1s14-8.6,27.7-8.6C961.7,191.2,968.9,191.8,975.9,193.2z"/>
	<path class="st0" d="M697.6,295.2c2.6,3,3.8,8.7,3.8,17.2c0,8.6-0.9,13.6-3.8,17s-7.2,4.6-14.4,4.6c-7,0-11.8-1.5-14.4-4.5
		s-3.8-8.7-3.8-17.1c0-8.6,0.9-13.7,3.8-17.1c2.8-3.4,7.2-4.7,14.4-4.7C690.3,290.6,695.1,292.1,697.6,295.2z M676.8,302.2
		c-1,1.8-1.6,5.2-1.6,10.2s0.5,8.3,1.6,10.2c1,1.8,3.2,2.7,6.4,2.7c3.2,0,5.4-0.9,6.4-2.7s1.6-5.2,1.6-10.2s-0.5-8.4-1.6-10.2
		c-1-1.8-3.2-2.7-6.4-2.7C680,299.4,677.9,300.3,676.8,302.2L676.8,302.2z"/>
	<path class="st0" d="M729.2,291.7c1.1,0.7,2.1,2.5,2.9,5.5l9.7,35.6c0.1,0.6-0.1,0.9-0.7,0.9h-8.4c-0.4,0-0.6-0.3-0.8-0.9l-3-11
		h-13.8l-3.1,11c-0.2,0.6-0.4,0.9-0.7,0.9h-8.3c-0.6,0-0.8-0.3-0.7-0.9l9.7-35.6c0.8-3,1.8-4.8,2.9-5.5c1.1-0.7,3.4-1.1,7-1.1
		S728,291,729.2,291.7z M721.2,299.9l-3.7,13.7h9.2l-3.7-13.7c-0.2-0.7-0.3-0.9-1-0.9C721.4,299,721.4,299.2,721.2,299.9z"/>
	<path class="st0" d="M780.2,290.9c0.9,0,1.1,0.4,0.6,1.2l-12.9,19.3l14.1,21c0.5,0.8,0.3,1.2-0.6,1.2h-9.4c-0.6,0-1.2-0.3-1.5-0.9
		l-8.5-13.7l-8.5,13.7c-0.3,0.5-0.9,0.8-1.5,0.9h-9.5c-0.9,0-1.1-0.4-0.6-1.2l14.2-21l-13-19.3c-0.5-0.8-0.3-1.2,0.6-1.2h9.5
		c0.6,0,1.2,0.3,1.5,0.9l7.3,12l7.3-12c0.3-0.5,0.9-0.9,1.5-0.9H780.2z"/>
	<path class="st0" d="M808.7,291.7c1.1,0.7,2.1,2.5,2.9,5.5l9.7,35.6c0.1,0.6-0.1,0.9-0.7,0.9h-8.3c-0.4,0-0.6-0.3-0.8-0.9l-2.9-11
		h-13.7l-3.1,11c-0.2,0.6-0.4,0.9-0.7,0.9h-8.4c-0.6,0-0.8-0.3-0.7-0.9l9.8-35.6c0.8-3,1.8-4.8,2.9-5.5c1.1-0.7,3.4-1.1,7-1.1
		S807.6,291,808.7,291.7z M800.7,299.9l-3.7,13.7h9.2l-3.7-13.7c-0.2-0.7-0.3-0.9-1-0.9S800.9,299.2,800.7,299.9L800.7,299.9z"/>
	<path class="st0" d="M852.9,291.6c1,0.3,1.4,0.7,1.4,1.7v5.3c0.1,0.4-0.2,0.8-0.6,0.8c-0.1,0-0.1,0-0.2,0h-11.6
		c-3.2,0-5.3,0.9-6.3,2.6s-1.5,5.1-1.5,10.2s0.5,8.5,1.5,10.3c1,1.8,3.1,2.7,6.3,2.7h11.6c0.4-0.1,0.8,0.2,0.8,0.6
		c0,0.1,0,0.1,0,0.2v5.3c0,0.9-0.6,1.6-1.4,1.7c-3.6,0.8-7.3,1.1-11,1c-7.3,0-11.5-1.1-14.4-4.6c-2.8-3.4-3.7-8.5-3.7-17.2
		c0-8.5,1.2-14.2,3.7-17.2c2.5-3,7.3-4.5,14.4-4.5C845.5,290.5,849.2,290.9,852.9,291.6z"/>
	<path class="st0" d="M882.9,291.7c1.1,0.7,2.1,2.5,2.9,5.5l9.7,35.6c0.1,0.6-0.1,0.9-0.7,0.9h-8.4c-0.4,0-0.6-0.3-0.8-0.9l-3-11
		H869l-3,11c-0.2,0.6-0.4,0.9-0.7,0.9h-8.4c-0.6,0-0.8-0.3-0.7-0.9l9.8-35.6c0.8-3,1.8-4.8,2.9-5.5s3.4-1.1,7-1.1
		S881.8,291,882.9,291.7z M874.9,299.9l-3.7,13.7h9.2l-3.7-13.7c-0.2-0.7-0.3-0.9-1-0.9C875.1,299,875.2,299.2,874.9,299.9
		L874.9,299.9z"/>
</g>
<text transform="matrix(1 0 0 1 1055.0817 229.0723)" class="st0 st1 st2">Secretaría Ejecutiva</text>
<text transform="matrix(1 0 0 1 1389.3917 229.0723)" class="st0 st1 st2">del </text>
<text transform="matrix(1 0 0 1 1098.9215 277.0723)" class="st0 st1 st2">Sistema Estatal de</text>
<text transform="matrix(1 0 0 1 1055.3815 325.0723)" class="st0 st1 st2">Combate a la Corrupción</text>
<text transform="matrix(1 0 0 1 1309.2618 325.0723)" class="st0 st1 st2"></text>
<rect x="1007.4" y="189.8" class="st0" width="2.7" height="155.5"/>
<g>
	<path class="st0" d="M259.5,418.3c-0.3,0.2-0.6,0.3-0.8,0.5L259.5,418.3z"/>
	<path class="st0" d="M152.1,451.5c37.8-1.2,74.6-12.5,106.6-32.7c0.3-0.2,0.6-0.3,0.8-0.5l0.2-0.2c-12.6,8-32.6,10.3-46.9,11.9
		c-32.1,3.6-63.9-2-93.7-14.3c-22.8-9.4-40.9-17.6-62.2-30c-4.7-2.7-16.8-9.8-19.3-15.1c10.3,22,23.9,44.9,42.4,61.7
		C93.3,442.4,127.7,452.4,152.1,451.5z"/>
	<path class="st0" d="M492.7,322.9c-0.2-1.6-0.3-3.9-1.6-5.1c-0.6-0.5-1.3-0.8-2-0.9c-2.8-0.4-5.8,0.8-8.3,2
		c-2.5,1.2-4.7,2.7-6.8,4.5c-3,2.6-5.8,5.5-8.4,8.5c-6,6.9-11,14.6-16.1,22.1c-0.6,1-1.3,1.9-1.9,2.8c-16,23.2-31.8,45.6-54.3,62.9
		c-10.8,8.3-22.5,15.4-35,21c-11.8,5.2-26.6,11.3-39.6,11.6c-9,0.2-9.9-8.8-6.4-15c4.5-8.1,11.9-14.1,19.3-19.5
		c10.8-7.8,22.4-14.1,33.3-21.7c7.2-5,20-12.6,22-22c0,0,4.3-27.6-50.8-4.4c-15,6.3-29.2,15.9-42.3,25.2c-11.4,8.1-22.5,16-34,23.1
		h0.1l-0.3,0.2l-0.8,0.5c-10.7,6.8-21.9,12.9-33.5,18c-10.8,4.8-22,8.6-33.5,11.5c-32.2,8-71.2,12.7-99.6-6.5
		c-4.2-2.9-8.2-6.1-12-9.5l-0.2-0.2c5.8,8.7,20.7,20.6,29.3,27.4c9.7,7.6,19.9,14.4,30.7,20.4c59.4,33.1,131.9,39.1,196.3,17.8
		c22.7-7.5,44.2-18.4,63.6-32.4c23.7-17.1,43.2-39.3,59-63.8c8-12.5,15.1-25.6,21.5-39c2.6-5.5,5.5-10.7,8-16.3s4.5-11.4,4.8-17.5
		C493,326.9,493,324.9,492.7,322.9z"/>
	<path class="st0" d="M259.8,418.1L259.8,418.1l-0.3,0.2L259.8,418.1z"/>
	<path class="st0" d="M259.8,418.1L259.8,418.1l-0.3,0.2L259.8,418.1z"/>
	<path class="st0" d="M272,109.9l-0.8,0.5L272,109.9z"/>
	<path class="st0" d="M493,158.1c-2.5-5.3-14.6-12.3-19.3-15.1c-21.3-12.4-39.4-20.6-62.2-30c-29.8-12.3-61.6-17.9-93.7-14.3
		c-14.3,1.6-34.3,3.8-46.9,11.9l0.2-0.1l-0.3,0.2l0.1,0c-11.5,7.1-22.6,15-34,23.1c-13.1,9.4-27.4,19-42.4,25.2
		c-55.2,23.2-50.8-4.4-50.8-4.4c2.1-9.4,14.8-17,22-22c10.9-7.6,22.5-13.9,33.3-21.7c7.5-5.3,14.9-11.3,19.4-19.5
		c3.4-6.2,2.6-15.3-6.4-15c-13,0.3-27.9,6.3-39.6,11.6c-12.5,5.6-24.2,12.6-35,21c-22.5,17.3-38.3,39.7-54.3,62.9
		c-0.6,0.9-1.3,1.9-1.9,2.8C76,182.2,71,189.9,65,196.8c-2.6,3.1-5.4,5.9-8.4,8.5c-2.1,1.8-4.4,3.3-6.8,4.5c-2.5,1.2-5.5,2.4-8.3,2
		c-0.7-0.1-1.4-0.4-2-0.9c-1.2-1.2-1.4-3.5-1.6-5.1c-0.3-1.9-0.3-3.9-0.2-5.8c0.4-6.1,2.4-11.9,4.8-17.5s5.4-10.8,8-16.3
		c6.3-13.4,13.5-26.5,21.5-39c15.8-24.5,35.3-46.7,59-63.8c19.4-14,40.9-24.9,63.6-32.4C259,9.8,331.5,15.8,390.8,48.9
		c10.7,6,21,12.7,30.7,20.3c8.7,6.8,23.5,18.7,29.3,27.4l-0.2-0.1c-3.8-3.4-7.8-6.6-12-9.5c-28.4-19.2-67.4-14.6-99.6-6.5
		c-11.5,2.9-22.7,6.7-33.5,11.5c-11.6,5.2-22.8,11.2-33.5,18c32-20.2,68.7-31.4,106.5-32.6c24.7-1,58.8,9.1,72.1,19.2
		C469.1,113.2,482.7,136.1,493,158.1z"/>
	<path class="st0" d="M270.8,110.6L270.8,110.6l0.3-0.2L270.8,110.6z"/>
	<path class="st0" d="M270.8,110.6L270.8,110.6l0.3-0.2L270.8,110.6z"/>
	<path class="st0" d="M187.5,266.2c-0.5-1.2-1-2.3-0.5-3.6c0.3-0.7,0.2-1.5-0.2-2.1c-0.2-0.4-0.6-0.6-1.1-0.6
		c-0.8-0.1-1.6-0.4-2.3-1c-0.2-0.2-0.5-0.3-0.7-0.5c-0.2-0.1-0.4-0.2-0.5-0.3l-0.1-0.1c-0.2-0.1-0.4-0.1-0.6-0.1l0,0
		c-0.1,0-0.3,0-0.4,0.1c-0.5,0.2-0.8,0.7-0.9,1.2c-0.1,0.3-0.3,0.5-0.4,0.7c-0.2,0.3-0.4,0.6-0.6,0.9c-0.1,0.2-0.2,0.3-0.4,0.4
		c-0.1,0-0.2,0-0.2-0.1c-0.7-0.6-1.6-0.8-2.5-0.4l-0.2,0.1c-0.7,0.2-1.3,0.5-1.9,0.9c0.4-1,0.3-2.1-0.2-3l-0.2-0.5
		c-0.6-1-0.9-2.2-0.7-3.4c0.1-0.4-0.1-0.8-0.4-1.1c-0.4-0.4-0.4-1,0-1.4c0.1-0.1,0.3-0.2,0.4-0.2c0.7-0.2,1.3-0.7,1.6-1.4
		c0.4-0.8,0.4-1.8,0-2.6c-0.3-0.7-0.9-1.2-1.6-1.5c-0.3-0.1-0.6-0.3-0.8-0.6c-0.3-0.8-1.3-1.2-2.1-0.8c-0.1,0.1-0.2,0.1-0.4,0.2
		c-1,0.4-1.5,1.5-1.2,2.6c0.2,0.6,0.2,1.3-0.1,1.8c-0.5,1.1-0.3,2.5,0.6,3.4c0.4,0.5,0.3,1.1,0,1.9c-0.1,0.3-0.4,0.4-1.1,0.4h-0.2
		c-0.7,0-1.3-0.1-1.9-0.4h-0.1c-1-0.5-2.2-0.7-3.4-0.4h-0.2c-0.4,0-0.8,0.1-1,0.4c-0.3,0.4-0.3,1,0.1,1.3c0,0,0,0,0.1,0l0.1,0.1
		c0.2,0.3,0.3,0.6,0.4,0.9c-0.3,0.1-0.7,0.1-1,0.1h-0.1c0.1-0.2,0.2-0.5,0.1-0.8c-0.2-0.7-0.9-0.9-1.5-1.1s-1.4-0.4-2.1-0.7h-0.1
		c0.6-0.9,0.7-2,0.2-2.9c-0.1-0.6-0.6-1.1-1.3-1.1l0,0c-0.7,0-1.3,0.5-1.3,1.2c-0.1,0.4-0.2,0.7-0.4,1.1c-0.5-0.2-1-0.3-1.6-0.4
		c-0.8-0.1-1.6-0.4-2.2-0.8c-0.8-0.5-1.7-0.7-2.6-0.5h-0.4c-0.6,0-1-0.1-1.2-0.3c-0.2-0.3-0.3-0.7-0.2-1.1v-0.5
		c-0.1-0.9,0.2-1.7,0.8-2.3c0.6-0.5,0.7-1.3,0.3-2c-0.6-1.1-1.6-2-2.8-2.4c-1.1-0.4-2.3-0.3-3.4,0.2c-0.4,0.2-0.5,0.2-0.8,0
		c-1.3-0.7-1.7-2.4-0.9-3.6c0.3-0.5,0.7-0.8,1.2-1c0.5-0.2,0.7-0.8,0.5-1.3c0,0,0-0.1,0-0.1l0,0c0,0,0-0.1,0-0.1
		c-0.7-2.4-1.6-4.7-2.9-6.8c-0.2-0.4-0.5-0.9-0.4-1.1s0.3-0.4,0.8-0.5c0.4-0.1,0.7-0.5,0.7-0.9c0-0.6-0.3-1.2-0.8-1.6
		c-0.5-0.3-0.8-0.8-0.8-1.4c-0.1-0.5-0.3-1-0.6-1.5c-0.6-0.8-1.2-1.6-1.7-2.5c-0.9-1.6-2.1-1.4-3.2-1.1c-0.3,0.1-0.4,0-0.4,0
		l-0.3-0.3c-0.8-0.9-1.8-1.5-3-1.7c-0.1-0.2-0.1-0.5-0.1-0.7c0-0.1,0-0.2,0-0.4v-0.3c0-0.8-0.5-1.5-1.3-1.7c-0.1,0-0.2-0.2-0.2-0.8
		v-0.2c0-0.2,0-0.5,0-0.8c0.1-1.1-0.1-2.2-0.6-3.2c0-0.1-0.2-0.3,0.3-0.6c1-0.7,2-1.6,2.7-2.6l0.3-0.4l0.1-0.1l51.9,20.2
		c-0.7,1.9,0.2,4.1,2.1,4.8c0.3,0.1,0.6,0.2,0.9,0.2l12.1,40.5c-1,0.7-1.6,1.7-1.9,2.9c-0.2,0.7-0.8,1.2-1.5,1.4l0,0
		c-0.5,0-0.8-0.5-1-1.5c0-0.7-0.4-1.4-1-1.8c-0.8-0.6-1.3-1.5-1.6-2.4c-0.3-0.8-0.6-1.6-0.9-2.2c-0.2-0.5-0.4-1-0.6-1.5L187.5,266.2
		z M222.2,253.4c0.5-0.4,1-0.7,1.6-0.9c0.2-0.1,0.4-0.1,0.5-0.2s0.9-0.4,1.3,0.1c0.1,0.2,0.3,0.3,0.5,0.5c0.1-0.1,0.2-0.3,0.3-0.5
		c0.1-0.2,0.3-0.5,0.4-0.7c0.4-0.5,0.8-0.9,1.3-1.4l-41-20.2c-0.4,0.5-1,0.8-1.6,1l11.9,39.9c0.8-0.3,1.5-0.5,2.3-0.6
		c0.9-0.1,1.9-0.2,2.8-0.2h0.1h1h0.2c0.9,0,1.1-0.1,1.2-0.6c0-0.4-0.2-0.9-0.5-1.2c-0.2-0.3-0.5-0.5-0.8-0.6
		c-0.9-0.1-1.7-0.5-2.2-1.2c-0.5-0.5-0.6-1.1-0.2-1.6s0.4-0.6,0.4-0.8s-0.6-0.7-1.2-1.1l-1.6-1l2.3-0.2c0.4,0,0.7,0,1.1-0.1
		c0.6-0.1,1.2-0.1,1.9-0.2c1.4-0.1,2.8-0.3,4.1-0.6c1.6-0.3,3.3-0.1,4.7,0.7c0.6,0.2,1.1,0.4,1.7,0.6c0.2,0.1,0.4,0.1,0.6,0.2
		c0.2,0.1,0.3,0.1,0.5,0.2h0.1h0.1v0c0.1-0.2,0.1-0.3,0.2-0.5c0.2-1.6,0.8-3.7,3.6-3.7c0,0,0.1,0,0.1,0c0.1,0,0.1,0,0.1,0
		c-1-2.2,0.2-3.3,1.3-4.2C221.8,253.8,222,253.6,222.2,253.4L222.2,253.4z M188,228.8l41.3,20.3c0.4-0.4,0.8-0.8,1.2-1.2
		c1-1.1,0.9-2.9-0.2-3.9c-0.1-0.1-0.3-0.2-0.5-0.3c-1.7-1.1-3.2-2.4-4.6-3.8c-0.7-0.7-1.4-1.4-2.1-2c-0.8-0.7-0.9-1.9-0.4-2.8
		c0.1-0.3,0.3-0.6,0.4-1l0.2-0.6c0.1-0.1,0.1-0.2,0.1-0.3c-0.1-0.1-0.2-0.1-0.3-0.1c-0.8-0.2-1.5-0.4-2.3-0.7
		c-0.7-0.3-1-0.6-1.1-1.1c0-0.2,0-0.5,0.1-0.7l-31.9-2.1C188.1,228.5,188.1,228.7,188,228.8z M228.5,227.5c0.6-0.3,0.7-0.6,0.8-0.7
		s0-0.4-0.4-1c-0.4-0.4-0.6-0.9-0.5-1.5c0.1-0.1,0.1-0.2,0.2-0.3l0.1,0l0,0l0,0l-0.2-0.1l-0.1-0.1l-0.2,0c-0.1,0-0.2,0-0.3-0.1
		c-0.1-0.1-0.3-0.2-0.4-0.3l-0.1-0.1l-0.1-0.1c-0.1,0-0.1-0.1-0.2-0.2c-0.1-0.1-0.2-0.3-0.3-0.4l-0.1-0.1c0,0,0-0.1-0.1-0.1
		c0-0.1-0.1-0.1-0.1-0.2c-0.1-0.3-0.2-0.7-0.2-1V221c-0.1-1.6-0.2-3.3-0.3-4.9c-0.2-2.2-0.7-2.8-3-3.2c-0.8-0.1-1.4-0.8-1.5-1.6
		c-0.1-0.4-0.2-0.8-0.3-1.1c-0.3-0.9-0.5-1.8-0.6-2.7l-32.9,18.6c0.1,0.3,0.2,0.6,0.3,0.9l33.5,2.2c0.3-0.2,0.7-0.3,1.1-0.3
		c0.3,0,0.7,0.1,1,0.2c1.8,0.6,3,0.3,3.9-0.9C227.8,228,228.1,227.7,228.5,227.5z M217.2,205.5c-0.6,0.5-1.4,0.6-2.1,0.4
		c-0.3-0.1-0.5-0.4-0.7-0.6c-0.9,0-1.9-0.3-2.5-1c-0.7-1-0.9-2.2-0.7-3.4c0-0.5,0-0.9,0-1.4l0,0c-0.2-1.3,0.1-2.6,0.9-3.6l0.1-0.1
		c0.1-0.2,0.2-0.4,0.4-0.5c2.8-1.9,2.1-4.5,1.3-7.3c-0.2-0.7-0.4-1.3-0.5-1.8c0-0.1,0-0.2,0-0.2c0-0.1,0-0.1,0-0.2
		c-0.1-0.5-0.2-0.9-0.3-1.3c0-0.1,0-0.2,0-0.4s0-0.2,0-0.2v-0.1c0-0.3-0.1-0.7-0.1-1c0-0.1,0-0.3,0-0.4c0-0.1,0-0.2,0-0.2
		c0-0.1,0-0.2,0-0.3c0-0.2,0-0.4,0-0.6l0,0c-0.5-0.3-0.7-0.4-0.9-0.3l0,0c-1.3,0.8-2.9,1.2-4.4,1.1l-0.2,0.1
		c-0.1,0.1-0.3,0.2-0.4,0.2c-1.1,0.5-2,1.3-2.7,2.3l-0.1,0.1l-0.4,0.5c-0.6,0.8-1.7,1.1-2.6,0.7c-0.2-0.1-0.4-0.1-0.6-0.1
		c-0.2,0.1-0.4,0.3-0.5,0.7l-0.1,0.3c-0.1,0.5-0.4,1.3-1.4,1.3c-0.4,0-0.4,0-0.6,0.6c-0.3,1.1-1.1,1.9-2.1,2.3
		c-1.1,0.3-2.3,0-3.2-0.7c-0.4-0.3-0.6-0.4-0.8-0.3c-0.6,0.3-1.3,0.3-1.9,0c-0.5-0.4-0.8-1-0.8-1.7c-0.3-2-1-3-2.3-3.6
		c-0.3-0.1-0.9-0.3-0.8-1s-0.1-0.7-0.8-0.9c-0.2-0.1-0.4-0.2-0.6-0.3l-0.4-0.2c-0.5-0.2-1.1-0.5-1.2-1.2s0.4-1.1,0.8-1.5v-0.2
		c-0.1-1.1-0.2-2.1-0.4-3.2s-0.3-1.9-0.6-2.1s-1.2-0.1-2,0.1l-1.1,0.3c-1.9,0.5-3.9,1-6,0.2c-0.3-0.1-0.6,0.1-0.8,0.3l-0.4,0.6
		c-0.6,0.6-1,1.4-1,2.3c0.1,0.5-0.2,1-0.8,1.1h-0.1c-0.4,0.2-0.7,0.4-0.9,0.8c0,0.1-0.1,0.4,0.2,1c0.3,0.4,0.3,1,0,1.4
		c-0.1,0.2-0.3,0.4-0.4,0.6c-0.3,0.4-0.6,0.9-0.7,1.4c-0.2,1.6,0.8,3,2.4,3.4l0.2,0.1c0.5,0,1,0.4,1.2,0.9c0,0.6-0.4,1.2-1,1.3
		l-0.2,0.1c-0.5,0.6-0.8,1.3-0.8,2.1c-0.1,0.7,0.1,1.4,0.5,2c0.3-0.8,1-1.3,1.8-1.5h0.1l0.2-0.1c-1-1.3-0.2-2.3,0.3-2.9
		c0.1-0.2,0.2-0.3,0.3-0.5c0.3-0.5,0.8-0.9,1.4-1c0.6,0,1.1,0.2,1.5,0.6c0.8,0.9,1.9,1.6,3,2.1c0.3,0.1,0.6,0.3,0.7,0.6
		c0.1,0.4,0.1,0.8-0.1,1.2c-0.1,0.3-0.4,0.6-0.8,0.6c-0.4,0.1-0.8,0-1-0.2c-0.5-0.4-0.9-0.3-1.6-0.1c-0.4,0.1-0.8,0.2-1.2,0.2
		c0,0,0,0,0,0.1c0.3,1.2-0.4,2.4-1.6,2.7c-0.1,0-0.1,0-0.2,0c-0.8,0.2-1.3,0.8-1.3,1.6c0,0.7-0.4,1.3-0.9,1.7
		c-0.6,0.4-1.3,0.5-2,0.3c-1.1-0.3-2.2-0.3-3.3,0c-1,0.3-2.7-0.1-3.1-0.9l-0.2-0.3v0c-0.5-0.7-0.7-1.6-0.4-2.4
		c-0.4,0-0.8-0.1-1.2-0.1l0,0c-0.7,0-1.3-0.1-2-0.2c-0.3-0.1-0.7-0.2-1-0.4c-0.8-0.5-1.8-0.6-2.6-0.1c-1,0.4-2.1,0.4-3.2,0.1
		c-1.6-0.2-3.1,0.3-4.3,1.4c-0.2,0.2-0.6,0.5-0.6,0.6c0.6,2.3-0.3,3.8-2.7,4.6c-0.1,0.1-0.1,0.1-0.2,0.2c-0.9,0.5-1.9,0.5-2.9,0.2
		c-0.5-0.1-0.9-0.5-1-1c-0.1-0.2-0.2-0.4-0.3-0.5c-0.3-0.4-0.5-0.9-0.5-1.4c-0.3,0-0.5-0.1-0.7-0.2l-0.2,0.4l0,0
		c-0.2,0.3-0.4,0.7-0.6,1c-0.5,1.3-1.9,1.9-3.2,1.4c-0.1,0-0.1-0.1-0.2-0.1l-0.2-0.1l-0.1,0c-0.4,0.3-1,0.5-1.5,0.5
		c-0.7,0.1-1,0.2-1.2,0.8l-0.1,0.5l-0.5-0.1c-1-0.2-1.2,0.2-1.6,1.2c-0.1,0.2-0.1,0.3-0.2,0.5l51.8,20.2c0.7-0.7,1.7-1.1,2.6-1.1
		c0.9,0,1.8,0.4,2.5,1l33.2-18.8c-0.2-0.2-0.4-0.4-0.7-0.5C218.8,205.1,217.9,205.1,217.2,205.5z"/>
	<path class="st0" d="M340.2,258.1c1.1-1.1,2.4-1,3.7,0.1c0.4,0.4,1,0.6,1.5,0.5c0.8-0.1,1.5-0.6,1.8-1.3c0.3-0.4,0.6-0.8,1-1.1l0,0
		c0.5-0.4,0.9-0.9,1.3-1.5l21.5,17.9L340,258.3C340.1,258.3,340.2,258.2,340.2,258.1z M370.4,274.2l-33.7-15.7
		c0.1,0.3,0.2,0.6,0.1,0.8c-0.3,1-1.2,1.6-2.2,1.6h-0.3c-1-0.2-2,0.1-2.8,0.7c-0.2,0.2-0.3,0.3-0.4,0.5l0,0l-0.2,0.3l0,0l0.2,0.2
		l0,0l0.2,0.2l0.1,0.2c0.1,0.1,0.1,0.1,0.1,0.2c0,0.1,0.1,0.1,0.1,0.2c0,0.1,0,0.1,0,0.2l0,0c0,0,0,0.1,0,0.1c0,0.1,0,0.1,0,0.2l0,0
		c0,0,0,0.1,0,0.1c0,0.1-0.1,0.2-0.1,0.2v0.1l-0.1,0.1c-0.1,0.1-0.1,0.2-0.2,0.3v0.1l0,0.1l-0.4,0.5c0.4-0.1,0.8,0.1,1.1,0.3
		c0.3,0.4,0.5,0.9,0.4,1.4v0.2c0.1,1.1-0.3,2.3-1.2,3.1l39.1,4.2C370.4,274.4,370.4,274.3,370.4,274.2L370.4,274.2z M329.9,271.8
		c-0.3,0.9-1.4,1.4-2.3,1c0,0,0,0,0,0c-0.7-0.2-1.3,0.2-1.9,0.7l-0.6,0.4l0.2,0.1c1,0.9,1.5,1.4,1.5,2s-0.6,1.1-1.5,1.8l-0.2,0.1
		h-0.1c0.2,0.6,0,1.1-0.3,1.6c-0.6,0.5-1.4,0.8-2.3,0.6l0,0c-1.2,0-1.8,0.5-2.2,1.9c-0.3,0.6-0.5,1.3-0.5,2c0.6,0.4,1.3,0.7,2,0.8
		c1.6,0.5,2.3,0.7,2.6,1.4s-0.2,1.3-1,2.7l-0.5,0.8l-0.2,0.3l47.7-13.3c-0.1-0.2-0.1-0.5-0.2-0.7L329.9,271.8z M350,239.8
		c-0.1,0-0.2,0-0.3,0.1v0.1c0,0.5,0.1,1.1,0.2,1.6c0.1-0.4,0.5-0.7,0.9-0.8c-0.3,0-0.5-0.1-0.6-0.3C350,240.2,350,240,350,239.8
		L350,239.8z M448.2,240c0.1-0.2,0.1-0.3,0.1-0.4h-0.4c-5.3,0-10.6,0-15.8,0h-0.8l-42.6-0.1h-6.5h-5.9c-0.6,0-1.2,0-1.5-0.5
		c-0.2-0.4-0.1-0.9,0.2-1.2c0.2-0.4,0.4-0.8,0.4-1.2c0.1-0.3,0.2-0.6,0.3-1c0.1-0.3,0.1-0.7,0-1c-0.2-0.4-0.2-0.9-0.1-1.3
		c0-0.1,0.1-0.2,0.1-0.3c-0.2-0.1-0.3-0.1-0.5-0.1l-2-0.4l2.8-0.9c0.1,0,0.3-0.1,0.4-0.1h0.3c-0.1-0.1-0.2-0.1-0.8-0.2
		c-0.2,0-0.5-0.1-0.7-0.1l0,0c-0.6-0.1-1-0.2-1.5,0.2c-0.7,0.5-1.4-0.2-1.8-0.5c-0.1-0.1-0.2-0.2-0.3-0.3c0-0.1-0.1-0.1-0.1-0.1
		c-1.1-0.1-2.2-0.4-3.2-0.8c-0.6-0.2-1.3-0.4-1.9-0.6c-1.8-0.4-3.4-1.4-4.5-2.9c-0.4-0.6-1-1.2-1.5-1.7l0,0
		c-0.1,0.1-0.2,0.1-0.3,0.2c-0.2,0.5-0.3,1-0.9,1.1s-0.9-0.3-1.2-0.7c0,0-0.1-0.1-0.3,0c-0.2,0.1-0.4,0.2-0.5,0.5c0,0.3,0,0.7,0,1
		v0.3c0,0.5-0.1,0.9-0.4,1.2c-0.3,0.3-0.7,0.4-1.2,0.3c-0.2,0-0.3,0-0.5,0.1c-0.2,0.1-0.2,0.6-0.2,0.9v0.2c-0.1,1.1,0.5,1.4,0.9,1.5
		c0.3,0.1,0.6,0,0.8-0.2c-0.1-0.1-0.1-0.2-0.2-0.2c-0.1-0.1-0.2-0.2-0.2-0.3l-0.1-0.1c-0.3-0.3-0.5-0.7-0.3-1.1
		c0.2-0.5,0.8-0.7,1.2-0.5h0.2h0.7h0.9c0.1,0,0.2,0,0.2,0h0.1c0.4-0.1,0.8,0,1.2,0.2c0.3,0.3,0.4,0.7,0.3,1.1v0.3
		c0,0.8-0.1,2.1-1.6,2.4c-0.3,0.1-0.6,0.1-0.9,0.1h-0.3c-0.6,0-0.7,0.1-0.7,0.5c-0.1,1.9-1.6,1.8-2.5,1.8H354
		c-0.6,0.1-1.2,0-1.7-0.4c-0.3-0.4-0.5-0.9-0.4-1.4c0-0.1,0-0.1,0-0.2h-0.1c0,0-0.1,0-0.1,0.2c-0.1,0.4-0.1,0.9,0,1.4l0,0
		c0.1,0.5,0.1,1,0,1.6v0c0.5,0.3,1.1,0.4,1.6,0.2c0.4-0.1,0.7-0.2,1.1-0.4l0.9-0.3c1-0.3,1.4,0.2,1.5,0.6c0.1,0.3,0.1,0.6-0.1,0.9
		c-0.2,0.3-0.5,0.5-0.8,0.5l0,0c0,0,0.1,0.1,0.1,0.1c0.4,0.4,0.6,1,0.4,1.6c-0.3,0.6-0.9,0.9-1.5,1c-0.8,0.2-1.5,0.3-2.3,0.3
		c0.6,0.3,1,0.8,1,1.4c0,0.1,0,0.2,0.1,0.3c0.6-0.1,1.3,0,1.9,0.1c0.8,0.2,1.7,0.2,2.4-0.2c0.7-0.5,1.7-0.3,2.3,0.3l0.2,0.1
		c0.3,0.2,0.4,0.4,0.5,0.8c0,0.1,0,0.1,0,0.2c0,0.5-0.3,1-0.7,1.3c-0.1,0.1-0.1,0.2-0.1,0.5c0,0.5-0.1,1-0.4,1.4l-0.8,1.1l-0.2-1.3
		c-0.1-0.7-0.3-0.7-1.1-0.7c-0.2,0-0.5,0-0.7,0c-1,0.1-2-0.2-2.8-0.8c-0.8-0.6-1.8-0.4-2.9-0.1l-0.8,0.2c-0.1,0-0.2,0.3-0.1,1
		c0,0.2,0,0.4,0.6,0.5c0.2,0,0.5,0,0.7-0.1c0.6-0.1,1.4-0.3,1.9,0.4s0.1,1.4-0.2,2l0,0c-0.1,0.2-0.2,0.5-0.3,0.7
		c-0.2,0.5-0.2,1.1,0,1.6c0.2,0.3,0.6,0.4,0.9,0.4c0.3,0.1,0.6,0.3,0.7,0.5c0.1,0.3,0.1,0.7-0.1,1c-0.6,0.9-1.3,1.3-2.1,0.9
		c-0.5-0.2-1-0.3-1.5-0.1l21.5,17.9c0.4-0.1,0.8-0.2,1.2-0.2c1.8,0,3.4,1.3,3.7,3.1l60.3-6.4l2.8-7.9
		C443.3,253.9,445.7,246.9,448.2,240L448.2,240z M391.6,303h0.4c1.4,0,2.8,0,4.2,0c1.2,0,2.4,0.1,3.5,0.2l0,0
		c0.8,0.1,1.7,0.1,2.6,0.2c5.2,0.3,10.4,1,15.5,2.1c7.9,1.8,15.7,4.3,23.1,7.5l-0.8-1.2c-1.3-1.9-2.3-3.5-3.5-5.1
		c-0.6-0.7-0.9-1.6-0.8-2.6c0.3-0.9,0.9-1.6,1.7-2l0.5-0.3l0.9-0.6c1.3-0.9,1.5-1.3,1.1-2.9c-0.1-0.4,0-0.9,0.3-1.2
		c0.2-0.2,0.2-0.3,0-0.8c-0.6-1.7-1.5-3.2-2.6-4.6c-0.9-1-1.8-2.2-2.6-3.2l0,0c-0.6-0.8-1.2-1.6-1.9-2.4c-0.6-0.6-0.7-1.5-0.4-2.3
		c1.4-3.7,2.7-7.5,4-11.2l0.8-2.4l-60.1,6.5c-0.5,2-2.5,3.2-4.5,2.7c-0.7-0.2-1.3-0.6-1.8-1.1l-49.8,14c-0.1,0.1-0.2,0.3-0.3,0.4
		l-0.3,0.5c-0.3,0.5-0.3,0.5-0.2,0.6c1.5,1.1,0.6,2.4,0.2,3c-0.1,0.1-0.2,0.2-0.3,0.4c-0.3,0.3-0.3,0.4-0.3,0.4c0.1,0,0.2,0,0.4,0
		c0.2,0,0.4,0,0.6,0h0.2c0.2,0,0.3,0,0.5,0c0.3,0,0.5,0,0.8,0c0.5-0.1,1.1,0,1.6,0.3c0.2,0.1,0.3,0.3,0.3,0.5c0.2,0.9,0,1.8-0.5,2.5
		l0,0c-0.1,0.2-0.2,0.4-0.3,0.6c-0.2,0.5-0.8,0.8-1.3,0.8h-0.1c-0.5,0-1,0.1-1.4,0.2c-0.5,0.2-1,0.4-1.4,0.8l0.2,0.2
		c0.3,0.4,0.7,0.9,1,1c0.7,0.3,1.3,0.9,1.5,1.6c0.1,0.3,0.2,0.5,0.4,0.8c0.2,0.2,0.3,0.5,0.2,0.8c-0.1,0.4-0.3,0.7-0.7,0.8
		c-0.3,0.1-0.4,0.2-0.5,0.3c0,0.3,0,0.6,0.2,0.9l0,0c0,0.1,0.1,0.3,0.1,0.4c0.2,0.5,0.4,1,0.7,1.4v0.1l0.3,0.6
		c0.5,0.8,0.5,1.7,0.2,2.5c-0.5,0.7-1.3,1.1-2.1,1.1c-0.5,0-0.7,0.4-0.9,1c0,0.1-0.1,0.2-0.1,0.3c-0.6,1.7-1.7,3-3.3,3.9
		c-0.3,0.2-0.5,0.6-0.7,1.1c-0.1,0.2-0.2,0.4-0.3,0.7c-0.5,1.3-2,2-3.3,1.5c0,0-0.1,0-0.1,0c-1.7-0.8-2.9,0-4.3,0.9l-0.1,0.1
		l-0.3,0.2l-0.1,0.1c-0.3,0.2-0.6,0.4-0.9,0.5c0,0,0,0,0,0c0,0,0,0,0,0.1c0,0.1,0,0.2-0.1,0.2c-0.1,0.1-0.1,0.2-0.2,0.3v0.1
		l-0.1,0.1c-0.1,0.1-0.2,0.2-0.3,0.3l0,0l-0.1,0.1c-0.2,0.1-0.3,0.2-0.4,0.3l-0.2,0.1c-0.9,0.6-1.3,1.7-1,2.7
		c0.1,0.8,0.3,1.6,0.5,2.4v0.2c0,0.1,0,0.2,0.1,0.3l0.1,0.2c0.7-0.3,1.4-0.6,2.1-0.9c1.3-0.7,2.7-1.2,4.2-1.3c0.4,0,0.8-0.1,1.2-0.3
		c2.2-1.1,4.6-1.8,7.1-2h0.2c-0.1-0.3,0-0.7,0.1-1c0.3-0.5,0.8-0.8,1.4-0.8c2-0.5,3.9-0.9,5.9-1.2c1.5-0.2,2.9-0.7,4.1-1.5l0.2-0.1
		c1.4-1.1,3.1-1.7,4.9-1.9c0.7,0,1.3-0.1,2-0.3c0.4-0.1,0.8-0.3,1.1-0.5c0.7-0.4,1.6-0.7,2.4-0.7l0.6,0.1c0.5,0.1,1.1,0.1,1.4-0.1
		c0.2-0.3,0.3-0.6,0.3-0.9c0-0.4,0.4-0.6,0.6-0.6l0.2-0.1l0.5-0.3h0.1c0.5-0.3,1-0.5,1.5-0.7c0.3,0,0.6-0.2,0.9-0.3
		c-0.1-0.2-0.2-0.5-0.4-0.6c-0.3-0.2-0.4-0.6-0.2-0.9c0,0,0,0,0-0.1c0.2-0.3,0.4-0.6,0.6-0.9v-0.1c0.6-1,1.4-2.2,2.9-2.2h0.2
		c1-0.1,2-0.6,2.6-1.5l0.1-0.1c0.6-0.7,1.4-1.2,2.2-1.6c-0.1-0.3,0-0.7,0.2-1c0.4-0.5,1-0.7,1.6-0.7c0.7,0,1.4-0.1,2-0.4
		c0.8-0.4,1.7-0.5,2.7-0.5c0.1,0,0.2,0,0.3,0c-0.1-0.4-0.1-0.8,0.2-1.2c0.4-0.4,0.9-0.5,1.4-0.4h0.2c0.8,0,1.5,0.1,2.2,0.1l0.9,0.1
		c2.6,0.1,5.2-0.4,7.6-1.2C380.3,303.1,386,303.1,391.6,303L391.6,303z"/>
	<path class="st0" d="M357.5,231.5h-0.2c0.1-0.1,0.1-0.1,0.2-0.2c0.3-0.5,0.1-1.1-0.3-1.5l0,0l-0.1-0.2l0,0h0.7c0.3,0,0.5,0,0.8,0
		c0.2,0,0.3,0,0.5,0h0.1h0.2c0,0.1,0,0.1,0,0.2v0.3c0,1-0.1,1.2-0.7,1.4c-0.2,0-0.4,0-0.7,0L357.5,231.5L357.5,231.5z M250,223.5
		c-0.1,0.3-0.3,0.5-0.6,0.6c-1.8,0.7-1.9,2.1-1.9,3.7c0.1,1-0.1,2-0.4,2.9l35.8,2.4c0.1-0.2,0.1-0.4,0.2-0.6l-28.8-22
		c-0.4,0.4-1.1,0.6-1.6,0.4c-0.1,0-0.2-0.1-0.3-0.2l0,0l-0.1-0.1c-0.7-0.3-0.9-0.2-0.9-0.2s-0.2,0.2-0.3,0.9c0,0.4,0,0.7,0,1.1v0.1
		c0.1,0,0.1,0.1,0.2,0.1l0.1,0.1l0.1,0.1c0.1,0,0.2,0.1,0.3,0.2c0.2,0.1,0.3,0.2,0.5,0.4l0.1,0.1l0.2,0.2c0.2,0.1,0.3,0.3,0.5,0.5
		l0.1,0.1l0.1,0.1c0.2,0.2,0.4,0.5,0.6,0.7c0.3,0.4,0.6,0.7,0.9,1c0.2,0.2,0.3,0.5,0.3,0.7v0.2l-0.2,0.2c-0.4,0.5-0.7,1-0.7,1.6
		c-0.3,1-0.6,2.3-2.2,2.7c-0.4,0.1-0.6,0.4-0.9,0.9c-0.2,0.4-0.4,0.7-0.7,1C250.2,223.4,250.1,223.5,250,223.5z M351.8,253.1
		c0.5,0,0.9,0.1,1.3,0.3c0.3,0.1,0.6-0.2,0.7-0.5l0,0c-0.6-0.1-1.1-0.4-1.5-0.9c-0.4-0.8-0.4-1.6-0.2-2.4c0.1-0.3,0.2-0.7,0.4-1l0,0
		c0.2-0.4,0.3-0.7,0.3-0.9s-0.3-0.1-0.8,0c-0.3,0.1-0.7,0.1-1.1,0.1c-0.8,0.1-1.5-0.5-1.6-1.4c-0.1-0.6-0.2-2,0.9-2.2l0.7-0.1l0,0
		c1.2-0.3,2.6-0.6,3.8,0.3c0.7,0.5,1.6,0.7,2.5,0.6h0.3c0.5-0.1,1,0,1.5,0.3c0-0.4,0.2-0.7,0.4-1c0.3-0.3,0.3-0.4,0.3-0.5
		s0,0-0.1-0.1c0,0,0-0.1-0.1-0.1l-0.2-0.2c-0.5-0.4-0.7-0.5-1.1-0.3c-1,0.5-2.1,0.6-3.1,0.3c-0.6-0.1-1.1-0.1-1.7-0.1
		c-0.2,0-0.4,0-0.6-0.1c-0.3-0.3-0.5-0.7-0.5-1.1c-0.1-0.6-0.2-0.7-0.8-0.6c-0.8,0.1-0.8,0.1-0.8,0.5c0,0.3-0.1,0.6-0.3,0.9
		c-0.2,0.2-0.4,0.3-0.7,0.3h0c-0.3,0-0.9-0.1-1-1.1V242c-0.1-0.6-0.2-1.3-0.2-2c0-0.3,0.1-0.6,0.2-0.9c0.3-0.3,0.7-0.4,1.1-0.4h0.2
		c0.4-0.1,0.7,0,1,0.3c0.2,0.2,0.2,0.5,0.1,0.7c1.1,0.1,2.3,0,3.3-0.3c0.7-0.2,0.7-0.4,0.7-0.4s0-0.3-0.3-0.6
		c-0.3-0.3-0.5-0.8-0.3-1.2c0.1-0.2,0.2-0.4,0.4-0.5l-0.4,0.1h-0.1c-0.3,0.1-0.7,0.3-1.1,0.4c-0.9,0.3-1.9,0.1-2.6-0.4
		c-0.3-0.2-0.5-0.6-0.4-1c0.1-0.4,0.1-0.9,0-1.3c-0.1-0.6-0.1-1.1,0-1.7c0.2-0.9,0.7-1.1,1.1-1.1c0.3,0,0.7,0.1,0.9,0.3
		c0.2,0.3,0.4,0.6,0.3,1c0,0.2,0,0.4,0.1,0.6c0.1,0.1,0.6,0.1,0.9,0.1h0.8c1,0,1.3,0,1.3-0.8c0-0.4,0.1-0.7,0.3-1
		c-0.2,0-0.5,0-0.7,0c-1.2-0.2-2-1.4-1.8-2.6v-0.2c-0.1-0.6,0.1-1.2,0.5-1.7c0.4-0.3,0.8-0.4,1.3-0.3c0.1,0,0.2,0,0.3,0
		c0,0,0.1-0.1,0.1-0.5v-0.4c0-0.4,0-0.8,0-1.1c0.1-0.6,0.6-1.2,1.2-1.3c0.5-0.2,1,0,1.4,0.4l0.2,0.2c0-0.1,0.1-0.2,0.1-0.3
		c0.1-0.2,0.2-0.3,0.3-0.5c0,0,0.1-0.1,0.2-0.1l0,0h0.1l0,0c-2.7-3.3-5.6-6.5-8.3-9.4l-0.1,0.4l0,0.1c-0.2,0.5-0.4,1.1-0.5,1.6
		c-0.2,1.2-1.5,1.7-2.6,1.7h-0.2c-0.1,0-0.4,0-0.6,0l0,0c0,0.2,0.1,0.3,0.2,0.5c0.2,0.3,0.2,0.7,0,1.1c-0.1,0.2-0.4,0.4-0.7,0.4
		c-1.2,0.2-2.2,0.7-3,1.6c-0.8,0.8-1.7,1.3-2.7,1.7c-0.5,0.1-0.9,0.3-1.4,0.5c-0.9,0.5-2,0.7-3,0.8c-0.1,0-0.2,0-0.2,0h-0.1
		c-1.5,0-3,0.1-3.9,1.5c-0.3,0.4-0.8,0.6-1.2,0.4H331c0.3,0.8-0.1,1.6-0.8,1.9c0,0,0,0,0,0c-0.1,0.1-0.3,0.2-0.4,0.3
		c-0.3,0.4-0.7,0.8-1,1.1c-0.6,0.6-1.2,1.3-1.7,2c-0.4,0.5-0.9,0.9-1.4,1.2l0,0l24.5,20.4l0.2,0v0.1l0,0v-0.1
		C350.9,253.3,351.4,253.2,351.8,253.1z M260.1,247.7c0.4-0.1,0.7-0.2,1.1-0.3c0.3-0.1,0.7-0.2,1.1-0.2c0.8,0,1.5,0.3,2,0.9
		c0.3,0.4,0.7,0.4,1.4,0.4h0.7c1.3-0.1,2.5-0.6,3.4-1.4l0.1-0.1c0.9-0.6,1.9-1.1,2.9-1.4c0.2,0,0.4-0.1,0.6-0.1l10-9.5
		c-0.3-0.4-0.4-0.9-0.5-1.4l-34-2.2c0.9,1.1,1.8,2.9,1.7,3.8c-0.1,0.7-0.6,1.4-1.3,1.6c-0.3,0.1-0.4,0.2-0.4,0.3s0,0.2,0.3,0.7
		c0.6,0.9,1.2,1.5,2.3,1.4c0.7-0.1,1.3,0.3,1.6,0.9c0.3,0.5,0.6,1,0.9,1.5c0.7,1,1.2,2.1,1.5,3.3c0,0.1,0.1,0.2,0.1,0.3
		c0.9,0.7,2,1.2,3.1,1.5c0.2,0.1,0.5,0.1,0.8,0.1L260.1,247.7L260.1,247.7z M338.3,256.5c0.3,0.2,0.5,0.5,0.8,0.8
		c0.1,0.1,0.2,0.1,0.2,0.2l0.2-0.1c0.6-0.7,1.5-1.1,2.5-1.1c1,0,2,0.5,2.8,1.2c0.2,0.2,0.4,0.3,0.7,0.2c0.5-0.1,0.9-0.4,1.1-0.8
		c0.3-0.5,0.7-0.9,1.2-1.3c0.5-0.4,0.9-0.9,1.2-1.4L324.5,234c-0.1,0.1-0.2,0.3-0.2,0.5c-0.1,0.2-0.2,0.4-0.3,0.6
		c-0.2,0.3-0.3,0.7-0.3,1.1c0.1,1.6-0.6,2.7-1.8,2.8h-0.2c-1.1-0.2-2-0.9-2.4-1.9c-0.4-0.8-0.6-0.9-0.7-0.9l0,0
		c-0.1,0-0.3,0.1-0.8,0.5c-0.3,0.3-0.7,0.5-1.2,0.6c-0.7,0.1-1.4,0.4-1.8,1c-0.3,0.4-0.7,0.7-1.2,0.7c-0.5,0-0.9-0.3-1.2-0.7
		c-0.3-0.4-0.8-0.6-1.3-0.6c-1,0-2-0.4-2.8-1c-0.2-0.2-0.4-0.1-1,0.1c-1.2,0.5-2.5,0.4-3.5-0.4c-0.2-0.2-0.5-0.3-0.8-0.3
		c-0.5,0.1-1-0.1-1.3-0.5l0,0c0-0.1-0.1-0.1-0.2-0.2c-0.4-0.3-0.7-0.6-1-1v0c-0.8-0.9-1.4-1.7-2.8-1.7h-0.1c-1.7,0-2.9-1.2-4-2.5
		c-0.4-0.5-0.8-1-1.1-1.5l0,0c-0.5-0.6-0.9-1.2-1.3-1.7c-0.3-0.3-1-1.1-0.2-1.8c0.5-0.6,0.8-1.3,1-2v-0.1c0.1-0.3,0.2-0.5,0.3-0.8
		c0-0.1,0.1-0.2,0.1-0.2l0,0c-0.3-1.1-0.2-2.4,0.5-3.4c0.2-0.3,0.3-0.7,0.4-1c0.3-1,0.2-1.5-0.6-1.8c-0.4-0.2-0.8-0.4-1.1-0.6
		c-0.1,0-0.2-0.1-0.2-0.1c-0.3-0.1-1.1-0.3-1-1.2s0.9-0.9,1.3-0.9l0,0c0.1,0,0.1,0,0.2,0l0,0l0,0c-0.1,0-0.1-0.1-0.2-0.1
		c-1.5-1.3-3.2-1-5.1-0.8c-0.9,0.1-1.8,0.4-2.6,0.6l-0.7,0.2c-0.1,0-0.3,0.1-0.4,0.1h-0.1l3.7,17.4l0,0c2.1,0,3.7,1.7,3.7,3.7
		c0,0.3,0,0.6-0.1,0.9l44.7,20.8C336.3,254.8,336.7,255,338.3,256.5z M264.3,213.6c-0.5,0.6-1.4,0.7-2.1,0.5
		c-0.2-0.1-0.5-0.2-0.7-0.3s-0.6-0.2-1-0.4l23.4,18c0.3-0.2,0.6-0.4,0.9-0.6l-3.8-17.6c-0.7-0.1-1.3-0.3-1.9-0.5l-0.4-0.1
		c-0.4-0.1-0.7-0.4-0.9-0.8c-0.2-0.8,0-1.6,0.5-2.2c0.1-0.2,0.2-0.3,0.4-0.5c0.3-0.4,0.4-0.5,0.4-0.5c-0.1-0.1-0.1-0.1-0.2-0.2
		c-0.1-0.1-0.3-0.2-0.5-0.1c-0.4,0.2-0.6,0.4-0.8,0.8c-0.5,0.9-1.3,1.5-2.2,1.9h-0.1c-0.3,0.2-0.6,0.3-0.9,0.5
		c-0.3,0.2-0.7,0.3-1,0.1c-0.3-0.2-0.5-0.5-0.5-0.9c0-0.1,0-0.3-0.1-0.4c0,0-0.1-0.1-0.7,0.1l-0.2,0.1c-0.4,0.1-0.9,0.3-1.2,0.6
		c-0.4,0.5-1.1,0.8-1.7,0.8c-1.6-0.1-3.2,0.4-4.5,1.4C264.5,213.4,264.4,213.5,264.3,213.6L264.3,213.6z M252.3,205.9l-0.1-0.1
		c0,0.1-0.1,0.1-0.1,0.2c-0.1,0.3-0.1,0.5-0.1,0.8l2,1.5c0.4,0,0.7,0.3,0.8,0.6c0,0,0,0,0,0.1l1.6,1.2c-0.1-0.1-0.2-0.3-0.2-0.4
		c0,0,0-0.1,0-0.1v-0.1c0-0.1-0.1-0.3-0.1-0.4c0-0.1,0-0.2,0-0.2c0-0.2,0-0.3,0-0.4s0-0.2,0-0.2v-0.1c-0.2-0.1-0.3-0.2-0.4-0.4
		l-0.1-0.1c-0.1-0.1-0.2-0.3-0.2-0.4c-0.5-1.1-0.9-1-1.3-0.8c-0.6,0.4-1.3,0.2-1.7-0.3C252.4,206.1,252.3,206,252.3,205.9
		L252.3,205.9z M258.4,211.5c-0.1-0.1-0.2-0.3-0.3-0.4c-0.2,0-0.5-0.1-0.7-0.2l1.2,1l-0.1-0.1C258.5,211.7,258.5,211.6,258.4,211.5
		L258.4,211.5z M335.2,258.5l-0.4-0.2c-0.1,0-0.1-0.1-0.2-0.1l0,0c-0.1,0-0.3-0.1-0.4-0.2c-0.3-0.1-0.6-0.5-0.6-0.8c0,0,0-0.1,0-0.1
		l-44.2-20.6c-1.2,1.6-3.4,2-5.1,0.8L275,246c0.4,0.3,0.7,0.7,0.8,1.2c0.3,1.3,1,1.3,2.1,1.3c0.3,0,0.5,0,0.7,0
		c1,0.1,2.1,0.1,3.1,0.1c0.5,0,1,0,1.6,0c1.1,0,2.2-0.2,3.2-0.7c0.3-0.2,0.7-0.3,1-0.2c0.3,0.2,0.6,0.4,0.7,0.8c0.8,1.4,0.4,3.2-1,4
		c-0.8,0.5-0.6,1.3-0.1,2.6c0.3,0.7,0.8,1.4,1.5,1.8c0.8,0.6,1.5,1.4,2,2.2c0.2,0.1,0.3,0.2,0.4,0.4c0.3,0.1,0.5,0.2,0.7,0.4h0.2
		c0.7,0.1,1.3,0.4,1.9,0.8h0.1l0.3,0h0.1l0.3,0.1h0.1l0,0l0.2,0.1l0.1,0.1l0,0l0,0h0.1l0.2-0.2l0.1,0.3h0.1h0.1h0.1
		c0.1,0,0.2,0.1,0.3,0.2l0.3,0c0.4-0.1,0.8,0.1,1.1,0.3l1.2,0.2c0.1,0,0.2,0,0.3,0h0.1c0.1,0,0.2,0,0.3,0.1l0.1,0
		c0.1,0.1,0.2,0.1,0.3,0.2c0.3-0.2,0.7-0.3,1-0.2l0.7-0.3l0,0l0.1-0.2h0l0,0c0.1-0.1,0.1-0.1,0.2-0.1l0.1,0c0.1-0.1,0.2-0.1,0.3-0.1
		h0.1c0.1,0,0.2,0,0.3,0.1l0,0l0,0c0-0.1,0-0.1,0-0.2l0-0.2v-0.1l0.1-0.3c0.1-0.4,0.2-0.7,0.4-1.1c0,0,0,0,0-0.1
		c0.4-0.9,0.7-1.9,0.8-2.9c0-0.6,0.1-1.1,0.3-1.7c0.1-0.1,0.2-0.2,0.3-0.3c0.5-0.4,1.1-0.4,2.2-0.2c0.2,0,0.3,0.1,0.5,0.1h0.2
		c0.1,0,0.2,0,0.4,0l0,0c1.1-0.1,2.1,0.7,2.2,1.8c0.1,0.3,0.1,0.6,0.1,0.9c0.1,0.9,0.1,1.2,1,1.1l0,0c0.2,0,0.4,0.1,0.5,0.2
		c0.2,0.3,0.3,0.6,0.3,0.9c0,0.1,0,0.2,0,0.3c0.3,1.3,0.8,1.4,1.3,1.4c0.8-0.1,1.6-0.1,2.5,0c1.1,0.1,2.1,0,3.2-0.1
		c0.8-0.2,1.7-0.1,2.5,0.3c0.5,0.4,1.3,0.3,1.7-0.2c0-0.1,0.1-0.1,0.1-0.2c0.7-1.1,2.2-1.5,3.3-0.8c0.8,0.4,1.7,0.8,2.5,1.2l0.8,0.4
		l0,0c0.1-0.1,0.1-0.2,0.2-0.2c0.2-0.3,0.4-0.6,0.7-0.8c1-0.8,2.3-1.1,3.6-0.9c0.6,0.1,1.1-0.2,1.3-0.8
		C335.8,258.9,335.6,258.7,335.2,258.5L335.2,258.5z"/>
	<path class="st0" d="M279.1,211.4c-0.1,0-0.1-0.1-0.2-0.1c-0.1-0.4,0.1-0.9,0.3-1.2c0.1-0.1,0.2-0.2,0.2-0.3l0,0
		c0.3-0.3,0.5-0.6,0.7-1l0.7,3.2c-0.5-0.1-0.9-0.2-1.4-0.4L279.1,211.4z M264.1,212.4c1.5-1.1,3.3-1.7,5.2-1.6h0.1
		c0.3,0,0.5-0.2,0.7-0.4c0.4-0.5,1-0.8,1.7-1h0.2c0.5-0.3,1.1-0.3,1.6,0c0.3,0.3,0.5,0.7,0.5,1.1c0.3-0.2,0.6-0.4,0.9-0.5
		c0.7-0.3,1.4-0.8,1.8-1.4c0.3-0.6,0.8-1.1,1.5-1.4c0.7-0.1,1.4,0.1,1.8,0.7l-2.2-10.1l0,0c-1.7,0-3.1-1.1-3.6-2.7l-14.8,1
		c0,0.2,0.1,0.3,0.2,0.5c1,1.7,0.8,3-0.7,4.2c-0.1,0.1-0.1,0.1-0.1,0.2s0,0.3,0.3,0.8c0.8,0.9,0.8,2.2,0,3.1
		c-0.1,0.1-0.2,0.1-0.2,0.2c-0.6,0.6-1.1,1.3-1.3,2.1c-0.1,0.3-0.2,0.6-0.4,0.9v0.3v0.1c0,0.1,0,0.2,0,0.3v0.1c0,0.1,0,0.2,0,0.2
		l0,0c0,0,0,0,0,0.1c0,0,0,0,0,0.1c0,0.1,0.1,0.2,0.2,0.3c0.3,0.3,0.6,0.4,1,0.5c0.5,0,0.7,0.5,1,0.9c0,0.1,0.1,0.1,0.1,0.2
		c0.6,0.8,1.5,1.3,2.4,1.6l0,0l0.7,0.3c0.4,0.2,0.6,0,1-0.3C263.8,212.6,263.9,212.6,264.1,212.4L264.1,212.4z M350.9,209.6
		c0.4,0,0.8,0.1,1,0.4l0.1,0.1c0.8-0.1,1.5-0.5,2.1-1c0.2-0.2,0.4-0.3,0.7-0.4c0.2-0.3,0.3-0.7,0.2-1c0-0.2,0-0.3-0.1-0.5l-1.1-0.9
		c-0.8-0.6-1.5-1.2-2.2-1.8c-0.2-0.2-0.3-0.1-0.3-0.1c-0.3,0.2-0.7,0.3-1.1,0.3c0,0.2,0,0.4-0.1,0.6c-0.4,0.6-1.3,0.5-1.6,0.5
		c-0.8-0.1-1.2,0.1-1.4,0.9c-0.1,0.4-0.4,0.7-0.7,0.9c-0.1,0.1-0.2,0.2-0.3,0.3c-0.3,0.6-1,0.8-1.6,0.7c-0.1,0-0.3,0-0.4,0
		c-0.7,0.3-1.4,0.7-2,1.1c-0.5,0.3-1,0.6-1.6,0.9c-1.6,0.7-3,1.9-4,3.4c-0.1,0.2-0.6,0.7-1,0.5c-1.5-0.7-2.4,1-2.5,1.2
		c-0.5,1-1.5,1.7-2.7,1.8l-0.2,0.1c-0.3,0.1-0.5,0.3-0.7,0.5c-0.4,0.5-1.2,0.8-1.8,0.6c-0.4-0.1-0.8-0.2-1.2-0.2l-0.4,0h-0.4
		c-0.5,0-1-0.1-1.4-0.2c-0.3,0.5-0.7,0.8-1.3,0.9c-0.3,0.1-0.6,0.1-0.9,0.1c-0.2,0-0.4,0-0.6,0.1l-0.1,0.2c-0.1,0.4-0.5,0.6-0.8,0.7
		c-0.4,0-0.7-0.2-0.9-0.5c-0.1-0.1-0.2-0.2-0.4-0.2c-0.5-0.2-0.9-0.6-0.9-1.1c0-1.3-1.1-2.4-2.4-2.3c-0.1,0-0.1,0-0.2,0
		c-0.4-0.1-0.8-0.3-1-0.6c-0.1-0.1-0.2-0.2-0.3-0.2c0,0.1-0.1,0.2-0.1,0.2c-0.1,0.3-0.3,0.6-0.5,0.7c-0.3,0.1-0.6,0.1-0.8-0.1h-0.1
		c-0.5-0.2-0.8-0.8-0.7-1.3c0.1-0.2,0.2-0.4,0.4-0.5c0.3-0.2,0.6-0.2,0.8-0.1l0,0l0.1-0.1c0.1-0.1,0.3-0.2,0.4-0.3
		c0.1-0.1,0.3-0.1,0.5,0c-0.1-0.2-0.2-0.4-0.5-0.5c-1,0.2-2.1-0.2-2.8-1l0,0c-0.3-0.3-0.6-0.5-0.9-0.6c-0.7-0.4-1.3-0.9-1.9-1.4
		v-0.1l0,0l-0.1,0.1c-0.6-0.7-1.3-1.2-2.2-1.5l-0.6-0.2l0.2-0.5c0.1-0.3,0.3-0.5,0.6-0.7c-0.5,0-0.9-0.2-1.2-0.6
		c-0.4-0.5-0.1-1.3,0.2-1.9s0.8-1.5,1.9-1.5h0.1c-0.2-0.8,0.1-1.6,0.7-2.1c0.2-0.2,0.3-0.5,0.3-0.7c0-0.2-0.1-0.3-0.2-0.4
		c-0.2-0.2-0.4-0.4-0.4-0.7c0-0.2,0.1-0.5,0.3-0.7c0.9-1.1,1.6-2.4,2-3.8l0,0c0.3-0.9,0.7-1.7,1.1-2.5c0.2-0.3,0.2-0.7,0.1-1.1
		l-0.2-0.9c-0.7-2.6-1.4-5.5-1.9-8.3c-0.2-1.2-0.7-1.6-2-1.7c-0.3,0-0.7,0-1,0.1c-0.9,0.1-2.2,0.3-3-1c-0.2,0.2-0.5,0.3-0.8,0.3
		c-0.4-0.1-0.7-0.4-0.8-0.8c0-0.1-0.1-0.1-0.1-0.1c-0.1,0-0.2,0-0.2,0c-0.7,0.4-1.5,0.6-2.2,0.7c-0.7,0.1-1.3,0.3-1.9,0.6
		c-1.5,1.1-3.6,1-4.9-0.4l-11,12.5c0.9,1.2,1,2.7,0.3,4l43.7,36.4l0,0l0.2-0.1c0.4-0.3,0.8-0.6,1.1-1c0.5-0.7,1.1-1.4,1.8-2l0.1-0.1
		c0.3-0.3,0.6-0.7,0.9-1c0.2-0.2,0.4-0.4,0.6-0.5c0.5-0.4,0.6-0.4,0.3-0.9c-0.1-0.1-0.1-0.2-0.1-0.4c0-0.1,0-0.3,0.1-0.4
		c0.2-0.4,0.7-0.6,1.1-0.5h0.3h0.2c1.3-2,3.6-2,5.1-1.9l0,0c0.9,0,1.8-0.3,2.6-0.7c0.5-0.2,1-0.4,1.5-0.5c0.2-0.1,0.4-0.1,0.6-0.2
		c0.6-0.3,1.2-0.7,1.7-1.2c0.7-0.7,1.5-1.2,2.4-1.6c0.3-0.1,0.6-0.2,0.9-0.2c-0.3-0.4-0.3-1-0.1-1.5c0.3-0.5,0.9-0.5,1.5-0.6h0.2
		c0.7,0,1.5-0.3,1.6-0.8c0.1-0.6,0.3-1.2,0.5-1.8c0.1-0.4,0.3-0.7,0.3-1.1c-0.2,0.1-0.5,0.1-0.7,0c-0.3-0.1-0.5-0.4-0.6-0.7
		c-0.1-0.4,0-0.8,0.3-1.1c0.2-0.2,0.4-0.3,0.7-0.2c0.1,0,0.2,0,0.3,0c0-0.1,0-0.3,0-0.4c0-0.3,0.1-0.6,0.2-0.8l0.1-0.2L350.9,209.6z
		 M277.9,190.4c0.6,0,1.3,0.2,1.8,0.5l10.9-12.4c-0.2-0.1-0.4-0.1-0.7,0c-0.2,0-0.4,0.2-0.5,0.5c-0.3,1.1-1.2,1.8-2.3,1.8l0,0
		l-0.3,0.1c-1.1,0.3-2.2-0.2-2.8-1.2c-0.2-0.4-0.2-0.9,0-1.3c0.1-0.3,0.4-0.5,0.7-0.7h-0.1c-0.4,0.1-0.9,0.3-1.2,0.6
		c-0.3,0.3-0.7,0.5-1.1,0.5c-0.5-0.1-0.8-0.5-1-0.9c-0.1-0.4-0.5-0.8-0.9-0.9c-1-0.5-1.7-1.4-2-2.5c-0.2-0.7-0.6-1.3-1.2-1.7
		c-0.3-0.2-0.4-0.6-0.2-0.9c0.6-1.8,0.6-1.8-1.1-2.8c-0.8-0.4-1.4-1.2-1.5-2.1v-0.3c0-0.4-0.1-0.7-0.3-0.9l-0.3-0.2
		c-0.8-0.4-1.8-1-1.8-2.4L272,163l-0.1-0.1c-0.9-0.2-1.8-0.7-2.4-1.4l-0.1-0.1c-0.2-0.2-0.4-0.3-0.5-0.5c-0.4-0.3-0.6-0.8-0.8-1.2
		c-0.2-0.5-0.3-0.8-0.6-0.9l-0.4-0.2l0.1-0.4c0.2-1.5-0.7-2.4-1.8-3.5l-0.2-0.2l-0.1-0.1l-0.1-0.1c-0.3-0.2-0.6-0.6-0.6-1
		c0-0.8-0.3-1.2-1.2-1.3c-0.3-0.1-0.7-0.2-1-0.3v-0.1v0.1c-0.4-0.2-0.9-0.3-1.4-0.2c-1.5,0.4-3,0.2-4.3-0.5
		c-2.5-1.3-4.9-2.7-7.2-4.2l0,0v0.1c-0.1,0.8-0.1,1.3,0.4,1.7c0.3,0.2,0.4,0.5,0.4,0.8c-0.1,0.5-0.3,0.9-0.7,1.1
		c-0.6,0.4-0.9,1.2-0.7,1.9c0.2,0.4,0,0.9-0.4,1.2c-0.4,0.3-1,0.2-1.3-0.2v0.2c0.1,0.5,0.1,1,0,1.4l0,0c0.5,0.1,0.9,0.4,1.3,0.7
		c0.2,0.2,0.5,0.4,0.8,0.5l0.6,0.1l-0.1,0.6c0,0.3,0,0.6,0,0.9c0.2,1-0.2,2.1-1,2.7c-0.3,0.2-0.5,0.6-0.5,1c0.1,0.4,0.4,0.7,0.8,0.7
		c0.7,0.2,1.1,0.8,1.2,1.5c0.2,0.8-0.1,1.6-0.7,2.2c-0.1,0.1-0.2,0.3-0.3,0.4c-0.1,0.1-0.1,0.3-0.1,0.4c0.1,0,0.2,0,0.3,0
		c1.9-0.4,3.1,0.6,4.2,1.5l0.2,0.1c0.4,0.3,0.8,0.6,1.2,0.8l0.2,0.1l0,0c0.3,0.1,1.2,0.4,0.9,1.4c0,0.1,0,0.1,0,0.2l0,0
		c0,0.6-0.4,1.2-1,1.4c-0.7,0.3-1.5,0-1.9-0.6l-0.5,0.1c-0.8,0.1-1.7,0.3-2.5,0.5l0.2,0.4c0.7,1.4,1.9,2.4,3.4,2.8h0.2
		c0.3,0,0.7,0,0.8,0.5c0.3,0.7,0.7,1.3,1.3,1.7c0.8,0.8,1.8,1.6,1.5,3c-0.1,0.5-0.2,1.3,0,1.5s0.4,0.2,0.9,0.2h0.2
		c0.2,0,0.5,0.1,0.6,0.3c0.2,0.3,0.2,0.7,0,1.1c-0.9,1.3-2.4,2.1-4,2.1c-0.4-0.1-0.8,0.1-1.1,0.7l0.3,0.1c0.2,0.1,0.3,0.2,0.5,0.2
		c1,0.7,2.3,0.8,3.5,0.5c1-0.2,2.1-0.1,3.1,0.4c0.6,0.2,1.1,0.4,1.7,0.4c0.7,0.1,1.3,0.7,1.2,1.5c-0.1,0.7-0.3,1.4-0.6,2.1
		c-0.1,0.3-0.3,0.6-0.4,0.9c-0.5,1.5-1.8,1.7-2.9,1.6c-0.3,0-0.5,0.1-0.7,0.3c0,0-0.1,0.1-0.1,0.1l14.7-1
		C274.5,191.8,276.1,190.5,277.9,190.4L277.9,190.4z M323.6,233.4c0,0,0.1-0.1,0.1-0.1l0,0L280.2,197c-0.2,0.2-0.5,0.4-0.8,0.5
		l3.1,14.5l0,0c0.1,0,0.2,0,0.3,0l0.6-0.2c0.9-0.3,1.8-0.5,2.8-0.7c2-0.3,4.2-0.6,6,1l0.1,0.1c0.3,0.2,0.6,0.5,0.6,0.9
		c0,0.8-0.8,1-1,1h-0.3h-0.1c0.2,0.1,0.4,0.1,0.6,0.3c0.3,0.2,0.6,0.4,0.9,0.5c1.1,0.4,1.7,1.7,1.3,2.8c0,0.1-0.1,0.2-0.1,0.3
		c-0.1,0.4-0.3,0.7-0.5,1.1c-0.5,0.8-0.7,1.7-0.4,2.6c0.1,0.3,0,0.6-0.1,0.8l-0.1,0.1c-0.1,0.2-0.2,0.5-0.2,0.7v0.1
		c-0.2,0.9-0.6,1.7-1.3,2.4c0,0,0,0.1,0.2,0.4c0.5,0.6,1,1.3,1.4,1.8s0.7,1,1.1,1.4c0.9,1.1,1.9,2.1,3.2,2.1h0.1
		c1.8,0,2.8,1.1,3.6,2.1v0.1c0.3,0.3,0.6,0.6,0.9,0.9c0.1,0.1,0.2,0.2,0.2,0.2c0.2,0.2,0.3,0.2,0.4,0.2c0.6-0.1,1.1,0.1,1.6,0.5
		c0.7,0.5,1.7,0.6,2.5,0.3c0.2,0,0.3-0.1,0.5-0.2h0.1h0c0.1,0,0.3-0.1,0.4-0.1h0.1c0.1,0,0.1,0,0.2,0h0.1h0.1h0.1
		c0.2,0.1,0.4,0.2,0.5,0.3c0.6,0.5,1.4,0.8,2.2,0.7c0.8,0,1.5,0.4,2,1c0.2,0.3,0.3,0.3,0.4,0.3s0.2,0,0.4-0.3
		c0.6-0.8,1.5-1.3,2.5-1.4c0.2,0,0.4-0.1,0.5-0.3c0.4-0.5,1-0.8,1.7-0.9c0.7,0.1,1.1,0.8,1.5,1.4s0.9,1.3,1.5,1.3h0.1
		c0.3,0,0.5-0.2,0.6-0.5c0.1-0.3,0.2-0.7,0.2-1v-0.1c0-0.6,0.1-1.2,0.4-1.7v-0.1c0.1-0.2,0.1-0.3,0.2-0.5
		C323.3,233.9,323.5,233.6,323.6,233.4L323.6,233.4z"/>
	<path class="st0" d="M236.3,193.5c-1.3,0.6-2.2,1.9-2.2,3.4c0,0.4,0.1,0.8,0.2,1.1l-13.1,7.5c-0.3-0.4-0.7-0.8-1.1-1
		c-0.5-0.3-1-0.4-1.6-0.4c-0.6,0-1.3,0.2-1.8,0.5c-0.8,0.5-1,0.5-1.3,0c-0.2-0.2-0.5-0.4-0.8-0.4c-0.7,0-1.3-0.2-1.8-0.7
		c-0.5-0.8-0.6-1.7-0.4-2.6c0-0.5,0-1.1,0-1.6c-0.2-1,0-2,0.6-2.9c0.1-0.1,0.2-0.2,0.2-0.4c0,0,0-0.1,0.1-0.1
		c3.4-2.4,2.5-5.6,1.7-8.5c-0.1-0.5-0.3-1.1-0.5-1.7c0-0.1-0.1-0.3-0.1-0.4l-0.1-0.3l-0.1-0.3c-0.1-0.2-0.1-0.5-0.2-0.7
		s0-0.3-0.1-0.5v-0.3v-0.2c0-0.2-0.1-0.5-0.1-0.7s0-0.3,0-0.5s0-0.2,0-0.3v-0.1c0-0.2,0-0.4,0-0.7c0.1-0.1,0.3-0.2,0.4-0.3
		c0.7-0.3,1.2-1.1,1.3-1.9c0.1-0.1,0.2-0.1,0.3-0.1c0.2,0,0.4,0.1,0.5,0.3c1.9,2.5,4.6,3.4,8.3,2.5c0.5-0.1,0.9-0.4,1-0.9
		c0.2-0.9,0.7-1.6,1.4-2.2c0.6-0.5,1.1-1.2,1.5-1.9c0.1-0.2,0.2-0.3,0.4-0.3c0.4-0.1,0.8,0,1.2,0.2c0.7,0.5,1.6,0.6,2.4,0.3
		L236.3,193.5z M249.5,211.9l0.2,0.2l0.1,0c0-0.3,0-0.6,0-0.9c0-0.7,0.3-1.3,0.8-1.7c0.3-0.2,0.7-0.2,1-0.2
		c-0.1-0.1-0.2-0.1-0.3-0.2c-0.3-0.2-0.5-0.6-0.4-0.9v-0.2l-10.7-8.2c-1.5,1.3-3.9,1.2-5.2-0.4c0,0,0,0,0,0l-13.3,7.5c0,0,0,0,0,0.1
		c0,0.1,0.1,0.3,0.1,0.4c0.1,0.9,0.3,1.7,0.5,2.5v0.1c0.1,0.3,0.2,0.7,0.2,1c0.2,0.7,0.5,0.7,0.7,0.8c2.7,0.5,3.6,1.5,3.8,4.2
		c0.2,1.7,0.2,3.4,0.3,5v0.2c0,1,0.7,1.8,1.7,1.9l0,0h0.1l-0.1-0.1c-0.1-0.1-0.2-0.2-0.3-0.3c-0.3-0.2-1.1-0.9-0.4-1.8
		c0.7-0.7,1.7-0.9,2.6-0.5c0.2,0,0.3,0,0.5,0c0.5-0.1,1,0.1,1.4,0.5c0.1,0.1,0.1,0.2,0.2,0.4c0,0,0,0.1,0,0.1v0c0,0.1,0,0.2,0,0.2
		c0,0,0,0.1,0,0.1v0.2c0,0,0,0.1,0,0.1v0.1c0.1,0.2,0.1,0.4,0.2,0.6v0.1c0,0,0,0.1,0,0.2c0.1,0.3,0.3,0.6,0.4,1
		c0.7,1.3,1,2.8,1.1,4.3c0,0.5,0.1,0.8,0.2,0.8s0.3,0,0.7-0.2l0.3-0.2c1.3-0.6,2.4-1.5,3.2-2.7c0.8-1,1.9-1.7,3.2-1.9l0.4-0.1
		c0.1,0,0.2,0,0.3-0.1h0.2l-0.1-0.1c-0.1,0-0.2,0-0.2,0c-0.8,0.1-1.6-0.1-2.2-0.6c-0.3-0.3-0.8-0.4-1.2-0.5
		c-0.6-0.1-1.1-0.6-1.1-1.1c-0.1-0.8-0.3-1.6-0.5-2.4s-0.3-1.6-0.5-2.3c-0.2-1.4,0.2-2.8,1-4c0.4-0.6,1.1-0.9,1.8-0.9
		c1.4,0.2,2.7,0,4-0.5c0.6-0.2,1.2-0.4,1.8-0.5C247.1,210.8,248.5,211.1,249.5,211.9z M260.3,193.1h0.1c1,0,1.6-0.1,1.9-0.9
		c0.1-0.3,0.3-0.7,0.4-1c0.3-0.5,0.5-1.1,0.5-1.7c0-0.2-0.1-0.3-0.2-0.4c-0.7-0.1-1.4-0.2-2-0.5c-0.8-0.4-1.6-0.5-2.5-0.4
		c-1.5,0.4-3,0.2-4.3-0.6l-0.3-0.1l0,0c-0.4-0.1-0.8-0.4-1-0.8c-0.1-0.3-0.1-0.5,0.1-0.8c0.3-0.9,1.3-1.5,2.2-1.3h0.2
		c1-0.1,1.9-0.6,2.5-1.3c-0.5,0-1-0.2-1.3-0.5c-0.5-0.5-0.4-1.3-0.2-2.4c0.1-0.8-0.4-1.3-1.2-2c-0.7-0.5-1.2-1.2-1.5-2
		c-0.1,0-0.3,0-0.4-0.1c-1.7-0.5-3.2-1.7-4-3.4c-0.3-0.4-0.4-0.9-0.2-1.4c0.1-0.2,0.3-0.3,0.5-0.4c1-0.3,1.9-0.5,2.9-0.6l0.8-0.1
		l0,0l0,0h0.1c0.3,0,0.5,0.2,0.6,0.5l0,0c0.1,0.2,0.2,0.4,0.7,0.2c0.2,0,0.2-0.1,0.3-0.6c0-0.1,0-0.2,0.1-0.3c0-0.1-0.2-0.1-0.2-0.1
		l-0.3-0.1c-0.5-0.3-1-0.6-1.4-0.9l-0.1-0.1c-1.1-0.9-2.1-1.7-3.4-1.4c-0.5,0.2-1,0-1.4-0.4c-0.1-0.1-0.1-0.1-0.1-0.2c0,0,0,0,0,0
		l0,0c0-0.1,0-0.2-0.1-0.2c0,0,0-0.1,0-0.1v0c0-0.1,0-0.2,0-0.3c0,0,0-0.1,0-0.1c0,0,0-0.1,0-0.1c0,0,0,0,0-0.1s0-0.1,0.1-0.2
		c0-0.1,0-0.3-0.1-0.4c-0.2,0-0.3,0.1-0.5,0.2c-0.2,0.1-0.4,0.2-0.7,0.2h-0.2c-0.4,0-0.9,0.1-1.2-0.3c-0.2-0.2-0.2-0.5-0.1-0.8
		c-1,0.5-1.8,1.4-2.3,2.5c-0.2,1-0.9,1.8-1.9,2c-0.2,0.1-0.6,0.2-0.7,0.4c0,0.1,0,0.2,0,0.3c0.2,0.4,0.1,0.9-0.2,1.2l0,0l-0.1,0.1
		l-0.3,0.6l0,0c-0.3,0.4-0.5,0.9-0.7,1.4c-0.2,1.2-1.3,2-2.4,1.8c0,0,0,0,0,0c-1-0.1-2,0-2.9,0.4l3.9,17.5h0.1
		c1.7,0,3.1,1.1,3.6,2.7l17-1.2c0.1-0.3,0.3-0.7,0.5-0.9C259.2,193.3,259.7,193,260.3,193.1z M258.8,197.2c-0.2-0.3-0.3-0.6-0.4-1
		l-16.9,1.2c-0.1,0.4-0.2,0.7-0.3,1.1l9.9,7.6c0-0.1,0.1-0.3,0.1-0.4c0.1-0.2,0.4-1,1-1c0.3,0,0.7,0.1,1.1,0.8
		c0.1,0.2,0.2,0.2,0.3,0.1c0.3-0.1,0.6-0.2,0.9-0.2c0.7,0,1.3,0.5,1.8,1.4c0,0.1,0.1,0.2,0.1,0.3l0,0c0-0.1,0.1-0.2,0.2-0.4
		c0.3-1,0.9-1.8,1.7-2.5c0.6-0.5,0.6-1,0.1-1.8c-0.4-0.4-0.6-1-0.5-1.5c0.1-0.4,0.3-0.7,0.5-0.9
		C259.4,199.2,259.5,198.4,258.8,197.2L258.8,197.2z"/>
	<path class="st0" d="M230.4,223.4c0.1-0.4,0-0.9-0.3-1.2c-0.1-0.2-0.3-0.3-0.4-0.4c-0.1-0.1-0.2-0.2-0.2-0.3
		c0.1-0.1,0.2-0.1,0.3-0.2h0.1l0,0c0.1,0,0.2,0,0.3,0h0.1c0.2,0,0.3,0,0.5,0.1c0.3,0.1,0.6,0.2,0.9,0.2c0.4,0,0.5,0,0.5,0
		c0,0,0,0,0,0.1l0,0c0,0,0,0.1,0,0.1v0.1v0v0.1c-0.2,0.2-0.3,0.4-0.4,0.5l-0.1,0.1v0c-0.1,0.1-0.3,0.3-0.4,0.4c0,0-0.1,0.1-0.2,0.1
		l0,0c-0.1,0.1-0.3,0.2-0.4,0.2l0,0L230.4,223.4z M220.2,275.8C220.2,275.8,220.2,275.8,220.2,275.8c0,0.1,0,0.2,0,0.2v0.1l-0.2,0.3
		l0,0l-0.1,0.1c-0.3,0.1-0.6,0.1-0.8,0.1h-0.1c0,0,0.1,0.1,0.1,0.1c0.2,0.1,0.4,0.3,0.5,0.5l0.1,0.1c0.5,0.5,0.7,1.2,0.7,1.9
		c0,0.2-0.1,0.4-0.2,0.5c0.6-0.4,1.2-0.5,1.9-0.4c0.6,0.2,1.1,0.6,1.4,1.2c0.1,0,0.2,0.1,0.3,0.1l0,0c0.9,0.2,1.7,0.8,2,1.8
		c0-0.1,0-0.2,0-0.4v-0.1c-0.1-1.2,0-2.3,0.3-3.5c0-0.2,0-0.5-0.5-0.9c-0.5-0.3-0.8-0.9-0.8-1.5c0-0.6,0.3-1.2,0.8-1.5l0.2-0.2
		l0.4-0.3L220.2,275.8z M255.9,266.8L255.9,266.8c-0.7,0-1.4-0.2-2-0.6l-16.3,17.2v0.2c0,0.1,0,0.3,0,0.4c-0.1,0.5,0,0.8,0.3,0.9
		c1,0.4,1.9,0.9,2.8,1.6c0.6,0.5,1.3,0.9,2,1.3c0.2,0.1,0.5,0.2,0.7,0.3c0.5,0.1,0.9,0.5,1,1c0.1,0.4,0,0.8-0.3,1
		c-1,0.9-1.5,1.6-1,2.8l0.1,0.3l-0.2,0.2c-0.8,1.2-1.2,2.5-1.4,3.9c-0.1,0.6-0.2,1.2-0.4,1.8c-0.1,0.5,0.1,1,0.4,1.4
		c0.1,0.2,0.3,0.5,0.4,0.7c0.5,0,0.9-0.1,1.3-0.4l0.4-0.2l0.1,0h0.1l0.3-0.1h0.2h0.1l0.3-0.1h0.2h0.1h0.3h0.3h0.2
		c0.1,0,0.2,0,0.3,0.1h0.1l0.2,0.1c0.1,0.1,0.3,0.1,0.4,0.2h0.1l0.1,0.1c0.2,0.1,0.4,0.3,0.6,0.5c0.1,0.1,0.2,0.2,0.5,0
		c0.1-0.1,0.2-0.2,0-0.6c-0.3-0.5-0.6-1-0.8-1.6c-0.5-0.7-0.5-1.6,0-2.3c0.5-0.7,0.9-1.4,1.2-2.2c0.3-1,0.9-2,1.6-2.8
		c1.2-1.2,2.3-2.1,4.2-1.7c0.7,0.2,1.4,0.4,2.1,0.6l0,0c0.9,0.4,2,0.7,3,0.7h0.2c0.5-0.1,1-0.3,1.5-0.5L255.9,266.8z M256.3,290.7
		L256.3,290.7z M229.2,250.8c-0.5,0.5-1,1-1.4,1.5c-0.1,0.2-0.2,0.3-0.3,0.5l0,0c-0.2,0.4-0.5,1-1.1,1h-0.1c-0.5,0-0.9-0.3-1.2-0.7
		l-0.2,0l-0.6,0.2l0,0c-0.5,0.1-0.9,0.4-1.2,0.7c-0.2,0.2-0.5,0.5-0.8,0.7c-1.1,1-1.7,1.6-1,2.9c0.2,0.3,0.2,0.7,0,1
		c-0.3,0.4-0.7,0.6-1.1,0.6h-0.1c-1.6,0-2.3,0.8-2.5,2.8c0,0.1,0,0.3-0.1,0.4v0.1l-0.1,0.3c0,0,0,0.1,0,0.1c0,0.1,0,0.2,0,0.3
		c0,0,0,0.1,0,0.2c0,0,0,0.1,0,0.1c0,0.1,0,0.2,0,0.3c0,0.2,0,0.3,0,0.5v0.5c0,0.2-0.1,0.4-0.1,0.5v0c0,0,0,0.1,0,0.1
		c0,0.1,0,0.1,0,0.2c-0.1,0.3-0.2,0.6-0.4,0.8l0,0h0.2c0.3,0,0.7,0,1,0.1h0.1c1.1-0.1,2,0.7,2.1,1.7c0,0.4-0.1,0.9-0.3,1.3
		c-0.1,0.3-0.2,0.6-0.4,0.8l-0.1,0.2c-0.3,0.7-0.3,1,0.1,1.4c0.5,0.5,0.8,1.3,0.8,2l31.7-10.4c0-0.1,0-0.3,0-0.4
		c0-0.3,0.1-0.6,0.1-0.9L229.2,250.8z M255.9,259.3c0.8,0,1.5,0.2,2.1,0.7l13.3-12.6c-0.3,0.2-0.7,0.4-1,0.6c-1.2,1-2.7,1.5-4.2,1.6
		h-0.6c-0.8,0.1-1.6-0.1-2.2-0.7c-0.5-0.5-1.2-0.6-1.8-0.4c-0.4,0.1-0.8,0.2-1.2,0.3h-0.1l-0.5,0.1c-1,0.2-4.6-1.2-5.1-2.1
		c-0.1-0.2-0.2-0.5-0.3-0.7c-0.2-1-0.7-2-1.3-2.9c-0.4-0.5-0.7-1.1-1-1.7c-0.1-0.2-0.3-0.3-0.5-0.3c-1.4,0.2-2.7-0.6-3.3-1.8
		c-0.4-0.5-0.6-1.1-0.4-1.6c0.2-0.5,0.6-0.8,1.1-0.9c0.3-0.1,0.5-0.4,0.6-0.7c-0.3-1.4-1-2.6-2-3.5l-0.5-0.3l-25.5-1.7l0,0l-0.1,0
		c-0.2,0.2-0.3,0.3-0.3,0.4s0.1,0.1,0.5,0.3c0.7,0.3,1.4,0.5,2.1,0.6c0.4,0.1,0.8,0.3,1,0.6c0.2,0.4,0.2,0.8,0,1.2l-0.2,0.5
		c-0.1,0.4-0.3,0.7-0.4,1.1c-0.4,0.8-0.3,1.2,0.1,1.6c0.7,0.7,1.5,1.4,2.1,2c1.3,1.4,2.8,2.7,4.4,3.7c1.8,1.1,2.5,3.5,1.4,5.3
		c-0.1,0.2-0.3,0.4-0.4,0.6c-0.3,0.3-0.6,0.6-0.9,1l-0.1,0.1l22.7,11.1C253.8,259.9,254.8,259.4,255.9,259.3L255.9,259.3z
		 M230.3,272.4c0.1,0,0.2,0.1,0.3,0.1c0.8,0.4,1.5,1,2.2,1.6c0.7,0.6,1.2,1,1.9,1h0.2c0.7,0,1.3,0.6,1.4,1.3v0
		c0.1,0.5,0.3,0.9,0.4,1.5c0.4,1.1,0.6,2.2,0.8,3.4l15.4-16.1l-0.2-0.2L230.3,272.4z M287.3,248.8L287.3,248.8
		c-1.2,0.6-2.4,0.9-3.7,0.9h-0.2H282h-0.1c-1.1,0-2.2,0-3.2-0.1c-0.2,0-0.4,0-0.6,0l0,0c-1.1,0-2.7,0-3.2-2.1
		c-0.1-0.3-0.2-0.5-0.5-0.6h-0.1l0,0l-15.1,14.3c0.3,0.5,0.5,1,0.5,1.6l45.9,4.9l-0.1-0.1l-0.1,0l-0.4-0.3l-0.1-0.1l-0.1-0.1l0,0
		l-0.3-0.2l-0.1-0.1l-0.1-0.1l-0.3-0.3l-0.2-0.2l-0.1-0.1l-0.3-0.3l-0.2-0.2v-0.1c-0.1-0.1-0.2-0.2-0.2-0.4l-0.1-0.3v-0.1
		c-0.1-0.1-0.1-0.3-0.2-0.4c0-0.1-0.1-0.2-0.1-0.4c0-0.2,0-0.3,0-0.5c0-0.1,0-0.3,0-0.4c0,0,0-0.1,0-0.1l0,0c-0.2,0-0.4-0.1-0.5-0.1
		l0,0l-1.2,0.5l-0.2-0.2l-0.1,0.1v0.1l-0.3,0.1v0.1l-0.3-0.1h-0.2h-0.3c0,0-0.1,0-0.2,0h-0.1v-0.1v-0.2l-0.5-0.1l0.2-0.1l-1.5-0.2
		c-0.4,0.2-0.9,0.2-1.3,0h-0.1l0.1-0.2l-0.1-0.3l-0.3,0.2l-0.4-0.3h-0.1l-0.1,0.1l0,0l-0.3-0.1l0,0l-0.1,0l0,0l0,0l-0.1-0.1
		c-0.1-0.1-0.2-0.2-0.3-0.2h-0.1l0,0h-0.1l-0.3,0.4l-0.1,0c-0.2-0.2-0.4-0.4-0.5-0.6l-0.2-0.1l-0.2-0.1l-0.2-0.1
		c-0.3-0.1-0.5-0.2-0.8-0.3l0,0v0.2h-0.3l-0.2-0.2h-0.2V261l-0.1-0.2c0-0.1-0.1-0.1-0.4-0.2h-0.2l-0.3-0.3v-0.1H290l-0.1-0.2
		c-0.4-0.8-1-1.5-1.7-2c-0.8-0.6-1.5-1.4-1.8-2.3c-0.3-0.6-0.5-1.2-0.5-1.9c0-0.2,0-0.4,0-0.5c0.1-0.4,0.2-0.7,0.5-1
		c0.1-0.2,0.3-0.3,0.5-0.5c1-0.7,1.2-1.5,0.7-2.7C287.4,249.1,287.3,249,287.3,248.8L287.3,248.8z M294.1,261.9L294.1,261.9z
		 M302.8,277.3c2-0.1,3.1-0.9,3.6-2.4c0.3-1,0.5-2,0.5-3v-0.1c0-0.6,0.1-1.2,0.2-1.7c0-0.3,0-0.6,0-0.9l-47.6-5.1
		c-0.3,1-1,1.8-2,2.3l4.8,22.5c0.1-0.6,0.3-1.1,0.8-1.4c0.6-0.4,1.4-0.2,2.5,0.1c0.4,0.1,0.6,0.1,0.6,0.1c0.1-0.1,0.1-0.2,0.1-0.3
		c0-0.9,0.3-1.7,0.8-2.5c0.2-0.4,0.4-0.8,0.6-1.2c0.1-0.6,0.7-1,1.3-1h0.1c0.5,0.1,0.9,0.4,1,0.9l0.1,0.1c0.2,0.5,0.4,0.9,0.7,1.4
		l0.2,0.4c0.7,1.5,1.3,2.8,1.9,4.1c0.4,0.8,1.1,1.4,2,1.7c0.5,0.2,1.1,0.5,1.5,0.9c0.1,0,0.3-0.1,0.4-0.1c1.2-1,2.9-1.2,4.3-0.5
		c0.1,0.1,0.2,0.1,0.3,0.1c0.1-0.1,0.1-0.3,0.1-0.4c0-0.5,0.1-1,0.1-1.5v-0.1c0.1-0.6,0.1-1.2,0.2-1.8c0-0.6,0.2-1.2,0.6-1.7
		c0.4-0.3,0.9-0.5,1.5-0.4h0.1c-0.1-0.5-0.1-1,0.1-1.4c0.2-0.7,0.2-1-0.2-1.4c-0.3-0.2-0.5-0.6-0.4-1c0.1-0.4,0.4-0.8,0.8-0.9
		c0.3-0.1,0.6-0.2,0.8-0.3l0,0c0.8-0.4,1.6-0.6,2.4-0.7h0.3c1,0.1,1.3,0.9,1.6,1.5v0.1c0.1,0.2,0.1,0.3,0.2,0.5
		c0.4,0.8,1.3,1.1,2,0.8c0,0,0.1,0,0.1,0c1.1-0.4,2-1.1,2.8-2l0.7-0.7l0.3-0.3c0.8-0.8,1.8-1.7,3.4-1.2c0.2,0,0.5-0.1,0.6-0.2
		c0.8-0.8,1.9-1.3,3-1.2L302.8,277.3z M236,230.1l10,0.6c0-0.1,0.1-0.2,0.1-0.3c0.3-0.6,0.4-1.2,0.4-1.8c0-0.2,0-0.5,0-0.7
		c0-1.8,0-3.7,2.5-4.7l0.1-0.2c0.1-0.2,0.2-0.4,0.4-0.5c0.2-0.2,0.4-0.4,0.5-0.7c0.3-0.7,0.9-1.2,1.6-1.4c0.9-0.2,1.1-0.9,1.4-1.9
		c0.1-0.7,0.4-1.3,0.8-1.8c-0.3-0.3-0.6-0.7-0.8-1s-0.4-0.5-0.6-0.7c0-0.1-0.1-0.1-0.1-0.2l-0.1-0.1l-0.1-0.1l-0.3-0.3l-0.2-0.1
		l-0.1-0.1l-0.1-0.1l-0.3-0.3c-0.1,0-0.1-0.1-0.2-0.1l-0.1-0.1c-0.1-0.1-0.3-0.2-0.4-0.2H250l-0.2-0.1l0,0h-0.1
		c-0.1,0-0.2-0.1-0.3-0.1V213v0.1l-0.2-0.2l0,0l-0.2-0.1c-0.8-0.6-1.7-0.8-2.7-0.7c-0.6,0.1-1.1,0.3-1.7,0.5c-1.4,0.6-3,0.8-4.6,0.6
		c-0.2,0.1-0.5,0.2-0.6,0.4c-0.7,0.9-1,2.1-0.9,3.3c0.1,0.8,0.3,1.5,0.5,2.3s0.3,1.6,0.5,2.4c0,0.1,0.1,0.2,0.2,0.3h0.1
		c0.6,0,1.1,0.3,1.5,0.6h0.1c0.4,0.3,0.9,0.5,1.4,0.5c0.4-0.1,0.8,0,1.1,0.2c0.3,0.2,0.5,0.5,0.5,0.9c0.1,0.9-0.8,1.1-1,1.1h-0.2
		l-0.4,0.1c-1,0.1-1.9,0.6-2.6,1.4c-0.9,1.3-2.1,2.3-3.5,3l-0.3,0.2L236,230.1z M227.8,229.5l6.5,0.4c-0.4-0.4-0.5-1-0.5-1.5
		c-0.1-1.3-0.4-2.7-1-3.9c-0.2-0.4-0.3-0.8-0.5-1.2l0,0v0c-0.2,0.2-0.3,0.3-0.5,0.5l-0.2,0.1l0,0c-0.2,0.1-0.4,0.2-0.5,0.3H231
		l-0.2,0.1c-0.3,0.1-0.6,0.2-0.9,0.3c-0.1,0-0.2,0-0.3,0.1c0.1,0.1,0.2,0.2,0.3,0.4c0.5,0.5,0.7,1.2,0.6,1.8
		c-0.2,0.6-0.7,1.2-1.3,1.5c-0.2,0.1-0.4,0.2-0.5,0.4C228.4,229.1,228.1,229.3,227.8,229.5z"/>
	<path class="st0" d="M185.3,284.7c0.7,0,1.3,0.2,1.9,0.5l-61.5,20.5h-0.1v0.1c-0.2,0-0.3-0.1-0.5-0.1c-0.7,0-0.7-0.1-0.8-0.3
		c0-0.3,0.1-0.7,0.3-0.9c0.3-0.6,0.9-1,1.5-1.2c0.9-0.2,1.8-0.5,2.6-1l0.4-0.2c0.6-0.3,1.3-0.5,2-0.5c0.3,0,0.5,0,0.8,0.1
		c1.5,0.6,3.3-0.1,3.9-1.6c0-0.1,0-0.1,0.1-0.2c0.1-0.2,0.3-0.4,0.4-0.5l0.4-0.5c1-0.9,1.3-2.4,0.9-3.6c-0.2-1.1-1-2-2-2.4
		c0,0-0.5-0.3-0.7-2.2c0.2-0.1,0.4-0.1,0.6-0.2l0.4-0.1c0.3-0.1,0.6-0.1,0.9-0.2c1-0.1,1.9-0.5,2.6-1.2c0.5-0.1,1.1-0.1,1.6,0.1
		c0.8,0.9,2.2,1.1,3.1,0.4l0.4-0.2c1.5-0.5,2.8-1.5,3.8-2.7c0.4-0.5,0.7-1.1,0.4-1.7s-1.1-0.4-1.4-0.3l0,0c-0.9-1.2-1.6-2.6-1.9-4.1
		c0-0.3,0.1-0.7,0.3-0.9c0.3,0.1,0.7,0.1,1,0c0.4-0.1,0.4-0.1,0.5,0.2c0.1,0.3,0.3,0.5,0.6,0.6c0.4,0.1,0.8-0.1,1-0.4l0.1-0.1
		c0.8-0.7,1.8-1.2,2.9-1.3c0.8-0.1,1.4-0.7,1.7-1.7l0,0h0.1l0,0c0,0.2,0,0.4-0.1,0.6c-0.1,0.3-0.2,0.6-0.3,1c-0.3,1-0.5,1.9-1.5,2.3
		c-0.5,0.2-0.8,0.7-0.8,1.3c0.1,0.9,0.7,1.6,1.5,1.9c1.1,0.4,2.3,0.8,3.6,1.2c0.5,0.1,0.5,0.2,0.6,0.4c0.1,0.5,0,0.6-0.3,0.7
		c-0.7,0.2-1.1,1-0.9,1.6c0.2,1,1.1,1.1,1.6,1.1c1.3,0,2.6,0,3.9-0.2c0.6-0.1,1.2-0.1,1.9-0.2h0.1c0.2,0,0.3,0,0.5,0
		c0,0.1,0.1,0.2,0.1,0.3c0,0.4,0.2,0.8,0.5,1c0.5,0.3,0.9,0,1.4-0.2l0,0c1.9-1.1,4.1-1.5,6.3-1.3c0.7,0.1,2,0.1,2.4-1.2
		c0-0.1,0.1-0.3,0.2-0.4c0,0,0.2-0.1,0.5,0c0.5,0.1,1.1,0.1,1.7,0l0.4-0.1c0.3,0,0.6-0.2,0.8-0.5c0-0.1,0.1-0.3,0-0.4
		c0-0.2,0-0.4,0-0.5c0-0.1-0.1-0.2-0.1-0.4c0,0,0-0.1,0-0.1c0,0,0.2-0.1,0.6-0.1c1.4,0.1,2.8,0.2,4.2,0.1
		C183.3,284.6,184.3,284.6,185.3,284.7z M204.3,299.1c-0.2,0.1-0.4,0.2-0.6,0.3c-0.6,0.2-1,0.6-1,1.2c-0.1,0.7-0.5,1.4-1.1,1.8
		c-0.8,0.2-1.6,0.1-2.2-0.5c-0.4-0.4-0.9-0.6-1.5-0.6h-0.9l0,0c-2,0.1-4,0.2-6-1.2c-0.2-0.1-0.4-0.3-0.6-0.4l0,0
		c-0.5-0.2-1-0.6-1.2-1.1c-0.1-0.5-0.1-1,0.2-1.5c-0.3-0.2-0.5-0.5-0.5-0.9c0-0.4,0.2-0.7,0.5-1l0,0l0.2-0.2
		c0.6-0.7,1.3-1.2,2.2-1.5c0.6-0.2,1.1-0.5,1.5-0.9c0.2-0.2,0.4-0.4,0.5-0.6c-0.1-0.1-0.2-0.2-0.4-0.2c-0.3-0.1-0.6-0.4-0.7-0.7
		c-0.1-0.2,0-0.5,0.1-0.7c0.2-0.3,0.1-0.4-0.2-0.8c-0.2-0.2-0.3-0.5-0.4-0.8c-0.4-1.6-1.5-2.4-3.4-2.6c-0.1,0-0.2-0.1-0.4-0.1
		l-60.6,20.2l0.9,0.3l0.3,0.1l1,0.3c1.3,0.5,2.6,0.8,4,1c5.8,0.5,11.8,1.1,17.5,3.8c1.4,0.7,2.9,1.3,4.3,2l0.1,0.1
		c5.3,2.2,10.5,4.9,15.4,8c1.1,0.7,2.2,1.4,3.4,2c1,0.5,2.1,1.1,3.1,1.8c0.6,0.4,1.3,0.7,2,0.8c0.9,0,1.7,0.1,2.6,0.3
		c0.3,0.1,0.7,0.1,1,0.2c0.6,0.2,1.4,0.4,1.7,0.1c1.7-1.4,3.5-1.1,5.1-0.9l0,0c0.4,0.1,0.7,0.1,1.1,0.2s0.6,0.1,1,0.1
		c0.9,0.2,1.8,0.2,2.7,0.1l0,0c0,0,0-0.1,0.1-0.1l10.8-12.1c-0.5-0.6-0.7-1.4-0.7-2.2c0-1.4,0.8-2.6,2-3.3L204.3,299.1z
		 M269.1,318.8c-0.6,0.7-1.2,1.6-1.6,2.4l-0.1,0.2c-0.2,0.5-0.8,0.9-1.4,0.9h-0.2c-0.5-0.1-0.9-0.5-1-1.1c-0.1-0.5-0.4-1-0.8-1.4
		c-0.3-0.3-0.5-0.6-0.7-0.9c-0.9-1.7-2.4-1.8-3.8-1.6c-0.4,0-0.7,0-1.1,0c-1.1-0.1-2.3-0.5-3.2-1.1l0,0c-0.7-0.5-1.5-0.9-2.4-1.3
		l-0.3-0.1c-0.5-0.3-0.8-0.3-1.1-0.1c-0.4,0.2-0.9,0.4-1.3,0.6c-0.8,0.1-1.5,0.6-1.9,1.3c-0.3,0.5-0.9,0.8-1.5,0.7h-0.5
		c-0.5,0-0.6,0.1-0.6,0.2c-0.2,0.7-0.2,1,0.1,1.2c1.2,0.9,0.5,1.8,0.2,2.2c-0.5,0.8-0.8,1.2-0.5,2c0.5,1.4,0.7,2.1,0.3,2.7
		c-0.1,0.1-0.2,0.2-0.4,0.3l-0.1,0c-0.2,0.1-0.3,0.1-0.5,0.1h-0.1c-0.2,0-0.5,0-0.7,0h-0.1h-1.1c-1.2,0.1-2.4-0.6-2.8-1.8
		c-0.5-1.2-1.7-2-3-1.9c-1.1,0.2-2.3,0-3.3-0.4c-1.2-0.3-2.2-1.2-2.5-2.4c-0.1-0.3-0.1-0.6-0.2-0.9c-0.2-1.4-0.5-2.7-1.8-3.4
		c-0.3-0.2-0.5-0.6-0.6-1c-0.1-1.1-0.2-2.1-0.2-3.2l-15.5,1.4c-0.2,2-2,3.5-4,3.3c-0.5-0.1-1-0.2-1.5-0.5l-9.9,11.1
		c0.2,0.1,0.5,0.1,0.7,0.2c2.3,0.7,4.7,1.1,7.1,1.2c0.8,0.1,1.5,0.1,2.2,0.2c0.1,0,0.2,0,0.4,0c0.7-0.4,1.5-0.6,2.2-0.6
		c0.6,0,1.2,0.1,1.9,0.2c0.8,0.1,1.5,0.2,2.4,0.3c1.2,0.2,2.5,0.3,3.8,0.6c3,0.4,5.9,1.5,8.4,3.2c0.7,0.6,1.5,0.9,2.4,1
		c0.8,0,1.6,0.5,1.9,1.2c0.5,1.3,1.5,2,3.4,2.3c3.2,0.5,6.2,1.6,9,3.2c1.3,0.7,2.7,1.1,4.2,1h0.3c3,0,6.1,0.3,9,1.1
		c1,0.3,2,0.7,2.9,1h0.1c3.1,1.1,5.9,2.2,9.2,1.9c0.7,0,1.4-0.2,2-0.6c1.1-1.1,2.7-1.8,4.3-1.9l1.5,0.1h0.3c1.9,0.2,3.7,0.2,5.6,0.1
		c0.7,0,1.3,0,2,0c1.8,0,3.6,0,5.1-1L276.2,323c-0.1,0.1-0.2,0.3-0.3,0.4c-0.1,0.1-0.1,0.3-0.2,0.4c-0.1,0.4-0.2,0.9-0.7,1
		c-0.3,0.1-0.6,0.1-0.8-0.1c-1.1-0.6-1.7-1.8-1.4-3c0.1-0.3,0.2-0.5,0.3-0.8l0.1-0.1c0-0.1,0.1-0.2,0.1-0.3l-0.3-0.1
		c-1.4-0.1-2.6-0.8-3.5-1.9c0-0.1-0.1-0.1-0.2-0.2C269.3,318.6,269.2,318.7,269.1,318.8z M304.5,326.5c0.1-0.1,0.2-0.2,0.4-0.2l0,0
		l0,0l0.2-0.2v-0.1l0,0c0,0,0.1-0.1,0.1-0.1v-0.1c0,0,0,0,0-0.1c-1-0.6-1.6-1.6-1.9-2.7c-0.1-0.8-0.3-1.3-0.5-1.4s-0.5-0.1-1.4,0.3
		c-0.4,0.2-1,0.3-1.4,0.1c-0.4-0.2-0.7-0.6-0.8-1.1c0-0.1-0.1-0.3-0.2-0.4c-0.2-0.4-0.3-0.8-0.2-1.2c0.3-0.5,0.8-0.8,1.3-0.8
		c0.4-0.1,0.5-0.2,0.5-0.2c0.1-0.2,0.3-0.3,0.6-0.3c0.2,0,0.3,0,0.5,0c-0.1-0.5-0.3-1-0.8-1.4c-0.5-0.3-1-0.4-1.5-0.5l-0.3-0.1
		c-0.3-0.1-0.7-0.1-1-0.1l0,0c-0.9,0-1.8-0.2-2.6-0.7c-0.2-0.1-0.4-0.2-0.6-0.2c-0.1,0-0.2,0.2-0.2,0.7c0,1-0.2,2-0.6,2.9
		c-0.2,0.4-0.2,0.5-0.2,0.6s0.1,0.2,0.6,0.4c0.7,0.4,1.2,1.1,1.3,1.9c0.1,0.5-0.1,1.1-0.5,1.4c-0.2,0.2-0.4,0.4-0.6,0.6l-0.1,0.1
		c-0.6,0.8-1.4,1.3-2.4,1.4h-0.1c-0.4,0-0.8-0.1-1.2-0.4c-0.5,0.6-1.2,1.1-1.9,1.2h-0.1c-0.5,0-1-0.2-1.3-0.6
		c-0.7,0.3-1.5,0.4-2.3,0.2c-0.5-0.2-0.9-0.5-1.1-1c-0.3-0.5-0.6-0.9-1.1-1.3V323l0,0l0,0.1c-0.3-0.3-0.6-0.5-0.8-0.8
		c-0.2-0.3-0.2-0.6-0.1-0.9c0.1-0.2,0.1-0.4,0.1-0.6l-0.5,0.1c-1.4,0.6-3,0.4-4.1-0.6c-0.2-0.2-0.3-0.2-0.4-0.2s-0.2,0.1-0.3,0.5
		s-0.2,0.7-0.3,1.1l14,19.2l0,0h0.1c0.3-0.2,0.7-0.3,1-0.4c1.4-0.6,2.8-1.1,3.4-2.6c0.2-0.3,0.5-0.6,0.8-0.6
		c1.3-0.2,2.5-0.7,3.6-1.4c0.5-0.3,1.1-0.5,1.7-0.7c0.7-0.2,1.4-0.6,2-1l-0.2-0.9c-0.2-0.9-0.4-1.8-0.5-2.6
		c-0.4-1.4,0.2-2.9,1.5-3.7L304.5,326.5z M230.7,309.5h0.2c-0.1-0.4-0.5-0.7-0.9-0.8c-0.5-0.2-1-0.4-1.4-0.6l-0.1,0
		c-1-0.4-1.8-1.3-2.2-2.4c-0.3-0.8-0.2-1.7,0.2-2.5c0.3-0.5,0.4-1.2,0.3-1.8c-0.3-0.1-0.6-0.2-0.9-0.4c-0.6-0.3-1-0.5-1.6-0.2
		c-1.3,0.6-2.7,0.8-4.1,0.7l-8.3,8.7c0.2,0.3,0.4,0.6,0.5,1l16.2-1.5c0.3-0.1,0.5-0.2,0.8-0.3C230,309.3,230.4,309.4,230.7,309.5
		L230.7,309.5z M205.9,297.1c-0.1,0.3-0.2,0.6-0.4,0.9l3.2,10.6l0,0h0.3c0.7,0,1.4,0.2,2,0.6l7.7-8.1c-2-0.6-4.1-1.1-6.1-1.5h-0.2
		c-0.6-0.1-1.2-0.2-1.9-0.4c-0.6-0.1-1.1-0.5-1.3-1.1c-0.1-0.7-0.4-0.9-1.2-0.8c-0.5,0.1-1-0.1-1.4-0.5c-0.2-0.2-0.4-0.3-0.4-0.3
		S206.1,296.7,205.9,297.1L205.9,297.1z"/>
	<path class="st0" d="M274.1,321.5c0.1-0.2,0.2-0.4,0.3-0.7l1,1.4c-0.1,0.2-0.2,0.5-0.4,0.7c-0.2,0.2-0.3,0.5-0.3,0.8v0.1
		c0,0.1,0,0.1,0,0.2c-0.6-0.4-0.9-1.1-0.7-1.7c0.1-0.2,0.2-0.4,0.3-0.5L274.1,321.5z M306,266.7c0.6,0.3,1.1,0.7,1.6,1.2l22.2,2.4
		c0.1-0.1,0.2-0.2,0.3-0.3c0.6-0.4,1-1.1,1.1-1.8c0-0.3,0-0.5,0-0.8v-0.2c0-0.2,0-0.4-0.1-0.6c-0.1,0-0.3,0-0.5,0
		c-0.5,0.1-1-0.3-1.1-0.9c0-0.3,0.1-0.6,0.3-0.8l0.3-0.4l0,0l0.1-0.1l0.1-0.1l0,0l0,0l0,0c0,0,0-0.1,0.1-0.1l0,0V264c0,0,0,0,0-0.1
		s0,0,0,0v-0.1c0,0,0,0,0-0.1v0l0-0.1v-0.1l-0.1-0.1l0,0l-0.1-0.1l-0.3-0.3l-1-0.5c-0.9-0.4-1.8-0.8-2.6-1.2
		c-0.6-0.4-1.4-0.3-1.9,0.3c0,0.1-0.1,0.1-0.1,0.2c-0.6,1.1-1.9,1.4-3,0.9c-0.1,0-0.1-0.1-0.2-0.1c-0.5-0.3-1.1-0.3-1.7-0.1
		c-1.1,0.2-2.3,0.3-3.4,0.2c-0.8-0.1-1.6-0.1-2.3,0c-1.2,0.1-2-0.6-2.4-2.2c0-0.2-0.1-0.3-0.1-0.5v-0.1c-1.7,0-1.8-1.4-1.8-2.1
		c0-0.2,0-0.4-0.1-0.6c-0.3-0.8-0.5-1.1-1.2-1.1h-0.1c-0.2,0-0.5,0-0.7-0.1c-0.1,0-0.3-0.1-0.4-0.1c-0.5-0.1-0.9-0.1-1.4,0
		c-0.1,0.4-0.2,0.8-0.2,1.2c-0.1,0.9-0.3,1.7-0.6,2.5c-0.1,0.2-0.2,0.5-0.3,0.7s-0.1,0.3-0.2,0.5s-0.1,0.2-0.1,0.3
		c-0.2,0.5-0.3,1-0.4,1.5l0,0v-0.2l-0.1,0.2l0.1,0.1h-0.1l-0.1,0.6l0,0C303.5,265,304.6,265.9,306,266.7L306,266.7z M263.8,303.7
		l-2.5-11.7c-0.5,0.3-1.1,0.5-1.7,0.5h-0.3c-1.2-0.1-2.3-0.3-3.3-0.8l0,0c-0.6-0.2-1.3-0.4-1.9-0.6c-1.5-0.3-2.2,0.3-3.3,1.4
		c-0.6,0.7-1.1,1.5-1.3,2.4c-0.3,0.9-0.8,1.8-1.3,2.5c-0.2,0.2-0.1,0.6,0.2,1.2c0.2,0.5,0.5,1,0.8,1.5c0.5,0.6,0.4,1.4-0.1,1.9
		c0,0,0,0,0,0c-0.5,0.6-1.4,0.6-2,0c0,0,0,0,0,0c-0.8-0.9-1.7-0.9-2.9-0.1l-0.3,0.2h-0.1h0l-0.3,0.1H243l0,0c-0.1,0-0.3,0.1-0.4,0.1
		h-0.2h-0.1c-0.1,0-0.3,0-0.4-0.1c-0.3-0.1-0.6-0.3-0.7-0.6c-0.1-0.2-0.2-0.4-0.3-0.5l0,0c-0.5-0.6-0.7-1.5-0.5-2.3
		c0.2-0.6,0.3-1.1,0.4-1.7c0.2-1.5,0.7-2.9,1.4-4.1c-0.6-1.7,0.3-2.9,1.4-3.8c0-0.1-0.1-0.2-0.2-0.2c-1.1-0.4-2.1-0.9-3-1.7
		c-0.8-0.6-1.6-1.1-2.5-1.5c-0.6-0.2-1-0.7-1-1.4l-15.3,16c0.9,0,1.8-0.2,2.7-0.6c0.3-0.2,0.7-0.2,1-0.2c0.6,0,1.1,0.2,1.6,0.5
		c0.2,0.1,0.5,0.2,0.7,0.3c0.3,0.1,0.6,0.3,0.7,0.6c0.2,0.9,0.1,1.9-0.4,2.7c-0.3,0.5-0.3,1.1-0.2,1.6c0.3,0.8,0.8,1.4,1.6,1.7
		l0.1,0.1c0.4,0.2,0.8,0.4,1.3,0.5c0.8,0.2,1.4,0.9,1.6,1.7l29.7-2.8C261.8,305.4,262.6,304.2,263.8,303.7L263.8,303.7z
		 M190.9,298.9c0.3,0.1,0.6,0.3,0.8,0.5c1.6,1.2,3.4,1.1,5.3,1h0.9h0.1c0.8,0,1.5,0.3,2.1,0.8c0.3,0.3,0.7,0.4,1.1,0.4
		c0.2-0.1,0.4-0.4,0.5-1c0.2-0.9,0.8-1.7,1.7-2c0.2-0.1,0.4-0.2,0.6-0.3l-4.6-15.4l-9.1,3c1.5,0.4,2.6,1.6,2.9,3.1
		c0.1,0.2,0.1,0.3,0.3,0.5c0.4,0.5,0.6,1.2,0.3,1.8l0,0c0.4,0.2,0.9,0.5,1,1s-0.4,1.1-0.8,1.5c-0.5,0.5-1.2,0.9-1.9,1.1
		c-0.7,0.2-1.3,0.6-1.8,1.1c-0.1,0.1-0.2,0.3-0.4,0.4l-0.1,0.1l0.1,0.1c0.3,0.3,0.4,0.8,0.3,1.1c-0.2,0.5-0.2,0.6-0.2,0.7
		S190.6,298.7,190.9,298.9L190.9,298.9z M218.5,270.3l0.1-0.3c0.1-0.2,0.2-0.4,0.3-0.7c0.3-0.7,0.2-1,0.1-1.2s-0.3-0.3-1.1-0.4h-0.1
		c-0.3-0.1-0.7-0.1-1-0.1c-0.4,0.1-0.9-0.1-1.1-0.4c-0.2-0.4-0.1-0.9,0.1-1.2c0.1-0.2,0.2-0.4,0.3-0.6v-0.1c0,0,0-0.1,0-0.1
		c0-0.1,0.1-0.3,0.1-0.5c0-0.1,0-0.1,0-0.2v-0.5v-0.3c0,0,0-0.1,0-0.1l0,0c-0.2,0-0.3,0-0.5,0l0,0h-0.1l-0.5-0.2
		c-0.1-0.1-0.3-0.1-0.4-0.2c-0.6-0.2-1.2-0.4-1.8-0.6c-1.2-0.7-2.6-0.9-4-0.6c-1.4,0.4-2.9,0.6-4.3,0.6h-0.1c-0.6,0-1.2,0.1-1.8,0.2
		h-0.3c0.4,0.3,0.6,0.7,0.7,1.1c0,0.6-0.2,1.2-0.6,1.6l0.1,0.1c0.5,0.6,0.9,0.9,1.5,1c0.6,0.1,1.2,0.5,1.6,1c0.5,0.6,0.7,1.3,0.7,2
		c-0.3,1.4-1.5,1.5-2.2,1.5h-0.2l-1,0h-0.1c-0.9,0-1.8,0.1-2.7,0.2c-0.8,0.1-1.5,0.3-2.2,0.6l2.6,8.7l18.9-6.3
		c0-0.6-0.2-1.1-0.5-1.5C218.1,272.3,217.9,271.2,218.5,270.3z M195.3,274.9c-0.3,1.2-1.3,2-2.5,2.2h-0.1c-0.7,0-1.7-0.4-2-2.4
		c0-0.4-0.2-0.9-0.5-1.2c-0.9-0.7-1.6-1.8-2-2.9c-0.2-0.7-0.5-1.4-0.8-2.1v-0.1c-0.2-0.5-0.4-1-0.6-1.5l-0.1-0.4
		c-0.5-1.3-1.1-2.7-0.4-4.4c0-0.2,0-0.4,0-0.5c0-0.2-0.1-0.4-0.2-0.5c-0.1-0.1-0.1-0.2-0.2-0.2c-1.1-0.1-2.1-0.5-2.9-1.2l0,0
		c-0.2-0.1-0.4-0.3-0.6-0.4c-0.5-0.3-0.7-0.3-0.7-0.3s-0.2,0.1-0.3,0.5c-0.1,0.4-0.3,0.7-0.6,1c-0.2,0.2-0.3,0.4-0.4,0.7
		c-0.2,0.5-0.7,0.9-1.2,1c-0.4,0.1-0.9-0.1-1.2-0.4c-0.1-0.1-0.2-0.2-0.3-0.2c-0.3-0.1-0.5-0.1-1.1,0.1l-0.2,0.1
		c-0.9,0.3-1.7,0.7-2.5,1.2l-0.4,0.2l-0.3-0.3c-0.5-0.4-0.6-1.1-0.2-1.6c0,0,0,0,0,0c0.5-0.7,0.3-1.5-0.1-2.3l-0.2-0.5
		c-0.7-1.2-1-2.6-0.8-4l-0.1-0.1l0,0c-0.5-0.5-0.7-1.3-0.5-2c0.2-0.7,0.8-1.2,1.5-1.4c0.4-0.1,0.7-0.4,0.9-0.8
		c0.2-0.6,0.2-1.2,0-1.8c-0.2-0.4-0.6-0.8-1.1-0.9c-0.5-0.2-0.9-0.6-1.2-1c-0.4-0.6-0.5-0.6-1-0.3c-0.7,0.4-0.9,0.7-0.7,1.3
		c0.3,0.9,0.2,1.8-0.1,2.6c-0.4,0.8-0.2,1.7,0.4,2.3c0.6,0.9,0.7,2,0.1,3c-0.4,0.8-1.2,1.2-2.1,1.1h-0.2c-0.8,0-1.6-0.2-2.3-0.5
		h-0.1c-0.8-0.4-1.7-0.6-2.6-0.3c-0.2,0.1-0.4,0.1-0.6,0.1H162c0.1,0.1,0.1,0.2,0.2,0.2c0.5,0.8,0.7,1.4,0.4,1.9s-1,0.6-1.9,0.6
		c-0.3,0-0.6,0-0.9-0.1h-0.1l0,0c-0.4,0.3-0.9,0.4-1.4,0.2c-1.3-0.5-1.8,0.2-2.5,1.5c-0.1,0.1-0.1,0.2-0.1,0.3v0.1
		c-0.2,0.4-0.4,0.8-0.8,1.1c-0.7,0.5-0.8,1-0.1,1.9l0.1,0.2c0.2,0.3,0.4,0.6,0.5,0.9c0.1,0.3,0.3,0.6,0.4,1c0.6,1.4,1.3,2.8,0.5,4.7
		c-0.2,0.4-0.4,0.8-0.5,1.2c-0.5,0.9-0.8,1.8-1,2.8c0,0.6-0.3,1.2-0.7,1.6h0l0.1,0.1c0.3,0.5,0.4,1.1,0.1,1.7
		c-0.1,0.3-0.2,0.6-0.2,0.8v0c-0.2,1.3-1,2.4-2.1,3c-0.1,0-0.2,0.2-0.2,0.3c0.1,0.4,0.4,0.8,0.8,0.9c1.1,0.4,2.3,0.8,3.5,1.1
		c0.6,0.2,1.2,0.4,1.4,1.2c0.2,0.8-0.2,1.6-1,1.9c0,0,0,0,0,0c-0.1,0-0.2,0.1-0.1,0.4c0,0.2,0,0.2,0.6,0.2c1.2,0,2.4,0,3.6-0.2h0.1
		c0.6-0.1,1.2-0.1,1.8-0.2h0.1h0.4c0.3,0,0.6,0.1,0.9,0.3c0.3,0.3,0.4,0.7,0.4,1l0,0l0.3-0.1c2.1-1.2,4.5-1.7,6.9-1.5
		c1,0.1,1.1,0,1.2-0.5c0.1-0.4,0.3-0.8,0.7-1c0.4-0.2,0.9-0.2,1.4-0.1c0.4,0.1,0.8,0.1,1.1-0.1l0.4-0.1h0.1c-0.2-0.5-0.2-1,0.1-1.5
		c0.4-0.4,1-0.6,1.5-0.5c1.4,0.1,2.8,0.2,4.2,0.1c1,0,2.1,0,3.1,0.1c1.1,0,2.2,0.4,3.1,1.1l10.5-3.5l-2.5-8.4
		C195.9,273.4,195.5,274.1,195.3,274.9L195.3,274.9z M210.4,297.9c0,0.1,0.2,0.2,0.4,0.2c0.7,0.1,1.3,0.3,2,0.4
		c2.3,0.4,4.6,0.9,6.8,1.7l17-17.9c-0.1-1.4-0.5-2.8-0.9-4.1c-0.1-0.5-0.3-1-0.4-1.5s-0.3-0.6-0.5-0.6c-1.1,0-2.1-0.4-2.8-1.2
		c-0.6-0.6-1.3-1-2-1.4c-0.6-0.4-1.5-0.4-2.1,0.1c-0.6,0.4-1.2,0.9-1.7,1.4l-0.2,0.2c-0.2,0.2-0.4,0.4-0.4,0.7
		c0,0.2,0.1,0.4,0.4,0.6c0.1,0.1,0.2,0.2,0.3,0.3c0.5,0.4,0.7,1.1,0.6,1.7c-0.2,1-0.3,2.1-0.2,3.2v0.1c0,0.4,0,0.8,0,1.2v0.2
		c0,0.8-0.3,1.2-0.9,1.3c-0.3,0-0.6-0.1-0.8-0.3c-0.3-0.3-0.4-0.7-0.3-1.1c0-0.9-0.3-1.3-1.3-1.6c-0.4-0.1-0.7-0.3-0.9-0.6
		c-0.1-0.3-0.4-0.6-0.7-0.7c-0.4-0.1-0.8,0.1-1.1,0.3c-0.3,0.2-0.7,0.2-1.1,0.1c-0.2,0-0.4,0-0.7,0H217l1.5-1
		c0.4-0.3,0.7-0.6,0.7-0.8s-0.2-0.6-0.5-1l-0.1-0.2c-0.1-0.1-0.2-0.1-0.2-0.2c-0.3-0.2-0.5-0.5-0.6-0.9l-16.8,5.6l4.2,14.1
		c0.1-0.4,0.5-0.8,0.9-0.9c0.6-0.1,1.1,0.2,1.4,0.6c0,0.1,0.1,0.2,0.4,0.1c0.2,0,0.3,0,0.5,0C209.4,296.2,210.2,296.9,210.4,297.9
		L210.4,297.9z M328.8,271.7l-20.6-2.2c0,0.3,0,0.6,0,0.9c-0.1,0.5-0.1,1-0.1,1.6v0.1c0,1.1-0.2,2.2-0.5,3.3c-0.9,2.5-3,3-4.6,3.1
		h-0.2c-0.8-0.1-1.7,0.2-2.3,0.8c-0.4,0.5-1.1,0.8-1.7,0.6c-1-0.3-1.5,0.1-2.3,0.9l-0.3,0.3c-0.2,0.2-0.5,0.4-0.7,0.6l0,0
		c-0.9,1-1.9,1.7-3.2,2.2c-1.2,0.6-2.7,0.1-3.4-1.1c-0.1-0.2-0.3-0.5-0.4-0.7c-0.3-0.6-0.4-0.8-0.7-0.8c-0.7,0-1.5,0.2-2.1,0.5
		l-0.2,0.1c-0.3,0.1-0.6,0.2-0.9,0.4l-0.1,0.1l0,0c0.4,0.3,0.6,0.7,0.6,1.2c0,0.2,0,0.4,0,0.6c0,0.2-0.1,0.4-0.1,0.5
		c-0.2,0.4-0.2,0.8,0,1.2l0.2,0.3l-0.1,0.4c-0.3,0.5-1.3,0.5-1.3,0.5c-0.1,0-0.3,0-0.4,0c-0.1,0-0.2,0.1-0.2,0.1
		c-0.2,0.3-0.3,0.6-0.2,0.9c0,0.6-0.1,1.2-0.2,1.8s-0.1,1-0.1,1.6c0,0.2,0,0.3-0.1,0.5c-0.1,0.3-0.3,0.6-0.6,0.8h-0.1l0,0
		c-0.4,0.2-0.9,0.1-1.2-0.1c-1-0.6-2.3-0.4-3.2,0.4c-0.3,0.2-1.2,0.6-1.6,0.2c-0.4-0.3-0.9-0.6-1.4-0.9c-1.1-0.4-2-1.2-2.6-2.3
		c-0.5-1.4-1.2-2.7-1.8-4l-0.2-0.4c-0.2-0.5-0.5-1-0.7-1.5l-0.1-0.2c0-0.1-0.1-0.2-0.1-0.2c0,0-0.2,0-0.3,0.3
		c-0.2,0.5-0.4,1-0.7,1.5c-0.4,0.6-0.6,1.2-0.7,1.9c0,0.5-0.1,0.9-0.5,1.2c-0.5,0.3-1.1,0.3-1.6,0.1c-0.3-0.1-1.3-0.4-1.6-0.2
		s-0.4,1.1-0.4,1.4c-0.1,0.4-0.2,0.7-0.5,1l2.7,12.4h0.2h0.3c0.6,0.1,1.2,0.3,1.7,0.7v0l0,0c0.2,0.1,0.3,0.3,0.4,0.4l0,0l0,0l0,0
		l0,0l0,0l0,0l0,0c0.2,0.2,0.3,0.4,0.5,0.7l52.4-14.7c0.5-0.7,0.9-1.4,1.3-2l0,0c0.4-0.5,0.7-1.1,0.9-1.7c-0.6-0.3-1.2-0.6-1.9-0.7
		c-1.5-0.5-2.3-0.7-2.6-1.3s-0.1-1.3,0.4-2.7s1.2-2.8,3.3-2.8h0.2c0.5,0,1,0,1.2-0.3c0.2-0.3,0.2-0.6,0.1-0.9
		c-0.1-0.4,0.2-0.8,0.5-1c0.4-0.3,1.1-0.9,1.2-1.1s-0.7-0.9-1.1-1.2l-0.1-0.1c-0.2-0.2-0.6-0.5-0.6-1c0-0.3,0.2-0.5,0.4-0.6
		c0.3-0.2,0.5-0.3,0.7-0.5c0.6-0.5,1.3-0.9,2-1c0.3,0,0.6,0,0.8,0.1C328.3,271.9,328.5,271.9,328.8,271.7L328.8,271.7z M322.9,300.3
		c0.3-0.6,0.6-1.2,0.5-1.6c0-0.1-0.1-0.2-0.8-0.1c-0.4,0-0.7,0-1.1-0.1h-0.2c-0.1,0-0.2,0-0.3,0c-0.1,0-0.2,0-0.3,0l0,0
		c-0.5,0.1-1.1-0.1-1.4-0.6c-0.3-0.6-0.1-1.3,0.4-1.7c0.1-0.1,0.1-0.1,0.2-0.2c0.7-0.9,0.7-1.1,0.1-1.5c-0.6-0.4-0.7-1.1-0.3-1.7
		c0-0.1,0.1-0.1,0.1-0.2l-50.7,14.2l0,0c0,0.1,0,0.1,0,0.2c0,0.9-0.4,1.8-1,2.5l7.9,10.9l0,0l0.1-0.2c0.1-0.6,0.5-1.1,1-1.3
		c0.5-0.1,1.1,0,1.4,0.4c0.9,0.7,2.1,0.9,3.1,0.4c0.7-0.2,1.3-0.4,1.7,0s0.3,1,0.1,1.7c0,0,0,0.1,0,0.1c0.2,0.2,0.4,0.4,0.6,0.6
		c0.6,0.4,1,1,1.4,1.7c0.1,0.2,0.3,0.4,0.5,0.4c0.5,0.2,1.1,0.1,1.6-0.2c0.3-0.2,0.6-0.2,0.9,0c0.2,0.3,0.5,0.4,0.9,0.5l0,0
		c0.4,0,0.9-0.5,1.2-0.9c0.3-0.3,0.8-0.4,1.2-0.2c1.1,0.6,1.6,0.1,2.5-0.8c0.2-0.3,0.5-0.5,0.8-0.7c0.1-0.1,0.2-0.3,0.1-0.5
		c-0.1-0.4-0.3-0.8-0.7-1c-0.5-0.2-0.9-0.6-1.1-1c-0.1-0.5,0-1,0.3-1.4c0.3-0.8,0.5-1.6,0.5-2.4c-0.1-0.6,0.2-1.2,0.8-1.6
		c0.5-0.2,1.2-0.2,1.6,0.2c0.6,0.3,1.4,0.5,2.1,0.5c0.4,0,0.8,0.1,1.2,0.1l0.3,0.1c0.7,0.1,1.3,0.3,1.9,0.6c0.7,0.5,1.2,1.4,1.3,2.3
		c0.1,0.3,0,0.6-0.2,0.8c-0.2,0.2-0.5,0.3-0.8,0.3H302c-0.1,0-0.2,0-0.3,0c-0.3,0.3-0.6,0.5-1,0.5c-0.2,0-0.5,0.1-0.7,0.2
		c0,0.1,0.1,0.2,0.1,0.3c0.1,0.2,0.2,0.4,0.2,0.5l0,0c0,0.1,0.1,0.4,0.2,0.5s0.1,0,0.6-0.1c0.5-0.2,1-0.4,1.6-0.4
		c0.3,0,0.5,0.1,0.8,0.2c0.7,0.5,1.1,1.3,1.1,2.2c0.2,0.8,0.8,1.6,1.5,2l0,0c0.1,0,0.1,0,0.2,0h0.1c0.1-0.1,0.3-0.2,0.4-0.3l0.4-0.3
		l0.1-0.1c1.5-1,3.1-1.9,5.3-0.9c0.8,0.3,1.5,0,2-1c0.1-0.1,0.1-0.3,0.2-0.4l0-0.1c0.2-0.7,0.6-1.3,1.2-1.7c1.3-0.7,2.3-1.9,2.8-3.3
		l0.1-0.3c0.2-0.9,1-1.6,1.9-1.7c0.5,0,1-0.2,1.2-0.6c0.2-0.5,0.1-1.1-0.2-1.5l-0.3-0.6c-0.3-0.5-0.6-1.1-0.8-1.6
		c0-0.1-0.1-0.2-0.1-0.3c-0.3-0.5-0.4-1.1-0.2-1.7c0.2-0.4,0.6-0.7,1-0.9c-0.2-0.3-0.4-0.6-0.5-1c-0.2-0.6-0.4-0.9-0.8-1
		c-0.6-0.3-1.1-0.8-1.5-1.3l-0.1-0.1c-0.1-0.2-0.3-0.4-0.4-0.5l-0.4-0.5l0.8-0.6c0.6-0.5,1.2-0.8,1.9-1c0.5-0.1,1.1-0.2,1.6-0.2h0.1
		c0.3,0,0.3,0,0.4-0.1C322.6,300.8,322.8,300.5,322.9,300.3L322.9,300.3z M264.4,318.5c0.2,0.3,0.3,0.5,0.5,0.7
		c0.5,0.5,0.9,1.2,1.1,1.9c0,0.1,0.1,0.2,0.1,0.2l0,0c0.2,0,0.4-0.2,0.4-0.3l0.1-0.2c0.4-1,1-1.9,1.8-2.7c0.2-0.3,0.6-0.5,1-0.6h0.1
		c0.4,0.1,0.7,0.3,1,0.6c0.7,0.9,1.7,1.4,2.8,1.5c0.1,0,0.3,0,0.4,0.1l-6.8-9.3c-0.5,0.2-1,0.3-1.5,0.3c-1.6,0-3.1-1.1-3.5-2.6
		l-29.9,2.8l0,0l-0.3,0.9l-0.7-0.8l-1.6,0.1c0.1,1,0.2,2.1,0.2,3.2c0,0.1,0,0.1,0.1,0.2c1.7,1,2,2.6,2.3,4.1c0,0.3,0.1,0.6,0.2,0.8
		c0.2,0.9,0.9,1.2,1.9,1.6c0.9,0.4,1.8,0.5,2.8,0.4c0.2,0,0.3,0,0.5,0l0,0h0.2h0.1c0.1,0,0.2,0,0.3,0l0.3,0.1l0.3,0.1l0.3,0.1
		l0.3,0.1l0.3,0.2c0.1,0.1,0.2,0.1,0.3,0.2c0.1,0.1,0.2,0.1,0.2,0.2c0.1,0.1,0.2,0.2,0.2,0.2l0,0c0.1,0.1,0.1,0.1,0.2,0.2
		c0.1,0.1,0.2,0.2,0.2,0.3l0,0c0,0,0,0.1,0,0.1l0.1,0.1c0.1,0.2,0.2,0.4,0.3,0.6c0.3,0.8,0.7,1,1.8,1.1c0.7,0.1,1.4,0.1,2.1,0
		c0-0.6-0.2-1.2-0.4-1.7c-0.1-0.3-0.2-0.7-0.2-1c0-0.7,0.3-1.4,0.8-2c0.1-0.2,0.3-0.3,0.3-0.5c0-0.1,0-0.1-0.2-0.3
		c-0.7-0.6-0.9-1.6-0.5-2.4c0.2-0.6,0.9-1.1,1.6-1h0.2h0.3c0.2,0,0.5,0,0.6-0.1c0.5-0.9,1.5-1.6,2.5-1.8c0.4-0.1,0.8-0.3,1.1-0.5
		c0.7-0.3,1.5-0.3,2.2,0.1l0.3,0.2c0.8,0.4,1.7,0.9,2.5,1.4c1.1,0.8,2.3,1.1,3.6,0.9C261,316.2,263.1,316.2,264.4,318.5z"/>
</g>
</svg>
