<svg id="Capa_1" data-name="Capa 1" xmlns="http://www.w3.org/2000/svg" xmlns:xlink="http://www.w3.org/1999/xlink" viewBox="0 0 1080 1080"><defs><style>.cls-1,.cls-2{fill:#89878c;}.cls-2{font-size:40px;font-family:UniviaPro-Regular, Univia Pro;}.cls-3{letter-spacing:-0.03em;}.cls-4{letter-spacing:-0.02em;}.cls-5{fill:none;}.cls-6{fill:url(#Degradado_sin_nombre_37);}.cls-7{fill:url(#Degradado_sin_nombre_37-2);}.cls-8{fill:url(#Degradado_sin_nombre_4);}.cls-9{fill:url(#Degradado_sin_nombre_5);}.cls-10{fill:url(#Degradado_sin_nombre_37-3);}.cls-11{fill:url(#Degradado_sin_nombre_2);}.cls-12{fill:url(#Degradado_sin_nombre_3);}.cls-13{fill:url(#Degradado_sin_nombre_63);}.cls-14{fill:url(#Degradado_sin_nombre_63-2);}.cls-15{fill:url(#Degradado_sin_nombre_63-3);}.cls-16{fill:url(#Degradado_sin_nombre_63-4);}.cls-17{fill:url(#Degradado_sin_nombre_63-5);}.cls-18{fill:url(#Degradado_sin_nombre_63-6);}.cls-19{fill:#4bb5b1;}.cls-20{fill:url(#Degradado_sin_nombre_63-7);}.cls-21{fill:url(#Degradado_sin_nombre_63-8);}</style><linearGradient id="Degradado_sin_nombre_37" x1="323.14" y1="564.55" x2="545.23" y2="564.55" gradientUnits="userSpaceOnUse"><stop offset="0" stop-color="#4bb5b1"/><stop offset="1" stop-color="#27ccac"/></linearGradient><linearGradient id="Degradado_sin_nombre_37-2" x1="365.31" y1="567.04" x2="778.49" y2="567.04" xlink:href="#Degradado_sin_nombre_37"/><linearGradient id="Degradado_sin_nombre_4" x1="323.14" y1="571.67" x2="545.32" y2="571.67" gradientUnits="userSpaceOnUse"><stop offset="0" stop-color="#dc6300"/><stop offset="0.04" stop-color="#dc5500"/><stop offset="1" stop-color="#dc6300"/></linearGradient><linearGradient id="Degradado_sin_nombre_5" x1="365.31" y1="571.67" x2="778.49" y2="571.67" gradientUnits="userSpaceOnUse"><stop offset="0" stop-color="#dc5500"/><stop offset="0.38" stop-color="#dc6300"/><stop offset="0.73" stop-color="#e78f00"/><stop offset="1" stop-color="#fff"/></linearGradient><linearGradient id="Degradado_sin_nombre_37-3" x1="323.14" y1="268.63" x2="778.49" y2="268.63" xlink:href="#Degradado_sin_nombre_37"/><linearGradient id="Degradado_sin_nombre_2" x1="556.31" y1="264" x2="778.49" y2="264" gradientUnits="userSpaceOnUse"><stop offset="0" stop-color="#bd6081"/><stop offset="1" stop-color="#b9046b"/></linearGradient><linearGradient id="Degradado_sin_nombre_3" x1="323.14" y1="264" x2="736.32" y2="264" gradientUnits="userSpaceOnUse"><stop offset="0" stop-color="#fff"/><stop offset="0.39" stop-color="#bd6081"/><stop offset="1" stop-color="#b9046b"/></linearGradient><linearGradient id="Degradado_sin_nombre_63" x1="411.12" y1="378.3" x2="516.73" y2="378.3" gradientUnits="userSpaceOnUse"><stop offset="0" stop-color="#feb142"/><stop offset="1" stop-color="#fea142"/></linearGradient><linearGradient id="Degradado_sin_nombre_63-2" x1="589.34" y1="432.29" x2="733.82" y2="432.29" xlink:href="#Degradado_sin_nombre_63"/><linearGradient id="Degradado_sin_nombre_63-3" x1="532.57" y1="387.64" x2="645.33" y2="387.64" xlink:href="#Degradado_sin_nombre_63"/><linearGradient id="Degradado_sin_nombre_63-4" x1="532.38" y1="345.99" x2="640.47" y2="345.99" xlink:href="#Degradado_sin_nombre_63"/><linearGradient id="Degradado_sin_nombre_63-5" x1="497.83" y1="350.5" x2="548.72" y2="350.5" xlink:href="#Degradado_sin_nombre_63"/><linearGradient id="Degradado_sin_nombre_63-6" x1="502.23" y1="410.13" x2="592.57" y2="410.13" xlink:href="#Degradado_sin_nombre_63"/><linearGradient id="Degradado_sin_nombre_63-7" x1="409.95" y1="464.25" x2="590.85" y2="464.25" xlink:href="#Degradado_sin_nombre_63"/><linearGradient id="Degradado_sin_nombre_63-8" x1="437.15" y1="439.13" x2="616.75" y2="439.13" xlink:href="#Degradado_sin_nombre_63"/></defs><title>color</title><path class="cls-1" d="M139.85,756.5c1.37.52,2.1,1.26,2.1,2.21v10.22a1.89,1.89,0,0,1-2.1,2.11H114.24c-5.16,0-7.8,1.9-7.8,5.58v1.27q0,4.58,5.38,6.64l18.23,6.74c5.58,2.11,9.69,4.74,12.11,7.9s3.69,8,3.69,14.65v2.74c0,14.86-11,21.18-31.61,21.18A143.66,143.66,0,0,1,88,835.11a2.38,2.38,0,0,1-2-2.64V823a2,2,0,0,1,2.21-2.22h30.46c5,0,7.48-1.68,7.48-5.16v-1.05c0-3.8-2-5.38-7.38-7.38l-18.23-6.64c-9.38-3.37-13.8-9.27-13.8-23.07v-2.32c0-15.07,9.48-21.08,30.45-21.08A111.31,111.31,0,0,1,139.85,756.5Z"/><path class="cls-1" d="M212,754.7c1.16,0,1.69.53,1.69,1.59v13.8c0,1-.53,1.58-1.69,1.58H175.36v16.44H209c1.15,0,1.68.53,1.68,1.58v13.07c0,1-.53,1.58-1.68,1.58H175.36v15.91H212c1.16,0,1.69.52,1.69,1.58v13.8c0,1.06-.53,1.58-1.69,1.58H157.45c-1.06,0-1.58-.52-1.58-1.68V756.39c0-1.16.52-1.69,1.58-1.69Z"/><path class="cls-1" d="M276.1,756.5c1.37.52,2.11,1.26,2.11,2.21v10.22A1.9,1.9,0,0,1,276.1,771H250.5c-5.17,0-7.8,1.9-7.8,5.58v1.27q0,4.58,5.37,6.64l18.23,6.74c5.59,2.11,9.7,4.74,12.12,7.9s3.69,8,3.69,14.65v2.74c0,14.86-11,21.18-31.61,21.18a143.66,143.66,0,0,1-26.24-2.63,2.38,2.38,0,0,1-2-2.64V823a2,2,0,0,1,2.21-2.22h30.45c5,0,7.49-1.68,7.49-5.16v-1.05c0-3.8-2-5.38-7.38-7.38l-18.23-6.64c-9.38-3.37-13.81-9.27-13.81-23.07v-2.32c0-15.07,9.49-21.08,30.46-21.08A111.14,111.14,0,0,1,276.1,756.5Z"/><path class="cls-1" d="M348.29,754.7c1.16,0,1.69.53,1.69,1.59v13.8c0,1-.53,1.58-1.69,1.58H311.62v16.44h33.61c1.16,0,1.69.53,1.69,1.58v13.07c0,1-.53,1.58-1.69,1.58H311.62v15.91h36.67c1.16,0,1.69.52,1.69,1.58v13.8c0,1.06-.53,1.58-1.69,1.58H293.71c-1.06,0-1.58-.52-1.58-1.68V756.39c0-1.16.52-1.69,1.58-1.69Z"/><path class="cls-1" d="M415.1,756c2,.53,2.74,1.26,2.74,3.27v10.22a1.4,1.4,0,0,1-1.58,1.58H393.82c-6.22,0-10.22,1.68-12.23,5.06s-2.84,9.9-2.84,19.7.95,16.33,2.84,19.81,6,5.16,12.23,5.16h22.44a1.4,1.4,0,0,1,1.58,1.59v10.22a3.1,3.1,0,0,1-2.74,3.26c-5.16,1.27-12.33,1.9-21.28,1.9-14,0-22.24-2.21-27.72-8.85S359,812.56,359,795.8c0-16.33,2.32-27.29,7.06-33.09s14-8.64,27.72-8.64A98.93,98.93,0,0,1,415.1,756Z"/><path class="cls-1" d="M481.7,756c2,.53,2.74,1.26,2.74,3.27v10.22a1.4,1.4,0,0,1-1.58,1.58H460.42c-6.22,0-10.22,1.68-12.22,5.06s-2.85,9.9-2.85,19.7.95,16.33,2.85,19.81,6,5.16,12.22,5.16h22.44a1.4,1.4,0,0,1,1.58,1.59v10.22a3.1,3.1,0,0,1-2.74,3.26c-5.16,1.27-12.33,1.9-21.28,1.9-14,0-22.24-2.21-27.72-8.85s-7.06-16.33-7.06-33.09c0-16.33,2.32-27.29,7.06-33.09s14-8.64,27.72-8.64A98.93,98.93,0,0,1,481.7,756Z"/><path class="cls-1" d="M203.46,858c2.56,3,3.82,8.74,3.82,17.15,0,8.57-.93,13.6-3.82,17s-7.16,4.58-14.42,4.58c-7,0-11.85-1.53-14.42-4.53s-3.76-8.74-3.76-17.09c0-8.58.92-13.65,3.76-17.09s7.16-4.65,14.42-4.65Q199.69,853.36,203.46,858Zm-20.81,6.94c-1,1.8-1.58,5.18-1.58,10.21s.54,8.35,1.58,10.16,3.17,2.67,6.39,2.67,5.35-.87,6.39-2.67S197,880.07,197,875.1s-.54-8.41-1.58-10.21-3.17-2.73-6.39-2.73S183.69,863.08,182.65,864.89Z"/><path class="cls-1" d="M235,854.46c1.1.71,2.08,2.51,2.9,5.51l9.72,35.61c.11.6-.11.87-.71.87h-8.36c-.38,0-.6-.27-.76-.87l-2.95-11H221.09l-3.06,11c-.16.6-.38.87-.71.87H209c-.6,0-.82-.27-.71-.87L218,860c.82-3,1.81-4.8,2.9-5.51s3.44-1.1,7-1.1S233.87,853.75,235,854.46Zm-8,8.19-3.66,13.65h9.23l-3.71-13.65c-.22-.71-.33-.88-1-.88S227.21,861.94,227,862.65Z"/><path class="cls-1" d="M286,853.69c.93,0,1.09.38.6,1.2l-12.94,19.33,14.14,21c.55.82.33,1.2-.6,1.2h-9.44a1.68,1.68,0,0,1-1.48-.87l-8.52-13.66-8.52,13.66a1.78,1.78,0,0,1-1.47.87h-9.45c-.93,0-1.14-.38-.6-1.2l14.15-21-12.95-19.33c-.49-.82-.32-1.2.6-1.2h9.45a1.69,1.69,0,0,1,1.48.87l7.31,12,7.32-12a1.68,1.68,0,0,1,1.48-.87Z"/><path class="cls-1" d="M314.52,854.46c1.09.71,2.08,2.51,2.89,5.51l9.72,35.61c.11.6-.11.87-.71.87h-8.35c-.38,0-.6-.27-.77-.87l-2.94-11H300.65l-3.06,11c-.16.6-.38.87-.71.87h-8.35c-.6,0-.82-.27-.71-.87L297.59,860c.82-3,1.8-4.8,2.9-5.51s3.44-1.1,7-1.1S313.43,853.75,314.52,854.46Zm-8,8.19-3.66,13.65h9.23l-3.72-13.65c-.21-.71-.32-.88-1-.88S306.77,861.94,306.55,862.65Z"/><path class="cls-1" d="M358.69,854.35c1,.27,1.42.65,1.42,1.69v5.3a.73.73,0,0,1-.82.82H347.66c-3.22,0-5.29.87-6.33,2.62s-1.48,5.13-1.48,10.21.5,8.46,1.48,10.27,3.11,2.67,6.33,2.67h11.63a.72.72,0,0,1,.82.82v5.3a1.61,1.61,0,0,1-1.42,1.69,48.49,48.49,0,0,1-11,1c-7.26,0-11.52-1.14-14.36-4.58s-3.66-8.47-3.66-17.15c0-8.47,1.2-14.15,3.66-17.15s7.26-4.48,14.36-4.48A51.06,51.06,0,0,1,358.69,854.35Z"/><path class="cls-1" d="M388.72,854.46c1.1.71,2.08,2.51,2.9,5.51l9.72,35.61c.11.6-.11.87-.71.87h-8.35c-.39,0-.61-.27-.77-.87l-2.95-11H374.85l-3.05,11c-.17.6-.39.87-.71.87h-8.36c-.6,0-.82-.27-.71-.87L371.8,860c.82-3,1.8-4.8,2.89-5.51s3.44-1.1,7-1.1S387.63,853.75,388.72,854.46Zm-8,8.19-3.66,13.65h9.23l-3.71-13.65c-.22-.71-.33-.88-1-.88S381,861.94,380.75,862.65Z"/><rect class="cls-1" x="513.28" y="752.58" width="2.68" height="155.45"/><text class="cls-2" transform="translate(547.4 793.39)">Secretaría Ejecuti<tspan class="cls-3" x="313.63" y="0">v</tspan><tspan x="334.31" y="0">a del </tspan><tspan x="43.84" y="48">Sistema Estatal de </tspan><tspan class="cls-4" x="-8.94" y="96">C</tspan><tspan x="14.3" y="96">ombate a la </tspan><tspan class="cls-4" x="230.94" y="96">C</tspan><tspan x="254.18" y="96">orrupción</tspan></text><path class="cls-5" d="M545,571.77c-.27.18-.56.34-.84.52Z"/><path class="cls-6" d="M437.59,605a212.29,212.29,0,0,0,106.56-32.68c.28-.18.57-.34.84-.52l.24-.15c-12.6,8-32.58,10.28-46.89,11.88-32.1,3.6-63.94-2-93.69-14.33-22.83-9.43-40.9-17.6-62.2-30-4.69-2.74-16.84-9.81-19.31-15.08,10.31,22,23.88,44.91,42.38,61.69C378.74,595.88,413.18,605.87,437.59,605Z"/><path class="cls-7" d="M778.23,476.4c-.22-1.6-.35-3.89-1.61-5.07a3.64,3.64,0,0,0-2-.87c-2.79-.41-5.84.8-8.33,2a32.05,32.05,0,0,0-6.82,4.49,77.88,77.88,0,0,0-8.39,8.55c-6,6.89-11,14.56-16.12,22.13-.63.95-1.27,1.89-1.92,2.83-16,23.19-31.78,45.56-54.28,62.88a172.07,172.07,0,0,1-35,20.95c-11.78,5.25-26.58,11.26-39.63,11.59-9,.23-9.86-8.81-6.43-15,4.47-8.12,11.91-14.13,19.29-19.5,10.76-7.81,22.41-14.14,33.29-21.72,7.2-5,20-12.61,22-22,0,0,4.35-27.59-50.82-4.36-15,6.3-29.21,15.89-42.35,25.24-11.4,8.11-22.47,16-34,23.1l.09,0-.33.2-.84.52a250.38,250.38,0,0,1-33.49,18,207.9,207.9,0,0,1-33.53,11.48c-32.19,8.05-71.25,12.72-99.61-6.51a109.61,109.61,0,0,1-12-9.51l-.21-.16c5.81,8.71,20.67,20.61,29.32,27.4a235.4,235.4,0,0,0,30.67,20.41c59.35,33.14,131.87,39.09,196.26,17.8a234.7,234.7,0,0,0,63.63-32.42c23.69-17.11,43.21-39.3,59-63.81a359.9,359.9,0,0,0,21.47-39c2.62-5.45,5.55-10.74,8-16.28s4.45-11.37,4.81-17.45A29.91,29.91,0,0,0,778.23,476.4Z"/><path class="cls-8" d="M545.32,571.57l-.09,0-.24.15Z"/><path class="cls-9" d="M545.32,571.57l-.09,0-.24.15Z"/><path class="cls-5" d="M557.48,263.38l-.84.52Z"/><path class="cls-10" d="M778.49,311.6c-2.47-5.28-14.61-12.34-19.31-15.08-21.3-12.42-39.37-20.59-62.19-30-29.76-12.29-61.6-17.93-93.7-14.33C589,253.78,569,256,556.4,264.05l.24-.15-.33.2.09-.05c-11.5,7.13-22.57,15-34,23.1-13.14,9.35-27.38,19-42.35,25.25-55.17,23.23-50.82-4.36-50.82-4.36,2.08-9.36,14.84-17,22-22,10.89-7.58,22.54-13.91,33.29-21.72C492,259,499.41,253,503.88,244.84c3.43-6.23,2.58-15.26-6.43-15-13.05.33-27.85,6.34-39.63,11.58a172.38,172.38,0,0,0-35,21c-22.5,17.32-38.32,39.69-54.28,62.87-.65.94-1.29,1.89-1.92,2.83-5.1,7.58-10.11,15.25-16.12,22.14a77.86,77.86,0,0,1-8.39,8.55,32.83,32.83,0,0,1-6.82,4.49c-2.49,1.19-5.54,2.39-8.33,2a3.72,3.72,0,0,1-2-.88c-1.25-1.17-1.39-3.46-1.61-5.07a29.88,29.88,0,0,1-.2-5.83c.36-6.07,2.37-11.92,4.81-17.45s5.38-10.82,8-16.27a360,360,0,0,1,21.47-39c15.75-24.51,35.27-46.69,59-63.8a234.42,234.42,0,0,1,63.63-32.42c64.4-21.29,136.91-15.35,196.27,17.79A235.29,235.29,0,0,1,707,222.66c8.65,6.79,23.51,18.69,29.32,27.4l-.21-.15a108.43,108.43,0,0,0-12-9.51c-28.36-19.24-67.41-14.56-99.61-6.52A209.86,209.86,0,0,0,591,245.36a252.68,252.68,0,0,0-33.49,18A212.45,212.45,0,0,1,664,230.71c24.71-1,58.85,9.09,72.07,19.2C754.61,266.69,768.18,289.56,778.49,311.6Z"/><path class="cls-11" d="M556.31,264.1l.09-.05.24-.15Z"/><path class="cls-12" d="M556.31,264.1l.09-.05.24-.15Z"/><path class="cls-13" d="M473,419.67c-.49-1.19-1-2.32-.45-3.59a2.35,2.35,0,0,0-.24-2.09,1.37,1.37,0,0,0-1.1-.65,3.92,3.92,0,0,1-2.27-1c-.22-.16-.46-.33-.71-.48a4.23,4.23,0,0,0-.54-.3l-.12-.06a1.49,1.49,0,0,0-.56-.13h0a1,1,0,0,0-.38.07,1.74,1.74,0,0,0-.94,1.19,3.23,3.23,0,0,1-.43.7,5.13,5.13,0,0,0-.56.9.7.7,0,0,1-.41.4.32.32,0,0,1-.23-.11,2.09,2.09,0,0,0-2.45-.36l-.16.06a9.51,9.51,0,0,0-1.9.85,3.41,3.41,0,0,0-.23-2.95l-.22-.49a5.41,5.41,0,0,1-.72-3.39,1.17,1.17,0,0,0-.41-1.07,1,1,0,0,1,.48-1.65,2.55,2.55,0,0,0,1.56-1.37,3.34,3.34,0,0,0,0-2.63,2.94,2.94,0,0,0-1.56-1.46,2.16,2.16,0,0,1-.83-.59,1.57,1.57,0,0,0-2.41-.63A2.06,2.06,0,0,0,454,401.4a2.51,2.51,0,0,1-.1,1.84,3.12,3.12,0,0,0,.56,3.42c.42.53.31,1.11,0,1.88-.14.34-.38.4-1.13.44h-.23a4.2,4.2,0,0,1-1.88-.44l-.09,0a4.51,4.51,0,0,0-3.35-.35l-.23,0a1.27,1.27,0,0,0-1.05.4.92.92,0,0,0,.14,1.34l.09.11a3.37,3.37,0,0,1,.41.87,3.13,3.13,0,0,1-1,.09H446a1.1,1.1,0,0,0,.11-.8c-.16-.66-.93-.92-1.49-1.07s-1.42-.43-2.12-.67l-.11,0a3,3,0,0,0,.22-2.9,1.35,1.35,0,0,0-1.26-1.08h0a1.36,1.36,0,0,0-1.34,1.19,11.37,11.37,0,0,1-.4,1.1,9.13,9.13,0,0,0-1.57-.42,5,5,0,0,1-2.24-.84,3.77,3.77,0,0,0-2.62-.54h-.42c-.63,0-1-.08-1.17-.26a1.57,1.57,0,0,1-.21-1.11l0-.49a2.86,2.86,0,0,1,.77-2.34,1.61,1.61,0,0,0,.3-2,4.58,4.58,0,0,0-2.82-2.36,4.15,4.15,0,0,0-3.37.24c-.42.25-.52.2-.79,0a2.64,2.64,0,0,1,.24-4.66,1,1,0,0,0,.46-1.41v0s0-.07,0-.11a27.35,27.35,0,0,0-2.9-6.78c-.25-.42-.49-.87-.41-1.12s.33-.35.76-.49a1.05,1.05,0,0,0,.73-.89,2,2,0,0,0-.75-1.57,2.07,2.07,0,0,1-.82-1.41,4.19,4.19,0,0,0-.63-1.45,21.86,21.86,0,0,1-1.67-2.51c-.92-1.58-2.08-1.43-3.2-1.14-.32.08-.35.05-.42,0l-.33-.31a5,5,0,0,0-3-1.68,2.82,2.82,0,0,1-.13-.72c0-.12,0-.24-.05-.35l0-.26a1.67,1.67,0,0,0-1.27-1.7c-.14,0-.2-.16-.21-.78v-.2c0-.25,0-.5,0-.75a6.31,6.31,0,0,0-.62-3.22c0-.08-.18-.33.29-.63a13.19,13.19,0,0,0,2.75-2.56l.33-.36.07-.07,51.9,20.22a3.71,3.71,0,0,0,3,5l12.11,40.49a5.11,5.11,0,0,0-1.93,2.88,2,2,0,0,1-1.54,1.39h0c-.48,0-.81-.5-1-1.48a2.6,2.6,0,0,0-.95-1.84,4.64,4.64,0,0,1-1.56-2.41c-.28-.79-.62-1.59-.9-2.23-.19-.45-.41-1-.62-1.48Zm34.7-12.76a4.1,4.1,0,0,1,1.64-.92c.18-.07.37-.14.54-.22s.87-.38,1.28.07a1.79,1.79,0,0,0,.54.46,3.48,3.48,0,0,0,.31-.47,4.58,4.58,0,0,1,.42-.68,17,17,0,0,1,1.26-1.38l-41-20.18a3.69,3.69,0,0,1-1.62,1L483,424.46a11.68,11.68,0,0,1,2.33-.61,21.16,21.16,0,0,1,2.83-.23h.12l1,0h.22c.86,0,1.09-.1,1.18-.61a1.86,1.86,0,0,0-.48-1.19,1.45,1.45,0,0,0-.79-.59A3.17,3.17,0,0,1,487.2,420c-.54-.55-.63-1.14-.24-1.57s.44-.62.41-.81-.65-.72-1.23-1.1l-1.6-1,2.33-.17c.39,0,.73,0,1.07-.09.62-.07,1.25-.12,1.86-.16a20.39,20.39,0,0,0,4.1-.6,7.08,7.08,0,0,1,4.72.66,13.21,13.21,0,0,0,1.73.6,4.5,4.5,0,0,1,.58.21,2.89,2.89,0,0,0,.49.17h.14l.15,0,0-.05a2.27,2.27,0,0,0,.17-.5c.19-1.59.76-3.7,3.57-3.7a.21.21,0,0,1,.08,0,.33.33,0,0,0,.15-.05c-1.05-2.18.25-3.31,1.3-4.21C507.24,407.32,507.48,407.12,507.68,406.91ZM473.49,382.3l41.33,20.34c.4-.39.82-.8,1.2-1.23a2.79,2.79,0,0,0-.67-4.28,23.33,23.33,0,0,1-4.57-3.84c-.67-.67-1.35-1.36-2.06-2a2.29,2.29,0,0,1-.37-2.84c.14-.31.26-.63.38-1l.22-.61a.6.6,0,0,0,.07-.31.76.76,0,0,0-.28-.1,12.5,12.5,0,0,1-2.27-.7c-.66-.27-1-.65-1.1-1.13a1.06,1.06,0,0,1,.13-.68l-31.88-2.11A2.3,2.3,0,0,1,473.49,382.3ZM513.94,381c.58-.33.74-.57.77-.72s0-.44-.43-.95a1.51,1.51,0,0,1-.47-1.45.88.88,0,0,1,.24-.34l.08-.05,0,0,0,0-.2-.08-.14-.06-.15-.05a1.14,1.14,0,0,1-.26-.09,2.24,2.24,0,0,1-.38-.29l-.1-.09-.11-.09a1.06,1.06,0,0,1-.2-.17,2.72,2.72,0,0,1-.27-.42l-.06-.11a.83.83,0,0,0-.08-.12,1.05,1.05,0,0,1-.12-.21,3.33,3.33,0,0,1-.22-1.05v-.16c-.09-1.61-.18-3.28-.33-4.93-.19-2.23-.74-2.84-2.95-3.22a1.9,1.9,0,0,1-1.54-1.56c-.09-.37-.19-.75-.28-1.09a14.8,14.8,0,0,1-.56-2.71l-32.86,18.65a3.49,3.49,0,0,1,.26.85l33.45,2.2a2.54,2.54,0,0,1,1.1-.26,3.11,3.11,0,0,1,1,.18c1.76.58,3,.29,3.92-.86A2.63,2.63,0,0,1,513.94,381Zm-11.22-22a2.21,2.21,0,0,1-2.07.37,2,2,0,0,1-.67-.6,3.32,3.32,0,0,1-2.51-1,4.28,4.28,0,0,1-.66-3.36,9.21,9.21,0,0,0,0-1.39v0a4.77,4.77,0,0,1,.85-3.65l.07-.14a1.26,1.26,0,0,1,.41-.54c2.81-1.92,2.07-4.52,1.29-7.28-.21-.73-.37-1.3-.5-1.82a2,2,0,0,1-.05-.24c0-.06,0-.12-.05-.19q-.17-.68-.3-1.32c0-.12,0-.24,0-.36s0-.16,0-.24l0-.13c-.05-.33-.11-.67-.14-1,0-.15,0-.29,0-.44a2.18,2.18,0,0,0,0-.25,2.46,2.46,0,0,0,0-.26c0-.21,0-.42,0-.64h0c-.48-.32-.67-.4-.91-.28l0,0a8.3,8.3,0,0,1-4.42,1.1l-.24.13a2.82,2.82,0,0,1-.42.22,7.18,7.18,0,0,0-2.71,2.27l-.11.13-.4.45a2,2,0,0,1-2.57.68.76.76,0,0,0-.59-.1c-.18.07-.35.32-.5.72l-.09.26c-.13.46-.39,1.32-1.39,1.32-.37,0-.4,0-.61.61a3.39,3.39,0,0,1-2.14,2.3,3.54,3.54,0,0,1-3.16-.72c-.37-.28-.58-.39-.84-.32a2.29,2.29,0,0,1-1.9,0,2.26,2.26,0,0,1-.79-1.68c-.3-2-1-3-2.34-3.6-.31-.12-.89-.34-.82-1s-.15-.66-.81-.94a4.21,4.21,0,0,1-.61-.29l-.41-.21c-.54-.25-1.15-.54-1.22-1.18s.43-1.1.84-1.45v-.23c-.11-1.06-.25-2.14-.4-3.22s-.33-1.92-.64-2.13-1.16-.08-2,.11l-1.07.26c-1.9.47-3.86,1-6,.16a.74.74,0,0,0-.76.34l-.44.57a3,3,0,0,0-1,2.27,1,1,0,0,1-.75,1.15l-.11,0a2,2,0,0,0-.92.8c-.05.15-.09.41.22,1a1.24,1.24,0,0,1,0,1.39c-.13.21-.27.42-.43.63a2.94,2.94,0,0,0-.66,1.35,3.11,3.11,0,0,0,2.36,3.36l.24.06a1.36,1.36,0,0,1,1.18.9A1.21,1.21,0,0,1,457,343l-.19.12a3.16,3.16,0,0,0-.76,2.12,2.93,2.93,0,0,0,.45,2,2.64,2.64,0,0,1,1.8-1.5l.11,0,.17-.07c-1-1.28-.21-2.27.29-2.93.12-.16.23-.31.33-.46a2,2,0,0,1,1.41-1,1.81,1.81,0,0,1,1.48.65,8.25,8.25,0,0,0,3,2.08,1.16,1.16,0,0,1,.7.63,1.46,1.46,0,0,1-.06,1.17,1.09,1.09,0,0,1-.76.64,1.23,1.23,0,0,1-1.05-.23c-.46-.36-.87-.27-1.56-.08a4.26,4.26,0,0,1-1.16.22s0,0,0,.06a2.22,2.22,0,0,1-1.77,2.73,1.63,1.63,0,0,0-1.32,1.64,2.24,2.24,0,0,1-.9,1.71,2.33,2.33,0,0,1-2,.27,6.12,6.12,0,0,0-3.34,0c-1,.29-2.68-.06-3.06-.87l-.17-.32,0-.05a2.46,2.46,0,0,1-.36-2.41,11.5,11.5,0,0,0-1.19-.08h0a8,8,0,0,1-2-.24,6.87,6.87,0,0,1-1-.38,2.59,2.59,0,0,0-2.65-.15,5.7,5.7,0,0,1-3.2.14,5.07,5.07,0,0,0-4.26,1.36c-.2.17-.59.51-.56.62.58,2.28-.32,3.83-2.67,4.6a1,1,0,0,1-.18.2,3.49,3.49,0,0,1-2.85.2,1.41,1.41,0,0,1-1-.95,1.68,1.68,0,0,0-.3-.52,2.09,2.09,0,0,1-.54-1.4,1.67,1.67,0,0,1-.71-.22l-.22.36,0,0c-.21.34-.43.69-.6,1a2.49,2.49,0,0,1-3.41,1.36l-.18-.08-.11-.05a2.71,2.71,0,0,1-1.5.55c-.73.12-1,.18-1.16.75l-.12.49-.5-.09c-1-.17-1.2.25-1.6,1.2-.07.16-.13.31-.21.46l51.81,20.19a3.69,3.69,0,0,1,2.65-1.11,3.74,3.74,0,0,1,2.51,1l33.16-18.82a2.25,2.25,0,0,0-.66-.55A2.36,2.36,0,0,0,502.72,359Z"/><path class="cls-14" d="M625.71,411.59c1.07-1.1,2.43-1,3.72.13a1.84,1.84,0,0,0,1.54.48,2.66,2.66,0,0,0,1.85-1.27,6.06,6.06,0,0,1,1-1.07h0a6.64,6.64,0,0,0,1.26-1.51l21.54,17.95L625.5,411.79A2,2,0,0,0,625.71,411.59Zm30.21,16.07-33.7-15.73a1.15,1.15,0,0,1,.08.84,2.17,2.17,0,0,1-2.2,1.56h-.26A3.65,3.65,0,0,0,617,415a2.3,2.3,0,0,0-.44.53l0,0-.18.26h0l.19.17,0,0,.2.21.14.17a1.13,1.13,0,0,1,.13.2.91.91,0,0,1,.09.17.67.67,0,0,1,.05.19v0c0,.05,0,.1,0,.14a1.46,1.46,0,0,1,0,.22v0a.53.53,0,0,1,0,.12,1.36,1.36,0,0,1-.11.25l0,.06-.06.1a2.37,2.37,0,0,1-.22.33l0,.06-.05.07-.36.48a1.48,1.48,0,0,1,1.1.3,1.72,1.72,0,0,1,.43,1.38v.25a3.86,3.86,0,0,1-1.16,3.07l39.11,4.2A2.89,2.89,0,0,1,655.92,427.66Zm-40.57-2.39a1.75,1.75,0,0,1-2.29,1c-.71-.17-1.28.25-1.91.74l-.57.42.17.14c1,.86,1.49,1.38,1.47,2s-.57,1.13-1.47,1.84l-.15.11-.06,0a1.82,1.82,0,0,1-.31,1.6,2.84,2.84,0,0,1-2.26.65h0c-1.17,0-1.78.52-2.24,1.93a5,5,0,0,0-.47,2,5.17,5.17,0,0,0,1.95.78c1.61.48,2.33.7,2.58,1.36s-.18,1.34-1,2.7l-.5.75-.18.28L655.8,430.3a3.2,3.2,0,0,1-.16-.71Zm20.16-32a1.22,1.22,0,0,0-.35.06v.09c0,.54.1,1.09.16,1.63a1.25,1.25,0,0,1,.93-.83.8.8,0,0,1-.64-.33.75.75,0,0,1-.08-.62Zm98.18.25c.07-.21.11-.34.13-.43l-.39,0c-5.27,0-10.62,0-15.8,0h-.82L674.24,393l-6.54,0-5.86,0c-.59,0-1.24,0-1.51-.52a1.24,1.24,0,0,1,.24-1.24A3,3,0,0,0,661,390a5.32,5.32,0,0,1,.28-.95,1.32,1.32,0,0,0,0-1,2,2,0,0,1-.09-1.28,1.3,1.3,0,0,0,.07-.29,2.05,2.05,0,0,0-.49-.14l-2-.41,2.82-.89a3.57,3.57,0,0,1,.43-.09l.28,0c-.06-.07-.23-.14-.81-.18-.25,0-.49-.07-.73-.11h0c-.61-.11-1-.19-1.47.16-.71.55-1.43-.17-1.77-.52a2,2,0,0,1-.26-.33,1.11,1.11,0,0,0-.12-.15,12,12,0,0,1-3.22-.84,19.66,19.66,0,0,0-1.92-.61,7.48,7.48,0,0,1-4.52-2.88,8.57,8.57,0,0,0-1.54-1.74l0,0a2.23,2.23,0,0,0-.32.2c-.16.47-.35,1-.88,1.15s-.92-.33-1.25-.71c0,0-.11-.07-.29,0a.68.68,0,0,0-.48.46,6.35,6.35,0,0,0,0,1v.34a1.64,1.64,0,0,1-.41,1.25,1.43,1.43,0,0,1-1.15.31.68.68,0,0,0-.5.08c-.15.13-.17.56-.18.91v.23c-.07,1.11.46,1.37.93,1.47a.87.87,0,0,0,.83-.21,1.74,1.74,0,0,0-.19-.25,2.92,2.92,0,0,1-.23-.29l-.11-.11a1,1,0,0,1-.31-1.13,1,1,0,0,1,1.25-.48l.15,0h.67l.89,0a.91.91,0,0,0,.23,0h.07a1.31,1.31,0,0,1,1.15.23,1.29,1.29,0,0,1,.33,1.07l0,.26c0,.83-.11,2.06-1.6,2.36a4.69,4.69,0,0,1-.89.07h-.32c-.61,0-.67.11-.69.54-.1,1.9-1.64,1.82-2.46,1.78h-.74a2.06,2.06,0,0,1-1.65-.42,1.7,1.7,0,0,1-.4-1.38.45.45,0,0,0,0-.17h-.06s-.07,0-.11.25a5.08,5.08,0,0,0,0,1.35v0a6.68,6.68,0,0,1,0,1.56l0,.05a2.09,2.09,0,0,0,1.62.2c.36-.1.7-.22,1.09-.36l.92-.31c1-.32,1.38.25,1.5.62a1.06,1.06,0,0,1-.07.91,1.09,1.09,0,0,1-.79.51h0a.62.62,0,0,1,.09.12,1.71,1.71,0,0,1,.42,1.61,1.84,1.84,0,0,1-1.49,1,12.14,12.14,0,0,1-2.32.31,1.68,1.68,0,0,1,1,1.42,1.81,1.81,0,0,0,.06.28,6.5,6.5,0,0,1,1.93.12,3.41,3.41,0,0,0,2.42-.17,1.8,1.8,0,0,1,2.31.34l.18.15a1.36,1.36,0,0,1,.53.75,1.7,1.7,0,0,1,0,.22,1.72,1.72,0,0,1-.65,1.28c-.09.08-.1.2-.13.52a2.29,2.29,0,0,1-.41,1.35l-.76,1.08-.2-1.3c-.11-.7-.35-.69-1.08-.66-.23,0-.46,0-.65,0a4.49,4.49,0,0,1-2.82-.77c-.83-.6-1.85-.35-2.92-.09l-.8.17c-.13,0-.15.31-.07,1,0,.2.05.43.64.47a2.55,2.55,0,0,0,.73-.1c.58-.13,1.44-.32,1.94.37s.12,1.37-.16,2l0,0a3.45,3.45,0,0,0-.28.69,2.54,2.54,0,0,0,0,1.62,1.33,1.33,0,0,0,.9.43,1,1,0,0,1,.74.55,1.12,1.12,0,0,1-.1,1c-.56.94-1.34,1.28-2.1.91a2.25,2.25,0,0,0-1.48-.13l21.45,17.88a3.82,3.82,0,0,1,1.16-.2,3.73,3.73,0,0,1,3.66,3.13L723.57,422l2.8-7.89C728.76,407.34,731.22,400.37,733.69,393.53Zm-73-9Zm16.35,72h.39c1.39,0,2.82,0,4.23,0,1.18,0,2.43.09,3.53.18h0c.85.07,1.73.15,2.58.17A89.53,89.53,0,0,1,703.24,459a126.28,126.28,0,0,1,23.09,7.54l-.83-1.22c-1.28-1.89-2.35-3.47-3.45-5.12a3.51,3.51,0,0,1-.84-2.56,3.32,3.32,0,0,1,1.68-2l.49-.32.94-.62c1.29-.85,1.47-1.34,1.07-2.91a1.22,1.22,0,0,1,.33-1.19c.23-.19.23-.28,0-.83a18,18,0,0,0-2.63-4.59c-.91-1-1.77-2.16-2.61-3.24l0,0c-.62-.79-1.25-1.62-1.9-2.4a2.08,2.08,0,0,1-.37-2.31c1.36-3.73,2.7-7.53,4-11.22l.84-2.38-60.1,6.53a3.7,3.7,0,0,1-6.32,1.57l-49.81,14c-.09.14-.18.27-.26.41l-.3.46c-.34.49-.34.5-.19.6,1.53,1.1.64,2.35.15,3a3.17,3.17,0,0,1-.29.35c-.31.33-.3.36-.27.41a2.15,2.15,0,0,0,.36,0,2.1,2.1,0,0,1,.56,0h.16a1.57,1.57,0,0,1,.48.05,2.66,2.66,0,0,0,.76,0,2.21,2.21,0,0,1,1.57.32,1.37,1.37,0,0,1,.35.54,3.22,3.22,0,0,1-.54,2.48l0,0a6.5,6.5,0,0,0-.32.65,1.29,1.29,0,0,1-1.3.75h-.12a8.06,8.06,0,0,0-1.43.22,4.21,4.21,0,0,0-1.41.76l.16.21c.33.43.65.86,1,1a2.45,2.45,0,0,1,1.45,1.64,2.11,2.11,0,0,0,.43.76.83.83,0,0,1,.24.78,1.16,1.16,0,0,1-.67.84c-.32.13-.43.25-.47.33a1.55,1.55,0,0,0,.19.89l0,0c.05.13.1.26.14.38a8.11,8.11,0,0,0,.7,1.42l0,.06.33.58a2.61,2.61,0,0,1,.15,2.55,2.44,2.44,0,0,1-2.13,1.1c-.55,0-.7.35-.94,1,0,.12-.09.24-.13.34a6.86,6.86,0,0,1-3.28,3.87c-.34.16-.52.63-.71,1.12a5.29,5.29,0,0,1-.27.66,2.56,2.56,0,0,1-3.4,1.46c-1.66-.77-2.86,0-4.26.85l-.1.06-.29.21-.09.06a2.31,2.31,0,0,1-.92.49s0,0,0,.05a.14.14,0,0,0,0,.06q0,.13-.09.24a2.18,2.18,0,0,1-.2.34l0,.06-.1.12a2.68,2.68,0,0,1-.3.28l0,0-.09.07c-.15.11-.29.21-.41.28l-.18.12a2.37,2.37,0,0,0-1,2.68c.12.8.3,1.62.47,2.41l0,.16c0,.11.05.23.07.34l.06.25a20.57,20.57,0,0,0,2.09-.9,11.3,11.3,0,0,1,4.22-1.34,2.84,2.84,0,0,0,1.17-.27,20.24,20.24,0,0,1,7.07-2l.18,0a1.47,1.47,0,0,1,.14-1,2,2,0,0,1,1.41-.81,57,57,0,0,1,5.93-1.25,10.53,10.53,0,0,0,4.1-1.48l.17-.11a9.46,9.46,0,0,1,4.87-1.9,9.66,9.66,0,0,0,2-.3,5.28,5.28,0,0,0,1.14-.47,4.46,4.46,0,0,1,2.4-.66l.56.06c.52.07,1.12.15,1.39-.08a1.26,1.26,0,0,0,.29-.94c0-.42.4-.56.63-.64l.15-.06.5-.28.09,0a5.5,5.5,0,0,1,1.54-.69,2.14,2.14,0,0,0,.89-.33,1.41,1.41,0,0,0-.4-.62.68.68,0,0,1-.12-1,10.73,10.73,0,0,0,.62-.93l0-.06c.64-1,1.38-2.21,2.9-2.21h.19a3.63,3.63,0,0,0,2.62-1.45l.06-.07a5.74,5.74,0,0,1,2.2-1.59,1.2,1.2,0,0,1,.15-1,2,2,0,0,1,1.57-.68,4.85,4.85,0,0,0,2-.42,5.19,5.19,0,0,1,2.65-.46,1.81,1.81,0,0,0,.29,0,1.41,1.41,0,0,1,.18-1.19,1.56,1.56,0,0,1,1.38-.41h.2c.75,0,1.5.08,2.22.14l.91.08a21.15,21.15,0,0,0,7.6-1.24C665.76,456.55,671.49,456.58,677,456.6Z"/><path class="cls-15" d="M643,384.93l-.24,0a1,1,0,0,0,.15-.21,1.2,1.2,0,0,0-.3-1.49l0,0-.14-.18h0l.72,0c.27,0,.55,0,.82,0a2.91,2.91,0,0,0,.51,0h.11l.16,0a1,1,0,0,1,0,.2l0,.28c-.05,1-.14,1.24-.74,1.36a4.65,4.65,0,0,1-.66.05H643ZM535.5,377a1.25,1.25,0,0,1-.62.65c-1.85.72-1.86,2.12-1.87,3.73a6.82,6.82,0,0,1-.44,2.9l35.75,2.35a3.41,3.41,0,0,1,.24-.6l-28.77-22a1.5,1.5,0,0,1-1.63.35,1.53,1.53,0,0,1-.34-.18l0,0-.13-.07c-.67-.28-.89-.2-.94-.17s-.22.19-.27.88c0,.37,0,.74,0,1.06v.12a1,1,0,0,1,.2.12l.13.08.11.06a2.26,2.26,0,0,1,.26.16,4.45,4.45,0,0,1,.48.38l.09.07.2.17c.16.15.32.32.46.48l.08.08.13.14c.22.24.43.5.61.71.31.38.59.71.89,1a1.12,1.12,0,0,1,.31.74v.23l-.17.16a3.13,3.13,0,0,0-.74,1.61c-.27,1-.61,2.28-2.16,2.71-.43.11-.63.43-.92.94a3.76,3.76,0,0,1-.7.95A.92.92,0,0,0,535.5,377ZM637.32,406.6a3,3,0,0,1,1.33.3c.3.13.57-.24.71-.48l0,0a2.14,2.14,0,0,1-1.51-.85,3.17,3.17,0,0,1-.15-2.44,4.65,4.65,0,0,1,.37-1v0c.2-.4.35-.72.26-.85s-.33-.07-.82,0a3.39,3.39,0,0,1-1.06.13,1.53,1.53,0,0,1-1.62-1.35c-.08-.64-.25-2,.93-2.2l.7-.15,0,0c1.2-.28,2.56-.61,3.8.27a3.69,3.69,0,0,0,2.48.56h.3a2.57,2.57,0,0,1,1.47.26,1.42,1.42,0,0,1,.44-1c.29-.28.3-.43.3-.45s0,0-.06-.09a.3.3,0,0,0-.08-.08l-.2-.16c-.49-.4-.67-.52-1.08-.27a4.26,4.26,0,0,1-3.14.31A5.58,5.58,0,0,0,639,397a.79.79,0,0,1-.63-.13,1.53,1.53,0,0,1-.5-1.07c-.09-.57-.23-.68-.76-.64-.82.07-.82.1-.8.5a1.12,1.12,0,0,1-.27.86,1,1,0,0,1-.7.31h-.05c-.29,0-.87-.12-1-1.06l0-.28c-.07-.64-.15-1.32-.19-2a1.12,1.12,0,0,1,.25-.86,1.54,1.54,0,0,1,1.09-.43h.16a1,1,0,0,1,1,.26.78.78,0,0,1,.12.71,13,13,0,0,0,3.35-.28c.65-.16.73-.35.73-.36s0-.29-.26-.6a1.29,1.29,0,0,1-.35-1.21.86.86,0,0,1,.44-.46l-.4.14-.11,0c-.35.12-.74.26-1.14.37a3.11,3.11,0,0,1-2.62-.42,1.1,1.1,0,0,1-.41-1,5.41,5.41,0,0,0,0-1.33,6.15,6.15,0,0,1,0-1.66c.16-.89.68-1.11,1.09-1.14a1.1,1.1,0,0,1,.89.3,1.3,1.3,0,0,1,.34,1,.88.88,0,0,0,.09.57c.13.13.57.11.86.1H640c1,.05,1.3,0,1.34-.77a1.68,1.68,0,0,1,.32-1,2.31,2.31,0,0,1-.69,0,2.22,2.22,0,0,1-1.78-2.58v-.22a2.23,2.23,0,0,1,.55-1.67,1.66,1.66,0,0,1,1.3-.34.6.6,0,0,0,.33,0s.07-.07.07-.45v-.36a6.41,6.41,0,0,1,.05-1.15,1.71,1.71,0,0,1,1.25-1.32,1.31,1.31,0,0,1,1.4.36l.19.21c0-.08.06-.18.11-.31a1,1,0,0,1,.33-.46.83.83,0,0,1,.15-.11l0,0,.06,0,0,0c-2.74-3.34-5.61-6.47-8.32-9.36l-.12.37-.05.14a10.24,10.24,0,0,0-.46,1.63c-.19,1.2-1.51,1.68-2.58,1.72h-.16c-.12,0-.44,0-.62.05h0a2,2,0,0,0,.17.47,1.21,1.21,0,0,1,0,1.08.79.79,0,0,1-.65.41,5,5,0,0,0-3,1.57,6.92,6.92,0,0,1-2.71,1.67,12.44,12.44,0,0,0-1.36.5,7.53,7.53,0,0,1-3,.75,1.91,1.91,0,0,1-.24,0h-.14c-1.49,0-3,.11-3.91,1.46a1.09,1.09,0,0,1-1.23.44h-.08a1.49,1.49,0,0,1-.84,1.94,2.68,2.68,0,0,0-.4.31c-.34.4-.7.78-1,1.15a18.65,18.65,0,0,0-1.66,1.95,5.59,5.59,0,0,1-1.38,1.25h0l24.49,20.4.23-.05,0,.09h0v-.09A6.39,6.39,0,0,1,637.32,406.6Zm-91.77-5.4c.36-.08.74-.16,1.09-.27a3.83,3.83,0,0,1,1.06-.17,2.52,2.52,0,0,1,1.95.92c.32.36.67.36,1.36.35h.7a6.19,6.19,0,0,0,3.43-1.36l.11-.08a9.47,9.47,0,0,1,2.9-1.43,4.28,4.28,0,0,1,.59-.1l10-9.49a3.6,3.6,0,0,1-.51-1.44l-34-2.25c.88,1.06,1.81,2.91,1.72,3.84a1.9,1.9,0,0,1-1.28,1.61c-.29.11-.41.21-.43.28s0,.25.31.71c.62.94,1.24,1.53,2.3,1.37a1.54,1.54,0,0,1,1.62.89,12.52,12.52,0,0,0,.88,1.53,8.75,8.75,0,0,1,1.47,3.3,1.07,1.07,0,0,0,.14.34,9.69,9.69,0,0,0,3.13,1.47,2.09,2.09,0,0,0,.78.13l.65-.15ZM623.78,410c.26.25.53.51.82.81.09.09.15.14.18.18l.16-.15a3.38,3.38,0,0,1,2.46-1.13,4.13,4.13,0,0,1,2.75,1.2.79.79,0,0,0,.68.22,1.62,1.62,0,0,0,1.09-.78,6.84,6.84,0,0,1,1.16-1.29,4.82,4.82,0,0,0,1.15-1.41L610,387.48a1.8,1.8,0,0,0-.23.46c-.08.22-.18.43-.27.63a2.35,2.35,0,0,0-.32,1.15c.07,1.57-.63,2.66-1.8,2.78h-.19a3.14,3.14,0,0,1-2.44-1.85c-.42-.79-.63-.88-.68-.89h0c-.09,0-.29.06-.78.55a2,2,0,0,1-1.2.59,2.62,2.62,0,0,0-1.8,1,1.66,1.66,0,0,1-1.25.72,1.61,1.61,0,0,1-1.22-.68,1.74,1.74,0,0,0-1.27-.58,4.28,4.28,0,0,1-2.8-1.05c-.17-.18-.39-.14-1,.08a3.69,3.69,0,0,1-3.55-.35,1.13,1.13,0,0,0-.8-.28,1.44,1.44,0,0,1-1.32-.55l0,0a1.21,1.21,0,0,0-.16-.16,9.31,9.31,0,0,1-1-1l0-.05c-.78-.92-1.44-1.71-2.79-1.71H583c-1.7,0-2.93-1.21-4-2.52-.4-.47-.77-1-1.13-1.46l0,0c-.46-.64-.89-1.21-1.35-1.74-.29-.33-1-1.1-.2-1.83a4.31,4.31,0,0,0,1-2l0-.11c.08-.26.17-.53.27-.78a1.79,1.79,0,0,1,.12-.24v0a4,4,0,0,1,.48-3.35,8.47,8.47,0,0,0,.43-1c.35-1,.22-1.48-.56-1.77a4.72,4.72,0,0,1-1.11-.62.93.93,0,0,0-.24-.09c-.32-.09-1.11-.31-1-1.19s.92-.9,1.27-.94h0a1.2,1.2,0,0,0,.2,0h0l0,0a1.33,1.33,0,0,1-.19-.14c-1.48-1.27-3.25-1-5.11-.76a18.82,18.82,0,0,0-2.64.63l-.65.19a2.79,2.79,0,0,1-.38.07h-.06l3.69,17.35h0a3.73,3.73,0,0,1,3.72,3.72,3.31,3.31,0,0,1-.11.85l44.65,20.83C621.74,408.24,622.17,408.45,623.78,410Zm-73.95-42.93a1.91,1.91,0,0,1-2.1.45c-.24-.11-.49-.2-.74-.3s-.64-.25-1-.39l23.44,18a4,4,0,0,1,.92-.6l-3.76-17.64a12.83,12.83,0,0,1-1.92-.48l-.42-.13a1.3,1.3,0,0,1-.86-.83,2.58,2.58,0,0,1,.45-2.19,4,4,0,0,1,.38-.46c.34-.35.38-.45.38-.47a.73.73,0,0,0-.19-.16.51.51,0,0,0-.47-.11,1.51,1.51,0,0,0-.79.81,4.48,4.48,0,0,1-2.24,1.9l-.06,0a7.77,7.77,0,0,0-.91.52,1,1,0,0,1-1,.12,1,1,0,0,1-.5-.91.81.81,0,0,0-.08-.42s-.1-.06-.68.14l-.18.06a2.33,2.33,0,0,0-1.17.64,2,2,0,0,1-1.73.8,6.6,6.6,0,0,0-4.5,1.44,2.14,2.14,0,0,0-.26.19Zm-12-7.68-.07-.1a1.64,1.64,0,0,0-.1.22,2.35,2.35,0,0,0-.12.78l2,1.5a1.11,1.11,0,0,1,.83.58.25.25,0,0,1,0,.07l1.59,1.22a2.25,2.25,0,0,1-.21-.44.57.57,0,0,1,0-.14V363a2.29,2.29,0,0,1-.08-.41,1.77,1.77,0,0,1,0-.23c0-.16,0-.29,0-.41s0-.16,0-.24v-.06a1.13,1.13,0,0,1-.41-.36l-.09-.12c-.08-.13-.16-.27-.23-.41-.49-1.06-.88-1-1.33-.79A1.22,1.22,0,0,1,537.79,359.4Zm6.1,5.59a2,2,0,0,0-.26-.38,3.16,3.16,0,0,1-.72-.17l1.24.95-.11-.15A2.75,2.75,0,0,1,543.89,365Zm76.73,46.95-.38-.21a.76.76,0,0,0-.22-.11h0a2.64,2.64,0,0,1-.38-.18,1,1,0,0,1-.6-.84.59.59,0,0,1,0-.14l-44.17-20.62a3.68,3.68,0,0,1-5.08.83l-9.3,8.84a2,2,0,0,1,.8,1.21c.31,1.29,1,1.3,2.14,1.31.27,0,.51,0,.74,0,1,.09,2.11.1,3.14.11.53,0,1.05,0,1.57,0a6.43,6.43,0,0,0,3.23-.71,1.17,1.17,0,0,1,1-.2,1.24,1.24,0,0,1,.68.8,2.93,2.93,0,0,1-1,4c-.76.55-.61,1.34-.07,2.6a4.1,4.1,0,0,0,1.45,1.85,6.35,6.35,0,0,1,2,2.25.85.85,0,0,1,.39.36,1.39,1.39,0,0,1,.74.42l.17,0a5.85,5.85,0,0,1,1.91.78h.11l.35.05h.11l.26.06.08,0,0,0,.24.11.1.07,0,0,0,0,.06,0,.24-.16.09.27.09,0h.08l.09,0a1.22,1.22,0,0,1,.34.18l.28-.05a1.39,1.39,0,0,1,1.11.34l1.19.19a1.35,1.35,0,0,1,.29-.05h.09a.72.72,0,0,1,.28.07l.11.05a1,1,0,0,1,.3.24,1,1,0,0,1,1-.17l.7-.27v0l.13-.17.05,0,0,0a.76.76,0,0,1,.17-.13l.08-.05a.71.71,0,0,1,.33-.09h.08a.77.77,0,0,1,.29.08h0l0,0a1.21,1.21,0,0,1,0-.18l.05-.17,0-.11.09-.3c.12-.35.24-.71.39-1.1a.14.14,0,0,1,0-.06,10.46,10.46,0,0,0,.78-2.92,4,4,0,0,1,.31-1.66,1.13,1.13,0,0,1,.27-.34c.47-.4,1.1-.35,2.19-.23.18,0,.35.06.51.09l.17,0a.58.58,0,0,0,.36,0h0a2.17,2.17,0,0,1,2.25,1.79,3.43,3.43,0,0,1,.13.85c.08.92.14,1.21,1,1.14h0a.75.75,0,0,1,.5.18,1.23,1.23,0,0,1,.29.93,1.58,1.58,0,0,0,0,.28c.33,1.29.82,1.43,1.29,1.38a16.69,16.69,0,0,1,2.45,0,12.28,12.28,0,0,0,3.16-.13,3.34,3.34,0,0,1,2.46.26,1.18,1.18,0,0,0,1.77-.45,2.42,2.42,0,0,1,3.3-.77c.83.41,1.69.79,2.51,1.17l.81.36,0,0a2.73,2.73,0,0,0,.2-.25,3.12,3.12,0,0,1,.66-.78,4.8,4.8,0,0,1,3.59-.92,1.14,1.14,0,0,0,1.33-.76C621.3,412.36,621.06,412.19,620.62,411.94Z"/><path class="cls-16" d="M564.61,364.92a.22.22,0,0,1-.16-.15,1.67,1.67,0,0,1,.32-1.24,3,3,0,0,1,.25-.29l0,0a2.16,2.16,0,0,0,.65-1l.7,3.24c-.47-.1-.93-.24-1.36-.37Zm-15.07,1a7.89,7.89,0,0,1,5.21-1.61h.06a1,1,0,0,0,.71-.4,3.3,3.3,0,0,1,1.68-1l.17,0a1.76,1.76,0,0,1,1.64,0,1.38,1.38,0,0,1,.52,1.09c.34-.21.64-.36.94-.52a3.56,3.56,0,0,0,1.77-1.42,2.51,2.51,0,0,1,1.47-1.37,1.81,1.81,0,0,1,1.83.72l-2.15-10.07h0a3.71,3.71,0,0,1-3.57-2.72l-14.85,1a2.62,2.62,0,0,0,.19.49c1,1.69.79,3.05-.73,4.16-.11.09-.12.14-.12.16s0,.3.34.75a2.17,2.17,0,0,1-.27,3.27,4.51,4.51,0,0,0-1.31,2.06c-.12.31-.25.61-.4.91l0,.33v.11c0,.11,0,.22,0,.33v.15a1.9,1.9,0,0,0,0,.25v0s0,.05,0,.07a.17.17,0,0,0,0,.07.85.85,0,0,0,.16.33,1.48,1.48,0,0,0,1,.45c.47.05.73.49,1,.87a1.93,1.93,0,0,0,.13.21,4.57,4.57,0,0,0,2.43,1.58l0,0,.74.3c.38.16.57,0,1-.31A4.17,4.17,0,0,1,549.54,366Zm86.81-2.88a1.16,1.16,0,0,1,1,.39l.1.1a4.61,4.61,0,0,0,2.14-1c.24-.16.44-.3.66-.42a2.18,2.18,0,0,0,.25-1.05.75.75,0,0,0-.12-.45l-1.14-.9c-.78-.62-1.49-1.19-2.18-1.78-.18-.16-.26-.11-.29-.09a1.71,1.71,0,0,1-1.1.27,1,1,0,0,1-.14.62c-.38.63-1.29.5-1.59.46-.81-.12-1.15.11-1.41.94a2,2,0,0,1-.72.89,1.9,1.9,0,0,0-.35.34,1.55,1.55,0,0,1-1.59.74,1.18,1.18,0,0,0-.44,0,14.11,14.11,0,0,0-2,1.08c-.51.31-1,.63-1.6.91a9.28,9.28,0,0,0-4,3.39c-.11.22-.56.66-1,.46-1.5-.69-2.44,1-2.55,1.16a3.47,3.47,0,0,1-2.66,1.84l-.24.06a2,2,0,0,0-.68.45,1.77,1.77,0,0,1-1.84.56,4.73,4.73,0,0,0-1.18-.22l-.36-.05-.44,0a5.74,5.74,0,0,1-1.42-.25,1.75,1.75,0,0,1-1.27.89,2.64,2.64,0,0,1-.94.08,1,1,0,0,0-.59.06l-.13.2a1.1,1.1,0,0,1-.83.69,1,1,0,0,1-.91-.54,1.12,1.12,0,0,0-.36-.23,1.41,1.41,0,0,1-.94-1.14,2.38,2.38,0,0,0-2.6-2.33,1.46,1.46,0,0,1-1-.62,1,1,0,0,0-.27-.24,1,1,0,0,0-.07.24,1,1,0,0,1-.53.71,1,1,0,0,1-.85-.09l-.1,0a1.05,1.05,0,0,1-.23-1.88.92.92,0,0,1,.84-.06h0l.11-.1a1.52,1.52,0,0,1,.44-.28.91.91,0,0,1,.46-.05.85.85,0,0,0-.45-.49,3,3,0,0,1-2.78-1l0,0a3.8,3.8,0,0,0-.87-.64,7.9,7.9,0,0,1-1.86-1.42l0-.08h0l-.06.06a5.59,5.59,0,0,0-2.15-1.47l-.57-.17.22-.55a1.18,1.18,0,0,1,.59-.66,1.52,1.52,0,0,1-1.24-.57c-.36-.55-.07-1.29.25-1.93s.75-1.53,1.86-1.53h.1a2,2,0,0,1,.72-2.1,1.11,1.11,0,0,0,.31-.74.56.56,0,0,0-.22-.41,1,1,0,0,1-.38-.71.87.87,0,0,1,.26-.66,11.28,11.28,0,0,0,2-3.77v0a21.11,21.11,0,0,1,1.1-2.5,1.31,1.31,0,0,0,.07-1.1l-.22-.9c-.65-2.56-1.38-5.45-1.92-8.27-.23-1.21-.67-1.57-2.05-1.67a4.66,4.66,0,0,0-1,.06c-.93.12-2.19.28-3-1a1,1,0,0,1-.8.31,1.18,1.18,0,0,1-.84-.78.29.29,0,0,0-.14-.11.4.4,0,0,0-.23,0,6.57,6.57,0,0,1-2.25.72,5.52,5.52,0,0,0-1.93.6,3.73,3.73,0,0,1-4.91-.37l-11,12.48a3.63,3.63,0,0,1,.3,4l43.67,36.39,0,0,.21-.15a4.58,4.58,0,0,0,1.13-1,20.51,20.51,0,0,1,1.75-2.05l.1-.11c.31-.33.63-.67.92-1a2.52,2.52,0,0,1,.64-.51c.53-.36.6-.4.31-.87a.64.64,0,0,1-.1-.35.68.68,0,0,1,.1-.36,1.23,1.23,0,0,1,1.09-.55l.27,0,.17,0c1.32-2,3.6-2,5.12-1.94h0a6.67,6.67,0,0,0,2.62-.67,11.56,11.56,0,0,1,1.5-.54,4.27,4.27,0,0,0,.61-.24,8.76,8.76,0,0,0,1.68-1.21,7.85,7.85,0,0,1,2.42-1.6,4,4,0,0,1,.94-.21,1.61,1.61,0,0,1-.12-1.48c.31-.51.94-.54,1.55-.56h.16c.71,0,1.48-.32,1.56-.81a11.29,11.29,0,0,1,.5-1.82,11.64,11.64,0,0,0,.35-1.12.91.91,0,0,1-.74,0,1.12,1.12,0,0,1-.62-.69,1.24,1.24,0,0,1,.26-1.15.67.67,0,0,1,.65-.24.79.79,0,0,0,.33,0,2.44,2.44,0,0,0,0-.38,2,2,0,0,1,.17-.84l.14-.25Zm-40.86-15.14Zm-32.11-4.05a3.68,3.68,0,0,1,1.83.5L576.16,332a1.21,1.21,0,0,0-.65-.05.61.61,0,0,0-.49.45,2.34,2.34,0,0,1-2.31,1.78h0l-.35.06a2.58,2.58,0,0,1-2.82-1.18,1.46,1.46,0,0,1,0-1.33,1.48,1.48,0,0,1,.67-.66l-.1,0a2.66,2.66,0,0,0-1.21.56,1.37,1.37,0,0,1-1.14.5,1.5,1.5,0,0,1-1-.92,1.64,1.64,0,0,0-.86-.94,3.81,3.81,0,0,1-2-2.47,3.44,3.44,0,0,0-1.17-1.74.68.68,0,0,1-.2-.87c.64-1.83.64-1.83-1.06-2.81a2.83,2.83,0,0,1-1.5-2.15l0-.28c-.05-.44-.09-.74-.3-.85l-.31-.17c-.8-.43-1.8-1-1.76-2.39l-.09-.06-.07-.06A5.25,5.25,0,0,1,555,315l-.07-.06c-.18-.16-.36-.32-.55-.46a2.53,2.53,0,0,1-.78-1.24c-.19-.53-.31-.77-.62-.88l-.41-.16.06-.43c.22-1.52-.71-2.44-1.78-3.51l-.18-.18-.11-.1-.06-.06a1.32,1.32,0,0,1-.61-1c0-.8-.32-1.18-1.24-1.3a3.92,3.92,0,0,1-1-.31v-.1l0,.09a2.09,2.09,0,0,0-1.42-.22,6.3,6.3,0,0,1-4.33-.47,69.34,69.34,0,0,1-7.18-4.22h0l0,.15c-.08.83-.1,1.29.44,1.71a.94.94,0,0,1,.41.8,1.44,1.44,0,0,1-.71,1.08,1.71,1.71,0,0,0-.66,1.86,1,1,0,0,1-.39,1.18,1,1,0,0,1-1.32-.24l0,.25a3.65,3.65,0,0,1,0,1.43h0a2.69,2.69,0,0,1,1.27.72,1.74,1.74,0,0,0,.82.49l.56.08-.12.56a3.74,3.74,0,0,0,0,.89A2.53,2.53,0,0,1,534,314a1.08,1.08,0,0,0-.52,1,1,1,0,0,0,.79.74,1.81,1.81,0,0,1,1.23,1.47,2.18,2.18,0,0,1-.67,2.16c-.11.13-.22.26-.31.39a.75.75,0,0,0-.08.44.6.6,0,0,0,.35,0c1.86-.39,3.12.62,4.23,1.52l.17.14a6.71,6.71,0,0,0,1.18.81l.18.07h0c.31.11,1.24.43.94,1.44,0,.07,0,.15,0,.22v0a1.54,1.54,0,0,1-1.05,1.39,1.5,1.5,0,0,1-1.89-.65l-.5.08c-.83.14-1.69.28-2.51.5l.15.37a5.49,5.49,0,0,0,3.41,2.81l.23,0c.26,0,.69.05.78.49a3.83,3.83,0,0,0,1.32,1.74c.82.76,1.75,1.62,1.53,3-.08.45-.22,1.29,0,1.5s.41.18.89.18h.16a.66.66,0,0,1,.58.3,1.13,1.13,0,0,1,0,1.06,4.68,4.68,0,0,1-4,2.08c-.44-.08-.79.14-1.06.68l.31.14a4.66,4.66,0,0,1,.5.24,4.21,4.21,0,0,0,3.48.47,5.07,5.07,0,0,1,3.08.36,6.51,6.51,0,0,0,1.74.43,1.39,1.39,0,0,1,1.23,1.5,5.4,5.4,0,0,1-.64,2.09c-.14.29-.27.58-.38.87-.53,1.51-1.77,1.66-2.93,1.6a1,1,0,0,0-.72.34.64.64,0,0,0-.08.14l14.67-1A3.72,3.72,0,0,1,563.38,343.89ZM572.7,334Zm36.4,52.88a.63.63,0,0,1,.1-.12h0l-43.52-36.27a3.51,3.51,0,0,1-.8.5L568,365.49h0a1.64,1.64,0,0,0,.32-.05l.62-.18a21.11,21.11,0,0,1,2.77-.67c1.95-.27,4.15-.58,6,1l.12.1a1.13,1.13,0,0,1,.59.92c0,.83-.77,1-1,1l-.3,0H577a1.86,1.86,0,0,1,.6.26,4.15,4.15,0,0,0,.87.49,2.19,2.19,0,0,1,1.2,3.11,10.84,10.84,0,0,1-.48,1.11,2.89,2.89,0,0,0-.4,2.62.91.91,0,0,1-.12.82l-.07.12c-.09.23-.17.47-.24.71l0,.11a5.26,5.26,0,0,1-1.26,2.38c0,.05,0,.14.23.35.54.63,1,1.3,1.43,1.83s.72,1,1.1,1.44c.91,1.1,1.93,2.13,3.19,2.13h.14c1.85,0,2.78,1.12,3.61,2.1l0,.06a8.42,8.42,0,0,0,.86.92,2.94,2.94,0,0,1,.25.25c.24.25.27.24.38.23a2.19,2.19,0,0,1,1.56.45,2.59,2.59,0,0,0,2.51.26c.15-.05.33-.12.52-.17l.1,0H593a1.77,1.77,0,0,1,.42-.06h.07a.64.64,0,0,1,.2,0l.08,0h.06l.14,0a1.31,1.31,0,0,1,.53.34,3.37,3.37,0,0,0,2.16.74,2.86,2.86,0,0,1,2,1c.22.27.35.29.38.29s.18,0,.43-.33a3.67,3.67,0,0,1,2.53-1.39.88.88,0,0,0,.54-.29,2.18,2.18,0,0,1,1.71-.85c.67.1,1.1.75,1.46,1.44s.94,1.28,1.51,1.28h.08a.79.79,0,0,0,.63-.47,2.56,2.56,0,0,0,.2-1v-.14a3.44,3.44,0,0,1,.42-1.66l0-.06a3.85,3.85,0,0,0,.19-.47A3.21,3.21,0,0,1,609.1,386.92Z"/><path class="cls-17" d="M521.74,347a3.74,3.74,0,0,0-2.19,3.39,3.93,3.93,0,0,0,.19,1.13L506.61,359a3.29,3.29,0,0,0-1.09-1,3.33,3.33,0,0,0-1.59-.41,3.75,3.75,0,0,0-1.81.48c-.84.45-1,.45-1.29,0a1.07,1.07,0,0,0-.78-.39,2.44,2.44,0,0,1-1.76-.68,3.42,3.42,0,0,1-.41-2.56,10.5,10.5,0,0,0,0-1.59,3.79,3.79,0,0,1,.59-2.89,1.47,1.47,0,0,0,.23-.39,1.33,1.33,0,0,0,.06-.12c3.43-2.35,2.5-5.63,1.67-8.53-.13-.48-.31-1.1-.46-1.71,0-.14-.07-.28-.1-.42l-.06-.28-.06-.26c-.06-.24-.12-.47-.16-.71s-.05-.32-.08-.48l0-.26,0-.24c0-.22-.07-.45-.1-.67s0-.32,0-.47,0-.18,0-.27V335c0-.22,0-.44,0-.66a3.82,3.82,0,0,1,.42-.29,2.12,2.12,0,0,0,1.27-1.87.48.48,0,0,1,.28-.09.6.6,0,0,1,.47.27c1.88,2.55,4.59,3.38,8.3,2.53a1.21,1.21,0,0,0,1.05-.9,4.2,4.2,0,0,1,1.44-2.17,6.57,6.57,0,0,0,1.51-1.93.59.59,0,0,1,.38-.32,1.62,1.62,0,0,1,1.16.16,2.43,2.43,0,0,0,2.37.26ZM535,365.35l.25.18.08.05c0-.3,0-.6,0-.9a2.09,2.09,0,0,1,.77-1.72,1.49,1.49,0,0,1,1-.17,1.55,1.55,0,0,1-.33-.21,1.08,1.08,0,0,1-.43-.94v-.25l-10.72-8.22a3.68,3.68,0,0,1-5.2-.36l-13.27,7.53s0,0,0,.06a3.61,3.61,0,0,1,.08.38,14.4,14.4,0,0,0,.52,2.53l0,.13c.08.33.18.67.25,1,.16.66.54.73.68.76,2.68.46,3.61,1.47,3.84,4.17.15,1.68.24,3.35.33,5v.16a1.93,1.93,0,0,0,1.66,1.9h0l.1,0-.06-.07a1.94,1.94,0,0,0-.29-.28c-.31-.24-1.12-.9-.44-1.75a2.18,2.18,0,0,1,2.59-.46,2.11,2.11,0,0,0,.47,0,1.58,1.58,0,0,1,1.38.5,1,1,0,0,1,.15.35s0,.07,0,.1v.05a1.79,1.79,0,0,1,0,.23c0,.05,0,.1,0,.15l0,.21c0,.05,0,.09,0,.14v.06c.06.21.14.43.21.62l0,.15s0,.1.05.16c.13.33.26.65.4,1a11.1,11.1,0,0,1,1.11,4.28c0,.55.12.76.19.8s.29,0,.72-.23l.31-.18a8.27,8.27,0,0,0,3.18-2.68,4.93,4.93,0,0,1,3.22-1.86l.38-.1a2.14,2.14,0,0,1,.27-.06l.15,0-.06-.07a.31.31,0,0,0-.23,0,2.83,2.83,0,0,1-2.24-.6,2.4,2.4,0,0,0-1.19-.49,1.34,1.34,0,0,1-1.14-1.15c-.14-.79-.31-1.6-.48-2.38s-.33-1.56-.48-2.33a5.66,5.66,0,0,1,1-4,2,2,0,0,1,1.76-.92,7.28,7.28,0,0,0,4-.54c.58-.19,1.17-.38,1.78-.52A4.67,4.67,0,0,1,535,365.35Zm10.78-18.79h.11c1.05.05,1.59-.07,1.87-.89a9.27,9.27,0,0,1,.42-1,4.35,4.35,0,0,0,.54-1.68.38.38,0,0,0-.22-.39,7.3,7.3,0,0,1-2-.48,4.25,4.25,0,0,0-2.48-.35,5.24,5.24,0,0,1-4.32-.59l-.31-.15h0a1.56,1.56,0,0,1-1-.77,1,1,0,0,1,.06-.76,2.05,2.05,0,0,1,2.25-1.34l.17,0a4.12,4.12,0,0,0,2.55-1.33,1.85,1.85,0,0,1-1.33-.54c-.48-.54-.4-1.32-.22-2.37.12-.76-.38-1.26-1.2-2a5.24,5.24,0,0,1-1.53-2,2,2,0,0,1-.43-.08,6.53,6.53,0,0,1-4-3.37,1.73,1.73,0,0,1-.23-1.38.73.73,0,0,1,.47-.4,28,28,0,0,1,2.92-.6l.8-.13,0,0,0,0h.09a.68.68,0,0,1,.59.48l0,0c.09.17.18.36.7.22.15,0,.21-.12.31-.58a3,3,0,0,1,.07-.32c0-.06-.19-.12-.25-.14l-.35-.13a7.78,7.78,0,0,1-1.38-.94l-.09-.08c-1.11-.89-2.06-1.66-3.43-1.37a1.32,1.32,0,0,1-1.39-.37,1.09,1.09,0,0,1-.14-.23s0,0,0-.05v0a1.2,1.2,0,0,1-.06-.24.34.34,0,0,1,0-.1v-.05a1.41,1.41,0,0,1,0-.29.74.74,0,0,1,0-.14.24.24,0,0,1,0-.08s0,0,0-.07,0-.12.06-.19a.78.78,0,0,0-.09-.37,2.06,2.06,0,0,0-.51.16,2.54,2.54,0,0,1-.65.19l-.19,0c-.44.05-.89.11-1.17-.27a.87.87,0,0,1-.1-.78,5.13,5.13,0,0,0-2.31,2.46,2.57,2.57,0,0,1-1.89,2c-.21.08-.61.23-.68.38a.5.5,0,0,0,.05.34,1.22,1.22,0,0,1-.19,1.21l0,0-.07.12-.34.6v0a5.12,5.12,0,0,0-.65,1.39,2.14,2.14,0,0,1-2.47,1.8,5.92,5.92,0,0,0-2.92.43l3.93,17.54h.06a3.72,3.72,0,0,1,3.57,2.72l17-1.16a2.41,2.41,0,0,1,.49-.92A1.94,1.94,0,0,1,545.78,346.56Zm-1.54,4.12a3.29,3.29,0,0,1-.36-1L527,350.87a4,4,0,0,1-.33,1.09l9.9,7.59a2.22,2.22,0,0,1,.1-.41c.09-.24.37-1,1-1,.27,0,.69.08,1.09.76.14.25.15.24.35.15a2.3,2.3,0,0,1,.91-.21c.74,0,1.34.48,1.79,1.44.05.11.09.2.13.27v0c.05-.12.11-.23.15-.35a5.51,5.51,0,0,1,1.65-2.52c.59-.46.62-1,.07-1.78a2.08,2.08,0,0,1-.54-1.55,1.28,1.28,0,0,1,.55-.86C544.85,352.65,545,351.9,544.24,350.68Z"/><path class="cls-18" d="M515.88,376.85a1.2,1.2,0,0,0-.33-1.19,2.85,2.85,0,0,0-.44-.41c-.07-.06-.24-.19-.25-.28a.7.7,0,0,1,.27-.17l.07,0h0a1.57,1.57,0,0,1,.27,0h.12a1.26,1.26,0,0,1,.46.1,2,2,0,0,0,.93.16c.43,0,.52,0,.52,0a.15.15,0,0,1,0,.07v0a.38.38,0,0,1,0,.1l0,.06v.05l0,.1c-.16.2-.28.35-.41.49L517,376l0,.05a3.44,3.44,0,0,1-.4.37,1,1,0,0,1-.15.11l0,0a3.48,3.48,0,0,1-.43.25l0,0Zm1.76-1.84Zm-11.95,54.25s0,.05,0,.08,0,.11-.05.16l0,.13-.18.26,0,0-.1.1a1.73,1.73,0,0,1-.83.07h-.15a.59.59,0,0,0,.11.08,2.28,2.28,0,0,1,.51.48l.11.15a2.5,2.5,0,0,1,.67,1.85,1.56,1.56,0,0,1-.2.53,2.49,2.49,0,0,1,1.91-.4,2.27,2.27,0,0,1,1.37,1.18,1.71,1.71,0,0,0,.27.09h0a2.59,2.59,0,0,1,2,1.75c0-.12,0-.25,0-.37v-.11a12.82,12.82,0,0,1,.26-3.47c0-.21,0-.46-.51-.92a1.93,1.93,0,0,1-.81-1.45,2,2,0,0,1,.8-1.52l.23-.2.37-.32Zm35.74-9h0a3.7,3.7,0,0,1-2-.57L523.09,436.9v.2c0,.13,0,.27,0,.4-.06.48,0,.76.34.86a10.93,10.93,0,0,1,2.77,1.59,13.47,13.47,0,0,0,2,1.26,4.59,4.59,0,0,0,.7.27,1.42,1.42,0,0,1,1,1,1,1,0,0,1-.34,1c-1,.89-1.53,1.64-1,2.83l.13.28-.18.25a9.24,9.24,0,0,0-1.38,3.94c-.11.59-.23,1.19-.38,1.78a1.72,1.72,0,0,0,.42,1.44,5.4,5.4,0,0,1,.38.7,1.87,1.87,0,0,0,1.3-.37l.44-.24.1-.05.07,0,.32-.14.15,0,.07,0,.32-.1.17,0h.07l.33,0h.34l.2,0a1.56,1.56,0,0,1,.34.09h.06l.16.06a2.81,2.81,0,0,1,.38.2l.06,0,.12.06a4.29,4.29,0,0,1,.56.48c.08.08.24.25.55,0,.13-.11.2-.17,0-.58a14.67,14.67,0,0,1-.83-1.57,2.18,2.18,0,0,1,0-2.34,7.32,7.32,0,0,0,1.15-2.18,7.42,7.42,0,0,1,1.58-2.78c1.19-1.21,2.26-2.11,4.25-1.7a15.69,15.69,0,0,1,2.08.64h0a8.77,8.77,0,0,0,3,.72h.22a3.77,3.77,0,0,0,1.46-.54Zm.36,23.9h0Zm-27.1-39.93a16.52,16.52,0,0,0-1.44,1.54,5.6,5.6,0,0,0-.3.48l0,0c-.23.43-.53,1-1.11,1h-.09a1.8,1.8,0,0,1-1.25-.68l-.17.05-.57.23h0a3.5,3.5,0,0,0-1.25.66c-.24.25-.51.48-.75.69-1.11,1-1.7,1.57-1,2.89a1,1,0,0,1,0,1,1.35,1.35,0,0,1-1.11.58h-.08c-1.56,0-2.26.77-2.5,2.76a1.69,1.69,0,0,1-.09.41l0,.07-.12.3a.69.69,0,0,1-.05.13,1.88,1.88,0,0,1,.05.33c0,.05,0,.11,0,.16a.77.77,0,0,1,0,.15,2.34,2.34,0,0,1,0,.26c0,.16,0,.31,0,.46v.47c0,.19-.07.36-.11.53l0,.05a.43.43,0,0,1,0,.11,1.29,1.29,0,0,1,0,.19,4.17,4.17,0,0,1-.36.81v0h.18a6.8,6.8,0,0,1,1,.09l.15,0a1.95,1.95,0,0,1,1.83,3,5,5,0,0,1-.4.84l-.12.24c-.34.66-.31,1,.13,1.37a3,3,0,0,1,.84,2L537.72,417a3,3,0,0,1,0-.42,4.07,4.07,0,0,1,.13-.93Zm26.72,8.58a3.67,3.67,0,0,1,2.11.67l13.31-12.65c-.34.2-.68.41-1,.62a7.43,7.43,0,0,1-4.19,1.61H551a2.51,2.51,0,0,1-2.18-.7A1.61,1.61,0,0,0,547,402c-.4.12-.83.21-1.21.29l-.08,0-.54.12c-1,.24-4.58-1.25-5.08-2.1a2,2,0,0,1-.28-.71,7.73,7.73,0,0,0-1.31-2.88,15.11,15.11,0,0,1-1-1.67.44.44,0,0,0-.48-.28,3.31,3.31,0,0,1-3.35-1.84,1.94,1.94,0,0,1-.44-1.64,1.58,1.58,0,0,1,1.08-.94.85.85,0,0,0,.58-.72,6.46,6.46,0,0,0-2-3.55l-.55-.3-25.5-1.69,0,0-.07.05c-.24.21-.3.34-.3.37s.06.14.45.31a13.18,13.18,0,0,0,2.09.63,1.38,1.38,0,0,1,1,.65,1.4,1.4,0,0,1,0,1.2l-.2.53c-.14.39-.27.74-.43,1.09-.35.77-.32,1.2.12,1.58.73.66,1.45,1.38,2.09,2a22.32,22.32,0,0,0,4.36,3.69,3.87,3.87,0,0,1,.94,5.9c-.29.34-.61.65-.92.95l-.08.08,22.66,11.15A3.69,3.69,0,0,1,541.41,412.85Zm-25.64,13.06a1.11,1.11,0,0,1,.27.13,11.59,11.59,0,0,1,2.16,1.57c.65.6,1.18,1,1.94.95h.16a1.45,1.45,0,0,1,1.4,1.33l0,.05c.13.47.26.93.43,1.48a22.91,22.91,0,0,1,.83,3.4l15.37-16.13-.15-.24Zm57-23.55-.09.05a7.34,7.34,0,0,1-3.59.85h-.21l-1.43,0h-.12c-1.07,0-2.15,0-3.22-.11-.2,0-.42,0-.63,0h0c-1.12,0-2.66,0-3.16-2.13a1,1,0,0,0-.45-.65l-.09,0h0l-15.1,14.35a3.75,3.75,0,0,1,.53,1.59l45.9,4.92-.11-.06-.07-.05-.43-.26-.11-.07-.08-.06,0,0-.34-.23-.13-.1-.09-.07-.34-.27-.16-.16-.06-.06-.29-.31-.16-.21,0-.06a4.14,4.14,0,0,1-.23-.35l-.12-.26,0-.06a3,3,0,0,1-.15-.41,2.61,2.61,0,0,1-.08-.36,3.43,3.43,0,0,1,0-.47,3.25,3.25,0,0,1,0-.43.28.28,0,0,0,0-.09s0,0,0,0a2.31,2.31,0,0,1-.55-.11h0l-1.2.47-.22-.17-.08.06,0,.09-.28.06v.12l-.28-.06h-.23l-.27,0a.75.75,0,0,1-.15,0h-.08l0-.09V417l-.46-.09.15-.11-1.47-.2a1.59,1.59,0,0,1-1.28,0l-.08,0,.11-.21-.1-.29-.28.24L581,416h-.09l-.14.09h0l-.35-.15,0,0-.07-.05v0h0l-.09-.13a.58.58,0,0,0-.3-.22l-.12,0h0l-.11,0-.29.41-.07-.05a1.84,1.84,0,0,1-.52-.58l-.2-.1-.24-.13-.25-.13a3.59,3.59,0,0,0-.8-.27h0v.18h-.33l-.17-.17h-.18v-.18l-.09-.16c0-.07-.09-.13-.4-.17l-.16,0-.33-.28,0-.14-.21,0-.09-.22a5.48,5.48,0,0,0-1.71-2.05,5.1,5.1,0,0,1-1.83-2.31,5.6,5.6,0,0,1-.54-1.87,1.87,1.87,0,0,1,0-.53,2,2,0,0,1,.45-1,2.4,2.4,0,0,1,.49-.46c1-.74,1.22-1.45.69-2.73A.69.69,0,0,1,572.74,402.36Zm6.82,13.06h0Zm8.71,15.37c2-.14,3.11-.87,3.64-2.36a9.75,9.75,0,0,0,.46-3v-.07a17.07,17.07,0,0,1,.15-1.73,2.71,2.71,0,0,0,0-.85l-47.61-5.1a3.71,3.71,0,0,1-2,2.26l4.83,22.54a2.09,2.09,0,0,1,.78-1.42c.59-.37,1.36-.25,2.48.09.43.13.6.09.64.07a.58.58,0,0,0,.07-.33,4.88,4.88,0,0,1,.8-2.45,5.91,5.91,0,0,0,.57-1.25,1.32,1.32,0,0,1,1.29-1h.11a1.18,1.18,0,0,1,1,.88l.06.14c.22.47.44.93.67,1.4l.19.42c.71,1.46,1.34,2.78,1.88,4.14a3.52,3.52,0,0,0,2,1.73,7.51,7.51,0,0,1,1.54.91,1.12,1.12,0,0,0,.38-.15,3.84,3.84,0,0,1,4.26-.45.61.61,0,0,0,.32.1.68.68,0,0,0,.11-.43c0-.49.08-1,.13-1.48v-.15c.06-.58.13-1.17.15-1.76a2.39,2.39,0,0,1,.59-1.68,1.9,1.9,0,0,1,1.46-.44h.12a3.18,3.18,0,0,1,.07-1.43c.15-.67.2-1-.18-1.35a1.06,1.06,0,0,1-.41-1,1.23,1.23,0,0,1,.84-.88c.28-.1.57-.22.84-.34l0,0a6.21,6.21,0,0,1,2.44-.67h.29c1,.08,1.33.88,1.59,1.47l0,.08a2.47,2.47,0,0,0,.23.46,1.54,1.54,0,0,0,2.14.71,7.6,7.6,0,0,0,2.76-2l.73-.7.31-.3c.84-.79,1.76-1.68,3.39-1.17a.58.58,0,0,0,.58-.24,3.77,3.77,0,0,1,3-1.21ZM521.5,383.54l10,.65a1.19,1.19,0,0,1,.1-.28,4.25,4.25,0,0,0,.38-1.84c0-.23,0-.47,0-.71,0-1.75,0-3.72,2.52-4.71l.09-.18a2,2,0,0,1,.37-.51,3.1,3.1,0,0,0,.49-.7,2.62,2.62,0,0,1,1.57-1.44c.91-.25,1.11-.87,1.4-1.94a4.75,4.75,0,0,1,.78-1.84c-.3-.31-.59-.66-.85-1s-.38-.46-.58-.68a1.07,1.07,0,0,0-.14-.16l-.09-.09-.06-.06-.31-.33-.15-.12-.11-.09-.08-.07-.33-.26a1,1,0,0,0-.17-.1l-.12-.06a2.55,2.55,0,0,0-.43-.23h-.27l-.24-.06h0l-.06,0a1.65,1.65,0,0,1-.26-.14l0-.08,0,.07-.25-.17,0,0-.17-.12a3.76,3.76,0,0,0-2.69-.7,16.73,16.73,0,0,0-1.67.49,8.2,8.2,0,0,1-4.56.57,1.32,1.32,0,0,0-.62.41,4.73,4.73,0,0,0-.87,3.26c.14.77.3,1.52.46,2.29s.35,1.6.5,2.42a.58.58,0,0,0,.15.29h.07a2.9,2.9,0,0,1,1.54.6l.07,0a1.92,1.92,0,0,0,1.44.46,1.33,1.33,0,0,1,1.1.23,1.19,1.19,0,0,1,.5.9c.08.9-.75,1.06-1,1.11l-.18,0-.39.11a4.13,4.13,0,0,0-2.59,1.38,9.3,9.3,0,0,1-3.54,3l-.31.18Zm-8.2-.54,6.46.42a2.1,2.1,0,0,1-.48-1.54,10.13,10.13,0,0,0-1-3.87c-.18-.43-.34-.83-.48-1.21l0,0,0,.05a5.8,5.8,0,0,1-.52.47l-.2.15,0,0a3.2,3.2,0,0,1-.55.33l-.06,0-.2.1a3.75,3.75,0,0,1-.94.27,1.53,1.53,0,0,0-.34.08,2.76,2.76,0,0,0,.26.36,2.2,2.2,0,0,1,.64,1.83,2.36,2.36,0,0,1-1.3,1.45,1.47,1.47,0,0,0-.48.4A4.5,4.5,0,0,1,513.3,383Z"/><path class="cls-19" d="M477,601.79a208,208,0,0,0,33.54-11.48,250.27,250.27,0,0,0,33.48-18A212.29,212.29,0,0,1,437.49,605c-24.41.9-58.84-9.09-72.06-19.2a108.67,108.67,0,0,0,12,9.51C405.78,614.51,444.84,609.84,477,601.79Z"/><path class="cls-19" d="M624.41,233.88a210,210,0,0,0-33.54,11.48,252.57,252.57,0,0,0-33.48,18A212.45,212.45,0,0,1,664,230.71c24.7-1,58.85,9.09,72.07,19.2a108.54,108.54,0,0,0-12-9.51C695.66,221.16,656.6,225.84,624.41,233.88Z"/><path class="cls-20" d="M470.83,438.18a4.42,4.42,0,0,1,1.88.46L411.24,459.1l-.08,0,0,.07a3.55,3.55,0,0,0-.47-.06c-.66,0-.7-.1-.75-.31a1.43,1.43,0,0,1,.33-.93,2.75,2.75,0,0,1,1.5-1.24,9.25,9.25,0,0,0,2.63-1l.38-.2a4.34,4.34,0,0,1,2-.55,2.67,2.67,0,0,1,.8.11,3,3,0,0,0,4-1.75,3,3,0,0,1,.42-.55l.38-.47a3.48,3.48,0,0,0,.85-3.62,3.22,3.22,0,0,0-2-2.43c-.05,0-.48-.29-.74-2.19a3.81,3.81,0,0,1,.59-.17l.41-.1c.27-.08.56-.14.85-.2a4.24,4.24,0,0,0,2.57-1.24,2.29,2.29,0,0,1,1.6.14,2.36,2.36,0,0,0,3.15.37l.37-.18a9.07,9.07,0,0,0,3.8-2.68c.39-.53.74-1.15.4-1.66s-1.13-.39-1.43-.33h0a11.17,11.17,0,0,1-1.94-4.13,1.94,1.94,0,0,1,.31-.93,2,2,0,0,0,1,0c.44-.09.44-.09.51.16a.8.8,0,0,0,.56.62,1,1,0,0,0,1-.38l.08-.08a5.08,5.08,0,0,1,2.86-1.27c.79-.07,1.38-.66,1.67-1.68h0l.07,0h0a.87.87,0,0,1-.08.59c-.11.32-.2.65-.29,1-.26,1-.48,1.85-1.53,2.31a1.3,1.3,0,0,0-.81,1.28,2.21,2.21,0,0,0,1.51,1.87c1.14.41,2.32.79,3.62,1.18.47.14.54.19.57.38.09.51,0,.59-.27.66a1.33,1.33,0,0,0-.85,1.65c.18,1,1.06,1.08,1.59,1.11a22.91,22.91,0,0,0,3.9-.21c.61-.07,1.23-.14,1.85-.18h.13a4.65,4.65,0,0,1,.48,0,.73.73,0,0,1,.07.32,1.18,1.18,0,0,0,.51,1c.47.26.94,0,1.35-.24h0a11.12,11.12,0,0,1,6.3-1.34c.74.06,2,.14,2.36-1.24a.63.63,0,0,1,.21-.38c.05,0,.2-.07.55,0a3.41,3.41,0,0,0,1.66,0l.39-.08a1.12,1.12,0,0,0,.83-.49A.92.92,0,0,0,463,439a1.18,1.18,0,0,0-.05-.52,1.41,1.41,0,0,1-.07-.36.24.24,0,0,1,0-.12s.18-.1.59-.06a40.53,40.53,0,0,0,4.25.15C468.75,438.12,469.8,438.12,470.83,438.18Zm19,14.43a4.16,4.16,0,0,1-.58.26,1.48,1.48,0,0,0-1.05,1.22,2.17,2.17,0,0,1-1.15,1.77,2.26,2.26,0,0,1-2.16-.46,2.37,2.37,0,0,0-1.49-.59l-.85,0h0c-2,.11-4,.21-6-1.2a3.88,3.88,0,0,0-.63-.35h0a2,2,0,0,1-1.22-1.08,1.91,1.91,0,0,1,.21-1.48,1.1,1.1,0,0,1-.52-.86,1.23,1.23,0,0,1,.52-.95l0,0,.22-.23a4.84,4.84,0,0,1,2.18-1.46,4.67,4.67,0,0,0,1.53-.87,3.06,3.06,0,0,0,.5-.56,2.12,2.12,0,0,0-.38-.23,1.17,1.17,0,0,1-.7-.67.83.83,0,0,1,.09-.71c.17-.3.09-.44-.19-.84a2.93,2.93,0,0,1-.41-.79c-.43-1.58-1.47-2.39-3.38-2.6a1.11,1.11,0,0,1-.36-.13L413.41,460l.9.29.29.09,1,.31a18.86,18.86,0,0,0,4,1c5.79.55,11.76,1.13,17.49,3.8,1.44.67,2.9,1.33,4.32,2l.14.06a100.92,100.92,0,0,1,15.38,8,33.2,33.2,0,0,0,3.41,2c1,.54,2.11,1.1,3.14,1.75a3.85,3.85,0,0,0,2,.77,19.67,19.67,0,0,1,2.61.28,8.9,8.9,0,0,1,1,.24c.63.17,1.42.39,1.73.14,1.74-1.42,3.45-1.13,5.11-.85h0c.35.06.71.12,1.06.16s.65.09,1,.14a6.85,6.85,0,0,0,2.66.06h0a.42.42,0,0,1,.08-.12L491.57,468a3.67,3.67,0,0,1-.74-2.21,3.71,3.71,0,0,1,2-3.26Zm-7.29,2.15Zm72.08,17.54a10,10,0,0,0-1.57,2.44l-.09.18a1.58,1.58,0,0,1-1.36.91h-.22a1.22,1.22,0,0,1-1-1.06,2.61,2.61,0,0,0-.79-1.37,4.47,4.47,0,0,1-.69-.9c-.91-1.7-2.42-1.77-3.78-1.61a6.06,6.06,0,0,1-1.12,0,6.42,6.42,0,0,1-3.2-1.14l0,0c-.72-.45-1.5-.86-2.36-1.31l-.3-.15c-.52-.27-.83-.31-1.11-.14a6.66,6.66,0,0,1-1.33.57,2.83,2.83,0,0,0-1.9,1.3,1.56,1.56,0,0,1-1.49.71l-.48,0c-.53,0-.57.08-.62.23-.21.66-.18,1,.12,1.25,1.15.87.5,1.76.15,2.24-.55.75-.82,1.18-.53,2.05.47,1.38.69,2.13.28,2.68a1.13,1.13,0,0,1-.37.3l-.12.05a2.31,2.31,0,0,1-.47.11h-.09c-.23,0-.46,0-.74,0h-.11l-1.08,0a2.64,2.64,0,0,1-2.79-1.81,3,3,0,0,0-3-1.89,6.42,6.42,0,0,1-3.34-.41,3.41,3.41,0,0,1-2.55-2.38c-.06-.29-.12-.58-.17-.87-.25-1.38-.48-2.68-1.82-3.4a1.38,1.38,0,0,1-.59-1c-.1-1.06-.18-2.13-.24-3.18l-15.48,1.43a3.68,3.68,0,0,1-5.53,2.8l-9.89,11.09a4.68,4.68,0,0,1,.67.21,25.88,25.88,0,0,0,7.13,1.22c.84.06,1.53.11,2.25.19a.74.74,0,0,0,.36-.05,4.28,4.28,0,0,1,2.25-.57,11,11,0,0,1,1.85.19c.76.12,1.53.23,2.38.34,1.25.17,2.53.34,3.81.6a20.6,20.6,0,0,1,8.39,3.19,4.85,4.85,0,0,0,2.44,1,1.91,1.91,0,0,1,1.86,1.25c.51,1.29,1.52,2,3.36,2.26a23.82,23.82,0,0,1,9,3.23,8.22,8.22,0,0,0,4.22,1h.32a33.58,33.58,0,0,1,9,1.12c1,.31,2,.67,2.91,1l.09,0c3.06,1.12,5.94,2.18,9.22,1.91a3.37,3.37,0,0,0,2-.59,6.48,6.48,0,0,1,4.27-1.88l1.47.08.27,0a45.07,45.07,0,0,0,5.58.13c.65,0,1.31,0,2,0,1.83,0,3.56.05,5.09-1l-13.37-18.37a4.53,4.53,0,0,1-.26.4,1.64,1.64,0,0,0-.15.43c-.12.41-.25.85-.68,1a.92.92,0,0,1-.82-.08,2.72,2.72,0,0,1-1.39-3,3.48,3.48,0,0,1,.35-.78l.07-.12a2.17,2.17,0,0,0,.12-.26l-.3-.06a4.93,4.93,0,0,1-3.49-1.89,1.46,1.46,0,0,0-.16-.17A1.71,1.71,0,0,0,554.62,472.3Zm.25-.33ZM590,480a3.75,3.75,0,0,0,.36-.24l0,0s0,0,0,0l.19-.16,0-.06,0,0a.6.6,0,0,0,.09-.15l0-.11a.13.13,0,0,0,0-.06,4.33,4.33,0,0,1-1.88-2.68c-.14-.83-.31-1.29-.53-1.41s-.51-.1-1.39.28a1.78,1.78,0,0,1-1.42.12,1.67,1.67,0,0,1-.81-1.11,1.88,1.88,0,0,0-.15-.38,1.37,1.37,0,0,1-.16-1.23,1.75,1.75,0,0,1,1.35-.83c.39-.1.49-.21.49-.22a.94.94,0,0,1,.56-.33,2,2,0,0,1,.47,0,2,2,0,0,0-.77-1.38,4.22,4.22,0,0,0-1.53-.48l-.31-.06a9.71,9.71,0,0,0-1-.13h0a5.51,5.51,0,0,1-2.56-.66.87.87,0,0,0-.56-.18c-.06,0-.18.22-.21.69a6.56,6.56,0,0,1-.59,2.86c-.21.39-.2.54-.18.58s.12.19.57.41a2.39,2.39,0,0,1,1.28,1.87,1.52,1.52,0,0,1-.52,1.42,6.81,6.81,0,0,0-.62.59l-.06.06a3.4,3.4,0,0,1-2.38,1.37h-.12a2.78,2.78,0,0,1-1.18-.35,3,3,0,0,1-1.94,1.19h-.08a2,2,0,0,1-1.35-.56,3.19,3.19,0,0,1-2.28.16,1.92,1.92,0,0,1-1.14-1,3.89,3.89,0,0,0-1.09-1.29l0-.08h0l-.05.06a6.12,6.12,0,0,1-.85-.84.81.81,0,0,1-.08-.91,5.16,5.16,0,0,0,.14-.59l-.51.15a3.87,3.87,0,0,1-4.1-.56c-.21-.17-.35-.22-.41-.19s-.19.14-.28.51-.2.74-.3,1.07l14,19.25h0l.11,0c.34-.16.68-.3,1-.44,1.42-.59,2.75-1.14,3.42-2.58a1.16,1.16,0,0,1,.84-.65,9.8,9.8,0,0,0,3.61-1.43,10.65,10.65,0,0,1,1.67-.74,6.42,6.42,0,0,0,2-1l-.19-.85c-.19-.87-.39-1.75-.52-2.64a3.44,3.44,0,0,1,1.47-3.74Zm-73.79-17,.21,0a1.21,1.21,0,0,0-.89-.8c-.48-.17-.95-.38-1.38-.56l-.1-.05a3.9,3.9,0,0,1-2.16-2.36,2.94,2.94,0,0,1,.25-2.47,2.38,2.38,0,0,0,.32-1.77,4.62,4.62,0,0,1-.88-.39c-.63-.34-1-.53-1.59-.25a7.51,7.51,0,0,1-4.13.67l-8.26,8.67a3.48,3.48,0,0,1,.48,1l16.25-1.51a2.73,2.73,0,0,1,.83-.3A1.52,1.52,0,0,1,516.22,463Zm-24.78-12.42a4.69,4.69,0,0,1-.38.86l3.18,10.64h0l.27,0a3.78,3.78,0,0,1,2,.56l7.68-8.06a44.42,44.42,0,0,0-6.14-1.48l-.19,0c-.62-.12-1.24-.23-1.85-.36a1.5,1.5,0,0,1-1.27-1.1c-.13-.72-.41-.91-1.22-.79a1.53,1.53,0,0,1-1.38-.47c-.23-.25-.38-.31-.41-.31S491.57,450.14,491.44,450.56Z"/><path class="cls-21" d="M559.63,475a2.12,2.12,0,0,0,.27-.69l1,1.35a4,4,0,0,1-.41.7,2.19,2.19,0,0,0-.33.78l0,.08a1,1,0,0,1-.05.16,1.65,1.65,0,0,1-.74-1.74,2.39,2.39,0,0,1,.26-.54Zm31.81-54.83a5.81,5.81,0,0,1,1.57,1.2l22.2,2.38c.11-.1.23-.19.35-.28a2.66,2.66,0,0,0,1.14-1.79,4.3,4.3,0,0,0,0-.82v-.25a2,2,0,0,0-.07-.61.83.83,0,0,0-.45,0,1,1,0,0,1-.84-1.67l.3-.39,0,0,.07-.1.11-.15s0,0,0,0l0,0,0,0a.3.3,0,0,0,.06-.11,0,0,0,0,1,0,0v-.07s0,0,0-.07,0,0,0,0l0-.06a.42.42,0,0,0,0-.06l0-.05-.05-.08,0-.06-.14-.14,0,0-.08-.07-.31-.28-1-.46c-.94-.43-1.78-.81-2.62-1.21a1.35,1.35,0,0,0-2,.44,2.2,2.2,0,0,1-3.17.74,2.36,2.36,0,0,0-1.7-.15,13.57,13.57,0,0,1-3.41.16,16.47,16.47,0,0,0-2.33,0c-1.22.1-2-.63-2.43-2.17a2.31,2.31,0,0,1-.06-.52v-.07c-1.65,0-1.77-1.44-1.82-2.12a3.29,3.29,0,0,0-.09-.61c-.28-.84-.53-1.06-1.21-1.06h-.07a3.57,3.57,0,0,1-.72-.1,3.52,3.52,0,0,0-.41-.07,3.59,3.59,0,0,0-1.39,0,3.66,3.66,0,0,0-.2,1.25,9.16,9.16,0,0,1-.59,2.51c-.08.24-.17.47-.26.71s-.12.33-.17.5-.07.19-.1.29a9.49,9.49,0,0,0-.41,1.53h0V416l-.07.25.09.14-.12,0-.06.65,0,0C588.94,418.52,590.07,419.33,591.44,420.15Zm-42.13,37-2.51-11.73a4.61,4.61,0,0,1-1.65.52h-.31a9.67,9.67,0,0,1-3.34-.78l0,0a13.47,13.47,0,0,0-1.94-.6c-1.47-.3-2.21.33-3.27,1.4a6.41,6.41,0,0,0-1.34,2.41,8.2,8.2,0,0,1-1.34,2.5c-.18.2-.13.57.15,1.2a14.13,14.13,0,0,0,.76,1.45,1.37,1.37,0,0,1-.17,1.95,1.39,1.39,0,0,1-2,0c-.82-.85-1.65-.88-2.94-.11l-.31.17-.08,0-.05,0-.35.15-.16,0h0a1.77,1.77,0,0,1-.38.09l-.22,0h-.13a1.18,1.18,0,0,1-.43-.07,1,1,0,0,1-.67-.62,3.93,3.93,0,0,0-.29-.52l0,0a2.75,2.75,0,0,1-.55-2.29c.15-.56.26-1.14.37-1.7a10.77,10.77,0,0,1,1.39-4.12c-.61-1.72.34-2.87,1.37-3.76a.33.33,0,0,0-.23-.23,10.2,10.2,0,0,1-3-1.67,10.19,10.19,0,0,0-2.51-1.46,1.53,1.53,0,0,1-1-1.35L506.85,454a6.24,6.24,0,0,0,2.67-.6,2.2,2.2,0,0,1,1-.25,3.25,3.25,0,0,1,1.57.51,3.86,3.86,0,0,0,.7.32,1,1,0,0,1,.68.64,3.43,3.43,0,0,1-.4,2.7,1.9,1.9,0,0,0-.15,1.59,2.85,2.85,0,0,0,1.57,1.71l.13.06c.41.18.84.36,1.27.51a2.19,2.19,0,0,1,1.59,1.72l29.65-2.75A3.73,3.73,0,0,1,549.31,457.12Zm-72.94-4.8a5.55,5.55,0,0,1,.81.46c1.64,1.2,3.41,1.1,5.28,1l.9,0h.06a3.58,3.58,0,0,1,2.07.77,1.43,1.43,0,0,0,1.15.36c.22-.09.4-.44.5-1a2.55,2.55,0,0,1,1.74-2,2.91,2.91,0,0,0,.63-.33l-4.59-15.36-9.06,3a4.17,4.17,0,0,1,2.93,3.06,1.69,1.69,0,0,0,.26.46,1.72,1.72,0,0,1,.3,1.83l0,0c.39.18.92.47,1,1s-.36,1.06-.82,1.5a5.48,5.48,0,0,1-1.86,1.1,3.87,3.87,0,0,0-1.75,1.12,3.19,3.19,0,0,1-.36.38l-.15.15.15.14a1,1,0,0,1,.26,1.15c-.22.45-.21.65-.18.73S476.05,452.17,476.37,452.32ZM504,423.78l.14-.28a4.56,4.56,0,0,0,.32-.67c.26-.71.21-1,.13-1.16s-.34-.33-1.1-.43l-.15,0a6.29,6.29,0,0,0-1-.08,1.13,1.13,0,0,1-1.12-.4,1.2,1.2,0,0,1,.15-1.21,3.29,3.29,0,0,0,.26-.6l0-.12s0-.06,0-.08a4.47,4.47,0,0,0,.09-.45,1.34,1.34,0,0,0,0-.2v-.51l0-.29a.69.69,0,0,0,0-.13h0a1.7,1.7,0,0,1-.51-.05h0l-.15,0-.47-.17c-.15-.06-.3-.12-.44-.16a15.34,15.34,0,0,1-1.84-.64,6.2,6.2,0,0,0-4-.63,21,21,0,0,1-4.32.64h-.06c-.58,0-1.18.09-1.76.16l-.34,0a1.81,1.81,0,0,1,.72,1.15,2.08,2.08,0,0,1-.63,1.6l.09.1c.54.56.89.93,1.52,1a2.33,2.33,0,0,1,1.57,1,2.85,2.85,0,0,1,.7,2c-.26,1.41-1.47,1.46-2.19,1.49h-.21l-1,.05h-.1a20.2,20.2,0,0,0-2.7.22,9.88,9.88,0,0,0-2.2.59l2.61,8.74,18.9-6.29a2.16,2.16,0,0,0-.51-1.52A2,2,0,0,1,504,423.78Zm-23.21,4.6a3,3,0,0,1-2.52,2.16h-.09c-.73,0-1.68-.41-2-2.35a1.71,1.71,0,0,0-.52-1.16,5.7,5.7,0,0,1-1.95-2.93c-.25-.71-.55-1.42-.84-2.1l0-.07c-.21-.49-.43-1-.63-1.51l-.15-.36c-.54-1.34-1.1-2.72-.44-4.39a1.08,1.08,0,0,0,0-.55,1.24,1.24,0,0,0-.19-.54c-.07-.11-.15-.18-.22-.18a4.75,4.75,0,0,1-2.88-1.17h0c-.21-.15-.42-.3-.64-.44-.47-.29-.67-.34-.71-.32s-.16.13-.29.53a3.81,3.81,0,0,1-.57,1,3.37,3.37,0,0,0-.44.7,1.77,1.77,0,0,1-1.19,1,1.3,1.3,0,0,1-1.19-.4.88.88,0,0,0-.29-.21c-.27-.13-.53-.07-1.07.11l-.17.06a9.84,9.84,0,0,0-2.47,1.24l-.35.23-.3-.28a1.12,1.12,0,0,1-.23-1.57c.53-.72.27-1.47-.09-2.31l-.22-.48a6.34,6.34,0,0,1-.79-4l-.1-.12,0,0a2.11,2.11,0,0,1-.55-2,2.15,2.15,0,0,1,1.48-1.43,1.45,1.45,0,0,0,.9-.79,2.2,2.2,0,0,0,0-1.76,2,2,0,0,0-1.07-.92,3.17,3.17,0,0,1-1.22-1c-.4-.6-.5-.6-1-.31-.74.44-.9.73-.71,1.27a3.56,3.56,0,0,1-.14,2.62,2,2,0,0,0,.43,2.33,2.75,2.75,0,0,1,.13,2.95,2,2,0,0,1-2.07,1.1h-.22a5.32,5.32,0,0,1-2.34-.51l-.07,0a3.54,3.54,0,0,0-2.61-.34,1.89,1.89,0,0,1-.56.08h-.1a1.24,1.24,0,0,1,.18.25c.48.82.71,1.43.42,1.94s-1,.62-1.91.62a5.23,5.23,0,0,1-.85-.09l-.13,0h0a1.51,1.51,0,0,1-1.39.23c-1.3-.52-1.79.22-2.45,1.48a1.77,1.77,0,0,0-.15.31l0,.06a2.72,2.72,0,0,1-.77,1.14c-.72.54-.76,1-.13,1.92l.12.18a4.8,4.8,0,0,1,.51.88c.12.32.26.61.42,1,.63,1.39,1.28,2.82.51,4.73-.17.41-.36.81-.54,1.2a8.77,8.77,0,0,0-1,2.75,2.21,2.21,0,0,1-.73,1.63l-.05,0,.11.11a1.66,1.66,0,0,1,.11,1.66c-.1.27-.18.56-.25.83v.05a3.83,3.83,0,0,1-2.14,3,.26.26,0,0,0-.17.27,1.15,1.15,0,0,0,.8.89c1.1.39,2.27.78,3.49,1.14.56.17,1.25.37,1.4,1.25a1.48,1.48,0,0,1-1,1.86c-.11,0-.21.07-.14.44,0,.16,0,.19.56.23A22.17,22.17,0,0,0,446,441h.06c.6-.07,1.22-.14,1.83-.18H448l.42,0a1.23,1.23,0,0,1,.86.27,1.39,1.39,0,0,1,.43,1.05v0L450,442a12.28,12.28,0,0,1,6.91-1.48c1,.07,1.13,0,1.25-.46a1.58,1.58,0,0,1,.71-1,1.75,1.75,0,0,1,1.37-.07,2.39,2.39,0,0,0,1.15-.06l.44-.09h.06a1.5,1.5,0,0,1,.14-1.46,1.66,1.66,0,0,1,1.53-.45,38.65,38.65,0,0,0,4.16.15c1,0,2.09,0,3.14.06a4.55,4.55,0,0,1,3.06,1.12l10.53-3.51-2.51-8.4A4.17,4.17,0,0,0,480.74,428.38Zm15.06,23c0,.06.16.19.42.24.67.14,1.34.26,2,.39a39.16,39.16,0,0,1,6.77,1.68l17-17.88a18.28,18.28,0,0,0-.92-4.08c-.14-.49-.3-1-.44-1.51s-.26-.59-.45-.58a3.37,3.37,0,0,1-2.76-1.24,10.79,10.79,0,0,0-2-1.43,1.79,1.79,0,0,0-2.09.12c-.59.43-1.15.92-1.7,1.41l-.23.2a1.14,1.14,0,0,0-.44.7c0,.2.15.41.43.64a3.09,3.09,0,0,1,.29.27,1.77,1.77,0,0,1,.57,1.74,12.45,12.45,0,0,0-.23,3.19v.12c0,.41,0,.84,0,1.25v.16c0,.81-.28,1.23-.93,1.27a1,1,0,0,1-.79-.29,1.48,1.48,0,0,1-.33-1.12c.05-.86-.31-1.32-1.27-1.61a1.46,1.46,0,0,1-.93-.57,1.28,1.28,0,0,0-.72-.7,1.56,1.56,0,0,0-1.14.31,1.77,1.77,0,0,1-1.07.13c-.2,0-.43,0-.7,0h-1.75l1.45-1c.43-.29.68-.56.72-.79s-.2-.63-.49-1l-.12-.17a1.5,1.5,0,0,0-.25-.21,1.43,1.43,0,0,1-.64-.86l-16.78,5.59,4.22,14.12a1.38,1.38,0,0,1,.93-.88,1.49,1.49,0,0,1,1.42.64c.05.06.15.16.44.13a3.2,3.2,0,0,1,.52,0A1.81,1.81,0,0,1,495.8,451.37Zm118.4-26.22-20.58-2.21a4.32,4.32,0,0,1,0,.88c-.08.53-.11,1.05-.14,1.61v.06a11.1,11.1,0,0,1-.53,3.31c-.91,2.51-3,2.95-4.57,3.06h-.18a2.83,2.83,0,0,0-2.27.82,1.66,1.66,0,0,1-1.74.58c-1-.3-1.48.13-2.32.93l-.33.32c-.23.2-.45.42-.66.62l0,0a8.49,8.49,0,0,1-3.16,2.23,2.57,2.57,0,0,1-3.37-1.11,4.83,4.83,0,0,1-.37-.72c-.27-.61-.4-.81-.7-.83a4.22,4.22,0,0,0-2.09.53l-.17.07c-.29.12-.59.25-.89.36l-.11.06s0,0,0,0a1.76,1.76,0,0,1,.64,1.21,2.52,2.52,0,0,1,0,.61c0,.2-.07.39-.11.55a1.61,1.61,0,0,0,0,1.19l.17.26-.14.37c-.3.52-1.3.46-1.33.46a3.91,3.91,0,0,0-.43,0,.54.54,0,0,0-.25.13,1.39,1.39,0,0,0-.25.93c0,.61-.08,1.21-.15,1.83s-.11,1.05-.14,1.57a2,2,0,0,1-.08.51,1.24,1.24,0,0,1-.56.8l-.08,0h0a1.36,1.36,0,0,1-1.25-.12,2.75,2.75,0,0,0-3.15.38c-.32.22-1.15.56-1.58.17a6.14,6.14,0,0,0-1.42-.85,4.46,4.46,0,0,1-2.56-2.29c-.54-1.35-1.19-2.69-1.81-4l-.2-.43c-.24-.5-.48-1-.71-1.49l-.08-.18a.82.82,0,0,0-.11-.23s-.18,0-.26.27a7,7,0,0,1-.66,1.47,4.11,4.11,0,0,0-.67,1.93,1.4,1.4,0,0,1-.5,1.19,1.73,1.73,0,0,1-1.59.1c-.35-.11-1.3-.39-1.59-.21s-.39,1.09-.44,1.44a1.83,1.83,0,0,1-.51,1l2.65,12.38.23,0h.32a3.78,3.78,0,0,1,1.68.69l0,.05,0,0a4.42,4.42,0,0,1,.44.41l0,0,0,0h0l0,0,0,0h0v0a3.61,3.61,0,0,1,.47.68l52.39-14.69c.45-.69.9-1.38,1.32-2v0a6.36,6.36,0,0,0,.93-1.74,6.91,6.91,0,0,0-1.88-.7c-1.51-.45-2.27-.68-2.6-1.31s-.09-1.33.37-2.74,1.18-2.76,3.29-2.76h.24c.49,0,1,0,1.23-.28a1,1,0,0,0,.08-.85,1,1,0,0,1,.51-1c.37-.29,1.14-.89,1.15-1.09s-.72-.86-1.11-1.21l-.12-.1c-.25-.21-.63-.52-.59-1a.78.78,0,0,1,.43-.63,6.16,6.16,0,0,0,.74-.51,3.91,3.91,0,0,1,2-1,2.48,2.48,0,0,1,.85.06C613.78,425.37,614,425.35,614.2,425.15Zm-5.83,28.64c.32-.61.62-1.19.47-1.63,0-.12-.13-.17-.84-.14a3.52,3.52,0,0,1-1.11-.06h-.17a1.66,1.66,0,0,1-.32,0,2.06,2.06,0,0,0-.34,0h0a1.28,1.28,0,0,1-1.36-.56,1.38,1.38,0,0,1,.42-1.66,2.09,2.09,0,0,0,.21-.23c.66-.92.67-1.12.1-1.54a1.24,1.24,0,0,1-.2-1.9l-50.69,14.22v0a1.49,1.49,0,0,1,0,.21,3.68,3.68,0,0,1-1,2.49l7.92,10.87v0l.06-.22a1.61,1.61,0,0,1,1-1.27,1.48,1.48,0,0,1,1.43.41,2.79,2.79,0,0,0,3.07.35c.72-.23,1.29-.38,1.68,0s.28,1,.08,1.68a.88.88,0,0,1,0,.15,7.08,7.08,0,0,0,.63.59,4.86,4.86,0,0,1,1.37,1.67.84.84,0,0,0,.52.42,2,2,0,0,0,1.56-.16.79.79,0,0,1,.89,0,1.31,1.31,0,0,0,.86.47h0c.41,0,.87-.48,1.22-.89a1.07,1.07,0,0,1,1.2-.2c1.08.57,1.59.12,2.47-.79a7.53,7.53,0,0,1,.78-.74.58.58,0,0,0,.13-.48,1.36,1.36,0,0,0-.7-1,2,2,0,0,1-1.12-1.05,1.8,1.8,0,0,1,.27-1.41,5.47,5.47,0,0,0,.46-2.4,1.7,1.7,0,0,1,.78-1.58,1.57,1.57,0,0,1,1.62.21,4.53,4.53,0,0,0,2.08.5,10.63,10.63,0,0,1,1.2.15l.3.06a5,5,0,0,1,1.9.63,3.26,3.26,0,0,1,1.3,2.28.92.92,0,0,1-.15.78,1,1,0,0,1-.8.29h-.11a.92.92,0,0,0-.27,0,1.85,1.85,0,0,1-1,.54,2,2,0,0,0-.66.22.83.83,0,0,0,.11.29,4.53,4.53,0,0,1,.23.55v0c0,.15.14.42.21.45s.14.05.56-.13a4.21,4.21,0,0,1,1.58-.41,1.55,1.55,0,0,1,.76.18,2.84,2.84,0,0,1,1.07,2.17,3.39,3.39,0,0,0,1.51,2l0,0a.48.48,0,0,0,.19-.05h.07a2.56,2.56,0,0,0,.41-.27l.39-.27.11-.06c1.52-.95,3.09-1.92,5.27-.91.75.34,1.53,0,2-1,.06-.14.12-.28.18-.44l.05-.12a2.78,2.78,0,0,1,1.24-1.72,5.86,5.86,0,0,0,2.76-3.32l.12-.3a2.08,2.08,0,0,1,1.9-1.66,1.39,1.39,0,0,0,1.24-.56,1.6,1.6,0,0,0-.17-1.51l-.33-.59a9,9,0,0,1-.8-1.65c0-.11-.09-.22-.13-.34a2.24,2.24,0,0,1-.19-1.72,1.71,1.71,0,0,1,1-.89,3.38,3.38,0,0,1-.55-1c-.22-.56-.37-.87-.83-1a3.51,3.51,0,0,1-1.47-1.34l-.06-.08c-.14-.18-.28-.36-.42-.52l-.42-.45.83-.59a5.61,5.61,0,0,1,1.9-1,9.52,9.52,0,0,1,1.64-.25h.12c.34,0,.35,0,.38-.1.1-.24.23-.49.35-.73ZM549.85,472a3.88,3.88,0,0,0,.55.7,3.61,3.61,0,0,1,1.06,1.92c0,.14.08.16.1.16h0a.57.57,0,0,0,.43-.33l.09-.18a10.94,10.94,0,0,1,1.75-2.69,1.45,1.45,0,0,1,1-.57h.06a1.33,1.33,0,0,1,.95.63,3.92,3.92,0,0,0,2.79,1.46,2.47,2.47,0,0,1,.41.09l-6.75-9.26a3.59,3.59,0,0,1-1.53.34,3.74,3.74,0,0,1-3.54-2.63l-29.91,2.78a0,0,0,0,1,0,0l-.28.89-.74-.83-1.56.15c.06,1,.15,2.1.25,3.17a.46.46,0,0,0,.08.21c1.74,1,2,2.64,2.32,4.13.05.28.1.56.16.83.2.91.93,1.25,1.88,1.6a5.28,5.28,0,0,0,2.77.37,3,3,0,0,1,.52-.05h0l.22,0h.06a2.27,2.27,0,0,1,.35.05l.28.07.32.1.28.13.29.14.27.17a2.61,2.61,0,0,1,.27.19,2.54,2.54,0,0,1,.24.2,3,3,0,0,1,.25.25l0,0a1.14,1.14,0,0,1,.15.17,3.3,3.3,0,0,1,.22.3l0,0a.35.35,0,0,0,.05.08l.08.12a4.26,4.26,0,0,1,.27.58c.27.79.7,1,1.81,1.09a8.49,8.49,0,0,0,2.09-.05,5,5,0,0,0-.44-1.69,2.9,2.9,0,0,1-.18-1,3.21,3.21,0,0,1,.82-2,1.8,1.8,0,0,0,.33-.54c0-.07,0-.13-.22-.26a2.08,2.08,0,0,1-.5-2.43,1.53,1.53,0,0,1,1.57-1l.21,0,.28,0c.21,0,.54,0,.59-.12a3.8,3.8,0,0,1,2.51-1.83,6.4,6.4,0,0,0,1.12-.48,2.19,2.19,0,0,1,2.16.1l.3.16c.82.43,1.67.87,2.48,1.38a5.23,5.23,0,0,0,3.63.94C546.51,469.65,548.63,469.69,549.85,472Z"/></svg>